<?xml version="1.0" encoding="UTF-8" standalone="no"?>
<svg
   xmlns:dc="http://purl.org/dc/elements/1.1/"
   xmlns:cc="http://creativecommons.org/ns#"
   xmlns:rdf="http://www.w3.org/1999/02/22-rdf-syntax-ns#"
   xmlns:svg="http://www.w3.org/2000/svg"
   xmlns="http://www.w3.org/2000/svg"
   width="105.36338mm"
   height="105.36373mm"
   viewBox="0 0 105.36338 105.36373"
   version="1.1"
   id="svg8">
  <defs
     id="defs2" />
  <metadata
     id="metadata5">
    <rdf:RDF>
      <cc:Work
         rdf:about="">
        <dc:format>image/svg+xml</dc:format>
        <dc:type
           rdf:resource="http://purl.org/dc/dcmitype/StillImage" />
        <dc:title></dc:title>
      </cc:Work>
    </rdf:RDF>
  </metadata>
  <g
     id="layer1"
     transform="translate(11.90834,-47.10929)">
    <path
       id="rect4"
       d="m 7.93566,47.10929 h 65.672 c 10.99357,0 19.844,8.85042 19.844,19.844 v 65.672 c 0,10.99357 -8.85043,19.844 -19.844,19.844 h -65.672 c -10.99358,0 -19.844,-8.85043 -19.844,-19.844 v -65.672 c 0,-10.99358 8.85042,-19.844 19.844,-19.844 z"
       style="opacity:1;fill:#364678;fill-opacity:1;stop-opacity:1" />
    <path
       style="opacity:1;stop-opacity:1"
       d="m 40.77165,61.15928 c -5.8632,0 -10.583,4.7202 -10.583,10.583 v 17.462 h -17.462 c -5.8632,0 -10.583,4.7202 -10.583,10.583 0,5.8632 4.7202,10.583 10.583,10.583 h 17.462 v 17.462 c 0,5.8632 4.7202,10.583 10.583,10.583 5.8628,0 10.583,-4.7202 10.583,-10.583 v -17.462 h 17.462 c 5.8632,0 10.583,-4.7202 10.583,-10.583 0,-5.8632 -4.7202,-10.583 -10.583,-10.583 h -17.462 v -17.462 c 0,-5.8632 -4.7202,-10.583 -10.583,-10.583 z"
       id="path12"
       fill-opacity=".97753"
       fill="#fff" />
  </g>
</svg>
