<?xml version="1.0" encoding="UTF-8" standalone="no"?>
<svg
   xmlns:dc="http://purl.org/dc/elements/1.1/"
   xmlns:cc="http://creativecommons.org/ns#"
   xmlns:rdf="http://www.w3.org/1999/02/22-rdf-syntax-ns#"
   xmlns:svg="http://www.w3.org/2000/svg"
   xmlns="http://www.w3.org/2000/svg"
   xmlns:sodipodi="http://sodipodi.sourceforge.net/DTD/sodipodi-0.dtd"
   xmlns:inkscape="http://www.inkscape.org/namespaces/inkscape"
   inkscape:version="1.0alpha (9dee831, 2019-01-15)"
   sodipodi:docname="avancar.svg"
   id="svg16"
   viewBox="0 0 105.36 105.36"
   version="1.1"
   height="105.36mm"
   width="105.36mm">
  <sodipodi:namedview
     inkscape:current-layer="svg16"
     inkscape:window-maximized="1"
     inkscape:window-y="27"
     inkscape:window-x="67"
     inkscape:cy="199.10551"
     inkscape:cx="199.10551"
     inkscape:zoom="1.7553507"
     showgrid="false"
     id="namedview1387"
     inkscape:window-height="995"
     inkscape:window-width="1613"
     inkscape:pageshadow="2"
     inkscape:pageopacity="0"
     guidetolerance="10"
     gridtolerance="10"
     objecttolerance="10"
     borderopacity="1"
     inkscape:document-rotation="0"
     bordercolor="#666666"
     pagecolor="#ffffff" />
  <defs
     id="defs20" />
  <metadata
     id="metadata2">
    <rdf:RDF>
      <cc:Work
         rdf:about="">
        <dc:format>image/svg+xml</dc:format>
        <dc:type
           rdf:resource="http://purl.org/dc/dcmitype/StillImage" />
        <dc:title />
      </cc:Work>
    </rdf:RDF>
  </metadata>
  <rect
     x="-2.8421709e-14"
     y="0"
     width="105.36"
     height="105.36"
     rx="19.844"
     id="rect4"
     style="fill:#364678;fill-opacity:1;stroke-width:1" />
  <path
     style="fill:#000000;fill-opacity:0.15686275;stroke:none;stroke-width:0.99999994px;stroke-linecap:butt;stroke-linejoin:miter;stroke-opacity:1"
     d="M 241.82227 131.33203 L 116.80273 335.52539 L 179.48828 398.21094 L 323.21094 398.21094 C 364.76146 398.21094 398.21094 364.76146 398.21094 323.21094 L 398.21094 287.7207 L 241.82227 131.33203 z "
     transform="scale(0.26458333)"
     id="path13" />
  <path
     id="rect27"
     d="m 30.90409,16.585452 c -4.13148,4.13149 -4.7967,10.11841 -1.49152,13.42359 l 22.67096,22.67096 -22.67096,22.67095 c -3.30518,3.30519 -2.63997,9.2921 1.49152,13.42359 4.13149,4.13149 10.1184,4.7967 13.42359,1.49151 l 30.12851,-30.1285 1.49149,-1.49151 c 1.55295,-1.55295 2.22892,-3.69791 2.08114,-5.96429 0.14862,-2.26757 -0.52744,-4.41411 -2.08114,-5.96779 l -1.49149,-1.49151 -30.12851,-30.12851 c -3.30519,-3.30518 -9.2921,-2.63997 -13.42359,1.49151 z"
     style="opacity:1;fill:#ffffff;fill-opacity:0.98039216;stroke:none;stroke-width:15.88945198;stroke-miterlimit:4;stroke-dasharray:none;stroke-opacity:1" />
</svg>
