<?xml version="1.0" encoding="UTF-8" standalone="no"?>
<svg
   xmlns:dc="http://purl.org/dc/elements/1.1/"
   xmlns:cc="http://creativecommons.org/ns#"
   xmlns:rdf="http://www.w3.org/1999/02/22-rdf-syntax-ns#"
   xmlns:svg="http://www.w3.org/2000/svg"
   xmlns="http://www.w3.org/2000/svg"
   xmlns:sodipodi="http://sodipodi.sourceforge.net/DTD/sodipodi-0.dtd"
   xmlns:inkscape="http://www.inkscape.org/namespaces/inkscape"
   inkscape:version="1.0alpha (9dee831, 2019-01-15)"
   sodipodi:docname="excluir.svg"
   width="105.36009mm"
   height="105.36018mm"
   viewBox="0 0 105.36009 105.36018"
   version="1.1"
   id="svg8">
  <sodipodi:namedview
     inkscape:current-layer="svg8"
     inkscape:window-maximized="1"
     inkscape:window-y="27"
     inkscape:window-x="67"
     inkscape:cy="199.10586"
     inkscape:cx="199.10569"
     inkscape:zoom="1.7553476"
     showgrid="false"
     id="namedview1995"
     inkscape:window-height="995"
     inkscape:window-width="1613"
     inkscape:pageshadow="2"
     inkscape:pageopacity="0"
     guidetolerance="10"
     gridtolerance="10"
     objecttolerance="10"
     borderopacity="1"
     inkscape:document-rotation="0"
     bordercolor="#666666"
     pagecolor="#ffffff" />
  <defs
     id="defs2" />
  <metadata
     id="metadata5">
    <rdf:RDF>
      <cc:Work
         rdf:about="">
        <dc:format>image/svg+xml</dc:format>
        <dc:type
           rdf:resource="http://purl.org/dc/dcmitype/StillImage" />
        <dc:title />
      </cc:Work>
    </rdf:RDF>
  </metadata>
  <rect
     style="opacity:1;stop-opacity:1;fill:#364678;fill-opacity:1"
     fill="#0ff"
     fill-opacity=".97753"
     id="rect4"
     rx="19.844"
     height="105.36"
     width="105.36"
     y="-3.1550294e-06"
     x="-3.5607909e-06" />
  <path
     inkscape:connector-curvature="0"
     style="opacity:1;fill:#000000;fill-opacity:0.0980392;stroke:none;stroke-width:0.264583px;stroke-linecap:butt;stroke-linejoin:miter;stroke-opacity:1;stop-opacity:1"
     d="m 79.994193,25.3661 -54.62819,54.628189 25.365893,25.365891 h 34.783923 c 10.99357,0 19.844271,-8.850694 19.844271,-19.844264 V 50.731995 Z"
     id="path861" />
  <path
     inkscape:connector-curvature="0"
     style="opacity:1;stop-opacity:1"
     fill="#fff"
     fill-opacity=".97753"
     id="path12"
     d="m 79.99412,25.365876 c -4.14591,-4.145909 -10.82099,-4.145626 -14.96662,0 L 52.679997,37.713375 40.332498,25.365876 c -4.145908,-4.145909 -10.820996,-4.145626 -14.966622,0 -4.145909,4.145908 -4.145626,10.820996 0,14.966622 L 37.713375,52.679997 25.365876,65.027492 c -4.145909,4.14591 -4.145626,10.821 0,14.96662 4.145624,4.14563 10.820995,4.14563 14.966621,0 l 12.347498,-12.3475 12.347505,12.3475 c 4.14591,4.14591 10.821,4.14563 14.96662,0 4.14591,-4.14591 4.14563,-10.821 0,-14.96662 L 67.64662,52.679995 79.99412,40.332497 c 4.14591,-4.145909 4.14563,-10.820997 0,-14.966621 z" />
</svg>
