<?xml version="1.0" encoding="UTF-8" standalone="no"?>
<svg
   xmlns:dc="http://purl.org/dc/elements/1.1/"
   xmlns:cc="http://creativecommons.org/ns#"
   xmlns:rdf="http://www.w3.org/1999/02/22-rdf-syntax-ns#"
   xmlns:svg="http://www.w3.org/2000/svg"
   xmlns="http://www.w3.org/2000/svg"
   xmlns:sodipodi="http://sodipodi.sourceforge.net/DTD/sodipodi-0.dtd"
   xmlns:inkscape="http://www.inkscape.org/namespaces/inkscape"
   inkscape:version="1.0alpha (9dee831, 2019-01-15)"
   sodipodi:docname="pesquisar.svg"
   id="svg2626"
   viewBox="0 0 105.83 105.83"
   version="1.1"
   height="105.83mm"
   width="105.83mm">
  <defs
     id="defs2630" />
  <sodipodi:namedview
     inkscape:current-layer="svg2626"
     inkscape:window-maximized="1"
     inkscape:window-y="27"
     inkscape:window-x="67"
     inkscape:cy="199.9937"
     inkscape:cx="199.9937"
     inkscape:zoom="1.747555"
     showgrid="false"
     id="namedview2628"
     inkscape:window-height="995"
     inkscape:window-width="1613"
     inkscape:pageshadow="2"
     inkscape:pageopacity="0"
     guidetolerance="10"
     gridtolerance="10"
     objecttolerance="10"
     borderopacity="1"
     inkscape:document-rotation="0"
     bordercolor="#666666"
     pagecolor="#ffffff" />
  <metadata
     id="metadata2612">
    <rdf:RDF>
      <cc:Work
         rdf:about="">
        <dc:format>image/svg+xml</dc:format>
        <dc:type
           rdf:resource="http://purl.org/dc/dcmitype/StillImage" />
        <dc:title />
      </cc:Work>
    </rdf:RDF>
  </metadata>
  <rect
     x="3.6621093e-06"
     y="6.1035155e-07"
     width="105.83"
     height="105.83"
     rx="19.931999"
     fill="#0ff"
     fill-opacity=".98039"
     id="rect2614"
     style="opacity:1;stop-opacity:1;fill:#364678;fill-opacity:1" />
  <path
     d="m 80.14,25.69 -35.785,4.2138 -12.762,35.696 -11.965,20.602 19.623,19.623 h 46.654 c 11.043,0 19.932,-8.8899 19.932,-19.932 v -34.504 z"
     fill-opacity=".078431"
     id="path2616"
     inkscape:connector-curvature="0"
     style="opacity:1;stop-opacity:1" />
  <path
     d="m 80.14,25.69 -6.4687,42.175 -35.82,4.613 -18.223,13.724 19.623,19.623 h 46.654 c 11.043,0 19.932,-8.8899 19.932,-19.932 V 51.389 Z"
     fill-opacity=".078431"
     id="path2618"
     inkscape:connector-curvature="0"
     style="opacity:1;stop-opacity:1" />
  <path
     d="M 35.41,55.38 19.621,71.169 c -4.1644,4.1644 -4.1644,10.87 0,15.034 4.1644,4.1644 10.87,4.1644 15.034,0 L 50.427,70.431 A 23.601,23.601 0 0 1 41.1177,64.7062 23.601,23.601 0 0 1 35.4099,55.38 Z"
     fill="#fff"
     id="path2620"
     inkscape:connector-curvature="0"
     style="opacity:1;stop-opacity:1" />
  <path
     d="m 80.14,25.69 c -12.264,-12.264 -32.388,-12.264 -44.652,0 -12.264,12.264 -12.264,32.389 -2.6e-4,44.652 12.264,12.264 32.389,12.263 44.652,-2.6e-4 12.264,-12.264 12.264,-32.388 0,-44.652 z M 68.865,36.966 c 6.1698,6.1699 6.1698,15.931 0,22.101 -6.1698,6.1698 -15.931,6.1703 -22.101,2.7e-4 -6.1698,-6.1698 -6.1693,-15.931 2.6e-4,-22.101 6.1698,-6.1698 15.931,-6.1698 22.101,0 z"
     color="#000000"
     color-rendering="auto"
     dominant-baseline="auto"
     fill="#fff"
     image-rendering="auto"
     shape-rendering="auto"
     solid-color="#000000"
     style="font-variant-ligatures:normal;font-variant-position:normal;font-variant-caps:normal;font-variant-numeric:normal;font-variant-alternates:normal;font-feature-settings:normal;text-indent:0;text-decoration:none;text-decoration-line:none;text-decoration-style:solid;text-decoration-color:#000000;text-transform:none;text-orientation:mixed;white-space:normal;shape-padding:0;opacity:1;isolation:auto;mix-blend-mode:normal;stop-opacity:1"
     id="path2622"
     inkscape:connector-curvature="0" />
</svg>
