<?xml version="1.0" encoding="UTF-8" standalone="no"?>
<svg
   xmlns:dc="http://purl.org/dc/elements/1.1/"
   xmlns:cc="http://creativecommons.org/ns#"
   xmlns:rdf="http://www.w3.org/1999/02/22-rdf-syntax-ns#"
   xmlns:svg="http://www.w3.org/2000/svg"
   xmlns="http://www.w3.org/2000/svg"
   id="svg8"
   version="1.1"
   viewBox="0 0 105.36 105.36"
   height="105.36mm"
   width="105.36mm">
  <defs
     id="defs2" />
  <metadata
     id="metadata5">
    <rdf:RDF>
      <cc:Work
         rdf:about="">
        <dc:format>image/svg+xml</dc:format>
        <dc:type
           rdf:resource="http://purl.org/dc/dcmitype/StillImage" />
        <dc:title></dc:title>
      </cc:Work>
    </rdf:RDF>
  </metadata>
  <rect
     x="0"
     y="-1.4210855e-14"
     width="105.36"
     height="105.36"
     rx="19.844"
     id="rect4"
     style="opacity:1;fill:#364678;fill-opacity:1" />
  <path
     d="m 51.644301,14.42422 c -10.53708,-0.03257 -21.94241,5.39937 -26.03225,15.582519 -1.99154,4.720624 -0.33704,11.28737 5.00263,12.820384 5.16497,1.827222 11.66486,-0.976816 13.24262,-6.382219 1.35791,-3.827007 5.06416,-6.489815 9.19033,-5.815575 4.37367,-0.426617 8.52722,4.461469 5.60722,8.410874 -3.59504,4.827441 -9.66646,7.002009 -13.49639,11.64974 -4.16012,4.21414 -5.34422,11.855215 -0.5546,16.080348 4.90874,4.314962 14.06196,1.817632 15.49963,-4.737969 1.91743,-4.793161 7.43784,-6.252408 11.01914,-9.507098 5.72055,-4.160416 10.32809,-10.859629 9.35575,-18.235497 -0.69884,-8.206511 -6.95499,-15.128138 -14.69039,-17.545756 -4.51214,-1.669769 -9.3508,-2.300565 -14.14369,-2.319751 z m -0.51521,55.47465 c -5.99112,0 -11.10578,4.637289 -11.10578,10.517187 0,5.884299 5.11721,10.51977 11.10578,10.51977 5.99028,0 11.10113,-4.639392 11.10113,-10.51977 0,-5.883327 -5.11608,-10.517187 -11.10113,-10.517187 z"
     style="fill:#ffffff;stroke:none;stroke-width:5.23585081;stroke-miterlimit:4;stroke-dasharray:none"
     id="path814" />
  <g
     transform="matrix(1.9403945,0,0,1.9403945,22.795301,21.894526)"
     id="g818" />
  <g
     transform="matrix(1.9403945,0,0,1.9403945,22.795301,21.894526)"
     id="g820" />
  <g
     transform="matrix(1.9403945,0,0,1.9403945,22.795301,21.894526)"
     id="g822" />
  <g
     transform="matrix(1.9403945,0,0,1.9403945,22.795301,21.894526)"
     id="g824" />
  <g
     transform="matrix(1.9403945,0,0,1.9403945,22.795301,21.894526)"
     id="g826" />
  <g
     transform="matrix(1.9403945,0,0,1.9403945,22.795301,21.894526)"
     id="g828" />
  <g
     transform="matrix(1.9403945,0,0,1.9403945,22.795301,21.894526)"
     id="g830" />
  <g
     transform="matrix(1.9403945,0,0,1.9403945,22.795301,21.894526)"
     id="g832" />
  <g
     transform="matrix(1.9403945,0,0,1.9403945,22.795301,21.894526)"
     id="g834" />
  <g
     transform="matrix(1.9403945,0,0,1.9403945,22.795301,21.894526)"
     id="g836" />
  <g
     transform="matrix(1.9403945,0,0,1.9403945,22.795301,21.894526)"
     id="g838" />
  <g
     transform="matrix(1.9403945,0,0,1.9403945,22.795301,21.894526)"
     id="g840" />
  <g
     transform="matrix(1.9403945,0,0,1.9403945,22.795301,21.894526)"
     id="g842" />
  <g
     transform="matrix(1.9403945,0,0,1.9403945,22.795301,21.894526)"
     id="g844" />
  <g
     transform="matrix(1.9403945,0,0,1.9403945,22.795301,21.894526)"
     id="g846" />
</svg>
