<?xml version="1.0" encoding="UTF-8" standalone="no"?>
<!-- Created with Inkscape (http://www.inkscape.org/) -->

<svg
   xmlns:dc="http://purl.org/dc/elements/1.1/"
   xmlns:cc="http://creativecommons.org/ns#"
   xmlns:rdf="http://www.w3.org/1999/02/22-rdf-syntax-ns#"
   xmlns:svg="http://www.w3.org/2000/svg"
   xmlns="http://www.w3.org/2000/svg"
   xmlns:sodipodi="http://sodipodi.sourceforge.net/DTD/sodipodi-0.dtd"
   xmlns:inkscape="http://www.inkscape.org/namespaces/inkscape"
   version="1.1"
   id="svg850"
   width="2376.052"
   height="2328.1562"
   viewBox="0 0 2376.052 2328.1562"
   sodipodi:docname="borda.svg"
   inkscape:version="0.92.4 (33fec40, 2019-01-16)">
  <metadata
     id="metadata856">
    <rdf:RDF>
      <cc:Work
         rdf:about="">
        <dc:format>image/svg+xml</dc:format>
        <dc:type
           rdf:resource="http://purl.org/dc/dcmitype/StillImage" />
        <dc:title></dc:title>
      </cc:Work>
    </rdf:RDF>
  </metadata>
  <defs
     id="defs854" />
  <sodipodi:namedview
     pagecolor="#ffffff"
     bordercolor="#666666"
     borderopacity="1"
     objecttolerance="10"
     gridtolerance="10"
     guidetolerance="10"
     inkscape:pageopacity="0"
     inkscape:pageshadow="2"
     inkscape:window-width="1366"
     inkscape:window-height="712"
     id="namedview852"
     showgrid="false"
     inkscape:zoom="0.125"
     inkscape:cx="1369.6951"
     inkscape:cy="794.39977"
     inkscape:window-x="0"
     inkscape:window-y="0"
     inkscape:window-maximized="1"
     inkscape:current-layer="svg850"
     showborder="false" />
  <path
     inkscape:connector-curvature="0"
     id="path874"
     d="m 1112.3506,2515.9937 c -2.0043,-1.0174 -33.0888,-21.6598 -69.0765,-45.8722 -35.9878,-24.2124 -66.87862,-44.4373 -68.64642,-44.9442 -2.5268,-0.7247 -15.8761,1.6543 -62.42058,11.1241 -61.84648,12.5833 -62.24262,12.6319 -62.24262,7.6548 0,-1.0292 3.57629,-11.9986 7.94731,-24.3764 4.37101,-12.3777 7.67045,-22.7819 7.33209,-23.1202 -0.33836,-0.3384 -24.64784,0.582 -54.02106,2.0452 l -53.40584,2.6605 -2.72187,-2.5898 c -4.08505,-3.8868 -80.39005,-58.636 -81.76747,-58.6686 -0.65568,-0.016 -5.52389,10.8655 -10.81824,24.18 -10.08684,25.367 -12.21478,29.1466 -15.33596,27.2399 -0.9942,-0.6074 -18.10274,-19.5771 -38.01896,-42.1548 -19.91622,-22.5777 -38.22252,-43.276 -40.68066,-45.9961 l -4.46935,-4.9458 h -84.06336 -84.06334 l -1.91717,-4.4252 c -1.05444,-2.4338 -13.98451,-36.9891 -28.73351,-76.7896 -14.74899,-39.8004 -27.4317,-73.0344 -28.18378,-73.8533 -0.75209,-0.8188 -26.56789,-12.1091 -57.36846,-25.0895 -55.69789,-23.4727 -56.00103,-23.6169 -56.00103,-26.6238 0,-2.7738 1.73753,-4.1836 21.05147,-17.0798 11.57831,-7.731 21.05161,-14.5249 21.05179,-15.0976 1.8e-4,-0.5727 -19.71557,-12.9457 -43.81276,-27.4957 -30.31913,-18.3067 -44.36131,-27.3558 -45.59307,-29.3813 -0.97898,-1.6098 -8.48094,-24.1435 -16.67102,-50.0748 -8.19008,-25.9314 -15.25682,-47.5472 -15.70386,-48.0352 -0.44704,-0.4879 -11.61561,5.7581 -24.81904,13.8801 -24.891457,15.3119 -27.612867,16.367 -28.747647,11.1459 -0.27176,-1.2503 -2.38288,-27.3405 -4.6914,-57.9783 -2.30851,-30.6377 -4.54713,-57.217 -4.9747,-59.0651 -0.7026,-3.0368 -7.23868,-7.7996 -67.93574,-49.505 -49.16315,-33.7804 -67.24458,-46.7379 -67.48019,-48.3574 -0.17702,-1.2167 10.71758,-36.5707 24.21021,-78.5643 13.49263,-41.9936 24.5311697,-76.9942 24.5300897,-77.7792 -10e-4,-0.7848 -13.5898197,-24.0465 -30.1971997,-51.6925 -16.60737,-27.6461 -30.19523,-50.9231 -30.19523,-51.7269 0,-3.6844 2.04581,-3.9603 29.36226,-3.9603 19.09389,0 26.86334,-0.3364 26.86334,-1.1633 0,-0.6398 -8.43384,-21.6181 -18.74187,-46.6185 -10.30802,-25.0004 -18.74186,-46.1156 -18.74186,-46.9229 0,-0.8072 8.46864,-23.447 18.81921,-50.3106 10.35057,-26.8637 18.58691,-49.0754 18.30298,-49.3593 -0.28393,-0.2839 -13.00708,-1.115 -28.27368,-1.8466 -31.34602,-1.5025 -32.18724,-1.731 -29.62103,-8.0488 0.77128,-1.8988 15.64835,-24.8458 33.06015,-50.9934 l 31.6578197,-47.541 -25.6169797,-75.1588 c -14.08933,-41.3373 -25.61697,-75.97058 -25.61697,-76.96288 0,-0.9923 1.05423,-2.7647 2.34273,-3.9386 1.2885,-1.1739 31.86117,-23.33 67.93926,-49.2358 36.07809,-25.9057 65.95748,-47.433 66.39863,-47.8383 0.69204,-0.6359 15.29723,-110.02572 15.32613,-114.78948 0.0123,-2.02237 2.71129,-5.02015 4.519847,-5.02015 0.68026,0 10.82215,6.78603 22.53754,15.08006 11.71537,8.29404 21.64578,14.73496 22.06756,14.31318 0.42179,-0.42179 6.92156,-22.08417 14.44394,-48.13863 7.52239,-26.05445 14.16125,-47.95743 14.75304,-48.67326 0.59178,-0.71584 1.70839,-1.30152 2.48135,-1.30152 2.15302,0 82.87154,-54.08323 82.47847,-55.26245 -0.18968,-0.56903 -9.94472,-8.43491 -21.67786,-17.47977 -11.73315,-9.04485 -21.44955,-17.11121 -21.592,-17.92523 -0.14244,-0.81403 0.14992,-2.11499 0.6497,-2.89102 0.49978,-0.77602 27.08921,-11.38577 59.08764,-23.57721 l 58.17893,-22.16627 26.79632,-75.33817 c 18.97542,-53.34961 27.44214,-75.87 29.00906,-77.16032 1.97806,-1.62887 5.09928,-1.82832 29.42927,-1.88053 14.9691,-0.0322 53.01042,-0.43682 84.53628,-0.89931 45.67557,-0.67008 57.85412,-1.13411 59.95033,-2.28432 1.44682,-0.79389 20.78258,-20.30243 42.96836,-43.35232 23.9448,-24.87744 41.10331,-41.9089 42.22153,-41.9089 1.03606,0 2.4295,0.6576 3.09655,1.46133 0.66703,0.80373 4.42053,11.05999 8.34108,22.79169 3.92057,11.7317 7.55965,22.10113 8.08684,23.04316 0.79573,1.42189 8.17065,-4.41698 43.42049,-34.37685 l 42.46194,-36.08964 49.10345,3.81192 c 27.00689,2.09657 51.79758,4.09058 55.09042,4.43115 5.01723,0.51891 5.98698,0.3535 5.98698,-1.02127 0,-0.90228 -3.04347,-12.55932 -6.76327,-25.90456 -3.7198,-13.34524 -6.76536,-25.02665 -6.7679,-25.9587 -0.012,-4.38484 2.38491,-4.38652 20.52321,-0.0144 88.35054,21.29649 104.94904,25.15532 106.17724,24.68401 0.7755,-0.29758 30.80102,-20.35855 66.72342,-44.57992 35.9224,-24.22137 66.6019,-44.60386 68.1767,-45.29443 2.2314,-0.97842 3.4954,-0.97928 5.7267,-0.004 1.5748,0.68844 33.0488,21.35047 69.942,45.91562 36.8933,24.56514 68.4597,45.05996 70.1475,45.54403 2.3347,0.66958 17.1433,-1.98039 61.9014,-11.07715 61.7932,-12.55902 61.6967,-12.54766 61.6967,-7.27123 0,1.26985 -3.5068,12.3087 -7.7929,24.53077 -4.2861,12.22207 -7.5826,22.43229 -7.3255,22.68936 0.2571,0.25709 24.7112,-0.72929 54.3424,-2.19194 l 53.875,-2.65936 43.0444,32.22831 c 23.6746,17.72556 43.4418,31.98277 43.9274,31.68268 0.4856,-0.30009 4.9504,-10.73914 9.9218,-23.19788 10.0042,-25.07158 11.1665,-27.33773 14.021,-27.33773 1.2917,0 16.0083,15.94882 42.7543,46.33406 l 40.7846,46.33406 h 84.1344 c 78.6487,0 84.2689,0.1188 86.1956,1.82212 1.3083,1.1566 12.0136,29.39442 29.3091,77.3102 14.9864,41.51844 28.0032,76.05961 28.9261,76.75816 0.923,0.69856 26.0895,11.65623 55.9256,24.35039 29.836,12.69417 55.178,23.95995 56.3154,25.03506 1.6079,1.51989 1.8219,2.35688 0.9619,3.7624 -0.6084,0.99421 -10.3667,8.19901 -21.6853,16.01066 -11.3186,7.81165 -21.0406,14.66439 -21.6045,15.22833 -0.6731,0.67297 14.4776,10.41473 44.0858,28.34692 24.8111,15.02689 45.2658,27.46105 45.4547,27.63149 0.189,0.17044 7.6237,21.78652 16.5216,48.03576 8.8979,26.24923 16.4803,48.05986 16.8498,48.46805 0.3696,0.40821 11.4149,-5.80003 24.5452,-13.79609 13.1303,-7.99605 24.1628,-14.53829 24.5165,-14.53829 0.3538,0 1.4305,0.58569 2.3927,1.30152 1.5176,1.12903 2.2392,8.89092 5.4445,58.56833 2.0322,31.49675 3.9016,58.24635 4.1543,59.44355 0.3158,1.4965 21.7504,16.8909 68.5956,49.2656 37.4748,25.8989 68.4009,47.779 68.7246,48.6224 0.3236,0.8435 -10.6954,36.65305 -24.4869,79.57685 l -25.0753,78.0433 29.7782,50.9306 c 16.378,28.0119 29.7781,51.4162 29.7781,52.0096 0,0.5935 -0.9927,1.7744 -2.2059,2.6241 -1.8616,1.3039 -6.0631,1.451 -26.9125,0.9423 -14.2983,-0.3489 -24.9215,-0.2073 -25.2168,0.336 -0.2807,0.5164 8.0688,22.0236 18.5544,47.7936 10.4855,25.7701 19.0773,47.1727 19.093,47.5613 0.016,0.3885 -0.7916,1.5064 -1.7937,2.484 -2.093,2.0418 -34.6808,90.1869 -33.7035,91.1628 0.3547,0.3542 13.0115,1.1726 28.1262,1.8186 26.8318,1.1468 30.3061,1.6963 30.3061,4.7933 0,2.6224 -4.0321,8.9632 -34.6124,54.4315 -17.2373,25.6294 -31.5324,47.565 -31.7669,48.7459 -0.2345,1.1809 11.0803,36.021 25.1439,77.4225 19.813,58.3269 25.3389,75.7077 24.5426,77.1954 -0.5651,1.0561 -31.1484,23.4493 -67.9627,49.7627 -36.8144,26.3134 -67.4567,48.4748 -68.094,49.2475 -0.6374,0.7727 -4.4919,26.905 -8.5657,58.0717 -4.0737,31.1667 -7.9226,57.2882 -8.5529,58.0477 -0.6304,0.7595 -1.9131,1.3809 -2.8505,1.3809 -0.9374,0 -10.9833,-6.5596 -22.3243,-14.577 -11.341,-8.0173 -20.9511,-14.577 -21.3556,-14.577 -0.4046,0 -6.5438,21.7684 -13.6428,48.3741 -7.0989,26.6059 -13.1808,48.7989 -13.5154,49.3179 -0.3344,0.5189 -21.1688,14.6331 -46.2985,31.3647 -37.977,25.2854 -45.4475,30.6476 -44.2517,31.7629 0.7914,0.738 10.4583,8.2255 21.4822,16.6389 16.4272,12.5372 20.0434,15.7579 20.0434,17.8516 0,1.8686 -0.9085,2.9721 -3.384,4.1102 -1.8612,0.8556 -27.9366,10.8925 -57.9455,22.3041 -30.0087,11.4116 -55.1327,21.3635 -55.831,22.1151 -0.6983,0.7517 -12.6047,34.8677 -26.4586,75.8135 -13.8539,40.9457 -25.9794,75.2265 -26.9454,76.1793 -1.5967,1.5748 -9.4796,1.7994 -86.6156,2.4681 -66.4552,0.5761 -85.4347,1.0295 -87.5134,2.0909 -1.46,0.7453 -19.9026,19.4329 -40.9833,41.5279 -21.0808,22.095 -39.7164,41.3403 -41.4123,42.7672 -5.2304,4.4012 -6.0704,3.0812 -14.9026,-23.4164 -4.3925,-13.1779 -8.4164,-23.9598 -8.9421,-23.9598 -0.5257,0 -19.58,14.3224 -42.3429,31.8275 -39.3481,30.2593 -41.5666,31.8006 -45.0313,31.2844 -2.0044,-0.2986 -26.9545,-0.8717 -55.4447,-1.2734 -42.7074,-0.6023 -51.8005,-0.4881 -51.8005,0.6507 0,0.7596 3.1202,12.5254 6.9338,26.1459 5.7636,20.5854 6.7085,25.0362 5.5992,26.3729 -0.734,0.8844 -2.1135,1.6081 -3.0655,1.6081 -0.9519,0 -27.2503,-6.2844 -58.4408,-13.9653 -31.1905,-7.6808 -58.4171,-14.2833 -60.5036,-14.6721 -3.6812,-0.6858 -5.732,0.6286 -69.2408,44.3782 -55.9333,38.5312 -71.7133,49.0071 -73.4662,48.7731 -0.1709,-0.023 -1.9506,-0.8739 -3.9549,-1.8913 z m 92.6681,-190.2256 c 79.8614,-6.3772 129.8324,-15.0435 200.1569,-34.7128 37.8925,-10.5982 104.9534,-34.3675 139.7997,-49.5509 29.7886,-12.9797 104.9052,-52.0616 130.1519,-67.7157 61.8952,-38.3783 142.3743,-103.3629 189.0123,-152.6222 39.4396,-41.6564 66.0363,-72.8701 92.8113,-108.9223 31.4702,-42.3742 77.834,-121.6291 96.6049,-165.1374 4.6469,-10.7708 13.1756,-29.7469 18.9525,-42.1692 6.4063,-13.7754 12.0357,-27.6632 14.431,-35.6012 2.16,-7.1584 5.6441,-17.935 7.7424,-23.948 2.0985,-6.013 7.0448,-22.8807 10.992,-37.4837 3.9473,-14.603 8.388,-30.0651 9.8684,-34.3601 3.3125,-9.6103 6.4824,-23.1832 13.1315,-56.2256 7.3732,-36.64 13.6003,-98.5619 15.4446,-153.5792 1.4295,-42.6417 -1.641,-102.4658 -7.1878,-140.0433 -1.6484,-11.1671 -3.2891,-22.8807 -3.6463,-26.0304 -0.9526,-8.4024 -12.6595,-69.6881 -15.5136,-81.2148 -6.5616,-26.4981 -20.1214,-71.6608 -27.2302,-90.6931 -23.3861,-62.61158 -56.5657,-131.94728 -82.9085,-173.25481 -37.9477,-59.50496 -57.9162,-86.23997 -97.3249,-130.30486 -55.1043,-61.61465 -82.8405,-87.55802 -141.766,-132.60186 -39.3843,-30.10617 -53.605,-39.731 -100.1815,-67.80464 -51.8166,-31.23201 -81.9228,-46.35948 -137.783,-69.23191 -31.8738,-13.05099 -98.3357,-36.38054 -116.9615,-41.05603 -22.99,-5.77099 -96.0924,-21.74352 -118.531,-25.89845 -37.1819,-6.88492 -84.5915,-11.40114 -147.0833,-14.01113 -25.346,-1.05857 -37.2594,-1.05987 -60.9111,-0.006 -95.41362,4.24882 -134.47332,9.5582 -225.15095,30.6047 l -48.93709,11.35843 -47.37527,17.09355 c -90.97383,32.82443 -123.72284,47.97241 -194.70715,90.06132 -49.1133,29.12087 -77.13038,49.44084 -132.75488,96.28321 -46.27555,38.96947 -72.91536,65.66498 -118.65015,118.89826 -31.85969,37.08329 -74.94058,102.26442 -104.22428,157.69074 -28.55346,54.0442 -46.19633,95.9189 -65.57373,155.63708 -14.015,43.1921 -15.23011,47.606 -20.65929,75.0453 -14.30373,72.2917 -19.73101,107.6845 -21.95385,143.167 -3.25818,52.0093 -3.78494,70.9066 -2.66204,95.4997 3.56886,78.1622 6.38546,100.1973 24.59274,192.3962 4.49165,22.745 7.48146,34.6406 13.60046,54.112 19.6052,62.3864 34.80193,100.0678 64.46978,159.8576 32.12333,64.7384 58.33431,108.4189 85.90889,143.167 7.72555,9.7354 20.79356,26.6031 29.04003,37.4838 15.90083,20.9801 32.55932,40.0047 62.38957,71.2509 30.58912,32.0413 108.22516,97.4819 148.16717,124.8924 45.83828,31.4568 72.65062,47.0678 129.41586,75.3497 45.74625,22.7919 70.25282,32.679 144.72885,58.3902 35.26082,12.173 92.90715,26.4736 138.89951,34.4573 37.2442,6.4652 94.85902,12.2905 140.14602,14.17 32.0275,1.3291 83.4438,0.1706 119.2191,-2.6861 z M 160.35793,1550.8982 c -0.24492,-0.4295 -0.7517,-2.6551 -1.1262,-4.9458 -0.6322,-3.867 -0.56753,-4.0203 0.90447,-2.1437 0.87194,1.1117 1.58535,3.3373 1.58535,4.9457 0,2.8871 -0.49554,3.6662 -1.36362,2.1438 z"
     style="fill:#f1c62d;stroke-width:1" />
  <path
     style="fill:#000000;stroke-width:1"
     d="M 1116.5156 190.33594 C 1115.6418 190.33655 1114.768 190.5811 1113.6523 191.07031 C 1112.0775 191.76088 1081.397 212.14386 1045.4746 236.36523 C 1009.5522 260.5866 979.52745 280.64773 978.75195 280.94531 C 977.52375 281.41662 960.92476 277.55626 872.57422 256.25977 C 854.43592 251.88765 852.03878 251.89055 852.05078 256.27539 C 852.05332 257.20744 855.10051 268.88914 858.82031 282.23438 C 862.54011 295.57961 865.58203 307.23639 865.58203 308.13867 C 865.58203 309.51344 864.61293 309.67907 859.5957 309.16016 C 856.30286 308.81959 831.51275 306.82509 804.50586 304.72852 L 755.40234 300.91602 L 712.93945 337.00586 C 677.68961 366.96573 670.31526 372.8047 669.51953 371.38281 C 668.99234 370.44078 665.35221 360.07154 661.43164 348.33984 C 657.51109 336.60814 653.75883 326.35256 653.0918 325.54883 C 652.42475 324.7451 651.0302 324.08594 649.99414 324.08594 C 648.87592 324.08594 631.71824 341.11865 607.77344 365.99609 C 585.58766 389.04598 566.25151 408.55377 564.80469 409.34766 C 562.70848 410.49787 550.53104 410.96273 504.85547 411.63281 C 473.32961 412.0953 435.28746 412.49905 420.31836 412.53125 C 395.98837 412.58346 392.86673 412.78324 390.88867 414.41211 C 389.32175 415.70243 380.85628 438.22266 361.88086 491.57227 L 335.08398 566.91016 L 276.9043 589.07617 C 244.90587 601.26761 218.31619 611.87828 217.81641 612.6543 C 217.31663 613.43033 217.02553 614.73089 217.16797 615.54492 C 217.31042 616.35894 227.02662 624.42585 238.75977 633.4707 C 250.49291 642.51556 260.24782 650.38214 260.4375 650.95117 C 260.83057 652.13039 180.112 706.21289 177.95898 706.21289 C 177.18602 706.21289 176.0703 706.79783 175.47852 707.51367 C 174.88673 708.2295 168.247 730.13305 160.72461 756.1875 C 153.20223 782.24196 146.70304 803.90438 146.28125 804.32617 C 145.85947 804.74795 135.92826 798.30771 124.21289 790.01367 C 112.4975 781.71964 102.35604 774.93359 101.67578 774.93359 C 99.867226 774.93359 97.16855 777.93075 97.15625 779.95312 C 97.12735 784.7169 82.522118 894.10629 81.830078 894.74219 C 81.388928 895.14749 51.509731 916.67438 15.431641 942.58008 C -20.646449 968.48588 -51.219313 990.64251 -52.507812 991.81641 C -53.796312 992.99031 -54.851562 994.76356 -54.851562 995.75586 C -54.851563 996.74816 -43.323705 1031.3814 -29.234375 1072.7188 L -3.6171875 1147.877 L -35.275391 1195.418 C -52.687191 1221.5656 -67.564656 1244.5133 -68.335938 1246.4121 C -70.902147 1252.7299 -70.060864 1252.9584 -38.714844 1254.4609 C -23.448244 1255.1925 -10.723383 1256.0227 -10.439453 1256.3066 C -10.155523 1256.5905 -18.393571 1278.8023 -28.744141 1305.666 C -39.094711 1332.5296 -47.5625 1355.1694 -47.5625 1355.9766 C -47.5625 1356.7839 -39.128332 1377.9 -28.820312 1402.9004 C -18.512283 1427.9008 -10.078125 1448.8778 -10.078125 1449.5176 C -10.078125 1450.3445 -17.847516 1450.6816 -36.941406 1450.6816 C -64.257856 1450.6816 -66.304688 1450.9562 -66.304688 1454.6406 C -66.304688 1455.4444 -52.716745 1478.723 -36.109375 1506.3691 C -19.501995 1534.0151 -5.9131094 1557.2757 -5.9121094 1558.0605 C -5.9110294 1558.8455 -16.948776 1593.8462 -30.441406 1635.8398 C -43.934036 1677.8334 -54.829364 1713.1876 -54.652344 1714.4043 C -54.416734 1716.0238 -36.335025 1728.9813 12.828125 1762.7617 C 73.525185 1804.4671 80.061072 1809.2308 80.763672 1812.2676 C 81.191242 1814.1157 83.429771 1840.6943 85.738281 1871.332 C 88.046801 1901.9698 90.157925 1928.0602 90.429688 1929.3105 C 91.564465 1934.5316 94.286285 1933.476 119.17773 1918.1641 C 132.38116 1910.0421 143.54905 1903.7973 143.99609 1904.2852 C 144.44313 1904.7732 151.51109 1926.3889 159.70117 1952.3203 C 167.89125 1978.2516 175.39211 2000.7847 176.37109 2002.3945 C 177.60285 2004.42 191.64571 2013.4687 221.96484 2031.7754 C 246.06203 2046.3254 265.77752 2058.6988 265.77734 2059.2715 C 265.77716 2059.8442 256.30292 2066.6381 244.72461 2074.3691 C 225.41067 2087.2653 223.67383 2088.6754 223.67383 2091.4492 C 223.67383 2094.4561 223.97789 2094.5996 279.67578 2118.0723 C 310.47635 2131.0527 336.29088 2142.3433 337.04297 2143.1621 C 337.79505 2143.981 350.47757 2177.2152 365.22656 2217.0156 C 379.97556 2256.8161 392.9065 2291.3709 393.96094 2293.8047 L 395.87695 2298.2305 L 479.94141 2298.2305 L 564.00391 2298.2305 L 568.47461 2303.1758 C 570.93275 2305.8959 589.23808 2326.5942 609.1543 2349.1719 C 629.07052 2371.7496 646.17963 2390.7188 647.17383 2391.3262 C 650.29501 2393.2329 652.42293 2389.4529 662.50977 2364.0859 C 667.80412 2350.7714 672.67245 2339.8903 673.32812 2339.9062 C 674.70556 2339.939 751.01065 2394.6894 755.0957 2398.5762 L 757.81641 2401.166 L 811.22266 2398.5039 C 840.59588 2397.0407 864.90578 2396.1206 865.24414 2396.459 C 865.5825 2396.7973 862.28312 2407.2024 857.91211 2419.5801 C 853.54109 2431.9579 849.96484 2442.9278 849.96484 2443.957 C 849.96484 2448.9341 850.36055 2448.8841 912.20703 2436.3008 C 958.75151 2426.831 972.10015 2424.453 974.62695 2425.1777 C 976.39475 2425.6846 1007.2856 2445.9087 1043.2734 2470.1211 C 1079.2611 2494.3335 1110.3473 2514.9767 1112.3516 2515.9941 C 1114.3559 2517.0115 1116.1338 2517.8618 1116.3047 2517.8848 C 1118.0576 2518.1188 1133.8382 2507.6425 1189.7715 2469.1113 C 1253.2803 2425.3617 1255.3305 2424.0486 1259.0117 2424.7344 C 1261.0982 2425.1232 1288.3251 2431.7254 1319.5156 2439.4062 C 1350.7061 2447.0874 1377.0051 2453.3711 1377.957 2453.3711 C 1378.909 2453.3711 1380.2875 2452.6481 1381.0215 2451.7637 C 1382.1308 2450.427 1381.1874 2445.976 1375.4238 2425.3906 C 1371.6102 2411.7701 1368.4902 2400.0037 1368.4902 2399.2441 C 1368.4902 2398.1053 1377.5817 2397.9914 1420.2891 2398.5938 C 1448.7793 2398.9953 1473.73 2399.5686 1475.7344 2399.8672 C 1479.1991 2400.3834 1481.4175 2398.8413 1520.7656 2368.582 C 1543.5285 2351.0769 1562.5837 2336.7559 1563.1094 2336.7559 C 1563.6351 2336.7559 1567.6583 2347.5369 1572.0508 2360.7148 C 1580.883 2387.2124 1581.7227 2388.5321 1586.9531 2384.1309 C 1588.649 2382.704 1607.2844 2363.4583 1628.3652 2341.3633 C 1649.4459 2319.2683 1667.8896 2300.5812 1669.3496 2299.8359 C 1671.4283 2298.7745 1690.4081 2298.3202 1756.8633 2297.7441 C 1833.9993 2297.0754 1841.8818 2296.8521 1843.4785 2295.2773 C 1844.4445 2294.3245 1856.5699 2260.0434 1870.4238 2219.0977 C 1884.2777 2178.1519 1896.1845 2144.0369 1896.8828 2143.2852 C 1897.5811 2142.5336 1922.7042 2132.5815 1952.7129 2121.1699 C 1982.7218 2109.7583 2008.797 2099.7208 2010.6582 2098.8652 C 2013.1337 2097.7271 2014.043 2096.6225 2014.043 2094.7539 C 2014.043 2092.6602 2010.4272 2089.4395 1994 2076.9023 C 1982.9761 2068.4889 1973.309 2061.0017 1972.5176 2060.2637 C 1971.3218 2059.1484 1978.7925 2053.7874 2016.7695 2028.502 C 2041.8992 2011.7704 2062.732 1997.6556 2063.0664 1997.1367 C 2063.401 1996.6177 2069.4831 1974.4243 2076.582 1947.8184 C 2083.681 1921.2127 2089.82 1899.4453 2090.2246 1899.4453 C 2090.6291 1899.4453 2100.2391 1906.0042 2111.5801 1914.0215 C 2122.9211 1922.0389 2132.969 1928.5996 2133.9062 1928.5996 C 2134.8438 1928.5996 2136.1255 1927.9782 2136.7559 1927.2188 C 2137.3862 1926.459 2141.2349 1900.3366 2145.3086 1869.1699 C 2149.3824 1838.0032 2153.2376 1811.8704 2153.875 1811.0977 C 2154.5123 1810.325 2185.1542 1788.165 2221.9688 1761.8516 C 2258.7831 1735.5382 2289.3665 1713.144 2289.9316 1712.0879 C 2290.7279 1710.6002 2285.2017 1693.2195 2265.3887 1634.8926 C 2251.3251 1593.4911 2240.0096 1558.6516 2240.2441 1557.4707 C 2240.4786 1556.2898 2254.7744 1534.354 2272.0117 1508.7246 C 2302.592 1463.2563 2306.623 1456.9154 2306.623 1454.293 C 2306.623 1451.196 2303.1502 1450.6468 2276.3184 1449.5 C 2261.2037 1448.854 2248.5461 1448.0358 2248.1914 1447.6816 C 2247.2141 1446.7057 2279.8015 1358.5594 2281.8945 1356.5176 C 2282.8966 1355.54 2283.7055 1354.4237 2283.6895 1354.0352 C 2283.6738 1353.6466 2275.0812 1332.2428 2264.5957 1306.4727 C 2254.1101 1280.7027 2245.7603 1259.1961 2246.041 1258.6797 C 2246.3363 1258.1364 2256.9595 1257.9948 2271.2578 1258.3438 C 2292.1072 1258.8523 2296.3083 1258.7043 2298.1699 1257.4004 C 2299.3831 1256.5507 2300.377 1255.3708 2300.377 1254.7773 C 2300.377 1254.1839 2286.9757 1230.7795 2270.5977 1202.7676 L 2240.8203 1151.8359 L 2265.8965 1073.793 C 2279.688 1030.8692 2290.7064 995.0603 2290.3828 994.2168 C 2290.0591 993.3734 2259.133 971.49265 2221.6582 945.59375 C 2174.813 913.21905 2153.3783 897.82462 2153.0625 896.32812 C 2152.8098 895.13094 2150.9404 868.38152 2148.9082 836.88477 C 2145.7029 787.20736 2144.9805 779.44544 2143.4629 778.31641 C 2142.5007 777.60058 2141.4241 777.01562 2141.0703 777.01562 C 2140.7166 777.01562 2129.685 783.55668 2116.5547 791.55273 C 2103.4244 799.54879 2092.3794 805.75782 2092.0098 805.34961 C 2091.6403 804.94142 2084.0581 783.13009 2075.1602 756.88086 C 2066.2623 730.63162 2058.8277 709.01614 2058.6387 708.8457 C 2058.4498 708.67526 2037.9947 696.24173 2013.1836 681.21484 C 1983.5754 663.28265 1968.4246 653.54016 1969.0977 652.86719 C 1969.6616 652.30325 1979.3826 645.45032 1990.7012 637.63867 C 2002.0198 629.82702 2011.7783 622.62312 2012.3867 621.62891 C 2013.2467 620.22339 2013.0337 619.38512 2011.4258 617.86523 C 2010.2884 616.79012 1984.9454 605.52425 1955.1094 592.83008 C 1925.2733 580.13592 1900.1066 569.17903 1899.1836 568.48047 C 1898.2607 567.78192 1885.2442 533.2411 1870.2578 491.72266 C 1852.9623 443.80688 1842.2575 415.56871 1840.9492 414.41211 C 1839.0225 412.70879 1833.4026 412.58984 1754.7539 412.58984 L 1670.6191 412.58984 L 1629.834 366.25586 C 1603.088 335.87062 1588.3718 319.92188 1587.0801 319.92188 C 1584.2256 319.92188 1583.0628 322.18819 1573.0586 347.25977 C 1568.0872 359.71851 1563.6223 370.15694 1563.1367 370.45703 C 1562.6511 370.75712 1542.8836 356.50095 1519.209 338.77539 L 1476.166 306.54688 L 1422.291 309.20508 C 1392.6598 310.66773 1368.2044 311.65553 1367.9473 311.39844 C 1367.6902 311.14137 1370.9873 300.93105 1375.2734 288.70898 C 1379.5595 276.48691 1383.0664 265.44758 1383.0664 264.17773 C 1383.0664 258.9013 1383.1623 258.8902 1321.3691 271.44922 C 1276.611 280.54598 1261.8033 283.19497 1259.4688 282.52539 C 1257.7807 282.04132 1226.2136 261.54756 1189.3203 236.98242 C 1152.4271 212.41727 1120.9537 191.75485 1119.3789 191.06641 C 1118.2633 190.57877 1117.3895 190.33533 1116.5156 190.33594 z M 1111.3086 202.16602 L 1111.3086 280.15234 L 1111.3086 358.13672 L 1090.7461 358.86133 C 1069.698 359.6021 1010.0801 363.25339 1002.5352 364.26367 C 1000.227 364.57277 997.27376 365.0423 995.97266 365.30664 C 994.61276 365.58292 993.41078 365.22184 993.14648 364.45898 C 991.88698 360.82384 984.13509 288.42943 984.92969 287.72266 C 985.43219 287.27576 1008.3343 271.77452 1035.8223 253.27539 C 1063.3104 234.77626 1091.5395 215.70773 1098.5547 210.90234 L 1111.3086 202.16602 z M 1121.7207 202.24023 L 1182.373 242.74414 C 1215.7309 265.02199 1245.0839 284.76 1247.6016 286.60547 L 1252.1777 289.96094 L 1251.543 301.03711 C 1251.1931 307.12898 1249.4844 323.54403 1247.7461 337.51562 C 1246.0078 351.48723 1244.584 363.55157 1244.584 364.32617 C 1244.584 365.87806 1243.2552 365.90887 1233.1309 364.58789 C 1220.8779 362.98915 1184.178 360.57862 1154 359.39062 C 1137.679 358.74814 1123.7392 358.05445 1123.0234 357.84766 C 1121.9971 357.55121 1121.7207 341.05345 1121.7207 279.85547 L 1121.7207 202.24023 z M 864.48828 263.92773 C 865.86972 263.6794 973.88078 289.28906 974.42578 289.99414 C 974.83128 290.51895 983.36373 365.95723 983.04883 366.23438 C 982.86753 366.39389 978.03334 367.06091 972.30664 367.7168 C 961.16104 368.99332 907.03972 378.54005 900.99023 380.29688 C 896.31493 381.65463 895.81781 381.62926 895.19336 380.00195 C 894.90818 379.25882 887.52078 352.90304 878.77539 321.43359 C 865.74394 274.54122 863.16505 264.16559 864.48828 263.92773 z M 1372.2949 270.29297 C 1372.3834 270.38669 1368.0896 282.88094 1362.7539 298.05664 C 1357.4181 313.23235 1349.2963 336.42433 1344.7051 349.5957 C 1340.1139 362.76706 1335.8094 375.06656 1335.1406 376.92773 C 1334.4719 378.7889 1333.3864 380.25469 1332.7266 380.18359 C 1332.0668 380.1125 1320.0459 377.78583 1306.0156 375.01367 C 1291.9852 372.24151 1274.6612 369.22659 1267.5176 368.31445 C 1260.3739 367.40229 1254.3797 366.50665 1254.1973 366.32422 C 1254.0149 366.14179 1255.7733 350.3562 1258.1035 331.24414 C 1260.4336 312.13209 1262.444 295.55745 1262.5723 294.41211 C 1262.7843 292.52021 1267.8083 291.31385 1317.4707 281.22656 C 1347.5358 275.11982 1372.2059 270.19927 1372.2949 270.29297 z M 765.23438 310.76953 C 776.67267 311.21802 864.69998 318.33509 865.70312 318.95508 C 866.62456 319.52455 883.42906 383.59098 882.82422 384.22852 C 882.68236 384.37805 866.27609 388.26756 846.36719 392.87109 C 826.45829 397.47462 807.12034 402.3879 803.39258 403.79102 C 799.66482 405.19414 796.08516 406.34184 795.4375 406.33984 C 794.39842 406.33652 763.23447 311.55459 764.01562 310.77344 C 764.0489 310.74016 764.4718 310.73963 765.23438 310.76953 z M 753.87305 314.19531 C 754.54688 314.19531 785.51083 409.71183 785.00195 410.2207 C 784.85297 410.36969 770.37896 415.63876 752.83789 421.92969 C 735.29683 428.22063 715.65308 435.52102 709.18555 438.15234 C 702.71801 440.78368 696.84654 443.18538 696.13867 443.48828 C 695.42453 443.79386 694.44646 442.94846 693.93945 441.58984 C 691.35505 434.66452 674 383.15338 674 382.4082 C 674 381.4656 752.76932 314.19531 753.87305 314.19531 z M 1463.9277 315.96289 C 1466.5172 315.97442 1467.4043 316.27545 1467.4043 316.91992 C 1467.4043 317.65071 1460.7814 337.83554 1452.6855 361.77539 C 1444.5894 385.71523 1437.4438 405.25765 1436.8066 405.20312 C 1436.1694 405.14862 1433.3559 404.23361 1430.5547 403.16992 C 1426.4331 401.60489 1393.5249 393.79262 1350.2676 384.10938 C 1345.1509 382.964 1344.0846 382.36364 1344.3711 380.79883 C 1344.6779 379.12381 1364.3248 321.89403 1364.8223 321.22656 C 1364.9279 321.08476 1383.4825 320.05207 1406.0566 318.93164 C 1428.6306 317.81121 1451.6704 316.60069 1457.2539 316.24219 C 1460.2083 316.05249 1462.3741 315.95597 1463.9277 315.96289 z M 1477.416 318.99805 C 1478.0362 318.26437 1557.9902 378.70384 1557.9902 379.90625 C 1557.9902 380.55343 1552.3886 393.86753 1545.541 409.49414 C 1538.6933 425.12076 1532.7195 438.24665 1532.2656 438.66211 C 1531.8117 439.07756 1525.1139 436.85741 1517.3828 433.72852 C 1509.6518 430.59962 1493.7221 424.77176 1481.9824 420.77734 C 1450.3898 410.02797 1448.6621 409.34933 1448.6621 407.67383 C 1448.6621 406.25885 1476.6716 319.87884 1477.416 318.99805 z M 1588.7656 333.85938 C 1589.3061 333.71946 1594.9019 339.50512 1601.2012 346.7168 C 1609.9142 356.69171 1648.0582 400.23225 1661.832 415.92578 C 1663.2456 417.53644 1661.6352 420.68374 1644.3887 450.02539 C 1633.9384 467.80432 1625.1003 482.31538 1624.748 482.27148 C 1624.3957 482.22753 1621.7656 480.75635 1618.9023 479.00195 C 1613.0113 475.39248 1562.4817 451.93977 1550.9629 447.46875 C 1546.8111 445.85723 1543.4141 444.46545 1543.4141 444.37695 C 1543.4141 442.86802 1588.0727 334.03871 1588.7656 333.85938 z M 647.87109 337.62305 C 648.87213 337.62305 662.58175 378.00091 662.56055 380.88672 C 662.55193 382.06175 667.04053 395.64968 672.53516 411.08203 C 678.02978 426.51439 682.90258 440.31247 683.36133 441.74414 C 683.82008 443.17581 684.49743 445.08772 684.86719 445.99219 C 685.36589 447.21209 684.385 448.132 681.07031 449.55859 C 664.07082 456.87491 625.41528 474.97972 619.67383 478.31445 C 615.85157 480.53448 612.50124 482.35156 612.22852 482.35156 C 611.48601 482.35156 573.82401 416.91128 573.66211 415.33984 C 573.52034 413.96381 646.4154 337.62305 647.87109 337.62305 z M 1116.9102 370.79883 C 1126.0132 370.79974 1135.327 371.06447 1148 371.59375 C 1210.4918 374.20374 1257.9021 378.72055 1295.084 385.60547 C 1317.5226 389.7604 1390.6252 405.73292 1413.6152 411.50391 C 1432.241 416.1794 1498.7024 439.50956 1530.5762 452.56055 C 1586.4364 475.43298 1616.5428 490.56096 1668.3594 521.79297 C 1714.9359 549.86661 1729.1567 559.48953 1768.541 589.5957 C 1827.4665 634.63954 1855.2023 660.58457 1910.3066 722.19922 C 1949.7153 766.26411 1969.6832 792.99895 2007.6309 852.50391 C 2033.9737 893.81134 2067.1549 963.14625 2090.541 1025.7578 C 2097.6498 1044.7901 2111.2079 1089.9531 2117.7695 1116.4512 C 2120.6236 1127.9779 2132.3306 1189.2636 2133.2832 1197.666 C 2133.6404 1200.8157 2135.2813 1212.5302 2136.9297 1223.6973 C 2142.4765 1261.2748 2145.5467 1321.0985 2144.1172 1363.7402 C 2142.2729 1418.7575 2136.047 1480.6784 2128.6738 1517.3184 C 2122.0247 1550.3608 2118.8555 1563.9346 2115.543 1573.5449 C 2114.0626 1577.8399 2109.6211 1593.3013 2105.6738 1607.9043 C 2101.7266 1622.5073 2096.7801 1639.3757 2094.6816 1645.3887 C 2092.5833 1651.4017 2089.0995 1662.1775 2086.9395 1669.3359 C 2084.5442 1677.2739 2078.9141 1691.1621 2072.5078 1704.9375 C 2066.7309 1717.3598 2058.2035 1736.3366 2053.5566 1747.1074 C 2034.7857 1790.6157 1988.4214 1869.8699 1956.9512 1912.2441 C 1930.1762 1948.2963 1903.5783 1979.5096 1864.1387 2021.166 C 1817.5007 2070.4253 1737.0222 2135.4108 1675.127 2173.7891 C 1649.8803 2189.4432 1574.7632 2228.5242 1544.9746 2241.5039 C 1510.1283 2256.6873 1443.0683 2280.4565 1405.1758 2291.0547 C 1334.8513 2310.724 1284.8809 2319.3904 1205.0195 2325.7676 L 1205.0195 2325.7695 C 1169.2442 2328.6262 1117.8263 2329.7842 1085.7988 2328.4551 C 1040.5118 2326.5756 982.8985 2320.7504 945.6543 2314.2852 C 899.66194 2306.3015 842.01473 2292.0011 806.75391 2279.8281 C 732.27788 2254.1169 707.77164 2244.2294 662.02539 2221.4375 C 605.26015 2193.1556 578.44764 2177.5447 532.60938 2146.0879 C 492.66737 2118.6774 415.03053 2053.2366 384.44141 2021.1953 C 354.61116 1989.9491 337.95356 1970.9254 322.05273 1949.9453 C 313.80626 1939.0646 300.73727 1922.1963 293.01172 1912.4609 C 265.43714 1877.7128 239.22685 1834.0314 207.10352 1769.293 C 177.43567 1709.5032 162.23997 1671.8219 142.63477 1609.4355 C 136.51577 1589.9641 133.52485 1578.0692 129.0332 1555.3242 C 110.82592 1463.1253 108.01027 1441.0899 104.44141 1362.9277 C 103.31851 1338.3346 103.84534 1319.437 107.10352 1267.4277 C 109.32636 1231.9452 114.75291 1196.5534 129.05664 1124.2617 C 134.48582 1096.8224 135.7018 1092.4069 149.7168 1049.2148 C 169.0942 989.49674 186.7356 947.62224 215.28906 893.57812 C 244.57276 838.1518 287.65398 772.97196 319.51367 735.88867 C 365.24846 682.65539 391.88851 655.9597 438.16406 616.99023 C 493.78856 570.14786 521.80467 549.8279 570.91797 520.70703 C 641.90228 478.61812 674.65312 463.46896 765.62695 430.64453 L 813.00195 413.55078 L 861.9375 402.19336 C 952.61513 381.14686 991.6763 375.83671 1087.0898 371.58789 C 1098.9157 371.06096 1107.8071 370.79792 1116.9102 370.79883 z M 564.92773 420.39844 L 583.64453 452.67773 C 593.93903 470.43044 602.58369 485.50005 602.85547 486.16602 C 603.13145 486.8423 599.98351 489.30941 595.72461 491.75586 C 571.42575 505.71393 539.77658 524.95289 522.69727 536.14844 C 511.92387 543.21045 502.70575 548.99023 502.21289 548.99023 C 501.72003 548.99023 479.26991 520.52591 452.32227 485.73633 L 403.32617 422.48242 L 415.53906 421.84375 C 422.25621 421.49246 458.61671 421.02411 496.33984 420.80273 L 564.92773 420.39844 z M 1671.8242 421.96094 L 1750.873 421.96094 C 1794.3497 421.96094 1829.7651 422.35156 1829.5742 422.82812 C 1829.3833 423.30473 1807.908 451.63748 1781.8516 485.79102 C 1755.7952 519.94456 1734.2414 547.86198 1733.9551 547.83008 C 1733.6688 547.79821 1726.1732 543.11544 1717.2969 537.42188 C 1699.9073 526.26773 1652.4971 497.60556 1641.0273 491.3125 C 1637.1618 489.19164 1634 487.20318 1634 486.89453 C 1634 486.58589 1642.5103 471.84885 1652.9121 454.14648 L 1671.8242 421.96094 z M 394.45117 427.86328 C 394.53532 427.85013 394.62447 427.85465 394.7207 427.87695 C 395.36229 428.02568 396.29683 428.9785 397.86523 430.94727 C 411.25654 447.75688 493.85633 554.86526 493.86133 555.42773 C 493.86521 555.81972 486.72342 561.65388 477.99023 568.39062 C 469.25704 575.12739 450.17833 590.73618 435.5918 603.07812 C 421.00527 615.42012 408.10645 626.28957 406.92969 627.23242 C 404.8535 628.89593 403.89067 628.05402 374.36328 598.79102 C 357.62766 582.20524 343.93359 568.50233 343.93359 568.33984 C 343.93359 567.58218 393.06457 429.76112 393.80859 428.43164 C 393.99486 428.0988 394.19872 427.90273 394.45117 427.86328 z M 1838.166 429.5957 C 1838.213 429.58052 1838.2443 429.58569 1838.2598 429.61328 C 1838.8943 430.74719 1872.577 523.23398 1886.0391 560.80664 L 1890.0879 572.10352 L 1863.4316 599.33203 C 1848.771 614.3077 1836.2477 626.66169 1835.6035 626.78516 C 1834.9593 626.90861 1830.1735 623.15988 1824.9688 618.45508 C 1819.7637 613.75027 1799.0111 597.30811 1778.8516 581.91797 C 1758.6919 566.52783 1742.3348 553.57418 1742.502 553.13086 C 1742.6691 552.68754 1764.1125 524.41021 1790.1543 490.29297 C 1820.1039 451.05618 1836.7083 430.06645 1838.166 429.5957 z M 336.05664 576.43164 C 338.47201 576.56943 343.58964 581.34688 367.64648 605.45312 L 397.08594 634.95312 L 375.13867 656.78711 C 363.06736 668.79546 349.60947 682.71962 345.23242 687.73047 C 340.85537 692.74131 336.78219 696.82719 336.17969 696.80859 C 334.56627 696.75876 231.55998 617.33765 231.82227 616.3457 C 232.06266 615.43649 331.27988 577.30762 335.60352 576.46289 C 335.74532 576.43519 335.89562 576.42245 336.05664 576.43164 z M 1897.7871 577.98242 L 1925.2676 589.64453 C 1981.299 613.42014 1997.9006 620.71631 1997.8086 621.52734 C 1997.7567 621.98476 1975.7366 637.44963 1948.873 655.89453 C 1922.0095 674.33942 1899.561 689.41684 1898.9883 689.39844 C 1896.9621 689.33334 1843.4177 633.94325 1844.1387 632.6582 C 1844.5272 631.96592 1856.7574 619.38105 1871.3164 604.69141 L 1897.7871 577.98242 z M 267.13672 658.99023 C 269.09173 658.77536 328.26075 704.38091 328.00586 705.90625 C 327.89045 706.59687 320.25184 715.96772 311.0332 726.73047 C 301.81456 737.49322 290.172 752.0395 285.16016 759.05469 C 280.14834 766.06987 275.50851 771.79068 274.84961 771.76758 C 273.32789 771.71413 188.47864 713.10606 188.08984 711.83984 C 187.77238 710.80601 264.90629 659.23538 267.13672 658.99023 z M 1959.9746 660.68164 C 1961.0622 660.39727 1977.7748 669.90586 2002.2246 684.7207 C 2024.4724 698.2013 2043.5103 709.84429 2044.5293 710.59375 C 2046.1826 711.80974 2042.1025 714.90603 2006.6289 739.37109 C 1984.7655 754.44967 1966.3611 766.97588 1965.7305 767.20508 C 1965.0999 767.43428 1960.9709 762.82433 1956.5547 756.96094 C 1952.1386 751.09755 1938.9024 735.53927 1927.1406 722.38672 C 1915.379 709.23416 1905.7559 698.1344 1905.7559 697.7207 C 1905.7559 696.73409 1957.6346 661.29359 1959.9746 660.68164 z M 2052.1152 720.09961 C 2052.89 719.80228 2058.5827 735.14379 2068.041 763.01172 C 2076.1376 786.86788 2082.7637 806.98933 2082.7637 807.72656 C 2082.7637 808.46378 2068.5065 817.55165 2051.082 827.92188 C 2033.6575 838.29209 2019.2146 846.77734 2018.9863 846.77734 C 2018.7581 846.77734 2016.2888 843.14521 2013.5 838.70703 C 2005.2753 825.61817 1981.9039 790.60796 1976.2852 782.95898 C 1973.4284 779.06979 1971.2675 775.71314 1971.4824 775.5 C 1972.5246 774.46654 2051.069 720.50109 2052.1152 720.09961 z M 181.32617 720.26953 C 182.87863 720.26953 268.86636 779.39057 268.92188 780.49609 C 268.94609 780.97844 262.7339 790.81765 255.11719 802.36133 C 247.50048 813.90503 236.69642 830.96367 231.10742 840.26953 C 225.51843 849.57539 220.83436 857.18945 220.69727 857.18945 C 220.20302 857.18945 157.00518 812.27174 155.72656 811.01172 C 154.67541 809.97587 156.96513 800.87081 167.29883 764.99609 C 174.38465 740.39674 180.69696 720.26953 181.32617 720.26953 z M 105.99805 788.99023 C 107.60826 789.06968 112.20577 792.06321 124.23633 800.61328 C 134.25698 807.73491 142.99636 814.59426 143.6582 815.85742 C 144.32003 817.12057 160.42229 828.67637 179.43945 841.53516 C 198.45662 854.39395 214.23669 865.49272 214.50781 866.19922 C 214.77893 866.90572 210.07369 876.79297 204.05078 888.17188 C 198.02786 899.55068 190.75557 913.86838 187.89062 919.98828 C 184.94973 926.27048 182.08566 931.06119 181.3125 930.99219 C 178.66766 930.75539 92.531141 893.78092 92.181641 892.73242 C 91.717131 891.33892 104.38419 791.58204 105.30664 789.36914 C 105.41484 789.10957 105.62646 788.9719 105.99805 788.99023 z M 2136.6719 789.9707 C 2137.0963 790.3951 2144.2787 897.0283 2143.9062 897.375 C 2143.7785 897.4938 2126.1606 905.36745 2104.7559 914.87305 C 2083.3511 924.37865 2065.5462 932.14109 2065.1895 932.12109 C 2064.8328 932.10109 2059.7582 922.37853 2053.9121 910.51562 C 2043.8789 890.15593 2031.2007 866.24883 2027.2148 860.17383 L 2025.4141 857.43164 L 2080.8516 823.50781 C 2111.3415 804.85032 2136.4604 789.75913 2136.6719 789.9707 z M 87.011719 901.75 L 132.43555 920.92578 C 157.41886 931.47288 177.75174 940.53922 177.61914 941.07422 C 177.48655 941.60922 171.82649 954.93324 165.04102 970.68164 C 154.59613 994.92314 146.59698 1016.8981 139.17188 1041.7441 C 138.35895 1044.4642 137.12529 1046.661 136.43164 1046.627 C 135.738 1046.5928 95.931536 1034.5432 47.972656 1019.8496 C -19.879564 999.06105 -38.937574 992.86129 -37.927734 991.90039 C -37.213964 991.22129 -8.8100936 970.65883 25.191406 946.20703 L 87.011719 901.75 z M 2148.6484 906.10547 C 2150.5054 906.15417 2276.4498 993.97847 2275.6934 994.69727 C 2275.2386 995.12937 2238.5537 1006.557 2194.1719 1020.0918 C 2149.7901 1033.6265 2112.9586 1044.8745 2112.3242 1045.0859 C 2111.655 1045.3089 2107.5441 1035.7805 2102.5312 1022.3926 C 2097.7787 1009.6999 2088.5488 986.89836 2082.0215 971.72266 C 2075.4943 956.54696 2069.9197 943.41958 2069.6328 942.55078 C 2069.2313 941.33478 2078.1725 936.95544 2108.4746 923.52734 C 2130.1247 913.93324 2148.2031 906.09347 2148.6484 906.10547 z M -43.253906 1002.4668 C -42.422136 1001.6351 132.98235 1055.7421 133.38672 1056.9551 C 133.60443 1057.6083 131.40927 1065.288 128.50977 1074.0215 C 123.71417 1088.4661 116.93131 1118.3764 111.21289 1150.291 C 110.28939 1155.445 109.29577 1160.4822 109.00586 1161.4844 C 108.71593 1162.4865 108.15849 1163.2515 107.76758 1163.1855 C 107.37668 1163.1197 83.925694 1158.7862 55.652344 1153.5547 L 4.2460938 1144.043 L -19.732422 1073.4844 C -32.920572 1034.6769 -43.505766 1002.7187 -43.253906 1002.4668 z M 2278.1035 1005.3926 C 2278.187 1005.3912 2278.2314 1005.4024 2278.2363 1005.4258 C 2278.372 1006.0735 2268.2272 1038.4546 2255.6914 1077.3848 L 2232.8984 1148.168 L 2189.5078 1156.7129 C 2165.6422 1161.4129 2144.8302 1165.5399 2143.2598 1165.8848 C 2140.0136 1166.5978 2141.106 1170.4736 2134.3105 1134.1523 C 2132.4302 1124.102 2127.1127 1102.6469 2122.4512 1086.3086 C 2117.8029 1070.0169 2114 1056.1768 2114 1055.5527 C 2114 1053.9871 2272.841 1005.482 2278.1035 1005.3926 z M 2.796875 1154.5664 C 8.9656044 1154.8601 97.934306 1170.3019 104.83398 1172.3242 C 106.43787 1172.7943 106.66095 1173.552 106.12109 1176.6895 C 102.4058 1198.2818 96.865561 1235.396 96.306641 1242.4375 L 95.603516 1251.2891 L 89.876953 1251.4395 C 81.455793 1251.6625 -55.840346 1244.9194 -56.509766 1244.25 C -56.977666 1243.782 -0.26594635 1157.5586 2.4648438 1154.5859 C 2.4859813 1154.5629 2.5978837 1154.5569 2.796875 1154.5664 z M 2233.7754 1158.2949 C 2234.5533 1158.5624 2246.8634 1179.3148 2285.3867 1245.3008 L 2287.9707 1249.7266 L 2265.2793 1249.4824 C 2252.7996 1249.3485 2222.4734 1248.9987 2197.8867 1248.7031 L 2153.1836 1248.1641 L 2151.3379 1235.6699 C 2150.3231 1228.7979 2148.2759 1214.2733 2146.7891 1203.3926 C 2145.3022 1192.5119 2143.6946 1181.8678 2143.2168 1179.7383 C 2142.5044 1176.5634 2142.6553 1175.7795 2144.0527 1175.3848 C 2148.7734 1174.0512 2232.9623 1158.0154 2233.7754 1158.2949 z M 2153.2363 1257.7383 L 2194.2676 1258.4902 C 2216.8355 1258.9034 2235.6189 1259.5611 2236.0078 1259.9512 C 2236.8656 1260.8121 2271.2227 1345.4638 2271.2227 1346.7168 C 2271.2227 1347.2034 2245.7368 1347.6016 2214.5879 1347.6016 L 2157.9531 1347.6016 L 2157.3008 1329.1191 C 2156.4176 1304.1025 2154.7633 1272.3543 2153.9238 1264.3223 L 2153.2363 1257.7383 z M 5.5585938 1260.4141 C 12.114632 1260.5212 31.327756 1261.3786 51.871094 1262.498 L 94.558594 1264.8242 L 94.298828 1268.4688 C 93.728048 1276.4928 92.008115 1311.7097 91.335938 1329.1191 L 90.621094 1347.6016 L 27.777344 1347.6016 C -6.787327 1347.6016 -35.05195 1347.2498 -35.03125 1346.8203 C -35.01058 1346.3908 -27.586543 1326.829 -18.533203 1303.3496 L -2.0722656 1260.6602 L 3.5566406 1260.416 C 3.9435394 1260.3993 4.6220169 1260.3988 5.5585938 1260.4141 z M 2157.0137 1356.9727 L 2214.0957 1356.9727 L 2271.1777 1356.9727 L 2268.5879 1364 C 2267.1631 1367.8656 2259.9572 1387.6624 2252.5742 1407.9922 L 2239.1504 1444.9551 L 2234.1016 1445.0957 C 2231.325 1445.1735 2211.8346 1444.0298 2190.7891 1442.5547 L 2152.5254 1439.873 L 2152.5547 1433.5645 C 2152.5715 1430.0941 2153.2609 1419.7563 2154.0879 1410.5938 C 2154.9148 1401.4309 2155.9117 1385.618 2156.3027 1375.4531 L 2157.0137 1356.9727 z M -36.355469 1360.0801 L 27.541016 1360.3477 L 91.439453 1360.6152 L 92.197266 1373.6309 C 94.216676 1408.2947 96.231903 1439.244 96.789062 1444.1738 L 96.789062 1444.1777 L 97.371094 1449.3262 C 96.877674 1449.4446 96.157886 1449.5505 95.173828 1449.6426 L 48.609375 1449.6328 L -0.1875 1449.623 L -17.703125 1407.0254 C -27.337065 1383.596 -35.474569 1363.4472 -35.787109 1362.252 L -36.355469 1360.0801 z M 2150.8848 1453.043 C 2151.2406 1452.6391 2293.4918 1459.0679 2293.9316 1459.5078 C 2294.1571 1459.7332 2280.5614 1480.445 2263.7188 1505.5352 C 2246.876 1530.6253 2232.4186 1551.2283 2231.5938 1551.3203 C 2230.7685 1551.4117 2209.4787 1547.3809 2184.2812 1542.3633 C 2138.6362 1533.274 2138.4684 1533.2314 2138.8262 1530.7461 C 2139.0238 1529.3742 2140.7533 1520.4589 2142.6699 1510.9355 C 2144.5863 1501.4121 2147.1718 1484.5458 2148.4141 1473.4531 C 2149.6565 1462.3606 2150.7677 1453.1758 2150.8848 1453.043 z M 22.917969 1459.0117 L 98.259766 1459.0117 L 99.146484 1461.3535 C 101.03405 1466.3324 108.33353 1529.4048 107.1582 1530.5801 C 106.94668 1530.7917 83.232274 1535.6258 54.458984 1541.3223 C 25.685714 1547.0187 1.9817031 1551.6797 1.7832031 1551.6797 C 0.71035318 1551.6797 -53.694014 1460.2838 -53.021484 1459.6113 C -52.856294 1459.4461 -44.231103 1459.2964 -30.466797 1459.1875 C -23.584644 1459.1331 -15.418838 1459.0891 -6.3828125 1459.0586 C 2.6532127 1459.0281 12.558676 1459.0117 22.917969 1459.0117 z M 109.2832 1540.5566 C 109.38012 1540.6611 112.34209 1550.8204 115.86523 1563.1328 C 119.38836 1575.4451 126.26123 1599.0315 131.13867 1615.5469 C 136.01612 1632.0622 139.79399 1646.1185 139.5332 1646.7832 C 139.27243 1647.4478 98.357478 1660.7612 48.611328 1676.3691 C -1.134822 1691.9771 -42.237746 1704.7422 -42.728516 1704.7422 C -43.219286 1704.7395 -43.331002 1703.9823 -42.976562 1703.0586 C -42.622113 1702.1349 -32.190112 1669.8439 -19.794922 1631.3008 L 2.7421875 1561.2227 L 24.705078 1556.9492 C 36.784618 1554.5987 60.715679 1549.9063 77.886719 1546.5215 C 95.057749 1543.1366 109.1863 1540.4522 109.2832 1540.5566 z M 159.03711 1542.6426 C 158.71435 1542.5692 158.8373 1543.5363 159.23242 1545.9531 C 159.60692 1548.2438 160.1125 1550.4689 160.35742 1550.8984 C 161.2255 1552.4208 161.7207 1551.641 161.7207 1548.7539 C 161.7207 1547.1455 161.00866 1544.9203 160.13672 1543.8086 C 159.58472 1543.1049 159.23076 1542.6866 159.03711 1542.6426 z M 2138.0527 1543.041 C 2146.5593 1544.2776 2230.2307 1561.2893 2230.8496 1561.9082 C 2231.3046 1562.3632 2234.4352 1570.9068 2237.8066 1580.8945 C 2241.1779 1590.8821 2251.9282 1622.5984 2261.6973 1651.375 C 2271.4665 1680.1516 2279.1286 1703.6526 2278.7246 1703.5996 C 2277.3214 1703.4144 2107.4652 1649.6137 2107.0859 1649.2344 C 2106.8761 1649.0245 2107.6397 1646.1383 2108.7812 1642.8203 C 2109.9228 1639.5022 2113.8868 1625.4866 2117.5898 1611.6738 C 2121.2928 1597.861 2125.3259 1583.7485 2126.5527 1580.3125 C 2127.7793 1576.8765 2130.5408 1567.0373 2132.6895 1558.4473 C 2135.5089 1547.1758 2137.0018 1542.8882 2138.0527 1543.041 z M 143.49609 1657.0215 C 144.93425 1658.5111 184.42185 1759.5038 183.80664 1760.1191 C 183.36752 1760.5582 161.29566 1770.0645 134.75781 1781.2441 C 108.21995 1792.4236 85.975855 1801.5447 85.328125 1801.5137 C 84.680395 1801.4823 55.835596 1781.9483 21.228516 1758.1055 L -41.693359 1714.7559 L -36.037109 1712.9297 C -6.1028705 1703.2695 143.24481 1656.7613 143.49609 1657.0215 z M 2103.9688 1658.9316 C 2105.1035 1658.9379 2119.6445 1663.4654 2226.7773 1697.1836 C 2271.5458 1711.2737 2275.3609 1712.6533 2273.5684 1714.0977 C 2272.4951 1714.9626 2243.9568 1735.4668 2210.1523 1759.6621 C 2176.3479 1783.8573 2148.4999 1803.622 2148.2656 1803.584 C 2147.3461 1803.4363 2060.6385 1765.2166 2060.1777 1764.7559 C 2059.5529 1764.131 2069.3099 1741.555 2084.3164 1708.9023 C 2094.2473 1687.2937 2099.8065 1672.5468 2102.2754 1661.2676 C 2102.5575 1659.9791 2103.3196 1658.9316 2103.9688 1658.9316 z M 188.41602 1769.3086 C 189.36418 1769.3246 227.35018 1839.154 227.27148 1840.7363 C 227.24629 1841.2429 198.63437 1859.228 163.68945 1880.7031 C 128.74453 1902.1781 99.716931 1919.9048 99.181641 1920.0957 C 98.646341 1920.2866 98.207031 1919.8906 98.207031 1919.2168 C 98.207031 1918.543 96.310991 1893.8502 93.994141 1864.3418 C 91.677301 1834.8335 89.920514 1810.5642 90.089844 1810.4102 C 90.811714 1809.7539 187.60089 1769.2946 188.41602 1769.3086 z M 2056.0684 1774.8379 C 2058.85 1774.8546 2067.5544 1778.5263 2099.9434 1792.6992 C 2143.333 1811.6859 2143.6724 1811.8597 2143.416 1814.7734 C 2143.2738 1816.3886 2140.3452 1839.2976 2136.9082 1865.6836 C 2133.4711 1892.0695 2130.6582 1914.2082 2130.6582 1914.8809 C 2130.6582 1915.5535 2130.3065 1916.0817 2129.877 1916.0547 C 2128.846 1915.9888 2094.4419 1891.6436 2091.0918 1888.6094 C 2089.6601 1887.3128 2073.3208 1875.7502 2054.7812 1862.9141 C 2036.2421 1850.078 2020.8684 1839.0435 2020.6172 1838.3945 C 2020.3661 1837.7454 2023.0451 1832.3585 2026.5703 1826.4219 C 2030.0956 1820.4852 2037.6031 1806.9571 2043.2539 1796.3594 C 2048.9049 1785.7616 2054.1311 1776.2958 2054.8691 1775.3262 C 2055.0985 1775.0249 2055.4264 1774.834 2056.0684 1774.8379 z M 2015.8184 1847.8438 C 2016.9102 1848.2624 2079.9368 1892.2957 2081.5879 1893.793 C 2081.8002 1893.9855 2076.3635 1915.1097 2069.5078 1940.7344 C 2062.6519 1966.359 2056.6224 1987.4309 2056.1074 1987.5605 C 2054.6481 1987.928 1963.5121 1925.6208 1963.8008 1924.4531 C 1963.9418 1923.8826 1968.1589 1917.8918 1973.1719 1911.1406 C 1978.1849 1904.3894 1989.5131 1887.264 1998.3477 1873.084 C 2009.1688 1855.7158 2014.8706 1847.48 2015.8184 1847.8438 z M 233.79102 1852.0957 C 233.85726 1852.0894 233.92618 1852.0917 234 1852.1016 C 236.21457 1852.3985 241.80128 1860.0852 256.29492 1882.584 C 262.6793 1892.4947 271.02117 1904.5962 274.83203 1909.4766 C 281.58257 1918.1217 281.71043 1918.3977 279.78906 1920.1992 C 278.7044 1921.2162 256.49781 1937.0241 230.44141 1955.3281 C 204.38501 1973.632 182.53354 1988.9216 181.88281 1989.3066 C 181.22628 1989.695 180.47505 1989.2019 180.19531 1988.1973 C 179.91802 1987.2015 173.47624 1966.8107 165.87891 1942.8848 C 158.28158 1918.959 152.2471 1899.2207 152.46875 1899.0234 C 153.40875 1898.1861 232.21322 1852.647 233.60156 1852.1387 C 233.66121 1852.1168 233.72477 1852.102 233.79102 1852.0957 z M 290.04297 1929.4199 L 292.38672 1931.873 C 293.67481 1933.2221 302.14653 1944.1654 311.21289 1956.1914 C 320.27925 1968.2175 332.54136 1983.3844 338.46289 1989.8965 C 344.3844 1996.4088 349.0915 2002.1275 348.92383 2002.6035 C 348.75616 2003.0793 332.22111 2014.4981 312.17773 2027.9805 C 292.13434 2041.4629 275.03087 2052.4837 274.17188 2052.4688 C 271.85815 2052.4297 190.35547 2002.6837 190.35547 2001.3105 C 190.35547 2000.6645 212.78476 1984.2244 240.19922 1964.7773 L 290.04297 1929.4199 z M 1956.9531 1935.5938 C 1957.0517 1935.5702 1957.1303 1935.575 1957.1875 1935.6094 C 1965.8801 1940.8282 2046.1658 1997.0543 2045.9551 1997.7754 C 2045.7983 1998.3124 2028.1287 2010.5917 2006.6895 2025.0625 C 1985.2502 2039.5333 1967.2407 2051.3853 1966.668 2051.4023 C 1965.6804 2051.4313 1907.453 2005.594 1903.2422 2001.4727 C 1901.2837 1999.5559 1901.4032 1999.349 1910.0664 1989.7754 C 1914.9164 1984.4157 1927.204 1969.8575 1937.3711 1957.4219 C 1949.3077 1942.8223 1955.4742 1935.9433 1956.9531 1935.5938 z M 1892.0918 2009.8223 L 1946.2695 2051.2051 C 1976.0667 2073.9664 2000.4529 2092.8249 2000.4629 2093.1113 C 2000.4723 2093.3976 1976.7079 2102.6616 1947.6523 2113.6992 C 1918.5967 2124.7367 1894.589 2133.7191 1894.3027 2133.6621 C 1894.0163 2133.6043 1879.813 2119.2309 1862.7383 2101.7207 L 1831.6934 2069.8848 L 1838.7891 2063.6055 C 1847.1562 2056.2042 1864.2713 2039.1506 1880.4902 2022.0527 L 1892.0918 2009.8223 z M 355.9082 2010.0117 L 381.67773 2036.1426 C 395.85126 2050.5141 407.44727 2062.4548 407.44727 2062.6777 C 407.44727 2062.9005 392.16336 2078.9755 373.48242 2098.4004 C 354.80148 2117.8254 339.22355 2133.677 338.86328 2133.627 C 338.503 2133.5764 315.71659 2123.9873 288.22852 2112.3184 C 260.74045 2100.6495 237.78164 2090.9272 237.20898 2090.7129 C 236.63631 2090.4988 245.39075 2084.2728 256.66211 2076.8789 C 267.93346 2069.485 294.8742 2051.4163 316.53125 2036.7246 L 355.9082 2010.0117 z M 415.875 2068.1406 L 441.07617 2089.7988 C 454.93656 2101.7108 475.31367 2118.6235 486.35938 2127.3828 L 506.44336 2143.3086 L 503.58203 2147.1035 C 502.00814 2149.1904 478.74855 2179.7145 451.89453 2214.9336 C 425.04052 2250.1527 402.18879 2279.8833 401.11328 2281.002 C 399.1799 2283.0128 399.14413 2283.0012 398.02344 2279.9609 C 397.40002 2278.2696 385.51717 2246.4305 371.61523 2209.207 C 357.71329 2171.9836 346.61795 2140.9752 346.95898 2140.3008 C 347.59796 2139.0371 377.38706 2107.6996 401.95508 2082.4473 L 415.875 2068.1406 z M 1824.7188 2076.2734 C 1824.7725 2076.2957 1824.832 2076.3267 1824.8887 2076.3535 L 1855.6309 2107.7324 C 1872.6055 2125.0586 1886.6394 2140.0776 1886.8184 2141.1074 C 1886.9975 2142.1373 1876.4902 2174.3981 1863.4668 2212.7969 C 1850.4434 2251.1957 1839.5205 2282.6074 1839.1934 2282.6074 C 1838.3177 2282.6009 1736.611 2150.5695 1736.2578 2148.9805 C 1736.0926 2148.237 1746.1558 2139.9306 1758.6211 2130.5215 C 1771.0862 2121.1124 1784.3412 2110.8121 1788.0762 2107.6309 C 1791.811 2104.4497 1801.5956 2096.0835 1809.8184 2089.0391 L 1824.7188 2076.2734 z M 514.7168 2149.3359 C 515.19529 2149.3359 522.42239 2154.0363 530.77734 2159.7812 C 554.01269 2175.7584 590.11732 2198.4791 600.77344 2203.8301 C 606.02677 2206.4681 610.60777 2209.0838 610.95312 2209.6426 C 611.29851 2210.2014 600.84794 2228.3712 587.72852 2250.0195 L 563.875 2289.3789 L 485.00977 2289.6465 L 406.14453 2289.9141 L 409.72461 2285.4824 C 411.69269 2283.0449 435.92423 2251.4147 463.57422 2215.1934 C 491.2242 2178.9722 514.23831 2149.3359 514.7168 2149.3359 z M 1726.627 2154.9297 C 1727.6975 2154.6997 1745.1633 2176.5945 1779.2832 2220.9414 L 1830.3359 2287.2969 L 1823.0137 2287.957 C 1818.9864 2288.3204 1782.8058 2288.8744 1742.6133 2289.1875 C 1687.0771 2289.6201 1669.309 2289.462 1668.5859 2288.5273 C 1666.4384 2285.7514 1625.6715 2217.1381 1625.6895 2216.3301 C 1625.7005 2215.8481 1632.5681 2211.9395 1640.9512 2207.6445 C 1658.9887 2198.403 1698.6089 2174.3013 1714.0742 2163.1621 C 1720.0973 2158.8238 1725.7459 2155.119 1726.627 2154.9297 z M 620.68555 2214.9336 C 621.04428 2214.9336 634.70944 2221.6344 651.05273 2229.8262 C 667.39602 2238.0179 684.64906 2246.4271 689.39453 2248.5117 L 698.02344 2252.3008 L 696.625 2255.7422 C 695.85613 2257.635 684.47717 2286.0024 671.33789 2318.7793 C 658.19861 2351.5562 647.19107 2378.3787 646.87695 2378.3887 C 646.56284 2378.3971 629.76882 2359.6199 609.55664 2336.6621 C 583.29048 2306.8279 572.94735 2294.3831 573.29883 2293.0391 C 573.94291 2290.5762 619.83542 2214.9336 620.68555 2214.9336 z M 1616.3223 2221.3613 C 1616.8904 2221.5507 1627.1835 2238.0971 1639.1973 2258.1309 L 1660.8906 2294.3027 C 1660.9297 2294.3884 1660.9857 2294.5011 1661.0195 2294.5781 L 1655.5156 2300.2969 C 1652.4765 2303.4549 1635.5763 2321.1505 1617.959 2339.6191 C 1600.3418 2358.0876 1585.8414 2373.1973 1585.7363 2373.1973 C 1585.3054 2373.1973 1571.6817 2330.7855 1571.1758 2327.8691 C 1570.8743 2326.1311 1565.1953 2309.0632 1558.5566 2289.9414 C 1551.918 2270.8196 1546.8495 2254.8175 1547.293 2254.3809 C 1547.7364 2253.9442 1553.7112 2251.1867 1560.5703 2248.2539 C 1567.4294 2245.321 1582.546 2237.9925 1594.1641 2231.9688 C 1605.7822 2225.9448 1615.7542 2221.1719 1616.3223 2221.3613 z M 709.94727 2257.9688 C 710.74422 2258.0772 713.57429 2259.1591 716.78516 2260.6016 C 721.76128 2262.8372 765.79745 2278.8226 790.46289 2287.3477 C 791.23815 2287.6156 791.65788 2288.418 791.39648 2289.1289 C 791.13508 2289.8399 783.55137 2312.5605 774.54297 2339.6191 C 765.53457 2366.6776 757.8525 2388.7945 757.4707 2388.7695 C 755.67765 2388.6511 679.31457 2332.9378 679.26367 2331.7109 C 679.21237 2330.4748 708.77628 2258.9405 709.73438 2257.9824 C 709.7604 2257.9564 709.83341 2257.9531 709.94727 2257.9688 z M 1536.2031 2259.1348 C 1536.6518 2259.1076 1536.9913 2259.1761 1537.1543 2259.3555 C 1537.5888 2259.8338 1542.9209 2275.2077 1549.0039 2293.5195 C 1559.5038 2325.1275 1559.9719 2326.9044 1558.2461 2328.584 C 1557.2462 2329.5571 1539.3261 2343.4996 1518.4238 2359.5684 C 1497.5214 2375.6371 1480.1764 2388.7908 1479.8789 2388.8008 C 1479.1885 2388.8209 1446.1744 2292.0315 1446.7051 2291.543 C 1446.9228 2291.3424 1455.5358 2288.2684 1465.8438 2284.7129 C 1491.7743 2275.7686 1529.7855 2261.8718 1533.3809 2260.0215 C 1534.4062 2259.4938 1535.4554 2259.18 1536.2031 2259.1348 z M 800.43555 2291.207 C 800.56427 2291.0669 804.84966 2292.3687 809.95898 2294.0996 C 822.10468 2298.2143 868.35653 2310.9534 881.98242 2313.9375 C 887.85227 2315.2228 892.66453 2316.7831 892.67773 2317.4043 C 892.7091 2318.8816 869.62513 2384.9199 868.70117 2385.9961 C 868.31163 2386.4497 849.52848 2387.7135 826.96094 2388.8027 C 804.3934 2389.8919 781.8292 2391.0596 776.81836 2391.3984 C 771.80751 2391.7372 767.70898 2391.6803 767.70898 2391.2715 C 767.70898 2390.4843 800.03571 2291.6423 800.43555 2291.207 z M 1434.6094 2296.5039 C 1434.7234 2296.4991 1434.793 2296.5078 1434.8145 2296.5293 C 1435.7485 2297.4633 1467.4043 2387.6824 1467.4043 2389.4102 C 1467.4043 2390.3175 1466.4917 2390.8209 1465.0625 2390.6992 C 1463.1523 2390.5366 1423.1043 2389.7424 1377.2266 2388.959 L 1368.7852 2388.8164 L 1359.2949 2353.7324 C 1354.075 2334.4371 1350.0166 2318.4383 1350.2773 2318.1777 C 1350.5379 2317.917 1357.3206 2316.1719 1365.3496 2314.3008 C 1373.3784 2312.4299 1392.1521 2307.5262 1407.0684 2303.4023 C 1421.0523 2299.5361 1432.8996 2296.5754 1434.6094 2296.5039 z M 902.85938 2319.1562 C 903.71401 2319.1427 906.89856 2319.6945 910.55859 2320.5059 C 922.55296 2323.1647 970.93282 2331.5465 974.39062 2331.5645 C 980.91622 2331.5987 980.84507 2329.9582 976.07227 2371.2773 C 973.66817 2392.0901 971.44857 2410.5684 971.13867 2412.3398 L 970.57422 2415.5605 L 917.81836 2426.209 C 888.80235 2432.0657 864.2424 2437.0904 863.24023 2437.375 C 862.23806 2437.6597 861.41797 2437.412 861.41797 2436.8242 C 861.41797 2436.2365 864.72356 2426.4822 868.76367 2415.1484 C 872.80379 2403.8148 882.00883 2377.6747 889.21875 2357.0586 C 896.42867 2336.4426 902.46837 2319.4048 902.64062 2319.1973 C 902.66216 2319.1713 902.73726 2319.1583 902.85938 2319.1562 z M 1335.8809 2321.332 C 1336.885 2321.3746 1337.3139 2321.8303 1337.6152 2322.8496 C 1337.9293 2323.9119 1345.261 2350.0818 1353.9102 2381.0059 C 1362.5594 2411.9299 1370.0567 2438.5209 1370.5703 2440.0957 C 1371.2424 2442.1562 1371.1554 2442.9276 1370.2578 2442.8496 C 1368.7465 2442.7176 1259.8675 2415.8988 1259.5488 2415.5801 C 1259.4252 2415.4566 1257.4028 2399.2997 1255.0547 2379.6758 C 1252.7067 2360.0518 1250.5018 2341.9212 1250.1543 2339.3867 C 1249.4062 2333.9286 1248.5695 2334.2808 1266.4512 2332.5371 C 1276.0492 2331.6011 1318.1194 2324.7558 1333.7637 2321.584 C 1334.423 2321.4503 1334.9654 2321.3656 1335.4141 2321.3379 C 1335.5823 2321.3275 1335.7374 2321.326 1335.8809 2321.332 z M 992.21484 2333.9824 C 994.82054 2333.9868 1000.4962 2334.4076 1006.8594 2335.1016 C 1030.7468 2337.7068 1061.6632 2339.9341 1087.1719 2340.8867 C 1099.9525 2341.3639 1110.614 2341.9598 1110.8652 2342.2109 C 1111.1171 2342.4622 1111.2015 2379.2137 1111.0547 2423.8809 L 1110.7891 2505.0938 L 1046.8145 2462.0762 C 1011.629 2438.4163 982.28301 2418.4614 981.59961 2417.7324 C 980.63381 2416.7019 981.42974 2407.3327 985.18164 2375.6172 C 987.83564 2353.1819 990.3285 2334.5094 990.7207 2334.123 C 990.81873 2334.0264 991.34628 2333.981 992.21484 2333.9824 z M 1239.2988 2335.8926 C 1239.6712 2335.884 1239.8762 2335.8899 1239.8965 2335.9121 C 1240.3391 2336.3962 1249.9177 2417.1531 1249.5703 2417.4727 C 1249.4054 2417.6244 1221.8605 2436.5992 1188.3594 2459.6387 C 1154.8583 2482.6781 1126.1588 2502.4382 1124.584 2503.5508 L 1121.7207 2505.5742 L 1121.7207 2423.7676 L 1121.7207 2341.9609 L 1131.3535 2341.9219 C 1150.1082 2341.8455 1187.1412 2339.9799 1213.1992 2337.7988 C 1225.9051 2336.7354 1236.6921 2335.9528 1239.2988 2335.8926 z "
     id="path872" />
</svg>
