<?xml version="1.0" encoding="UTF-8"?>
<!-- Created with Inkscape (http://www.inkscape.org/) -->
<svg width="188.06mm" height="178.74mm" version="1.1" viewBox="0 0 188.06 178.74" xmlns="http://www.w3.org/2000/svg" xmlns:cc="http://creativecommons.org/ns#" xmlns:dc="http://purl.org/dc/elements/1.1/" xmlns:rdf="http://www.w3.org/1999/02/22-rdf-syntax-ns#">
 <metadata>
  <rdf:RDF>
   <cc:Work rdf:about="">
    <dc:format>image/svg+xml</dc:format>
    <dc:type rdf:resource="http://purl.org/dc/dcmitype/StillImage"/>
    <dc:title/>
   </cc:Work>
  </rdf:RDF>
 </metadata>
 <g transform="translate(-90.422 -58.706)">
  <g>
   <path d="m238.65 102.78c-2.8174-14.963-9.5223-31.439-25.359-36.433-12.418-8.0428-26.4 2.3369-38.749-4.3506-14.284-9.2869-30.464 2.6022-35.723 16.423-6.3651 15.841-8.2023 33.078-14.217 49.092-3.8386 13.457-8.4867 27.451-7.3277 41.541 4.7304 10.971 18.643 7.6863 27.819 5.9678 18.709-2.6126 37.234-7.3251 55.813-9.9775 16.956 2.0631 35.089 7.4934 51.51 0.0459 9.4873-8.6693 0.67299-21.735-2.1712-31.424-3.7522-10.336-7.5512-20.657-11.594-30.884z" fill="#5c5a61"/>
   <path d="m104.11 127.15c7.2096-8.3598 16.225-15.06 24.426-22.334 8.6469-6.9993 19.632-1.9119 29.265-5.1399 9.7486-3.7937 19.729 0.23356 27.245 6.6269 7.9582 6.0994 15.539 12.829 24.453 17.518 7.0389 4.428 8.1277 14.659 0.30787 18.912-4.8514 6.333-12.48 9.0727-20.277 8.5153-19.76 0.76026-39.511 1.7145-59.273 2.4304-9.1043-5.2869-24.882-6.6406-27.887-17.528-0.0335-3.0877 0.8992-6.0657 1.7397-9.0011z" fill="#8c8a94"/>
   <path d="m264.93 127.44c-4.4329-7.3356-8.8615-17.286-17.247-20.718-6.2706-2.6297-12.972-4.0311-19.53-5.7357-6.0625-1.3006-12.388-0.59294-18.145 1.6241-9.653 3.0027-19.31 6.339-28.168 11.262-5.5084 3.5055-9.9175 8.3865-14.49 12.978 15.809 7.4696 31.681 16.83 49.644 17.288 17.606 0.60873 34.215-6.375 47.936-16.698z" fill="#76747d"/>
   <path d="m108.66 126.85h151.58c7.9572 0 16.708 6.7592 14.363 14.363l-18.174 58.938c-2.3448 7.6038-6.406 14.363-14.363 14.363h-116.83c-7.9572 0-12.209-6.7029-14.363-14.363l-16.571-58.938c-2.1537-7.6602 6.4059-14.363 14.363-14.363z" fill="#d6d5d8"/>
  </g>
  <path d="m108.66 126.85c-7.9572 0-16.517 6.7028-14.363 14.363l5.9061 21.007h167.92l6.4776-21.007c2.3447-7.6038-6.4063-14.363-14.363-14.363z" fill-opacity=".11765"/>
  <g transform="translate(-390.84 291.85)">
   <g transform="translate(0 -.2594)">
    <circle cx="521.23" cy="-77.952" r="23.812" fill="#76747d"/>
    <circle cx="521.23" cy="-77.952" r="9.8274" fill="#d6d5d8"/>
   </g>
   <circle cx="629.41" cy="-78.212" r="23.812" fill="#76747d"/>
   <circle cx="629.41" cy="-78.212" r="9.8274" fill="#d6d5d8"/>
  </g>
  <g transform="matrix(.1921 0 0 .1921 91.144 74.334)" fill="#3b484a">
   <path d="m144.49 268.43c-4.267 0-7.726-3.459-7.726-7.726v-20.181c0-4.267 3.459-7.726 7.726-7.726s7.726 3.459 7.726 7.726v20.181c0 4.266-3.459 7.726-7.726 7.726z"/>
   <path d="m367.51 268.43c-4.267 0-7.726-3.459-7.726-7.726v-20.181c0-4.267 3.459-7.726 7.726-7.726s7.726 3.459 7.726 7.726v20.181c0 4.266-3.459 7.726-7.726 7.726z"/>
   <path d="m256 279.2c-12.957 0-25.109-5.401-33.34-14.818-2.808-3.213-2.481-8.094 0.732-10.902s8.094-2.481 10.902 0.732c5.297 6.06 13.208 9.535 21.705 9.535s16.409-3.476 21.706-9.535c2.808-3.213 7.689-3.54 10.902-0.731 3.213 2.808 3.541 7.689 0.731 10.902-8.231 9.417-20.383 14.817-33.338 14.817z"/>
  </g>
  <g transform="matrix(.17761 0 0 .17761 175.69 78.602)" fill="#3b484a">
   <path d="m144.49 268.43c-4.267 0-7.726-3.459-7.726-7.726v-20.181c0-4.267 3.459-7.726 7.726-7.726s7.726 3.459 7.726 7.726v20.181c0 4.266-3.459 7.726-7.726 7.726z"/>
   <path d="m367.51 268.43c-4.267 0-7.726-3.459-7.726-7.726v-20.181c0-4.267 3.459-7.726 7.726-7.726s7.726 3.459 7.726 7.726v20.181c0 4.266-3.459 7.726-7.726 7.726z"/>
   <path d="m256 279.2c-12.957 0-25.109-5.401-33.34-14.818-2.808-3.213-2.481-8.094 0.732-10.902s8.094-2.481 10.902 0.732c5.297 6.06 13.208 9.535 21.705 9.535s16.409-3.476 21.706-9.535c2.808-3.213 7.689-3.54 10.902-0.731 3.213 2.808 3.541 7.689 0.731 10.902-8.231 9.417-20.383 14.817-33.338 14.817z"/>
  </g>
  <rect x="90.422" y="126.44" width="188.06" height="20.071" ry="9.2338" fill="#d6d5d8"/>
  <g transform="matrix(.26458 0 0 .26458 116.72 20.548)" fill="#3b484a">
   <path d="m144.49 268.43c-4.267 0-7.726-3.459-7.726-7.726v-20.181c0-4.267 3.459-7.726 7.726-7.726s7.726 3.459 7.726 7.726v20.181c0 4.266-3.459 7.726-7.726 7.726z"/>
   <path d="m367.51 268.43c-4.267 0-7.726-3.459-7.726-7.726v-20.181c0-4.267 3.459-7.726 7.726-7.726s7.726 3.459 7.726 7.726v20.181c0 4.266-3.459 7.726-7.726 7.726z"/>
   <path d="m256 279.2c-12.957 0-25.109-5.401-33.34-14.818-2.808-3.213-2.481-8.094 0.732-10.902s8.094-2.481 10.902 0.732c5.297 6.06 13.208 9.535 21.705 9.535s16.409-3.476 21.706-9.535c2.808-3.213 7.689-3.54 10.902-0.731 3.213 2.808 3.541 7.689 0.731 10.902-8.231 9.417-20.383 14.817-33.338 14.817z"/>
  </g>
  <path d="m201.29 63.126c-5.5922 0.0025-11.287 1.3395-16.836 1.2495v150.14h30.331a23.812 23.812 0 0 0 23.781 22.935 23.812 23.812 0 0 0 23.812-23.812 23.812 23.812 0 0 0-5.4426-15.124l16.316-52.909c3.1003-1.486 5.2317-4.6499 5.2317-8.3297v-1.6035c0-5.1156-4.1185-9.2341-9.2341-9.2341h-4.916c-4.2421-7.2137-8.6416-16.436-16.653-19.715-2.8092-1.1781-5.7051-2.1088-8.6356-2.9316-0.13166-0.33457-0.26162-0.66969-0.39378-1.0041-2.8174-14.963-9.5224-31.439-25.359-36.433-3.8807-2.5134-7.9143-3.2279-12.003-3.2262z" fill-opacity=".058824"/>
 </g>
</svg>
