<?xml version="1.0" encoding="UTF-8" standalone="no"?>
<!-- Created with Inkscape (http://www.inkscape.org/) -->

<svg
   xmlns:dc="http://purl.org/dc/elements/1.1/"
   xmlns:cc="http://creativecommons.org/ns#"
   xmlns:rdf="http://www.w3.org/1999/02/22-rdf-syntax-ns#"
   xmlns:svg="http://www.w3.org/2000/svg"
   xmlns="http://www.w3.org/2000/svg"
   xmlns:sodipodi="http://sodipodi.sourceforge.net/DTD/sodipodi-0.dtd"
   xmlns:inkscape="http://www.inkscape.org/namespaces/inkscape"
   width="306.95511"
   height="303.04556"
   viewBox="0 0 81.215204 80.180807"
   version="1.1"
   id="svg8"
   inkscape:version="0.92.4 (33fec40, 2019-01-16)"
   sodipodi:docname="donutMeu.svg">
  <defs
     id="defs2" />
  <sodipodi:namedview
     id="base"
     pagecolor="#ffffff"
     bordercolor="#666666"
     borderopacity="1.0"
     inkscape:pageopacity="0.0"
     inkscape:pageshadow="2"
     inkscape:zoom="1.4142136"
     inkscape:cx="301.16808"
     inkscape:cy="118.11361"
     inkscape:document-units="px"
     inkscape:current-layer="layer1"
     showgrid="false"
     showborder="false"
     units="px"
     inkscape:window-width="1366"
     inkscape:window-height="709"
     inkscape:window-x="0"
     inkscape:window-y="0"
     inkscape:window-maximized="1"
     inkscape:object-paths="false"
     inkscape:snap-intersection-paths="false"
     inkscape:snap-smooth-nodes="false"
     inkscape:snap-midpoints="true"
     inkscape:object-nodes="false" />
  <metadata
     id="metadata5">
    <rdf:RDF>
      <cc:Work
         rdf:about="">
        <dc:format>image/svg+xml</dc:format>
        <dc:type
           rdf:resource="http://purl.org/dc/dcmitype/StillImage" />
        <dc:title></dc:title>
      </cc:Work>
    </rdf:RDF>
  </metadata>
  <g
     inkscape:label="Camada 1"
     inkscape:groupmode="layer"
     id="layer1"
     transform="translate(99.331922,-169.19415)">
    <path
       style="opacity:1;fill:#ffa74e;fill-opacity:1;stroke-width:0.08961691"
       d="m -62.302141,169.65838 c -11.655803,1.08944 -22.713777,7.46816 -29.310924,17.16454 -7.582228,10.73875 -9.297065,25.30764 -4.386911,37.50827 4.779465,12.55945 16.318489,22.23571 29.521441,24.75121 12.943916,2.73122 27.055703,-1.58806 36.337236,-10.99776 9.194265,-9.11177 13.54051,-22.8468 11.072374,-35.57728 -0.646918,-3.59394 -1.841248,-7.07944 -3.385518,-10.38575 -3.943482,0.26757 -7.866915,-1.94321 -9.655226,-5.47254 -4.817978,4.0762 -12.71719,3.56063 -16.782716,-1.33033 -2.614271,-2.9142 -3.549081,-7.11019 -2.652271,-10.8958 -4.046207,0.63602 -8.345241,-1.24793 -10.433473,-4.81056 l -0.261956,0.0372 z m 4.982644,27.39316 c 7.051789,0.5283 12.60452,7.73603 11.250909,14.68737 -0.939662,7.09058 -8.669425,12.1901 -15.557137,10.26316 -6.992755,-1.50029 -11.453085,-9.59995 -9.00226,-16.31436 1.752658,-5.54605 7.534325,-9.27391 13.308488,-8.63617 z"
       id="path3770"
       inkscape:connector-curvature="0" />
    <path
       style="opacity:1;fill:#552a00;fill-opacity:1;stroke:#341a00;stroke-width:8;stroke-miterlimit:4;stroke-dasharray:none;stroke-opacity:1"
       d="m -239.26172,643.83594 c -75.18656,9.16304 -132.05758,72.94081 -132.16601,148.68359 0.0584,13.19565 1.85779,26.32591 5.35156,39.05078 14.68902,65.99186 103.49374,56.43923 96.64453,-25.15234 -1.31578,-4.51586 -1.98777,-9.1948 -1.99609,-13.89844 0,-27.61424 22.38576,-50 50,-50 23.25455,0.029 43.4193,16.08647 48.65429,38.74414 19.12827,78.10575 121.055804,40.67218 96.546878,-25.125 -2.015085,-8.18205 -4.716046,-16.17974 -8.074219,-23.9082 -9.050749,2.49625 -18.422409,2.12122 -26.345699,-2.50195 -5.94824,-3.49093 -9.30175,-8.46191 -12.76253,-14.42774 -15.28708,11.56634 -37.61918,12.81095 -54.17888,3.1543 -17.41557,-10.18931 -29.32262,-31.5061 -25.4671,-51.31166 -8.48765,0.92621 -14.2205,0.34849 -21.60321,-3.9403 -7.14946,-4.17162 -11.78927,-11.20263 -14.60352,-19.36718 z"
       id="path4707"
       inkscape:connector-curvature="0"
       sodipodi:nodetypes="ccccccccccccccc"
       transform="scale(0.26458333)" />
    <path
       style="opacity:0.50199998;fill:#ffffff;stroke-width:1000.00001292;stroke-miterlimit:4;stroke-dasharray:none"
       d="m -101.68359,826.80664 c -8.4523,4.39118 -18.05407,5.04945 -27.53125,4.44727 -13.85997,40.35275 -49.54626,61.21702 -92.21289,61.26562 -25.45248,-0.0458 -41.92967,-4.54534 -60.44336,-22.01172 -7.50166,5.94715 -14.592,10.70275 -23.58594,11.24805 23.70048,26.98577 48.11352,35.72316 84.0293,35.76367 58.75084,-0.0736 107.27155,-33.3012 119.74414,-90.71289 z"
       transform="scale(0.26458333)"
       id="path3794"
       inkscape:connector-curvature="0"
       sodipodi:nodetypes="ccccccc" />
    <path
       style="opacity:0.5;fill:#ffffff;stroke-width:2.35849023"
       d="m -224.42773,669.14453 c -69.03559,0 -122,54.33941 -122,123.375 0.0389,30.37553 7.38721,51.44757 24.7207,74.23633 8.99394,-0.5453 17.33428,-2.3009 24.83594,-8.24805 -16.34234,-17.862 -24.50996,-38.42971 -24.55664,-65.98828 0,-55.22848 44.77152,-100 100,-100 9.61824,-1.53335 5.05181,1.81927 9.61824,-1.53335 3.6198,1.51468 -0.74119,-16.01846 -12.19242,-21.55649 -5.97188,-0.94763 5.62036,-0.2107 -0.42578,-0.28516 z m 111.53775,64.45264 c -6.62245,-0.11109 -6.96479,-17.70439 -22.5995,0.14473 9.95242,20.89986 13.49999,33.53184 14.06175,58.77763 -0.0366,11.05982 -0.78274,13.28696 -3.03711,23.98438 9.47718,0.60218 18.07895,-1.80609 26.531246,-6.19727 0.696752,-8.71298 1.454455,-8.85945 1.50586,-17.78711 -0.503782,-23.79271 -2.581797,-28.60043 -10.467266,-49.87169 -2.83964,-2.87782 -2.71713,-5.49376 -5.99498,-9.05067 z"
       transform="scale(0.26458333)"
       id="path908"
       inkscape:connector-curvature="0"
       sodipodi:nodetypes="cccccccccccccccccc" />
    <path
       transform="rotate(-26.594929)"
       style="opacity:1;fill:#00ff00;stroke-width:0.01233318"
       d="m -124.95522,170.50529 c 0.36645,0 0.66146,0.3786 0.66146,0.84888 v 2.75607 c 0,0.47028 -0.29501,0.84887 -0.66146,0.84887 -0.36645,0 -0.66146,-0.37859 -0.66146,-0.84887 v -2.75607 c 0,-0.47028 0.29501,-0.84888 0.66146,-0.84888 z"
       id="rect870"
       inkscape:connector-curvature="0" />
    <path
       transform="rotate(-155.27215)"
       style="opacity:1;fill:#00ffff;stroke-width:0.01233318"
       d="m -6.142841,-202.91812 c 0.3664479,0 0.6614583,0.3786 0.6614583,0.84887 v 2.75608 c 0,0.47027 -0.2950104,0.84887 -0.6614583,0.84887 -0.3664479,0 -0.6614584,-0.3786 -0.6614584,-0.84887 v -2.75608 c 0,-0.47027 0.2950105,-0.84887 0.6614584,-0.84887 z"
       id="rect916"
       inkscape:connector-curvature="0" />
    <path
       transform="rotate(105.49733)"
       style="opacity:1;fill:#ffff00;stroke-width:0.01233318"
       d="m 209.30498,19.124851 c 0.36645,0 0.66146,0.378597 0.66146,0.848872 v 2.756076 c 0,0.470275 -0.29501,0.848872 -0.66146,0.848872 -0.36645,0 -0.66146,-0.378597 -0.66146,-0.848872 v -2.756076 c 0,-0.470275 0.29501,-0.848872 0.66146,-0.848872 z"
       id="rect918"
       inkscape:connector-curvature="0" />
    <path
       transform="rotate(27.249971)"
       style="opacity:1;fill:#00ffff;stroke-width:0.01233318"
       d="m 29.765619,196.90227 c 0.366448,0 0.661458,0.37859 0.661458,0.84887 v 2.75608 c 0,0.47027 -0.29501,0.84887 -0.661458,0.84887 -0.366448,0 -0.661459,-0.3786 -0.661459,-0.84887 v -2.75608 c 0,-0.47028 0.295011,-0.84887 0.661459,-0.84887 z"
       id="rect920"
       inkscape:connector-curvature="0" />
    <path
       transform="rotate(-15.474446)"
       style="opacity:1;fill:#ff6600;stroke-width:0.01233318"
       d="m -136.18508,170.71292 c 0.36644,0 0.66145,0.3786 0.66145,0.84887 v 2.75608 c 0,0.47027 -0.29501,0.84887 -0.66145,0.84887 -0.36645,0 -0.66146,-0.3786 -0.66146,-0.84887 v -2.75608 c 0,-0.47027 0.29501,-0.84887 0.66146,-0.84887 z"
       id="rect922"
       inkscape:connector-curvature="0" />
    <path
       transform="rotate(51.284152)"
       style="opacity:1;fill:#00ffff;stroke-width:0.01233318"
       d="m 118.47872,202.66035 c 0.36645,0 0.66146,0.3786 0.66146,0.84888 v 2.75607 c 0,0.47028 -0.29501,0.84887 -0.66146,0.84887 -0.36645,0 -0.66146,-0.37859 -0.66146,-0.84887 v -2.75607 c 0,-0.47028 0.29501,-0.84888 0.66146,-0.84888 z"
       id="rect924"
       inkscape:connector-curvature="0" />
    <path
       transform="rotate(149.54693)"
       style="opacity:1;fill:#00ff00;stroke-width:0.01233318"
       d="m 172.90441,-124.88577 c 0.36645,0 0.66146,0.37859 0.66146,0.84887 v 2.75607 c 0,0.47028 -0.29501,0.84888 -0.66146,0.84888 -0.36645,0 -0.66146,-0.3786 -0.66146,-0.84888 v -2.75607 c 0,-0.47028 0.29501,-0.84887 0.66146,-0.84887 z"
       id="rect926"
       inkscape:connector-curvature="0" />
    <path
       transform="rotate(107.68979)"
       style="opacity:1;fill:#ffff00;stroke-width:0.01233318"
       d="m 231.10611,21.346645 c 0.36645,0 0.66146,0.378597 0.66146,0.848872 v 2.756076 c 0,0.470275 -0.29501,0.848872 -0.66146,0.848872 -0.36644,0 -0.66145,-0.378597 -0.66145,-0.848872 v -2.756076 c 0,-0.470275 0.29501,-0.848872 0.66145,-0.848872 z"
       id="rect928"
       inkscape:connector-curvature="0" />
    <path
       transform="rotate(119.70322)"
       style="opacity:1;fill:#ffff00;stroke-width:0.01233318"
       d="m 196.95014,-68.185089 c 0.36645,0 0.66146,0.378597 0.66146,0.848871 v 2.756077 c 0,0.470274 -0.29501,0.848871 -0.66146,0.848871 -0.36645,0 -0.66146,-0.378597 -0.66146,-0.848871 v -2.756077 c 0,-0.470274 0.29501,-0.848871 0.66146,-0.848871 z"
       id="rect930"
       inkscape:connector-curvature="0" />
    <path
       transform="rotate(107.70232)"
       style="opacity:1;fill:#ff00ff;stroke-width:0.01233318"
       d="m 195.55924,6.8188176 c 0.36645,0 0.66146,0.3785967 0.66146,0.8488716 v 2.7560758 c 0,0.470275 -0.29501,0.848872 -0.66146,0.848872 -0.36645,0 -0.66146,-0.378597 -0.66146,-0.848872 V 7.6676892 c 0,-0.4702749 0.29501,-0.8488716 0.66146,-0.8488716 z"
       id="rect932"
       inkscape:connector-curvature="0" />
    <path
       transform="rotate(21.774439)"
       style="opacity:1;fill:#ff0000;stroke-width:0.01233318"
       d="m 3.0101255,220.61324 c 0.3664479,0 0.6614583,0.37859 0.6614583,0.84887 v 2.75607 c 0,0.47028 -0.2950104,0.84887 -0.6614583,0.84887 -0.3664479,0 -0.6614584,-0.37859 -0.6614584,-0.84887 v -2.75607 c 0,-0.47028 0.2950105,-0.84887 0.6614584,-0.84887 z"
       id="rect934"
       inkscape:connector-curvature="0" />
    <path
       transform="rotate(81.691558)"
       style="opacity:1;fill:#ff00ff;stroke-width:0.01233318"
       d="m 199.47191,51.482414 c 0.36645,0 0.66146,0.378597 0.66146,0.848872 v 2.756076 c 0,0.470275 -0.29501,0.848872 -0.66146,0.848872 -0.36644,0 -0.66145,-0.378597 -0.66145,-0.848872 v -2.756076 c 0,-0.470275 0.29501,-0.848872 0.66145,-0.848872 z"
       id="rect870-3"
       inkscape:connector-curvature="0" />
    <path
       transform="rotate(10.344825)"
       style="opacity:1;fill:#ff6600;stroke-width:0.01233318"
       d="m 4.8005999,199.62544 c 0.3664479,0 0.6614583,0.3786 0.6614583,0.84887 v 2.75608 c 0,0.47028 -0.2950104,0.84887 -0.6614583,0.84887 -0.3664479,0 -0.6614583,-0.37859 -0.6614583,-0.84887 v -2.75608 c 0,-0.47027 0.2950104,-0.84887 0.6614583,-0.84887 z"
       id="rect951"
       inkscape:connector-curvature="0" />
    <path
       transform="rotate(137.03376)"
       style="opacity:1;fill:#ff0000;stroke-width:0.01233318"
       d="m 169.37356,-110.2603 c 0.36644,0 0.66145,0.3786 0.66145,0.84887 v 2.75608 c 0,0.47027 -0.29501,0.84887 -0.66145,0.84887 -0.36645,0 -0.66146,-0.3786 -0.66146,-0.84887 v -2.75608 c 0,-0.47027 0.29501,-0.84887 0.66146,-0.84887 z"
       id="rect962"
       inkscape:connector-curvature="0" />
  </g>
</svg>
