<?xml version="1.0" encoding="utf-8"?>
<!-- Generator: Adobe Illustrator 21.0.0, SVG Export Plug-In . SVG Version: 6.00 Build 0)  -->
<svg version="1.1" xmlns="http://www.w3.org/2000/svg" xmlns:xlink="http://www.w3.org/1999/xlink" x="0px" y="0px"
	 viewBox="0 0 1400 1000" style="enable-background:new 0 0 1400 1000;" xml:space="preserve">
<style type="text/css">
	.st0{fill:#C6CFD6;}
	.st1{fill:#F1F2F2;}
	.st2{fill:none;stroke:#FFFFFF;stroke-width:4;stroke-miterlimit:10;}
	.st3{fill:none;stroke:#3CBCB0;stroke-width:7;stroke-linecap:round;stroke-linejoin:round;stroke-miterlimit:10;}
	.st4{fill:#939598;}
	.st5{fill:none;stroke:#BE1E2D;stroke-width:7;stroke-linecap:round;stroke-linejoin:round;stroke-miterlimit:10;}
</style>
<g id="Backgground">
	<rect class="st1" width="1400" height="1000"/>
</g>
<g id="object">
	<g>
		<g>
			<path class="st4" d="M832.9,106.8l0.3,24.6l0.2,24.6l0.4,49.2l0.6,98.4c0.2,32.8,0.2,65.6,0.3,98.4l0.2,98.4l-0.2,98.4l-0.1,49.2
				l-0.1,24.6l-0.1,24.6l-0.6,98.4l-0.5,49.2l-0.2,24.6l-0.3,24.6l-0.3-24.6l-0.2-24.6l-0.5-49.2l-0.6-98.4l-0.1-24.6l-0.1-24.6
				l-0.1-49.2l-0.2-98.4l0.2-98.4c0.1-32.8,0-65.6,0.3-98.4l0.6-98.4l0.4-49.2l0.2-24.6L832.9,106.8z"/>
		</g>
		<g>
			<path class="st4" d="M997.2,533.7l0.3,11.5l0.2,11.5l0.4,23c0.2,15.3,0.4,30.6,0.6,45.9c0.2,15.3,0.2,30.6,0.3,45.9l0.1,45.9
				l-0.1,45.9c-0.1,15.3-0.1,30.6-0.3,45.9c-0.1,15.3-0.3,30.6-0.6,45.9l-0.5,23l-0.2,11.5l-0.3,11.5l-0.3-11.5l-0.2-11.5l-0.5-23
				c-0.2-15.3-0.4-30.6-0.6-45.9c-0.2-15.3-0.2-30.6-0.3-45.9l-0.1-45.9l0.1-45.9c0.1-15.3,0.1-30.6,0.3-45.9
				c0.1-15.3,0.3-30.6,0.6-45.9l0.4-23l0.2-11.5L997.2,533.7z"/>
		</g>
		<g>
			<path class="st4" d="M934.5,533.7c0.8,16.1,1.3,32.3,1.6,48.4c0.2,8.1,0.2,16.1,0.3,24.2l0.1,24.2l-0.1,24.2
				c-0.1,8.1-0.1,16.1-0.3,24.2c-0.3,16.1-0.7,32.3-1.6,48.4c-0.8-16.1-1.3-32.3-1.6-48.4c-0.2-8.1-0.2-16.1-0.3-24.2l-0.1-24.2
				l0.1-24.2c0.1-8.1,0.1-16.1,0.3-24.2C933.2,566,933.7,549.8,934.5,533.7z"/>
		</g>
		<g>
			<path class="st4" d="M958.4,611.8c0.8,9.8,1.3,19.6,1.6,29.4c0.2,4.9,0.2,9.8,0.3,14.7l0.1,14.7l-0.1,14.7
				c-0.1,4.9-0.1,9.8-0.3,14.7c-0.3,9.8-0.7,19.6-1.6,29.4c-0.8-9.8-1.3-19.6-1.6-29.4c-0.2-4.9-0.2-9.8-0.3-14.7l-0.1-14.7
				l0.1-14.7c0.1-4.9,0.1-9.8,0.3-14.7C957.2,631.4,957.6,621.6,958.4,611.8z"/>
		</g>
		<g>
			<path class="st4" d="M136.9,106.8l0.3,24.6l0.2,24.6l0.4,49.2l0.6,98.4c0.2,32.8,0.2,65.6,0.3,98.4l0.2,98.4l-0.2,98.4l-0.1,49.2
				l-0.1,24.6l-0.1,24.6l-0.6,98.4l-0.5,49.2l-0.2,24.6l-0.3,24.6l-0.3-24.6l-0.2-24.6l-0.5-49.2l-0.6-98.4l-0.1-24.6l-0.1-24.6
				l-0.1-49.2l-0.2-98.4l0.2-98.4c0.1-32.8,0-65.6,0.3-98.4l0.6-98.4l0.4-49.2l0.2-24.6L136.9,106.8z"/>
		</g>
		<g>
			<path class="st4" d="M1263.1,106.8l0.3,24.6l0.2,24.6l0.4,49.2l0.6,98.4c0.2,32.8,0.2,65.6,0.3,98.4l0.2,98.4l-0.2,98.4
				l-0.1,49.2l-0.1,24.6l-0.1,24.6l-0.6,98.4l-0.5,49.2l-0.2,24.6l-0.3,24.6l-0.3-24.6l-0.2-24.6l-0.5-49.2l-0.6-98.4l-0.1-24.6
				l-0.1-24.6l-0.1-49.2l-0.2-98.4l0.2-98.4c0.1-32.8,0-65.6,0.3-98.4l0.6-98.4l0.4-49.2l0.2-24.6L1263.1,106.8z"/>
		</g>
		<g>
			<path class="st4" d="M86.3,152.2l76.7-0.5l76.7-0.4l153.4-0.6c51.1-0.2,102.3-0.2,153.4-0.3l153.4-0.2l153.4,0.2l76.7,0.1
				l76.7,0.2l153.4,0.6l76.7,0.5l76.7,0.5l-76.7,0.5l-76.7,0.5l-153.4,0.6l-76.7,0.2l-76.7,0.1L700,154.2L546.6,154
				c-51.1-0.1-102.3,0-153.4-0.3l-153.4-0.6l-76.7-0.4L86.3,152.2z"/>
		</g>
		<g>
			<path class="st4" d="M86.3,848.2l76.7-0.5l76.7-0.4l153.4-0.6c51.1-0.2,102.3-0.2,153.4-0.3l153.4-0.2l153.4,0.2l76.7,0.1
				l76.7,0.2l153.4,0.6l76.7,0.5l76.7,0.5l-76.7,0.5l-76.7,0.5l-153.4,0.6l-76.7,0.2l-76.7,0.1L700,850.2l-153.4-0.2
				c-51.1-0.1-102.3,0-153.4-0.3l-153.4-0.6l-76.7-0.4L86.3,848.2z"/>
		</g>
		<g>
			<path class="st4" d="M790.5,582.4l16.1-0.3l16.1-0.2l32.2-0.4l64.4-0.6c42.9-0.4,85.8-0.4,128.7-0.5l64.4,0.1
				c21.5,0.1,42.9,0.1,64.4,0.4l64.4,0.6l32.2,0.5l16.1,0.2l16.1,0.3l-16.1,0.3l-16.1,0.2l-32.2,0.5l-64.4,0.6
				c-21.5,0.2-42.9,0.2-64.4,0.4l-64.4,0.1c-42.9-0.1-85.8-0.1-128.7-0.5l-64.4-0.6l-32.2-0.4l-16.1-0.2L790.5,582.4z"/>
		</g>
		<g>
			<path class="st4" d="M790.5,683.9c20.5-0.8,41-1.3,61.6-1.6c10.3-0.2,20.5-0.2,30.8-0.3l30.8-0.1l30.8,0.1
				c10.3,0.1,20.5,0.1,30.8,0.3c20.5,0.3,41,0.7,61.6,1.6c-20.5,0.8-41,1.3-61.6,1.6c-10.3,0.2-20.5,0.2-30.8,0.3l-30.8,0.1
				l-30.8-0.1c-10.3-0.1-20.5-0.1-30.8-0.3C831.6,685.2,811.1,684.8,790.5,683.9z"/>
		</g>
		<g>
			<path class="st4" d="M907.8,645.1c10.7-0.8,21.5-1.3,32.2-1.6c5.4-0.2,10.7-0.2,16.1-0.3l16.1-0.1l16.1,0.1
				c5.4,0.1,10.7,0.1,16.1,0.3c10.7,0.3,21.5,0.7,32.2,1.6c-10.7,0.8-21.5,1.3-32.2,1.6c-5.4,0.2-10.7,0.2-16.1,0.3l-16.1,0.1
				l-16.1-0.1c-5.4-0.1-10.7-0.1-16.1-0.3C929.3,646.4,918.6,645.9,907.8,645.1z"/>
		</g>
		<g>
			<path class="st4" d="M907.8,660c5.8-0.8,11.7-1.3,17.5-1.6c5.8-0.3,11.7-0.4,17.5-0.4c5.8,0,11.7,0.1,17.5,0.4
				c5.8,0.3,11.7,0.7,17.5,1.6c-5.8,0.8-11.7,1.3-17.5,1.6c-5.8,0.3-11.7,0.4-17.5,0.4c-5.8,0-11.7-0.1-17.5-0.4
				C919.5,661.3,913.7,660.8,907.8,660z"/>
		</g>
	</g>
	<g>
		<circle class="st4" cx="832.9" cy="152.2" r="10.3"/>
		<circle class="st4" cx="1263.1" cy="582.4" r="10.3"/>
		<circle class="st4" cx="997.2" cy="848.2" r="10.3"/>
		<circle class="st4" cx="832.9" cy="683.9" r="10.3"/>
		<circle class="st4" cx="934.5" cy="582.4" r="10.3"/>
		<circle class="st4" cx="136.9" cy="848.2" r="10.3"/>
		<circle class="st4" cx="997.2" cy="645.1" r="10.3"/>
		<circle class="st4" cx="958.4" cy="683.9" r="10.3"/>
		<circle class="st4" cx="934.5" cy="660" r="10.3"/>
	</g>
	<path class="st5" d="M136.9,848.2c0-384.4,311.6-696.1,696.1-696.1h0h0c237.6,0,430.2,192.6,430.2,430.2v0v0
		c0,146.8-119,265.9-265.9,265.9c-90.7,0-164.3-73.6-164.3-164.3v0c0-56.1,45.5-101.6,101.6-101.6c0,0,0,0,0,0
		c34.7,0,62.7,28.1,62.7,62.7c0,0,0,0,0,0c0,21.4-17.4,38.8-38.8,38.8c0,0,0,0,0,0l0,0c-13.2,0-23.9-10.7-23.9-23.9"/>
</g>
<g id="text">
</g>
</svg>
