<?xml version="1.0" encoding="UTF-8" standalone="no"?>
<!-- Created with Inkscape (http://www.inkscape.org/) -->

<svg
   xmlns:dc="http://purl.org/dc/elements/1.1/"
   xmlns:cc="http://creativecommons.org/ns#"
   xmlns:rdf="http://www.w3.org/1999/02/22-rdf-syntax-ns#"
   xmlns:svg="http://www.w3.org/2000/svg"
   xmlns="http://www.w3.org/2000/svg"
   xmlns:sodipodi="http://sodipodi.sourceforge.net/DTD/sodipodi-0.dtd"
   xmlns:inkscape="http://www.inkscape.org/namespaces/inkscape"
   version="1.1"
   id="svg2"
   width="977.04529"
   height="977.04529"
   viewBox="0 0 977.04529 977.04529"
   sodipodi:docname="lucario.svg"
   inkscape:version="0.92.3 (2405546, 2018-03-11)">
  <metadata
     id="metadata8">
    <rdf:RDF>
      <cc:Work
         rdf:about="">
        <dc:format>image/svg+xml</dc:format>
        <dc:type
           rdf:resource="http://purl.org/dc/dcmitype/StillImage" />
        <dc:title></dc:title>
      </cc:Work>
    </rdf:RDF>
  </metadata>
  <defs
     id="defs6" />
  <sodipodi:namedview
     pagecolor="#ffffff"
     bordercolor="#666666"
     borderopacity="1"
     objecttolerance="10"
     gridtolerance="10"
     guidetolerance="10"
     inkscape:pageopacity="0"
     inkscape:pageshadow="2"
     inkscape:window-width="1366"
     inkscape:window-height="714"
     id="namedview4"
     showgrid="false"
     inkscape:zoom="0.18730159"
     inkscape:cx="1207.3411"
     inkscape:cy="92.150452"
     inkscape:window-x="0"
     inkscape:window-y="25"
     inkscape:window-maximized="1"
     inkscape:current-layer="svg2" />
  <g
     id="g847"
     transform="scale(1.8527861,2.2047896)">
    <path
       style="fill:#01a1df"
       d="m 137.15174,442.87679 c -18.10779,-2.78688 -34.71023,-13.92272 -41.588769,-27.89502 -2.51081,-5.10018 -3.22979,-8.02979 -3.65899,-14.90933 -0.30352,-4.86512 -0.97913,-8.56191 -1.56474,-8.56191 -0.56682,0 -3.99089,1.19213 -7.60904,2.64918 -8.66124,3.48793 -22.41396,4.29698 -32.55083,1.91489 C 25.46242,390.26636 5.8366197,370.69242 0.98526968,347.01053 -1.0870903,336.89426 0.03802968,329.14584 5.0427897,319.0674 10.37417,308.33123 19.82101,297.22244 45.093241,271.97097 c 23.84651,-23.82691 43.97591,-41.73246 64.505269,-57.3789 l 11.88004,-9.05435 0.56397,-7.2636 c 0.31018,-3.99497 0.82495,-11.31359 1.14393,-16.26359 3.69028,-57.26633 21.08654,-142.599307 34.20002,-167.759577 7.76145,-14.89155495 18.04917,-18.108919 29.6387,-9.26916 10.50098,8.0095 30.5989,47.26345 49.1666,96.028737 l 7.2343,19 12.3628,-0.3101 c 6.7996,-0.17054 15.5129,0.1496 19.3629,0.71144 5.3017,0.77369 7.2811,0.72762 8.1586,-0.18991 0.6373,-0.66629 4.969,-10.88644 9.626,-22.711427 24.9595,-63.37675 41.8201,-92.81261 55.4626,-96.82838995 9.1419,-2.69101705 16.9676,2.60075995 22.9298,15.50529995 13.9618,30.21835 29.5826,109.459257 33.441,169.637927 0.6412,10.00183 1.4395,18.7006 1.7739,19.3306 0.3344,0.63 4.7936,4.37453 9.9093,8.32119 32.3851,24.98437 77.3818,67.43992 95.5714,90.17412 11.7146,14.64145 16.4292,26.57847 15.0942,38.21769 -2.7171,23.68944 -19.2984,43.61897 -43.6322,52.44277 -6.4653,2.34441 -8.8162,2.66041 -19.8346,2.66616 -11.3611,0.006 -13.0994,-0.24285 -19.0785,-2.73042 -3.6181,-1.50533 -7.0422,-2.73695 -7.609,-2.73695 -0.5856,0 -1.2613,3.69679 -1.5648,8.56191 -0.6725,10.77949 -4.363,18.83595 -12.2338,26.70674 -10.4578,10.45783 -24.8793,16.12929 -41.0139,16.12929 -17.0661,0 -28.0662,-4.65284 -38.6774,-16.3599 l -6.1771,-6.81502 -6.5727,2.49771 c -12.3552,4.69504 -30.5645,10.34017 -45.0728,13.97318 -19.9571,4.99741 -26.2404,4.91578 -47.824,-0.62135 -8.9781,-2.30329 -23.5269,-6.66233 -32.33064,-9.68676 l -16.00676,-5.49895 -5.96418,6.50885 c -6.53379,7.13048 -13.41866,11.55015 -21.84283,14.02178 -5.68239,1.6672 -19.3213,2.75067 -24.53162,1.94878 z"
       id="path827"
       inkscape:connector-curvature="0" />
    <path
       inkscape:connector-curvature="0"
       id="path825"
       d="m 353.39967,0.00825305 c -1.618,-0.05429 -3.2859,0.169263 -5,0.67383 -13.6425,4.01577995 -30.5034,33.45136995 -55.4629,96.82811995 -4.657,11.824987 -8.9897,22.044637 -9.627,22.710927 -0.3172,0.33169 -0.786,0.54599 -1.4961,0.65235 l -1.3847,-0.0996 c -0.537,-0.0389 -1.8613,-0.0876 -3.5059,-0.13867 -0.5844,-0.073 -1.0786,-0.12154 -1.7715,-0.22266 -3.85,-0.56184 -12.5637,-0.88343 -19.3633,-0.71289 l -12.3613,0.31055 -7.2344,-19 C 217.62497,52.244913 197.52562,12.990403 187.02464,4.980913 c -6.91437,-5.27384695 -13.36418,-6.253388 -19.0918,-3.02539 -3.05134,1.48508 -5.73793,4.22307 -8.31836,8.49218 -0.76146,1.17894 -1.50945,2.42309 -2.22852,3.80274 -13.11347,25.16027 -30.50893,110.493427 -34.19921,167.759757 -0.31898,4.95 -0.83435,12.2687 -1.14453,16.26367 l -0.45118,5.80664 c -0.006,0.0191 -0.0134,0.0633 -0.0195,0.0801 -0.28291,0.76655 -2.79484,3.16227 -6.29492,6.10351 l -5.67773,4.32813 C 93.103421,227.16426 76.832831,241.25607 58.718031,258.64498 45.711361,270.91217 33.50704,283.20569 24.10084,293.63717 13.8129,304.83408 8.5298497,312.04363 5.0422397,319.06686 c -5.00476002,10.07844 -6.129,17.82709 -4.05664002,27.94336 4.85135002,23.68189 24.47642032,43.25621 49.19336132,49.06445 10.13687,2.38209 23.88955,1.57387 32.55079,-1.91406 3.61814,-1.45705 7.04255,-2.65039 7.60937,-2.65039 0.0334,0 0.0677,0.0155 0.10156,0.0391 0.48863,0.90545 1.05257,3.86349 1.3711,7.46094 0.002,0.0198 0.004,0.0368 0.006,0.0566 0.0264,0.34694 0.0634,0.64503 0.0859,1.00586 0.4292,6.87954 1.14935,9.80802 3.66016,14.9082 6.878539,13.9723 23.480099,25.1096 41.587889,27.89648 2.21533,0.34095 5.96933,0.32466 9.97266,0.084 0.48855,-0.0175 0.97123,-0.0622 1.45703,-0.0918 0.23523,-0.0173 0.46348,-0.0261 0.69922,-0.0449 0.8436,-0.0616 1.68183,-0.14236 2.51562,-0.24024 3.87773,-0.3976 7.55572,-0.97235 9.88672,-1.65624 8.42417,-2.47164 15.30996,-6.89101 21.84375,-14.02149 l 3.33398,-3.64062 c 1.50707,-1.51919 2.69293,-2.59038 3.07618,-2.71485 l 15.56054,5.3457 c 8.80368,3.02443 23.35188,7.38226 32.33008,9.68555 21.5835,5.53713 27.8671,5.61851 47.8242,0.6211 14.5083,-3.63301 32.7171,-9.27762 45.0723,-13.97266 l 6.1269,-2.32813 c 0.2683,0.0219 0.537,0.0957 0.8086,0.22852 l 5.8145,6.41797 c 10.6112,11.70706 21.6116,16.35937 38.6777,16.35937 2.8259,0 5.596,-0.18415 8.3047,-0.52734 1.8996,-0.19568 3.6674,-0.46542 5.1953,-0.81836 0.903,-0.20859 1.8075,-0.45296 2.7129,-0.7168 9.5272,-2.51031 18.0041,-7.26975 24.8008,-14.0664 7.8708,-7.87079 11.5619,-15.92754 12.2344,-26.70703 0.024,-0.38116 0.064,-0.6969 0.092,-1.0625 0.3185,-3.59745 0.8824,-6.55549 1.3711,-7.46094 0.034,-0.0236 0.068,-0.0391 0.1015,-0.0391 0.5668,0 3.9912,1.23099 7.6094,2.73632 4.4009,1.83097 6.5292,2.44428 11.8633,2.64063 4.7601,0.62799 9.6418,0.61627 14.541,-0.0234 5.2523,-0.221 7.812,-0.84996 12.5078,-2.55273 24.3338,-8.8238 40.9157,-28.75197 43.6328,-52.44141 1.335,-11.63922 -3.3791,-23.5773 -15.0937,-38.21875 -18.1897,-22.7342 -63.1872,-65.18946 -95.5723,-90.17383 -5.1157,-3.94666 -9.5738,-7.69031 -9.9082,-8.32031 -0.3344,-0.63 -1.1341,-9.3302 -1.7754,-19.33203 C 400.91047,125.64598 385.29107,46.406293 371.32927,16.187943 366.48497,5.703003 360.41077,0.24349105 353.39967,0.00825305 Z m -1.125,13.50194995 c 2.7642,0 8.6539,13.16693 13.7812,30.81055 12.8357,44.1686 22.3226,105.309697 25.5527,164.689447 0.5685,10.44999 1.3118,21.97135 1.6524,25.60156 0.6034,6.43011 0.5464,6.65112 -2.2442,8.60937 -1.5754,1.10555 -14.5652,7.84733 -28.8652,14.98047 -14.3,7.13314 -31.4,15.91437 -38,19.51563 -6.6,3.60127 -19.3072,10.20261 -28.2383,14.66992 -8.931,4.46733 -16.5294,8.12305 -16.8847,8.12305 -1.2619,0 0.4554,-47.03601 3.0117,-82.5 2.9219,-40.53679 3.57,-46.83486 7.0039,-68 2.3772,-14.65199 2.7362,-15.74246 15.4062,-47 24.9201,-61.479037 39.8918,-89.499997 47.8243,-89.499997 z m -178.34183,0.19336 c 3.86599,-0.17356 10.3449,8.50719 20.03125,26.80665 8.54301,16.13943 23.01238,49.80797 34.75778,80.876937 2.1575,5.70698 4.7728,11.78197 5.8106,13.5 2.4677,4.08524 6.3458,31.4545 9.0879,64.12305 3.0406,36.22568 6.2102,97.52948 5.1972,100.51757 -0.1833,0.5408 -0.6569,0.98243 -1.0527,0.98243 -1.3234,0 -16.4347,-7.61808 -35.1133,-17.70118 -10.17498,-5.49268 -31.99998,-16.83296 -48.49998,-25.20117 -16.5,-8.36821 -30.86651,-15.85796 -31.92578,-16.64453 -1.88508,-1.3998 -1.88893,-1.67975 -0.18164,-13.19141 0.95936,-6.46861 2.36452,-21.43672 3.12305,-33.26171 2.88666,-45.00194 9.06617,-86.03652 19.57421,-129.999987 6.84764,-28.64916 14.28018,-49.05299 18.45313,-50.6543 0.23468,-0.0901 0.48055,-0.14078 0.73828,-0.15235 z m 170.73433,62.80665 c -2.0152,0 -6.0098,7.08024 -11.5683,20.49999 -4.1131,9.929997 -12.4473,34.173597 -12.4473,36.208977 0,2.45392 4.353,1.27389 12.1328,-3.28711 4.2944,-2.51763 8.2286,-4.31668 8.7442,-3.99805 0.5155,0.31862 2.3692,4.06662 4.1191,8.32813 1.7499,4.2615 3.9264,8.3269 4.8359,9.03516 0.9096,0.70826 2.5562,1.15826 3.6602,1 0.9315,-0.13354 1.4424,-0.46385 1.7617,-1.78711 h 0.027 l -0.01,-0.11329 c 0.2809,-1.24641 0.4126,-3.30998 0.5488,-6.88671 0.9018,-23.67746 -6.1683,-58.999987 -11.8086,-58.999987 z m -164.87105,1.47656 c -0.22816,-0.0201 -0.45953,-0.0194 -0.69531,0.002 -0.53892,0.0487 -1.10164,0.20026 -1.70508,0.42969 -2.15878,0.82076 -2.647,2.26198 -5.10156,15.07812 -1.49273,7.794077 -3.3648,18.747427 -4.16016,24.341787 -1.83009,12.87248 -1.95466,29.7951 -0.23242,31.53711 1.91431,1.93629 5.88586,-3.45856 10.30469,-13.99609 2.06146,-4.91593 4.1283,-9.17254 4.59179,-9.45899 0.46349,-0.28645 4.60279,1.52966 9.19922,4.03516 9.05599,4.93644 11.6543,5.55063 11.6543,2.75781 0,-2.17168 -6.58696,-21.81369 -10.79883,-32.20312 -6.90643,-17.036157 -9.63424,-22.222367 -13.05664,-22.523427 z M 119.14964,316.5102 c 0.73682,0 7.33989,2.41657 14.67187,5.36914 34.16931,13.75986 75.78536,36.43588 84.78126,46.19531 2.7114,2.94153 6.5999,9.47321 10.5898,17.79102 6.8347,14.24844 14.459,32.79007 14.459,35.16406 0,1.81452 0.4413,1.86257 -10.5,-1.11328 -22.1035,-6.01179 -48.36869,-15.98308 -63.49998,-24.10547 -31.41851,-16.86528 -49.43867,-35.66614 -52.99805,-55.29492 -1.60772,-8.86606 -0.0341,-24.00586 2.4961,-24.00586 z m 286.31643,0.47461 c 0.082,-0.008 0.1372,-0.005 0.164,0.0117 0.4297,0.26552 1.0808,5.10205 1.4473,10.74805 1.0431,16.07014 -2.9761,27.4032 -14.0645,39.65625 -17.8202,19.69202 -47.5382,35.50571 -94.3339,50.19531 -6.8599,2.15339 -13.0952,3.91407 -13.8575,3.91407 -1.9464,0 -1.0319,-3.18454 5.0254,-17.5 7.8262,-18.49585 15.5147,-32.97501 19.7442,-37.1836 8.1135,-8.07348 44.9379,-28.20145 78.9082,-43.1289 8.4296,-3.70421 15.733,-6.58592 16.9668,-6.71289 z"
       style="fill:#232323;fill-opacity:1" />
  </g>
</svg>
