<?xml version="1.0" encoding="UTF-8" standalone="no"?>
<!-- Created with Inkscape (http://www.inkscape.org/) -->

<svg
   xmlns:dc="http://purl.org/dc/elements/1.1/"
   xmlns:cc="http://creativecommons.org/ns#"
   xmlns:rdf="http://www.w3.org/1999/02/22-rdf-syntax-ns#"
   xmlns:svg="http://www.w3.org/2000/svg"
   xmlns="http://www.w3.org/2000/svg"
   xmlns:sodipodi="http://sodipodi.sourceforge.net/DTD/sodipodi-0.dtd"
   xmlns:inkscape="http://www.inkscape.org/namespaces/inkscape"
   version="1.1"
   id="svg885"
   width="68.029678"
   height="58.319622"
   viewBox="0 0 68.029678 58.319622"
   sodipodi:docname="lucario.svg"
   inkscape:version="0.92.4 (33fec40, 2019-01-16)">
  <metadata
     id="metadata891">
    <rdf:RDF>
      <cc:Work
         rdf:about="">
        <dc:format>image/svg+xml</dc:format>
        <dc:type
           rdf:resource="http://purl.org/dc/dcmitype/StillImage" />
        <dc:title></dc:title>
      </cc:Work>
    </rdf:RDF>
  </metadata>
  <defs
     id="defs889" />
  <sodipodi:namedview
     pagecolor="#ffffff"
     bordercolor="#666666"
     borderopacity="1"
     objecttolerance="10"
     gridtolerance="10"
     guidetolerance="10"
     inkscape:pageopacity="0"
     inkscape:pageshadow="2"
     inkscape:window-width="1366"
     inkscape:window-height="712"
     id="namedview887"
     showgrid="false"
     inkscape:pagecheckerboard="true"
     showborder="false"
     inkscape:zoom="6.9861111"
     inkscape:cx="27.840093"
     inkscape:cy="33.136613"
     inkscape:window-x="0"
     inkscape:window-y="0"
     inkscape:window-maximized="1"
     inkscape:current-layer="svg885"
     inkscape:snap-smooth-nodes="false" />
  <path
     style="fill:#ffffff;stroke-width:0.31999999"
     d="m 44.111017,0.00183502 c -1.54537,0.043336 -3.14848,0.8542823 -4.6211,2.49218758 -0.82088,0.9130242 -2.06274,2.9308772 -2.89453,4.6992182 -0.80146,1.703837 -1.57897,3.3121722 -1.72656,3.5761722 -0.67474,1.20693 -1.23069,0.622198 -3.22852,-3.3906252 -2.274419,-4.5683676 -3.701252,-6.2190073 -6.029292,-6.98046838 -3.027817,-0.990345 -6.14262,0.74175318 -7.59961,4.22460938 -1.358743,3.248 -3.112444,11.8182762 -3.84375,18.7792972 -0.186889,1.778932 -0.305435,2.003556 -1.689453,3.201172 -3.5257328,3.050877 -9.7972248,9.420185 -10.7949218,10.964844 -0.596232,0.923103 -1.24760403,2.334077 -1.44921903,3.134765 -1.19852,4.759754 2.32674603,10.106793 7.80664103,11.837891 1.375972,0.434669 2.6993268,0.789062 2.9394528,0.789062 0.240125,0 0.886058,0.567931 1.435547,1.261719 1.210472,1.528346 2.674275,2.468894 5.082031,3.263672 2.366939,0.781302 5.260794,0.564219 7.476563,-0.558594 l 1.59375,-0.806641 3.46875,0.8125 c 3.722831,0.872967 4.321611,0.85306 9.160161,-0.328124 1.9379,-0.473078 1.99563,-0.46738 4,0.394531 1.60102,0.68847 2.5442,0.876565 4.43359,0.884765 3.06762,0.01327 5.21729,-0.932495 7.69922,-3.382812 1.500856,-1.481744 2.018336,-1.790405 3.291006,-1.964844 3.8745,-0.531059 7.60878,-3.68912 8.88086,-7.511719 0.81156,-2.438755 0.69246,-4.464153 -0.39062,-6.632812 -1.1646,-2.331885 -6.37663,-7.79751 -12.054686,-12.638672 -0.8657,-0.738099 -0.96468,-1.0369 -1.16602,-3.519531 -0.40086,-4.942667 -1.9699,-12.6478222 -3.39843,-16.6875002 -1.38795,-3.9248893 -3.80525,-5.98628878 -6.38086,-5.91406278 z"
     id="path948"
     inkscape:connector-curvature="0" />
  <path
     inkscape:connector-curvature="0"
     id="path897"
     d="m 17.71025,53.836628 c -1.564296,-0.698237 -2.814175,-2.261872 -3.025324,-3.784771 -0.15787,-1.138621 -0.292477,-1.34177 -0.821736,-1.24016 -0.348117,0.06683 -1.56894,0.138835 -2.71294,0.16 -2.5848985,0.04783 -4.0662696,-0.6289 -5.6754485,-2.592692 C 4.4914527,45.178957 4.285543,44.657015 4.1710569,43.074263 4.0566105,41.492055 4.1626869,40.977527 4.8414675,39.822417 5.7585929,38.261706 12.091668,31.976756 15.520676,29.224362 c 1.259734,-1.011165 2.375734,-2.060787 2.48,-2.332499 0.104266,-0.271715 0.189574,-1.19487 0.189574,-2.051463 0,-3.932293 1.891064,-14.532629 3.2158,-18.0261252 0.758797,-2.001045 1.46698,-2.764092 2.56535,-2.764092 1.567464,0 3.470941,2.911143 5.983439,9.1509662 0.843552,2.094969 1.646105,3.989034 1.783456,4.209034 0.337005,0.5398 4.186054,0.5398 4.601273,0 0.169226,-0.22 0.786788,-1.624 1.372356,-3.12 1.449952,-3.704307 3.613664,-8.0039012 4.64415,-9.2285642 1.709158,-2.031218 3.418192,-1.096943 4.588822,2.508564 1.24112,3.8226082 2.90425,13.1138542 2.921277,16.3200002 0.01421,2.67799 0.483223,3.619635 2.64664,5.313834 2.998167,2.3479 9.491408,8.731376 10.526768,10.348816 2.789687,4.358051 -1.320368,10.169414 -6.726637,9.511049 -0.815481,-0.09931 -1.767516,-0.224016 -2.115635,-0.277129 -0.523747,-0.07991 -0.66551,0.138339 -0.821734,1.265104 -0.215568,1.554771 -1.480538,3.106937 -3.095047,3.797737 -2.178051,0.931927 -5.606774,0.380925 -6.939875,-1.115245 -0.780406,-0.875872 -0.837965,-0.872124 -4.869469,0.316954 -3.968912,1.170621 -5.301603,1.141232 -9.97874,-0.220048 l -2.977806,-0.866691 -0.862194,0.822451 c -0.474207,0.452349 -1.267568,0.975613 -1.763026,1.16281 -1.235385,0.466761 -4.016013,0.405987 -5.179168,-0.113197 z m 14.44671,-2.432896 c -0.10631,-0.531546 -0.6856,-2.031987 -1.287308,-3.334311 -1.329442,-2.877401 -2.186582,-3.564153 -8.080958,-6.474588 -2.893821,-1.428868 -4.487422,-2.041911 -5.12,-1.969616 -0.880991,0.100684 -0.922386,0.180953 -1.015113,1.968409 -0.07983,1.538839 0.04855,2.111245 0.737007,3.286 0.814342,1.389571 3.235123,3.558762 4.976408,4.459216 1.399409,0.723664 8.392281,3.016634 9.223254,3.024317 0.67583,0.0062 0.738592,-0.10001 0.56671,-0.959427 z m 9.461933,-0.643677 c 4.171335,-1.462822 7.19049,-3.47775 8.461965,-5.64736 1.03736,-1.770118 1.361347,-4.42089 0.655398,-5.362227 -0.44886,-0.598528 -0.635849,-0.535072 -5.468355,1.855645 -3.023817,1.495932 -5.488301,2.94398 -6.228611,3.659718 -1.316214,1.272531 -3.438422,5.82927 -3.111562,6.681053 0.230944,0.601833 1.118423,0.416758 5.691165,-1.186829 z M 32.785876,33.136381 C 32.477792,25.546948 31.840052,20.400157 31.019063,18.877539 30.655082,18.202493 29.631761,15.842772 28.745019,13.633715 25.816793,6.3389088 24.101994,4.1443468 22.837787,6.0737708 21.514655,8.0931238 18.736443,23.454536 18.402151,30.599479 l -0.0519,1.109293 6.4,3.425597 c 3.662132,1.960153 6.797382,3.436336 7.328915,3.450704 l 0.928914,0.02511 z M 23.792614,17.232067 c 0.122472,-0.933964 0.33482,-2.085964 0.471887,-2.56 0.24669,-0.853169 0.255723,-0.847323 0.893247,0.578116 1.152058,2.575885 1.169548,2.817448 0.190442,2.63028 -0.603309,-0.11533 -0.994568,0.01612 -1.318119,0.442853 -0.411679,0.542962 -0.436684,0.42805 -0.237457,-1.091249 z m 19.068327,18.098116 c 3.833424,-1.976051 6.438346,-3.508634 6.552519,-3.855114 0.10423,-0.31631 0.03877,-1.54031 -0.145463,-2.72 C 49.08376,27.575383 48.773162,24.882183 48.577773,22.770183 47.93106,15.779668 45.758496,6.2997418 44.578775,5.3206598 c -1.086781,-0.90195 -2.779155,1.781063 -5.764048,9.1380662 -0.997792,2.459301 -1.922224,4.615457 -2.054295,4.791457 -0.13207,0.176 -0.340176,0.824 -0.46246,1.44 -0.376103,1.894582 -1.13402,11.831363 -1.141063,14.96 -0.0063,2.79833 0.03014,2.96 0.667184,2.96 0.370615,0 3.537197,-1.476 7.036848,-3.28 z m 0.750301,-17.230758 c -0.119232,-0.192917 -0.633603,-0.289582 -1.143056,-0.21481 -1.052064,0.154411 -1.044621,-0.0289 0.106992,-2.634432 0.547523,-1.238775 0.670435,-1.350566 0.879565,-0.8 0.309078,0.813691 0.727613,4 0.525414,4 -0.08367,0 -0.249686,-0.157841 -0.368915,-0.350758 z"
     style="fill:#000000;stroke-width:0.31999999" />
  <path
     style="fill:#019fdc;stroke-width:0.30442005"
     d="m 44.141259,5.1521308 c -1.09279,0.0099 -2.71438,2.869263 -5.326168,9.3066412 -0.997792,2.459301 -1.922617,4.615015 -2.054688,4.791015 -0.13207,0.176 -0.340606,0.823453 -0.46289,1.439453 -0.376103,1.894582 -1.133582,11.832301 -1.140625,14.960938 -0.0063,2.79833 0.03092,2.958984 0.667969,2.958984 0.370615,0 3.537454,-1.475297 7.037112,-3.279297 3.83342,-1.976051 6.43856,-3.508988 6.55273,-3.855468 0.10423,-0.31631 0.0378,-1.541013 -0.14648,-2.720703 -0.18424,-1.179687 -0.49407,-3.872376 -0.68946,-5.984376 -0.64671,-6.990514 -2.82027,-16.4701362 -4,-17.4492182 -0.13584,-0.112744 -0.28138,-0.169382 -0.4375,-0.167969 z M 23.88345,5.4138498 c -0.384295,-0.0484 -0.72887,0.175847 -1.044922,0.658203 -1.323132,2.019353 -4.101254,17.3824012 -4.435547,24.5273442 l -0.05273,1.109375 6.400391,3.423828 c 3.662132,1.960153 6.796592,3.436804 7.328125,3.451172 l 0.929687,0.02539 -0.222656,-5.474609 C 32.47771,25.54512 31.841158,20.399358 31.020169,18.87674 30.656188,18.201694 29.63152,15.841657 28.744778,13.6326 26.548609,8.1614948 25.036335,5.5590388 23.88345,5.4138498 Z m 0.603516,8.6894532 c 0.118906,-0.0813 0.273422,0.255585 0.671875,1.146484 1.152058,2.575885 1.168559,2.816074 0.189453,2.628907 -0.603309,-0.115331 -0.994808,0.01663 -1.318359,0.443359 -0.411679,0.542962 -0.435555,0.427502 -0.236328,-1.091797 0.122472,-0.933964 0.333636,-2.084558 0.470703,-2.558594 0.09251,-0.319938 0.151312,-0.51958 0.222656,-0.568359 z m 18.742183,0.03125 c 0.0811,-0.0043 0.14814,0.107991 0.22657,0.314453 0.30908,0.813691 0.72759,4 0.52539,4 -0.0837,0 -0.24991,-0.156692 -0.36914,-0.349609 -0.11923,-0.192917 -0.63312,-0.289616 -1.14258,-0.214844 -1.05206,0.154411 -1.04615,-0.02923 0.10547,-2.634766 0.3422,-0.774234 0.51911,-1.108022 0.65429,-1.115234 z m 6.85352,25.308594 c -0.5891,0.08259 -1.79413,0.667911 -4.81445,2.162109 -3.02382,1.495932 -5.488209,2.944418 -6.228519,3.660156 -1.316214,1.272531 -3.438188,5.827905 -3.111328,6.679688 0.230944,0.601833 1.118662,0.41804 5.691407,-1.185547 4.17134,-1.462822 7.18946,-3.478828 8.46094,-5.648438 1.03736,-1.770118 1.36219,-4.419991 0.65625,-5.361328 -0.16833,-0.224448 -0.30084,-0.356193 -0.6543,-0.30664 z m -32.414062,0.18164 c -0.880991,0.100684 -0.922898,0.181294 -1.015626,1.96875 -0.07983,1.538839 0.04982,2.110401 0.738282,3.285157 0.814342,1.38957 3.235277,3.55853 4.976562,4.458984 1.399409,0.723664 8.391684,3.017708 9.222656,3.02539 0.675831,0.0062 0.738289,-0.10152 0.566407,-0.960937 -0.10631,-0.531546 -0.685402,-2.03166 -1.28711,-3.333984 -1.329442,-2.877401 -2.185702,-3.564175 -8.080078,-6.47461 -2.893821,-1.428868 -4.488515,-2.041045 -5.121093,-1.96875 z"
     id="path937"
     inkscape:connector-curvature="0"
     sodipodi:nodetypes="ssccsssccccsssccccccsssssccscsccssccccsccsscccscscccsc" />
</svg>
