<?xml version="1.0" encoding="UTF-8" standalone="no"?>
<!-- Created with Inkscape (http://www.inkscape.org/) -->

<svg
   xmlns:dc="http://purl.org/dc/elements/1.1/"
   xmlns:cc="http://creativecommons.org/ns#"
   xmlns:rdf="http://www.w3.org/1999/02/22-rdf-syntax-ns#"
   xmlns:svg="http://www.w3.org/2000/svg"
   xmlns="http://www.w3.org/2000/svg"
   xmlns:sodipodi="http://sodipodi.sourceforge.net/DTD/sodipodi-0.dtd"
   xmlns:inkscape="http://www.inkscape.org/namespaces/inkscape"
   width="149.60788mm"
   height="149.60791mm"
   viewBox="0 0 149.60788 149.60791"
   version="1.1"
   id="svg64"
   inkscape:version="0.92.4 (unknown)"
   sodipodi:docname="netuno.svg">
  <defs
     id="defs58" />
  <sodipodi:namedview
     id="base"
     pagecolor="#ffffff"
     bordercolor="#666666"
     borderopacity="1.0"
     inkscape:pageopacity="0.0"
     inkscape:pageshadow="2"
     inkscape:zoom="0.35"
     inkscape:cx="-622.99075"
     inkscape:cy="519.86648"
     inkscape:document-units="mm"
     inkscape:current-layer="layer1"
     showgrid="false"
     inkscape:window-width="1366"
     inkscape:window-height="703"
     inkscape:window-x="0"
     inkscape:window-y="0"
     inkscape:window-maximized="1" />
  <metadata
     id="metadata61">
    <rdf:RDF>
      <cc:Work
         rdf:about="">
        <dc:format>image/svg+xml</dc:format>
        <dc:type
           rdf:resource="http://purl.org/dc/dcmitype/StillImage" />
        <dc:title></dc:title>
      </cc:Work>
    </rdf:RDF>
  </metadata>
  <g
     inkscape:label="Layer 1"
     inkscape:groupmode="layer"
     id="layer1"
     transform="translate(-155.00559,-136.77342)">
    <g
       style="display:inline"
       id="g874"
       transform="translate(239.59508,50.588983)">
      <g
         id="g861">
        <g
           id="g4553"
           transform="rotate(-45,148.72743,319.38796)">
          <g
             id="g4559">
            <path
               inkscape:connector-curvature="0"
               style="opacity:1;fill:#0aecf5;fill-opacity:1;stroke-width:0.26458332;stroke-miterlimit:4;stroke-dasharray:none"
               d="M 148.62976,38.978552 A 60.060416,60.060416 0 0 0 102.72558,60.31162 l 91.72721,-2e-6 A 60.060416,60.060416 0 0 0 148.62976,38.978552 Z"
               id="path4519" />
            <path
               inkscape:connector-curvature="0"
               style="opacity:1;fill:#00caff;fill-opacity:1;stroke-width:0.26458332;stroke-miterlimit:4;stroke-dasharray:none"
               d="M 102.72558,60.31162 A 60.060416,60.060416 0 0 0 90.016283,86.129686 H 207.21015 A 60.060416,60.060416 0 0 0 194.45279,60.311618 Z"
               id="path4521" />
            <path
               inkscape:connector-curvature="0"
               style="opacity:1;fill:#00a9ff;fill-opacity:0.99497483;stroke-width:0.26458332;stroke-miterlimit:4;stroke-dasharray:none"
               d="m 90.016283,86.129686 a 60.060416,60.060416 0 0 0 -1.446945,12.909286 60.060416,60.060416 0 0 0 1.480017,12.908768 H 207.24375 a 60.060416,60.060416 0 0 0 1.44643,-12.908768 60.060416,60.060416 0 0 0 -1.48003,-12.909286 z"
               id="path4523" />
            <path
               inkscape:connector-curvature="0"
               style="opacity:1;fill:#0087ff;fill-opacity:1;stroke-width:0.26458332;stroke-miterlimit:4;stroke-dasharray:none"
               d="m 90.049355,111.94774 a 60.060416,60.060416 0 0 0 12.757365,25.81858 l 91.72669,1e-5 a 60.060416,60.060416 0 0 0 12.71034,-25.81859 z"
               id="path4525" />
            <path
               inkscape:connector-curvature="0"
               style="opacity:1;fill:#0068ff;fill-opacity:1;stroke-width:0.26458332;stroke-miterlimit:4;stroke-dasharray:none"
               d="m 102.80672,137.76632 a 60.060416,60.060416 0 0 0 45.82304,21.33306 60.060416,60.060416 0 0 0 45.90365,-21.33305 z"
               id="path4527" />
          </g>
        </g>
        <path
           style="opacity:1;fill:#000000;fill-opacity:0.31372549;stroke:none;stroke-width:0.99999994px;stroke-linecap:butt;stroke-linejoin:miter;stroke-opacity:1"
           d="m -99.271484,403.54102 a 227,227 0 0 0 -88.273436,54.45312 227,227 0 0 0 -65.66602,179.69336 227,227 0 0 0 35.03321,102.96484 227,227 0 0 0 30.63281,38.36914 227,227 0 0 0 38.45508,30.54297 227,227 0 0 0 103.095699,34.90625 227,227 0 0 0 179.476561,-65.44922 C -257.75051,718.40315 -99.21875,403.57422 -99.21875,403.57422 c 0,0 -0.05197,-0.0327 -0.05273,-0.0332 z"
           id="path60"
           inkscape:connector-curvature="0"
           transform="scale(0.26458333)" />
      </g>
      <path
         sodipodi:nodetypes="cccccccccccccscccsccccssscccccccccccccccccsccc"
         id="path4571"
         d="m 17.841543,109.19246 c 2.197137,0.9989 4.332066,2.12932 6.393171,3.38513 2.24478,-1.75785 4.42072,-3.41241 6.526179,-4.96661 0.984633,-0.72684 1.958783,-1.43831 2.908278,-2.11608 7.334148,-5.23531 13.64891,-9.02906 18.248089,-11.024713 2.299596,-0.997811 4.178949,-1.526334 5.336412,-1.643603 0.712086,-0.07215 1.002298,-0.01309 1.108646,0.01535 0.028,0.105924 0.08635,0.395459 0.01425,1.107548 -0.11726,1.157458 -0.645783,3.036826 -1.643602,5.336415 -1.995656,4.599153 -5.789407,10.913933 -11.024713,18.248083 -0.679786,0.95232 -1.386321,1.92387 -2.113883,2.91047 -27.329023,34.57354 -58.025494,67.30033 -93.952129,93.94483 -0.97709,0.72033 -1.939276,1.41924 -2.8827,2.09268 -7.334147,5.23532 -13.64965,9.03054 -18.248818,11.02618 -2.29959,0.99782 -4.177488,1.52486 -5.334952,1.64214 -0.711936,0.0721 -1.002239,0.0144 -1.108646,-0.0132 -0.028,-0.10677 -0.08635,-0.39758 -0.01425,-1.10974 0.117267,-1.15746 0.644322,-3.03536 1.642142,-5.33495 1.995632,-4.59917 5.790875,-10.91542 11.026172,-18.24955 0.67129,-0.9404 1.375872,-1.90461 2.095248,-2.87941 1.545446,-2.09419 3.190093,-4.25864 4.937387,-6.4911 -1.25575,-2.06171 -2.386057,-4.19725 -3.38477,-6.395 -2.240802,2.81314 -4.329644,5.53209 -6.280625,8.15809 -0.948744,1.277 -1.874996,2.53899 -2.750788,3.76589 -5.394087,7.55658 -9.388044,14.10447 -11.711314,19.45868 -1.161641,2.67712 -1.926455,5.04648 -2.154806,7.30048 -0.183228,1.80846 0.01631,3.75242 1.009985,5.35907 0.538228,0.59183 1.083331,1.17738 1.635198,1.75651 1.671461,1.20671 3.776607,1.45263 5.725573,1.25518 2.253985,-0.22838 4.623371,-0.99317 7.300477,-2.15481 5.354211,-2.32327 11.902468,-6.3176 19.459049,-11.71168 1.227014,-0.87588 2.488981,-1.80151 3.76589,-2.75005 10.123161,-7.51994 21.752437,-17.28016 33.996423,-28.63663 21.3923821,-20.13006 42.609088,-42.09482 59.95534,-65.30856 0.955511,-1.28595 1.88829,-2.55643 2.770155,-3.79184 5.394096,-7.55658 9.388035,-14.10521 11.711313,-19.45941 1.16162,-2.677104 1.927908,-5.047946 2.156272,-7.301938 0.187105,-1.846843 -0.02337,-3.834049 -1.072475,-5.459554 -0.779467,-0.727577 -1.570182,-1.44301 -2.371859,-2.14604 -1.127335,-0.580676 -2.390558,-0.81405 -3.642383,-0.825818 -0.431453,-0.004 -0.861048,0.01819 -1.283675,0.06102 -2.254011,0.228361 -4.625193,0.994278 -7.302307,2.155906 -5.354212,2.32327 -11.902457,6.317591 -19.459047,11.711674 -1.235358,0.88183 -2.505945,1.8146 -3.791835,2.77016 -2.636581,1.95927 -5.366637,4.05712 -8.192072,6.30876 z"
         style="opacity:1;fill:#ffe800;fill-opacity:1;stroke-width:0.45385686;stroke-miterlimit:4;stroke-dasharray:none"
         inkscape:connector-curvature="0" />
      <path
         d="m -61.582758,188.61667 c 0.998901,2.19714 2.129331,4.33207 3.385139,6.39318 -1.757846,2.24477 -3.412413,4.42071 -4.966612,6.52617 -0.726835,0.98464 -1.438312,1.95879 -2.116081,2.90828 -5.235312,7.33415 -9.029053,13.64891 -11.024707,18.24809 -0.997812,2.2996 -1.526339,4.17895 -1.643606,5.33642 -0.07215,0.71208 -0.01309,1.00229 0.01535,1.10864 -2.743483,-0.38571 -5.499629,-0.7508 -5.959065,-4.94324 0.375099,-1.30838 0.885623,-2.6749 1.519,-4.13458 2.32327,-5.35422 6.317589,-11.90246 11.711675,-19.45905 0.881833,-1.23536 1.814598,-2.50594 2.770161,-3.79183 1.959259,-2.63659 4.057117,-5.36664 6.308751,-8.19208 z m 79.424262,-79.42425 c 2.197137,0.9989 4.332068,2.12932 6.393171,3.38514 2.24478,-1.75786 4.42072,-3.41242 6.526179,-4.96662 0.984632,-0.72684 1.958782,-1.43831 2.908278,-2.11608 7.334147,-5.23531 13.64891,-9.029059 18.248088,-11.024712 2.299597,-0.997811 4.178949,-1.526335 5.336413,-1.643604 0.712085,-0.07215 1.002297,-0.01309 1.108646,0.01535 -0.385704,-2.743481 -0.750796,-5.499634 -4.943233,-5.959068 -1.30838,0.375096 -2.674902,0.885627 -4.134588,1.518999 -5.354212,2.32327 -11.902458,6.317591 -19.459048,11.711675 -1.235357,0.88184 -2.505944,1.8146 -3.791834,2.77016 -2.636581,1.95927 -5.366637,4.05712 -8.192072,6.30876 z"
         style="opacity:1;fill:#000000;fill-opacity:0.19607843;fill-rule:evenodd;stroke:none;stroke-width:0.26458332px;stroke-linecap:butt;stroke-linejoin:miter;stroke-opacity:1"
         id="path4695"
         inkscape:connector-curvature="0" />
    </g>
  </g>
</svg>
