<?xml version="1.0" encoding="UTF-8" standalone="no"?>
<!-- Created with Inkscape (http://www.inkscape.org/) -->

<svg
   xmlns:dc="http://purl.org/dc/elements/1.1/"
   xmlns:cc="http://creativecommons.org/ns#"
   xmlns:rdf="http://www.w3.org/1999/02/22-rdf-syntax-ns#"
   xmlns:svg="http://www.w3.org/2000/svg"
   xmlns="http://www.w3.org/2000/svg"
   xmlns:sodipodi="http://sodipodi.sourceforge.net/DTD/sodipodi-0.dtd"
   xmlns:inkscape="http://www.inkscape.org/namespaces/inkscape"
   width="149.60788mm"
   height="149.60791mm"
   viewBox="0 0 149.60788 149.60791"
   version="1.1"
   id="svg8"
   inkscape:version="0.92.3 (2405546, 2018-03-11)"
   sodipodi:docname="netuno.svg">
  <defs
     id="defs2" />
  <sodipodi:namedview
     id="base"
     pagecolor="#ffffff"
     bordercolor="#666666"
     borderopacity="1.0"
     inkscape:pageopacity="0.0"
     inkscape:pageshadow="2"
     inkscape:zoom="0.22536058"
     inkscape:cx="182.84904"
     inkscape:cy="52.77595"
     inkscape:document-units="mm"
     inkscape:current-layer="layer1"
     showgrid="false"
     inkscape:pagecheckerboard="false"
     showborder="false"
     inkscape:snap-smooth-nodes="true"
     inkscape:snap-midpoints="true"
     inkscape:snap-intersection-paths="true"
     inkscape:object-paths="true"
     inkscape:snap-nodes="true"
     inkscape:window-width="1366"
     inkscape:window-height="714"
     inkscape:window-x="0"
     inkscape:window-y="25"
     inkscape:window-maximized="1" />
  <metadata
     id="metadata5">
    <rdf:RDF>
      <cc:Work
         rdf:about="">
        <dc:format>image/svg+xml</dc:format>
        <dc:type
           rdf:resource="http://purl.org/dc/dcmitype/StillImage" />
        <dc:title />
      </cc:Work>
    </rdf:RDF>
  </metadata>
  <g
     inkscape:label="Camada 1"
     inkscape:groupmode="layer"
     id="layer1"
     style="display:inline"
     transform="translate(95.155893,52.352801)">
    <g
       id="g874"
       transform="translate(-10.5664,-138.53724)">
      <g
         id="g861">
        <g
           id="g4553"
           transform="rotate(-45,148.72743,319.38796)">
          <g
             id="g4559">
            <path
               inkscape:connector-curvature="0"
               style="opacity:1;fill:#0aecf5;fill-opacity:1;stroke-width:0.26458332;stroke-miterlimit:4;stroke-dasharray:none"
               d="M 148.62976,38.978552 A 60.060416,60.060416 0 0 0 102.72558,60.31162 l 91.72721,-2e-6 A 60.060416,60.060416 0 0 0 148.62976,38.978552 Z"
               id="path4519" />
            <path
               inkscape:connector-curvature="0"
               style="opacity:1;fill:#00caff;fill-opacity:1;stroke-width:0.26458332;stroke-miterlimit:4;stroke-dasharray:none"
               d="M 102.72558,60.31162 A 60.060416,60.060416 0 0 0 90.016283,86.129686 H 207.21015 A 60.060416,60.060416 0 0 0 194.45279,60.311618 Z"
               id="path4521" />
            <path
               inkscape:connector-curvature="0"
               style="opacity:1;fill:#00a9ff;fill-opacity:0.99497483;stroke-width:0.26458332;stroke-miterlimit:4;stroke-dasharray:none"
               d="m 90.016283,86.129686 a 60.060416,60.060416 0 0 0 -1.446945,12.909286 60.060416,60.060416 0 0 0 1.480017,12.908768 H 207.24375 a 60.060416,60.060416 0 0 0 1.44643,-12.908768 60.060416,60.060416 0 0 0 -1.48003,-12.909286 z"
               id="path4523" />
            <path
               inkscape:connector-curvature="0"
               style="opacity:1;fill:#0087ff;fill-opacity:1;stroke-width:0.26458332;stroke-miterlimit:4;stroke-dasharray:none"
               d="m 90.049355,111.94774 a 60.060416,60.060416 0 0 0 12.757365,25.81858 l 91.72669,1e-5 a 60.060416,60.060416 0 0 0 12.71034,-25.81859 z"
               id="path4525" />
            <path
               inkscape:connector-curvature="0"
               style="opacity:1;fill:#0068ff;fill-opacity:1;stroke-width:0.26458332;stroke-miterlimit:4;stroke-dasharray:none"
               d="m 102.80672,137.76632 a 60.060416,60.060416 0 0 0 45.82304,21.33306 60.060416,60.060416 0 0 0 45.90365,-21.33305 z"
               id="path4527" />
          </g>
        </g>
        <path
           style="opacity:1;fill:#000000;fill-opacity:0.31372549;stroke:none;stroke-width:0.99999994px;stroke-linecap:butt;stroke-linejoin:miter;stroke-opacity:1"
           d="m -99.271484,403.54102 a 227,227 0 0 0 -88.273436,54.45312 227,227 0 0 0 -65.66602,179.69336 227,227 0 0 0 35.03321,102.96484 227,227 0 0 0 30.63281,38.36914 227,227 0 0 0 38.45508,30.54297 227,227 0 0 0 103.095699,34.90625 227,227 0 0 0 179.476561,-65.44922 C -257.75051,718.40315 -99.21875,403.57422 -99.21875,403.57422 c 0,0 -0.05197,-0.0327 -0.05273,-0.0332 z"
           id="path60"
           inkscape:connector-curvature="0"
           transform="scale(0.26458333)" />
      </g>
      <path
         sodipodi:nodetypes="cccccccccccccscccsccccssscccccccccccccccccsccc"
         id="path4571"
         d="m 17.841543,109.19246 c 2.197137,0.9989 4.332066,2.12932 6.393171,3.38513 2.24478,-1.75785 4.42072,-3.41241 6.526179,-4.96661 0.984633,-0.72684 1.958783,-1.43831 2.908278,-2.11608 7.334148,-5.23531 13.64891,-9.02906 18.248089,-11.024713 2.299596,-0.997811 4.178949,-1.526334 5.336412,-1.643603 0.712086,-0.07215 1.002298,-0.01309 1.108646,0.01535 0.028,0.105924 0.08635,0.395459 0.01425,1.107548 -0.11726,1.157458 -0.645783,3.036826 -1.643602,5.336415 -1.995656,4.599153 -5.789407,10.913933 -11.024713,18.248083 -0.679786,0.95232 -1.386321,1.92387 -2.113883,2.91047 -27.329023,34.57354 -58.025494,67.30033 -93.952129,93.94483 -0.97709,0.72033 -1.939276,1.41924 -2.8827,2.09268 -7.334147,5.23532 -13.64965,9.03054 -18.248818,11.02618 -2.29959,0.99782 -4.177488,1.52486 -5.334952,1.64214 -0.711936,0.0721 -1.002239,0.0144 -1.108646,-0.0132 -0.028,-0.10677 -0.08635,-0.39758 -0.01425,-1.10974 0.117267,-1.15746 0.644322,-3.03536 1.642142,-5.33495 1.995632,-4.59917 5.790875,-10.91542 11.026172,-18.24955 0.67129,-0.9404 1.375872,-1.90461 2.095248,-2.87941 1.545446,-2.09419 3.190093,-4.25864 4.937387,-6.4911 -1.25575,-2.06171 -2.386057,-4.19725 -3.38477,-6.395 -2.240802,2.81314 -4.329644,5.53209 -6.280625,8.15809 -0.948744,1.277 -1.874996,2.53899 -2.750788,3.76589 -5.394087,7.55658 -9.388044,14.10447 -11.711314,19.45868 -1.161641,2.67712 -1.926455,5.04648 -2.154806,7.30048 -0.183228,1.80846 0.01631,3.75242 1.009985,5.35907 0.538228,0.59183 1.083331,1.17738 1.635198,1.75651 1.671461,1.20671 3.776607,1.45263 5.725573,1.25518 2.253985,-0.22838 4.623371,-0.99317 7.300477,-2.15481 5.354211,-2.32327 11.902468,-6.3176 19.459049,-11.71168 1.227014,-0.87588 2.488981,-1.80151 3.76589,-2.75005 10.123161,-7.51994 21.752437,-17.28016 33.996423,-28.63663 21.3923821,-20.13006 42.609088,-42.09482 59.95534,-65.30856 0.955511,-1.28595 1.88829,-2.55643 2.770155,-3.79184 5.394096,-7.55658 9.388035,-14.10521 11.711313,-19.45941 1.16162,-2.677104 1.927908,-5.047946 2.156272,-7.301938 0.187105,-1.846843 -0.02337,-3.834049 -1.072475,-5.459554 -0.779467,-0.727577 -1.570182,-1.44301 -2.371859,-2.14604 -1.127335,-0.580676 -2.390558,-0.81405 -3.642383,-0.825818 -0.431453,-0.004 -0.861048,0.01819 -1.283675,0.06102 -2.254011,0.228361 -4.625193,0.994278 -7.302307,2.155906 -5.354212,2.32327 -11.902457,6.317591 -19.459047,11.711674 -1.235358,0.88183 -2.505945,1.8146 -3.791835,2.77016 -2.636581,1.95927 -5.366637,4.05712 -8.192072,6.30876 z"
         style="opacity:1;fill:#ffe800;fill-opacity:1;stroke-width:0.45385686;stroke-miterlimit:4;stroke-dasharray:none"
         inkscape:connector-curvature="0" />
      <path
         d="m -61.582758,188.61667 c 0.998901,2.19714 2.129331,4.33207 3.385139,6.39318 -1.757846,2.24477 -3.412413,4.42071 -4.966612,6.52617 -0.726835,0.98464 -1.438312,1.95879 -2.116081,2.90828 -5.235312,7.33415 -9.029053,13.64891 -11.024707,18.24809 -0.997812,2.2996 -1.526339,4.17895 -1.643606,5.33642 -0.07215,0.71208 -0.01309,1.00229 0.01535,1.10864 -2.743483,-0.38571 -5.499629,-0.7508 -5.959065,-4.94324 0.375099,-1.30838 0.885623,-2.6749 1.519,-4.13458 2.32327,-5.35422 6.317589,-11.90246 11.711675,-19.45905 0.881833,-1.23536 1.814598,-2.50594 2.770161,-3.79183 1.959259,-2.63659 4.057117,-5.36664 6.308751,-8.19208 z m 79.424262,-79.42425 c 2.197137,0.9989 4.332068,2.12932 6.393171,3.38514 2.24478,-1.75786 4.42072,-3.41242 6.526179,-4.96662 0.984632,-0.72684 1.958782,-1.43831 2.908278,-2.11608 7.334147,-5.23531 13.64891,-9.029059 18.248088,-11.024712 2.299597,-0.997811 4.178949,-1.526335 5.336413,-1.643604 0.712085,-0.07215 1.002297,-0.01309 1.108646,0.01535 -0.385704,-2.743481 -0.750796,-5.499634 -4.943233,-5.959068 -1.30838,0.375096 -2.674902,0.885627 -4.134588,1.518999 -5.354212,2.32327 -11.902458,6.317591 -19.459048,11.711675 -1.235357,0.88184 -2.505944,1.8146 -3.791834,2.77016 -2.636581,1.95927 -5.366637,4.05712 -8.192072,6.30876 z"
         style="opacity:1;fill:#000000;fill-opacity:0.19607843;fill-rule:evenodd;stroke:none;stroke-width:0.26458332px;stroke-linecap:butt;stroke-linejoin:miter;stroke-opacity:1"
         id="path4695"
         inkscape:connector-curvature="0" />
    </g>
  </g>
  <g
     inkscape:groupmode="layer"
     id="layer3"
     inkscape:label="Camada 3"
     style="display:none"
     transform="translate(95.155893,52.352801)">
    <path
       id="path4884"
       d="m 1122.8711,234.10156 a 227,227 0 0 0 -156.80079,66.23633 227,227 0 0 0 -65.66601,179.69336 227,227 0 0 0 35.0332,102.9668 227,227 0 0 0 30.63281,38.36718 227,227 0 0 0 38.45509,30.54297 227,227 0 0 0 103.0957,34.90625 227,227 0 0 0 179.4766,-65.44922 227,227 0 0 0 65.666,-179.69335 227,227 0 0 0 -35.0332,-102.96876 227,227 0 0 0 -30.6328,-38.36523 227,227 0 0 0 -38.4571,-30.54492 227,227 0 0 0 -103.0937,-34.9043 227,227 0 0 0 -22.6758,-0.78711 z"
       style="display:inline;opacity:1;fill:#00e6ff;fill-opacity:0.4745098;stroke-width:0.99999994;stroke-miterlimit:4;stroke-dasharray:none"
       inkscape:connector-curvature="0"
       transform="scale(0.26458333)" />
    <path
       inkscape:connector-curvature="0"
       transform="scale(0.26458333)"
       style="display:inline;opacity:1;fill:#00e6ff;fill-opacity:0.4745098;stroke-width:0.99999994;stroke-miterlimit:4;stroke-dasharray:none"
       d="m 1122.8711,234.10156 a 227,227 0 0 0 -156.80079,66.23633 227,227 0 0 0 -65.66601,179.69336 227,227 0 0 0 35.0332,102.9668 227,227 0 0 0 30.63281,38.36718 227,227 0 0 0 38.45509,30.54297 227,227 0 0 0 103.0957,34.90625 227,227 0 0 0 179.4766,-65.44922 227,227 0 0 0 65.666,-179.69335 227,227 0 0 0 -35.0332,-102.96876 227,227 0 0 0 -30.6328,-38.36523 227,227 0 0 0 -38.4571,-30.54492 227,227 0 0 0 -103.0937,-34.9043 227,227 0 0 0 -22.6758,-0.78711 z"
       id="path4894" />
    <g
       id="g4921">
      <path
         id="path4889"
         transform="scale(0.26458333)"
         d="m 1372.3379,168.08203 c -1.6307,-0.0153 -3.2562,0.0686 -4.8535,0.23047 -8.5191,0.86309 -17.4795,3.75801 -27.5977,8.14844 -20.2364,8.78086 -44.9866,23.87657 -73.5469,44.26367 -14.2425,10.16666 -29.4059,21.65385 -45.2929,34.31445 a 227,227 0 0 1 24.1621,12.79492 c 12.4519,-9.75089 24.3959,-18.73022 35.6582,-26.76953 27.7196,-19.78701 51.586,-34.12536 68.9687,-41.66797 8.6914,-3.77125 15.7953,-5.76968 20.17,-6.21289 2.6913,-0.27268 3.7875,-0.0489 4.1894,0.0586 0.106,0.40041 0.3273,1.49418 0.055,4.18554 -0.4432,4.37467 -2.4416,11.47859 -6.2129,20.16993 -7.5426,17.38269 -21.881,41.24911 -41.668,68.96875 -39.574,55.43927 -100.8869,126.70336 -174.08,199.89648 -73.1932,73.19312 -144.4592,134.50608 -199.89848,174.08008 -27.71962,19.787 -51.58996,34.13125 -68.97265,41.67383 -8.69137,3.77129 -15.78941,5.7638 -20.16406,6.20703 -2.69082,0.27262 -3.78728,0.0538 -4.18946,-0.0508 -0.10596,-0.40333 -0.32751,-1.50174 -0.0547,-4.19336 0.44322,-4.37469 2.43574,-11.4727 6.20703,-20.16407 7.54257,-17.38268 21.88683,-41.25502 41.67382,-68.9746 7.98774,-11.19002 16.90213,-23.05083 26.58008,-35.41602 a 227,227 0 0 1 -12.79297,-24.16992 c -12.58767,15.80275 -24.01785,30.89361 -34.13476,45.0664 -20.38711,28.56031 -35.48281,53.30854 -44.26367,73.54493 -4.39045,10.11821 -7.27949,19.07274 -8.14258,27.59179 -0.86313,8.51902 0.50825,17.83833 7.15625,24.48633 6.64804,6.64804 15.96141,8.01544 24.48047,7.15235 8.51901,-0.86314 17.47358,-3.75409 27.59179,-8.14454 20.23639,-8.78086 44.98654,-23.87659 73.54688,-44.26367 57.12061,-40.77422 129.06391,-102.7553 203.05471,-176.74609 73.9907,-73.99075 135.968,-145.92824 176.7422,-203.04883 20.3871,-28.56031 35.4828,-53.31048 44.2637,-73.54687 4.3904,-10.1182 7.2853,-19.07865 8.1484,-27.59766 0.8631,-8.51906 -0.5024,-17.83245 -7.1504,-24.48047 -5.4015,-5.40152 -12.5665,-7.32028 -19.6328,-7.38672 z M 920.67773,555.45508 c 0.66456,-0.83429 1.35828,-1.68518 2.0293,-2.52344 -0.67092,0.83813 -1.36484,1.68927 -2.0293,2.52344 z M 1221.0469,255.03906 c -0.4579,0.36486 -0.9277,0.74843 -1.3867,1.11524 0.4596,-0.36729 0.9282,-0.74991 1.3867,-1.11524 z m -10.5801,8.5293 c -1.3987,1.13746 -2.808,2.29282 -4.2168,3.44726 1.4082,-1.15402 2.8186,-2.3102 4.2168,-3.44726 z m -11.5195,9.46875 c -1.2695,1.05376 -2.5337,2.10113 -3.8106,3.16797 1.2761,-1.06622 2.5418,-2.11482 3.8106,-3.16797 z m -14.0547,11.79687 c -0.8043,0.6834 -1.6131,1.37424 -2.4199,2.0625 0.8068,-0.68819 1.6157,-1.37916 2.4199,-2.0625 z m 34.0078,4.16993 c -0.9935,0.81901 -1.9838,1.63134 -2.9824,2.45898 0.9987,-0.82781 1.9889,-1.63981 2.9824,-2.45898 z m -46.2637,6.34961 c -1.2815,1.10999 -2.57,2.23389 -3.8574,3.35546 1.2869,-1.12111 2.5763,-2.24591 3.8574,-3.35546 z m 35.9317,2.24218 c -1.1672,0.97963 -2.3401,1.97015 -3.5137,2.96094 1.1737,-0.99103 2.3464,-1.98109 3.5137,-2.96094 z m -48.1036,8.40235 c -1.2113,1.06827 -2.4187,2.13097 -3.6347,3.20898 1.2157,-1.07771 2.4237,-2.141 3.6347,-3.20898 z m 37.3223,0.72265 c -1.2366,1.05634 -2.4874,2.13892 -3.7305,3.20703 1.2433,-1.06851 2.4937,-2.1503 3.7305,-3.20703 z m -16.3242,14.13672 c -1.6547,1.44939 -3.3023,2.88293 -4.9668,4.35156 1.6646,-1.46907 3.3119,-2.90173 4.9668,-4.35156 z m -48.4551,9.82227 c -1.1784,1.07952 -2.3613,2.17019 -3.543,3.25781 1.1815,-1.08741 2.3648,-2.1785 3.543,-3.25781 z m 37.3008,0.0273 c -1.8676,1.66262 -3.7367,3.32599 -5.6152,5.01172 1.8783,-1.68578 3.7479,-3.34903 5.6152,-5.01172 z m -11.6797,10.48047 c -2.0981,1.89864 -4.2043,3.81606 -6.3144,5.74219 2.1102,-1.92651 4.2162,-3.84315 6.3144,-5.74219 z m -38.1152,1.03906 c -1.2368,1.15176 -2.4711,2.29878 -3.711,3.45899 1.2398,-1.16005 2.4743,-2.30738 3.711,-3.45899 z m 26.4531,9.59375 c -3.1292,2.87695 -6.2736,5.79013 -9.4258,8.72461 3.1525,-2.93513 6.2962,-5.84691 9.4258,-8.72461 z m -12.543,11.625 c -3.737,3.49313 -7.4914,7.02933 -11.2558,10.59961 3.7643,-3.57052 7.5188,-7.10604 11.2558,-10.59961 z m -42.2168,5.61914 c -1.1234,1.08439 -2.2498,2.177 -3.375,3.26758 1.125,-1.09039 2.2517,-2.18337 3.375,-3.26758 z m 26.4434,9.28907 c -2.6887,2.56473 -5.38,5.14397 -8.0801,7.74609 2.7002,-2.60241 5.3912,-5.18095 8.0801,-7.74609 z m -39.5117,3.42968 c -1.0603,1.04001 -2.1182,2.07587 -3.1797,3.1211 1.0611,-1.04489 2.1197,-2.08143 3.1797,-3.1211 z m 26.8886,8.70703 c -2.8135,2.72697 -5.6316,5.47652 -8.455,8.24219 2.8227,-2.76518 5.642,-5.51553 8.455,-8.24219 z m -12.6269,12.33008 c -4.1358,4.07238 -8.2787,8.17322 -12.4297,12.32422 4.1511,-4.15108 8.2936,-8.25136 12.4297,-12.32422 z m -12.4297,12.32422 c -4.1626,4.16258 -8.2758,8.31559 -12.3594,12.46289 4.0839,-4.14751 8.1969,-8.30035 12.3594,-12.46289 z m -30.0898,-5.16406 c -1.1767,1.19471 -2.3417,2.38687 -3.5118,3.58008 1.1699,-1.19303 2.3353,-2.38554 3.5118,-3.58008 z m -12.6114,12.91211 c -1.1456,1.18174 -2.2948,2.3631 -3.4336,3.54297 1.1385,-1.1796 2.2883,-2.36149 3.4336,-3.54297 z m 26.3907,8.74804 c -2.8309,2.8896 -5.6452,5.77309 -8.4356,8.65235 2.79,-2.87869 5.6052,-5.76343 8.4356,-8.65235 z m -12.6758,13.04102 c -2.6559,2.75567 -5.2874,5.50425 -7.9043,8.24805 2.6173,-2.74393 5.2481,-5.49233 7.9043,-8.24805 z m -40.4336,6.25391 c -1.2326,1.31712 -2.4508,2.62779 -3.6738,3.9414 1.2228,-1.31342 2.4414,-2.62447 3.6738,-3.9414 z m 28.2656,6.46679 c -3.0808,3.2486 -6.1269,6.48453 -9.1504,9.71289 3.0242,-3.22868 6.0691,-6.46405 9.1504,-9.71289 z m -39.7793,5.94141 c -1.24847,1.35586 -2.50046,2.71095 -3.73827,4.0625 1.23755,-1.3513 2.49007,-2.70689 3.73827,-4.0625 z m 25.4434,9.33203 c -2.599,2.79536 -5.1886,5.58611 -7.7422,8.36328 2.554,-2.77719 5.1429,-5.56794 7.7422,-8.36328 z m -12.9688,14.08008 c -1.8831,2.06382 -3.7584,4.12356 -5.6152,6.17578 1.8566,-2.0517 3.7323,-4.11251 5.6152,-6.17578 z m -37.38865,4.14648 c -1.17158,1.32133 -2.32625,2.63338 -3.48633,3.94922 1.16002,-1.31582 2.31482,-2.62791 3.48633,-3.94922 z m 26.55465,7.82032 c -1.78077,1.98413 -3.54181,3.95779 -5.29684,5.92968 1.75586,-1.97246 3.51524,-3.94498 5.29684,-5.92968 z m -37.207,4.30468 c -1.09017,1.25151 -2.18248,2.50405 -3.26172,3.75 1.07897,-1.2457 2.17182,-2.49875 3.26172,-3.75 z m 26.42578,7.80078 c -1.3462,1.52607 -2.6602,3.03485 -3.99023,4.55274 1.32997,-1.51753 2.6441,-3.02703 3.99023,-4.55274 z m -37.55078,5.09376 c -1.02834,1.20414 -2.05865,2.40908 -3.07617,3.60742 1.01705,-1.19782 2.04832,-2.40381 3.07617,-3.60742 z m -11.30468,13.375 c -1.06588,1.27565 -2.11124,2.54033 -3.16407,3.80859 1.05277,-1.26823 2.09824,-2.53298 3.16407,-3.80859 z m 32.75,0.0547 c -0.71785,0.83689 -1.45158,1.68169 -2.16407,2.51563 0.71301,-0.83441 1.44569,-1.67827 2.16407,-2.51563 z m -8.76954,10.30274 c -0.8694,1.03056 -1.73883,2.06229 -2.5996,3.08789 0.86082,-1.02549 1.73014,-2.05743 2.5996,-3.08789 z m -33.46875,1.12109 c -1.04067,1.27069 -2.08254,2.54021 -3.10937,3.80273 1.0263,-1.26189 2.06926,-2.53268 3.10937,-3.80273 z m 24.5,9.60156 c -0.71823,0.86706 -1.42499,1.72669 -2.13671,2.58985 0.71174,-0.86306 1.41845,-1.72288 2.13671,-2.58985 z"
         style="color:#000000;font-style:normal;font-variant:normal;font-weight:normal;font-stretch:normal;font-size:medium;line-height:normal;font-family:sans-serif;font-variant-ligatures:normal;font-variant-position:normal;font-variant-caps:normal;font-variant-numeric:normal;font-variant-alternates:normal;font-feature-settings:normal;text-indent:0;text-align:start;text-decoration:none;text-decoration-line:none;text-decoration-style:solid;text-decoration-color:#000000;letter-spacing:normal;word-spacing:normal;text-transform:none;writing-mode:lr-tb;direction:ltr;text-orientation:mixed;dominant-baseline:auto;baseline-shift:baseline;text-anchor:start;white-space:normal;shape-padding:0;clip-rule:nonzero;display:inline;overflow:visible;visibility:visible;opacity:0.40900005;isolation:auto;mix-blend-mode:normal;color-interpolation:sRGB;color-interpolation-filters:linearRGB;solid-color:#000000;solid-opacity:1;vector-effect:none;fill:#000000;fill-opacity:1;fill-rule:nonzero;stroke:none;stroke-width:25;stroke-linecap:butt;stroke-linejoin:miter;stroke-miterlimit:4;stroke-dasharray:none;stroke-dashoffset:0;stroke-opacity:1;color-rendering:auto;image-rendering:auto;shape-rendering:auto;text-rendering:auto;enable-background:accumulate"
         inkscape:connector-curvature="0" />
      <path
         id="path4886"
         transform="scale(0.26458333)"
         d="m 1372.3945,163.0918 c -1.8441,-0.0195 -3.6593,0.0724 -5.4121,0.25 -9.3479,0.94709 -18.6804,4.01502 -29.084,8.52929 -20.8071,9.02851 -45.7324,24.27416 -74.4609,44.78125 -14.9242,10.65328 -30.8506,22.7599 -47.5273,36.10157 a 227,227 0 0 1 32.7304,17.03906 227,227 0 0 1 1.1973,0.76953 c 11.8456,-9.24519 23.204,-17.75805 33.9375,-25.41992 27.5515,-19.66699 51.2427,-33.86913 68.0547,-41.16406 7.5971,-3.29655 13.1354,-4.6695 16.8808,-5.25 -0.5808,3.7457 -1.9599,9.27927 -5.2558,16.875 -7.295,16.81195 -21.4971,40.5032 -41.1641,68.05468 -39.334,55.10299 -100.5035,126.2379 -173.5371,199.27149 -73.0336,73.03362 -144.1724,134.20702 -199.27538,173.54101 -27.55151,19.667 -51.23888,33.86326 -68.05079,41.15821 -7.59601,3.29601 -13.13519,4.68091 -16.88085,5.26171 0.58042,-3.74543 1.96111,-9.28731 5.25781,-16.88476 7.2949,-16.81194 21.4912,-40.49927 41.1582,-68.05078 7.62989,-10.68873 16.1021,-21.99482 25.30273,-33.78711 a 227,227 0 0 1 -0.82812,-1.16992 227,227 0 0 1 -17.11523,-32.59766 c -13.24415,16.56478 -25.2622,32.38683 -35.84961,47.21875 -20.50712,28.72842 -35.7469,53.64795 -44.77539,74.45508 -4.51427,10.40356 -7.58805,19.74194 -8.53516,29.08984 -0.94707,9.34795 0.5134,20.44113 8.5918,28.51953 8.0784,8.0784 19.16768,9.53497 28.51562,8.58789 9.34787,-0.94711 18.68632,-4.02088 29.08985,-8.53515 20.80716,-9.0285 45.72662,-24.26828 74.45507,-44.77539 57.45685,-41.01423 129.53725,-103.13487 203.68755,-177.28516 74.1503,-74.15029 136.265,-146.22474 177.2792,-203.68164 20.5072,-28.72841 35.7528,-53.65185 44.7813,-74.45898 4.5143,-10.40357 7.5802,-19.73805 8.5273,-29.08594 0.9471,-9.34792 -0.5075,-20.43724 -8.5859,-28.51563 -6.5637,-6.56369 -15.118,-8.75749 -23.1094,-8.84179 z m -156.4843,89.66211 c -5.1865,4.14922 -10.4591,8.44292 -15.7872,12.83203 5.3279,-4.38861 10.6005,-8.68268 15.7872,-12.83203 z m -19.2051,15.65039 c -2.222,1.84139 -4.453,3.70087 -6.6973,5.58203 2.2429,-1.87977 4.4766,-3.7419 6.6973,-5.58203 z m -11.3067,9.46484 c -2.0693,1.74775 -4.132,3.48545 -6.2187,5.26563 2.086,-1.77936 4.15,-3.51863 6.2187,-5.26563 z m 48.5586,5.3125 c -1.2167,0.98115 -2.4248,1.95004 -3.6504,2.94531 1.2254,-0.99511 2.434,-1.96433 3.6504,-2.94531 z m -64.2675,8.10938 c -2.1737,1.88174 -4.3646,3.80014 -6.5547,5.71484 2.1893,-1.9137 4.3818,-3.83405 6.5547,-5.71484 z m 54.2753,0.0234 c -1.6057,1.31934 -3.2162,2.64791 -4.8359,3.99024 1.62,-1.34266 3.23,-2.6706 4.8359,-3.99024 z m -10.8691,9.01172 c -1.663,1.39265 -3.3393,2.81089 -5.0156,4.22656 1.6761,-1.41564 3.3528,-2.83395 5.0156,-4.22656 z m -55.0234,1.11719 c -1.9416,1.71003 -3.8846,3.42722 -5.8379,5.16211 1.952,-1.73351 3.8976,-3.45343 5.8379,-5.16211 z m 43.9101,8.27148 c -2.9642,2.52828 -5.9554,5.10284 -8.957,7.69922 3.0027,-2.59765 5.9917,-5.16974 8.957,-7.69922 z m -56.373,2.80664 c -1.6714,1.49838 -3.3346,2.98034 -5.0137,4.4961 1.6791,-1.5155 3.3423,-2.99798 5.0137,-4.4961 z m 41.3086,10.20899 c -2.3223,2.02748 -4.6444,4.05704 -6.9864,6.12305 2.3417,-2.06589 4.6645,-4.09568 6.9864,-6.12305 z m -57.0098,4.00781 c -1.6815,1.53998 -3.3705,3.10184 -5.0586,4.6582 1.6875,-1.55564 3.3777,-3.11895 5.0586,-4.6582 z m 44.6582,6.875 c -2.1725,1.93142 -4.3494,3.87488 -6.5371,5.83789 2.1877,-1.96325 4.3645,-3.90622 6.5371,-5.83789 z m -57,4.52734 c -1.5859,1.47613 -3.1708,2.95146 -4.7617,4.44141 1.5902,-1.4891 3.1765,-2.96613 4.7617,-4.44141 z m 45.1387,6.10352 c -2.4493,2.21414 -4.9109,4.45514 -7.377,6.70703 2.4662,-2.25224 4.9275,-4.49252 7.377,-6.70703 z m -59.8594,7.72461 c -0.6637,0.62954 -1.3238,1.24513 -1.9883,1.87695 0.6643,-0.63155 1.3248,-1.24769 1.9883,-1.87695 z m 47.9727,3.10156 c -3.9075,3.58995 -7.8281,7.21458 -11.7715,10.89453 3.9427,-3.67955 7.8646,-7.30486 11.7715,-10.89453 z m -61.8887,10.21094 c -1.3795,1.33125 -2.7625,2.67508 -4.1445,4.01563 1.3816,-1.34013 2.7654,-2.68482 4.1445,-4.01563 z m 47.4238,3.21484 c -3.19,2.98736 -6.3877,5.99552 -9.5976,9.03907 3.2098,-3.04366 6.4076,-6.05153 9.5976,-9.03907 z m -60.2558,9.27149 c -1.3372,1.31089 -2.6727,2.61832 -4.0118,3.9375 1.3388,-1.3189 2.6749,-2.62693 4.0118,-3.9375 z m 46.3418,3.88086 c -2.8191,2.68778 -5.643,5.39206 -8.4747,8.12109 2.8316,-2.72899 5.6557,-5.43327 8.4747,-8.12109 z m -12.7911,12.29297 c -2.8883,2.79883 -5.7829,5.62123 -8.6816,8.46093 2.8982,-2.8393 5.7937,-5.6624 8.6816,-8.46093 z m -12.5898,12.28906 c -4.1778,4.1128 -8.3616,8.25611 -12.5547,12.44922 4.1929,-4.19287 8.377,-8.33645 12.5547,-12.44922 z m -12.5547,12.44922 c -4.1529,4.15287 -8.2559,8.29766 -12.3301,12.43554 4.0744,-4.13806 8.1772,-8.28263 12.3301,-12.43554 z m -37.3359,-12.05078 c -1.0205,1.03628 -2.0314,2.07032 -3.0469,3.10547 1.0152,-1.03487 2.0267,-2.06947 3.0469,-3.10547 z m -12.4805,12.77929 c -1.133,1.16865 -2.2702,2.33709 -3.3965,3.50391 1.1259,-1.16647 2.2639,-2.3356 3.3965,-3.50391 z m -14.957,15.5625 c -0.7327,0.77048 -1.4482,1.53521 -2.1778,2.30469 0.7295,-0.76938 1.4453,-1.53431 2.1778,-2.30469 z m 48.2871,0.38672 c -2.7183,2.77556 -5.4227,5.54646 -8.1035,8.3125 2.6808,-2.76595 5.3852,-5.53709 8.1035,-8.3125 z m -59.7461,11.76758 c -1.3791,1.47281 -2.7461,2.93972 -4.1133,4.4082 1.367,-1.4684 2.7344,-2.93546 4.1133,-4.4082 z m 47.0976,1.24805 c -2.6784,2.78002 -5.332,5.55245 -7.9707,8.32031 2.6384,-2.76737 5.2927,-5.54083 7.9707,-8.32031 z m -58.80074,11.35742 c -1.23296,1.33851 -2.47267,2.6793 -3.69531,4.01367 1.22222,-1.33406 2.46277,-2.67547 3.69531,-4.01367 z m 46.94534,1.03906 c -3.1385,3.30939 -6.2415,6.60628 -9.3203,9.89453 3.0794,-3.28872 6.1812,-6.58472 9.3203,-9.89453 z m -11.7754,12.50781 c -3.6619,3.92429 -7.2691,7.8281 -10.8418,11.7168 3.5722,-3.88787 7.1805,-7.79341 10.8418,-11.7168 z m -49.05275,1.66602 c -1.43164,1.58626 -2.82803,3.15694 -4.24414,4.73633 1.41549,-1.57887 2.81313,-3.15059 4.24414,-4.73633 z m -10.38477,11.61133 c -1.57786,1.77685 -3.14193,3.54537 -4.69922,5.3125 1.5572,-1.76724 3.12145,-3.53554 4.69922,-5.3125 z m 44.54302,2.87304 c -2.327,2.54799 -4.6411,5.09098 -6.9278,7.6211 2.2868,-2.53003 4.6007,-5.07322 6.9278,-7.6211 z m -54.98833,8.99415 c -1.50907,1.72895 -3.02522,3.46107 -4.51367,5.17968 1.48759,-1.7178 3.0055,-3.45156 4.51367,-5.17968 z m 43.53903,3.64843 c -2.0454,2.27913 -4.0708,4.54785 -6.082,6.81055 2.0115,-2.26286 4.0362,-4.53127 6.082,-6.81055 z m -56.65036,11.53321 c -1.61619,1.89522 -3.18987,3.76756 -4.7793,5.64843 1.58874,-1.88023 3.16385,-3.75387 4.7793,-5.64843 z m 45.88477,0.55859 c -1.93368,2.19217 -3.83248,4.36612 -5.73243,6.54101 1.90023,-2.175 3.79846,-4.34872 5.73243,-6.54101 z m -55.21485,10.49219 c -1.61629,1.92977 -3.21588,3.84843 -4.80273,5.76172 1.58618,-1.91261 3.18718,-3.83266 4.80273,-5.76172 z m 42.83203,3.70312 c -2.29152,2.65385 -4.57838,5.30335 -6.8164,7.92774 2.23832,-2.6245 4.52456,-5.27377 6.8164,-7.92774 z m -51.95898,7.30274 c -1.54935,1.88532 -3.10944,3.77467 -4.62891,5.64257 1.51906,-1.86747 3.08004,-3.75772 4.62891,-5.64257 z m 40.09766,6.58593 c -1.4309,1.69432 -2.86412,3.38966 -4.27149,5.07032 1.4075,-1.68067 2.84045,-3.37598 4.27149,-5.07032 z m -9.31446,11.12891 c -1.39491,1.68332 -2.77447,3.35715 -4.14453,5.02539 1.36972,-1.6677 2.74996,-3.34261 4.14453,-5.02539 z m -8.91015,10.84961 c -1.35836,1.67187 -2.68356,3.32323 -4.01563,4.97851 1.33211,-1.65525 2.6572,-3.30665 4.01563,-4.97851 z"
         style="color:#000000;font-style:normal;font-variant:normal;font-weight:normal;font-stretch:normal;font-size:medium;line-height:normal;font-family:sans-serif;font-variant-ligatures:normal;font-variant-position:normal;font-variant-caps:normal;font-variant-numeric:normal;font-variant-alternates:normal;font-feature-settings:normal;text-indent:0;text-align:start;text-decoration:none;text-decoration-line:none;text-decoration-style:solid;text-decoration-color:#000000;letter-spacing:normal;word-spacing:normal;text-transform:none;writing-mode:lr-tb;direction:ltr;text-orientation:mixed;dominant-baseline:auto;baseline-shift:baseline;text-anchor:start;white-space:normal;shape-padding:0;clip-rule:nonzero;display:inline;overflow:visible;visibility:visible;opacity:0.40900005;isolation:auto;mix-blend-mode:normal;color-interpolation:sRGB;color-interpolation-filters:linearRGB;solid-color:#000000;solid-opacity:1;vector-effect:none;fill:#ffff00;fill-opacity:1;fill-rule:nonzero;stroke:none;stroke-width:35;stroke-linecap:butt;stroke-linejoin:miter;stroke-miterlimit:4;stroke-dasharray:none;stroke-dashoffset:0;stroke-opacity:1;color-rendering:auto;image-rendering:auto;shape-rendering:auto;text-rendering:auto;enable-background:accumulate"
         inkscape:connector-curvature="0" />
    </g>
  </g>
  <g
     inkscape:groupmode="layer"
     id="layer2"
     inkscape:label="Camada 2"
     style="display:none"
     transform="translate(95.155893,52.352801)">
    <path
       style="color:#000000;font-style:normal;font-variant:normal;font-weight:normal;font-stretch:normal;font-size:medium;line-height:normal;font-family:sans-serif;font-variant-ligatures:normal;font-variant-position:normal;font-variant-caps:normal;font-variant-numeric:normal;font-variant-alternates:normal;font-feature-settings:normal;text-indent:0;text-align:start;text-decoration:none;text-decoration-line:none;text-decoration-style:solid;text-decoration-color:#000000;letter-spacing:normal;word-spacing:normal;text-transform:none;writing-mode:lr-tb;direction:ltr;text-orientation:mixed;dominant-baseline:auto;baseline-shift:baseline;text-anchor:start;white-space:normal;shape-padding:0;clip-rule:nonzero;display:inline;overflow:visible;visibility:visible;opacity:0.40900005;isolation:auto;mix-blend-mode:normal;color-interpolation:sRGB;color-interpolation-filters:linearRGB;solid-color:#000000;solid-opacity:1;vector-effect:none;fill:#000000;fill-opacity:1;fill-rule:nonzero;stroke:none;stroke-width:6.61458349;stroke-linecap:butt;stroke-linejoin:miter;stroke-miterlimit:4;stroke-dasharray:none;stroke-dashoffset:0;stroke-opacity:1;color-rendering:auto;image-rendering:auto;shape-rendering:auto;text-rendering:auto;enable-background:accumulate"
       d="m 281.32907,105.1628 c -19.57673,19.57672 -35.97618,38.61176 -46.76435,53.72492 -5.39409,7.55658 -9.38818,14.10504 -11.71145,19.45925 -1.16164,2.67711 -1.92611,5.04633 -2.15447,7.30033 -0.22837,2.25399 0.13449,4.71963 1.89344,6.47858 1.75896,1.75896 4.22321,2.12043 6.47721,1.89207 2.25399,-0.22837 4.62322,-0.99283 7.30033,-2.15447 5.35421,-2.32327 11.90266,-6.31737 19.45925,-11.71145 15.11315,-10.78818 34.14819,-27.18762 53.72492,-46.76435 19.57672,-19.57672 35.97478,-38.610382 46.76296,-53.723538 5.39408,-7.556582 9.38818,-14.105034 11.71145,-19.459246 1.16164,-2.677107 1.92748,-5.047717 2.15585,-7.301705 0.22837,-2.254002 -0.13311,-4.718255 -1.89206,-6.477211 -1.75896,-1.758957 -4.2246,-2.121816 -6.47859,-1.893441 -2.254,0.22836 -4.6246,0.994213 -7.30171,2.155848 -5.35421,2.32327 -11.90267,6.317363 -19.45924,11.711449 -15.11317,10.788173 -34.14682,27.18624 -53.72354,46.762964 z m 4.67767,4.67768 c 19.36568,-19.365687 38.22107,-35.587996 52.88938,-46.058621 7.33415,-5.235313 13.64888,-9.029421 18.24805,-11.025068 2.29958,-0.997812 4.17898,-1.526198 5.33644,-1.643464 1.15747,-0.117274 1.26717,0.123637 1.13386,-0.0097 -0.13331,-0.133311 0.10623,-0.02499 -0.011,1.132481 -0.11727,1.157463 -0.64565,3.036861 -1.64346,5.336443 -1.99565,4.599171 -5.78977,10.913896 -11.02507,18.24805 -10.47063,14.668308 -26.69294,33.523699 -46.05862,52.889379 -19.36568,19.36568 -38.22107,35.58799 -52.88938,46.05861 -7.33415,5.23531 -13.65026,9.03081 -18.24943,11.02645 -2.29959,0.99782 -4.1776,1.52482 -5.33506,1.64209 -1.15747,0.11727 -1.26717,-0.12088 -1.13386,0.0124 0.13331,0.13331 -0.10622,0.0222 0.0111,-1.13524 0.11727,-1.15747 0.64427,-3.03548 1.64209,-5.33507 1.99564,-4.59917 5.79113,-10.91528 11.02644,-18.24942 10.47063,-14.66831 26.69294,-33.5237 46.05862,-52.88938 z"
       id="path4821"
       inkscape:connector-curvature="0" />
    <path
       style="color:#000000;font-style:normal;font-variant:normal;font-weight:normal;font-stretch:normal;font-size:medium;line-height:normal;font-family:sans-serif;font-variant-ligatures:normal;font-variant-position:normal;font-variant-caps:normal;font-variant-numeric:normal;font-variant-alternates:normal;font-feature-settings:normal;text-indent:0;text-align:start;text-decoration:none;text-decoration-line:none;text-decoration-style:solid;text-decoration-color:#000000;letter-spacing:normal;word-spacing:normal;text-transform:none;writing-mode:lr-tb;direction:ltr;text-orientation:mixed;dominant-baseline:auto;baseline-shift:baseline;text-anchor:start;white-space:normal;shape-padding:0;clip-rule:nonzero;display:inline;overflow:visible;visibility:visible;opacity:0.40900005;isolation:auto;mix-blend-mode:normal;color-interpolation:sRGB;color-interpolation-filters:linearRGB;solid-color:#000000;solid-opacity:1;vector-effect:none;fill:#ffff00;fill-opacity:1;fill-rule:nonzero;stroke:none;stroke-width:9.26041698;stroke-linecap:butt;stroke-linejoin:miter;stroke-miterlimit:4;stroke-dasharray:none;stroke-dashoffset:0;stroke-opacity:1;color-rendering:auto;image-rendering:auto;shape-rendering:auto;text-rendering:auto;enable-background:accumulate"
       d="m 280.39408,104.22782 c -19.61893,19.61893 -36.05491,38.6899 -46.90659,53.89203 -5.42584,7.60106 -9.45801,14.19433 -11.8468,19.69955 -1.1944,2.75261 -2.00746,5.22339 -2.25805,7.69669 -0.25058,2.47331 0.13583,5.40875 2.27324,7.54616 2.13741,2.13741 5.07147,2.52244 7.54478,2.27186 2.47329,-0.25059 4.94408,-1.06365 7.69668,-2.25805 5.50523,-2.38879 12.09849,-6.42096 19.69956,-11.8468 15.20213,-10.85168 34.2731,-27.28766 53.89203,-46.90659 19.61894,-19.61893 36.05353,-38.688521 46.90521,-53.89066 5.42584,-7.601058 9.45939,-14.195706 11.84818,-19.700928 1.1944,-2.752611 2.00608,-5.222012 2.25667,-7.695309 0.25058,-2.473304 -0.13445,-5.407372 -2.27186,-7.544779 -2.1374,-2.137408 -5.07285,-2.52382 -7.54616,-2.273236 -2.4733,0.250585 -4.94269,1.062266 -7.6953,2.256668 -5.50523,2.388791 -12.09987,6.42234 -19.70094,11.848175 -15.20213,10.851685 -34.27172,27.286282 -53.89065,46.905219 z m 6.54765,6.54764 c 19.32347,-19.323473 38.14431,-35.507875 52.72365,-45.914987 7.28966,-5.203557 13.55819,-8.960981 18.00636,-10.891099 2.01008,-0.87221 3.47538,-1.235761 4.46637,-1.389352 -0.15369,0.991052 -0.5187,2.455287 -1.39074,4.46499 -1.93012,4.448162 -5.68754,10.716699 -10.89109,18.006361 -10.40712,14.579333 -26.59152,33.400177 -45.91499,52.723647 -19.32348,19.32348 -38.1457,35.50925 -52.72503,45.91637 -7.28967,5.20356 -13.55683,8.9596 -18.00498,10.88972 -2.00978,0.87207 -3.47534,1.23845 -4.46638,1.39212 0.15357,-0.99098 0.51849,-2.4576 1.39074,-4.46776 1.93011,-4.44816 5.68616,-10.71531 10.88972,-18.00498 10.40711,-14.57934 26.59289,-33.40156 45.91637,-52.72503 z"
       id="ellipse4827"
       inkscape:connector-curvature="0" />
  </g>
  <g
     inkscape:groupmode="layer"
     id="layer4"
     inkscape:label="Camada 4"
     style="display:none"
     transform="translate(95.155893,52.352801)">
    <g
       style="display:inline;stroke-width:0.26458332;stroke-miterlimit:4;stroke-dasharray:none"
       transform="rotate(-45,378.97285,353.00809)"
       id="g4849">
      <g
         style="stroke-width:0.26458332;stroke-miterlimit:4;stroke-dasharray:none"
         id="g4847">
        <path
           inkscape:connector-curvature="0"
           style="opacity:1;fill:#00e6ff;fill-opacity:0.4745098;stroke-width:0.26458332;stroke-miterlimit:4;stroke-dasharray:none"
           d="M 485.16398,72.35017 A 60.060416,60.060416 0 0 0 439.2598,93.683236 h 91.72721 A 60.060416,60.060416 0 0 0 485.16398,72.35017 Z"
           id="path4837" />
        <path
           inkscape:connector-curvature="0"
           style="opacity:1;fill:#00b7ff;fill-opacity:0.4745098;stroke-width:0.26458332;stroke-miterlimit:4;stroke-dasharray:none"
           d="M 439.2598,93.683236 A 60.060416,60.060416 0 0 0 426.5505,119.5013 H 543.74437 A 60.060416,60.060416 0 0 0 530.98701,93.683236 Z"
           id="path4839" />
        <path
           inkscape:connector-curvature="0"
           style="opacity:1;fill:#0096ff;fill-opacity:0.4745098;stroke-width:0.26458332;stroke-miterlimit:4;stroke-dasharray:none"
           d="m 426.5505,119.5013 a 60.060416,60.060416 0 0 0 -1.44694,12.90929 60.060416,60.060416 0 0 0 1.48001,12.90877 h 117.1944 a 60.060416,60.060416 0 0 0 1.44643,-12.90877 60.060416,60.060416 0 0 0 -1.48003,-12.90929 z"
           id="path4841" />
        <path
           inkscape:connector-curvature="0"
           style="opacity:1;fill:#007aff;fill-opacity:0.4745098;stroke-width:0.26458332;stroke-miterlimit:4;stroke-dasharray:none"
           d="m 426.58357,145.31936 a 60.060416,60.060416 0 0 0 12.75737,25.81858 h 91.72669 a 60.060416,60.060416 0 0 0 12.71034,-25.81858 z"
           id="path4843" />
        <path
           inkscape:connector-curvature="0"
           style="opacity:1;fill:#0056ff;fill-opacity:0.4745098;stroke-width:0.26458332;stroke-miterlimit:4;stroke-dasharray:none"
           d="m 439.34094,171.13794 a 60.060416,60.060416 0 0 0 45.82304,21.33306 60.060416,60.060416 0 0 0 45.90365,-21.33306 z"
           id="path4845" />
      </g>
    </g>
    <path
       style="opacity:1;fill:#00e6ff;fill-opacity:0.4745098;stroke-width:0.99999994;stroke-miterlimit:4;stroke-dasharray:none"
       d="m 1122.8711,234.10156 a 227,227 0 0 0 -156.80079,66.23633 227,227 0 0 0 -65.66601,179.69336 227,227 0 0 0 35.0332,102.9668 227,227 0 0 0 30.63281,38.36718 227,227 0 0 0 38.45509,30.54297 227,227 0 0 0 103.0957,34.90625 227,227 0 0 0 179.4766,-65.44922 227,227 0 0 0 65.666,-179.69335 227,227 0 0 0 -35.0332,-102.96876 227,227 0 0 0 -30.6328,-38.36523 227,227 0 0 0 -38.4571,-30.54492 227,227 0 0 0 -103.0937,-34.9043 227,227 0 0 0 -22.6758,-0.78711 z"
       transform="scale(0.26458333)"
       id="path4858"
       inkscape:connector-curvature="0" />
    <ellipse
       style="display:inline;opacity:0.40900005;fill:#ff0000;fill-opacity:0.4745098;stroke:#ffff00;stroke-width:9.26041698;stroke-miterlimit:4;stroke-dasharray:none"
       id="ellipse4829"
       cx="124.56777"
       cy="293.24905"
       rx="99.718262"
       ry="16.65089"
       transform="rotate(-45)" />
  </g>
</svg>
