<?xml version="1.0" encoding="UTF-8" standalone="no"?>
<svg
   xmlns:dc="http://purl.org/dc/elements/1.1/"
   xmlns:cc="http://creativecommons.org/ns#"
   xmlns:rdf="http://www.w3.org/1999/02/22-rdf-syntax-ns#"
   xmlns:svg="http://www.w3.org/2000/svg"
   xmlns="http://www.w3.org/2000/svg"
   id="svg28"
   viewBox="0 0 149.61 149.61"
   version="1.1"
   height="149.61mm"
   width="149.61mm">
  <defs
     id="defs32" />
  <metadata
     id="metadata2">
    <rdf:RDF>
      <cc:Work
         rdf:about="">
        <dc:format>image/svg+xml</dc:format>
        <dc:type
           rdf:resource="http://purl.org/dc/dcmitype/StillImage" />
        <dc:title></dc:title>
      </cc:Work>
    </rdf:RDF>
  </metadata>
  <g
     id="g26"
     transform="translate(-155.01 -136.77)">
    <g
       id="g24"
       transform="translate(239.6 50.589)">
      <g
         id="g16"
         transform="rotate(-45 148.73 319.39)">
        <g
           id="g14"
           stroke-width=".26458">
          <path
             id="path4"
             fill="#0aecf5"
             d="m148.63 38.979a60.06 60.06 0 0 0-45.904 21.333l91.727-2e-6a60.06 60.06 0 0 0-45.823-21.333z" />
          <path
             id="path6"
             fill="#00caff"
             d="m102.73 60.312a60.06 60.06 0 0 0-12.709 25.818h117.19a60.06 60.06 0 0 0-12.757-25.818z" />
          <path
             id="path8"
             fill-opacity=".99497"
             fill="#00a9ff"
             d="m90.016 86.13a60.06 60.06 0 0 0-1.4469 12.909 60.06 60.06 0 0 0 1.48 12.909h117.19a60.06 60.06 0 0 0 1.4464-12.909 60.06 60.06 0 0 0-1.48-12.909z" />
          <path
             id="path10"
             fill="#0087ff"
             d="m90.049 111.95a60.06 60.06 0 0 0 12.757 25.819l91.727 1e-5a60.06 60.06 0 0 0 12.71-25.819z" />
          <path
             id="path12"
             fill="#0068ff"
             d="m102.81 137.77a60.06 60.06 0 0 0 45.823 21.333 60.06 60.06 0 0 0 45.904-21.333z" />
        </g>
      </g>
      <path
         id="path18"
         fill-opacity=".31373"
         d="m-99.271 403.54a227 227 0 0 0-88.273 54.453 227 227 0 0 0-65.666 179.69 227 227 0 0 0 35.033 102.96 227 227 0 0 0 30.633 38.369 227 227 0 0 0 38.455 30.543 227 227 0 0 0 103.1 34.906 227 227 0 0 0 179.48-65.449c-391.23-60.618-232.7-375.45-232.7-375.45s-0.05197-0.0327-0.05273-0.0332z"
         transform="scale(.26458)" />
      <path
         id="path20"
         stroke-width=".45386"
         fill="#ffe800"
         d="m17.842 109.19c2.1971 0.9989 4.3321 2.1293 6.3932 3.3851 2.2448-1.7578 4.4207-3.4124 6.5262-4.9666 0.98463-0.72684 1.9588-1.4383 2.9083-2.1161 7.3341-5.2353 13.649-9.0291 18.248-11.025 2.2996-0.99781 4.1789-1.5263 5.3364-1.6436 0.71209-0.07215 1.0023-0.01309 1.1086 0.01535 0.028 0.10592 0.08635 0.39546 0.01425 1.1075-0.11726 1.1575-0.64578 3.0368-1.6436 5.3364-1.9957 4.5992-5.7894 10.914-11.025 18.248-0.67979 0.95232-1.3863 1.9239-2.1139 2.9105-27.329 34.574-58.025 67.3-93.952 93.945-0.97709 0.72033-1.9393 1.4192-2.8827 2.0927-7.3341 5.2353-13.65 9.0305-18.249 11.026-2.2996 0.99782-4.1775 1.5249-5.335 1.6421-0.71194 0.0721-1.0022 0.0144-1.1086-0.0132-0.028-0.10677-0.08635-0.39758-0.01425-1.1097 0.11727-1.1575 0.64432-3.0354 1.6421-5.335 1.9956-4.5992 5.7909-10.915 11.026-18.25 0.67129-0.9404 1.3759-1.9046 2.0952-2.8794 1.5454-2.0942 3.1901-4.2586 4.9374-6.4911-1.2558-2.0617-2.3861-4.1972-3.3848-6.395-2.2408 2.8131-4.3296 5.5321-6.2806 8.1581-0.94874 1.277-1.875 2.539-2.7508 3.7659-5.3941 7.5566-9.388 14.104-11.711 19.459-1.1616 2.6771-1.9265 5.0465-2.1548 7.3005-0.18323 1.8085 0.01631 3.7524 1.01 5.3591 0.53823 0.59183 1.0833 1.1774 1.6352 1.7565 1.6715 1.2067 3.7766 1.4526 5.7256 1.2552 2.254-0.22838 4.6234-0.99317 7.3005-2.1548 5.3542-2.3233 11.902-6.3176 19.459-11.712 1.227-0.87588 2.489-1.8015 3.7659-2.75 10.123-7.5199 21.752-17.28 33.996-28.637 21.392-20.13 42.609-42.095 59.955-65.309 0.95551-1.286 1.8883-2.5564 2.7702-3.7918 5.3941-7.5566 9.388-14.105 11.711-19.459 1.1616-2.6771 1.9279-5.0479 2.1563-7.3019 0.1871-1.8468-0.02337-3.834-1.0725-5.4596-0.77947-0.72758-1.5702-1.443-2.3719-2.146-1.1273-0.58068-2.3906-0.81405-3.6424-0.82582-0.43145-4e-3 -0.86105 0.01819-1.2837 0.06102-2.254 0.22836-4.6252 0.99428-7.3023 2.1559-5.3542 2.3233-11.902 6.3176-19.459 11.712-1.2354 0.88183-2.5059 1.8146-3.7918 2.7702-2.6366 1.9593-5.3666 4.0571-8.1921 6.3088z" />
      <path
         id="path22"
         fill-rule="evenodd"
         fill-opacity=".19608"
         d="m-61.583 188.62c0.9989 2.1971 2.1293 4.3321 3.3851 6.3932-1.7578 2.2448-3.4124 4.4207-4.9666 6.5262-0.72684 0.98464-1.4383 1.9588-2.1161 2.9083-5.2353 7.3342-9.0291 13.649-11.025 18.248-0.99781 2.2996-1.5263 4.179-1.6436 5.3364-0.07215 0.71208-0.01309 1.0023 0.01535 1.1086-2.7435-0.38571-5.4996-0.7508-5.9591-4.9432 0.3751-1.3084 0.88562-2.6749 1.519-4.1346 2.3233-5.3542 6.3176-11.902 11.712-19.459 0.88183-1.2354 1.8146-2.5059 2.7702-3.7918 1.9593-2.6366 4.0571-5.3666 6.3088-8.1921zm79.424-79.424c2.1971 0.9989 4.3321 2.1293 6.3932 3.3851 2.2448-1.7579 4.4207-3.4124 6.5262-4.9666 0.98463-0.72684 1.9588-1.4383 2.9083-2.1161 7.3341-5.2353 13.649-9.0291 18.248-11.025 2.2996-0.99781 4.1789-1.5263 5.3364-1.6436 0.71208-0.07215 1.0023-0.01309 1.1086 0.01535-0.3857-2.7435-0.7508-5.4996-4.9432-5.9591-1.3084 0.3751-2.6749 0.88563-4.1346 1.519-5.3542 2.3233-11.902 6.3176-19.459 11.712-1.2354 0.88184-2.5059 1.8146-3.7918 2.7702-2.6366 1.9593-5.3666 4.0571-8.1921 6.3088z" />
    </g>
  </g>
</svg>
