<?xml version="1.0" encoding="UTF-8" standalone="no"?>
<!-- Created with Inkscape (http://www.inkscape.org/) -->

<svg
   xmlns:dc="http://purl.org/dc/elements/1.1/"
   xmlns:cc="http://creativecommons.org/ns#"
   xmlns:rdf="http://www.w3.org/1999/02/22-rdf-syntax-ns#"
   xmlns:svg="http://www.w3.org/2000/svg"
   xmlns="http://www.w3.org/2000/svg"
   xmlns:sodipodi="http://sodipodi.sourceforge.net/DTD/sodipodi-0.dtd"
   xmlns:inkscape="http://www.inkscape.org/namespaces/inkscape"
   version="1.1"
   id="svg866"
   width="2376.052"
   height="2328.1562"
   viewBox="0 0 2376.052 2328.1562"
   sodipodi:docname="pc.svg"
   inkscape:version="0.92.4 (33fec40, 2019-01-16)">
  <metadata
     id="metadata872">
    <rdf:RDF>
      <cc:Work
         rdf:about="">
        <dc:format>image/svg+xml</dc:format>
        <dc:type
           rdf:resource="http://purl.org/dc/dcmitype/StillImage" />
        <dc:title></dc:title>
      </cc:Work>
    </rdf:RDF>
  </metadata>
  <defs
     id="defs870" />
  <sodipodi:namedview
     pagecolor="#ffffff"
     bordercolor="#666666"
     borderopacity="1"
     objecttolerance="10"
     gridtolerance="10"
     guidetolerance="10"
     inkscape:pageopacity="0"
     inkscape:pageshadow="2"
     inkscape:window-width="1366"
     inkscape:window-height="712"
     id="namedview868"
     showgrid="false"
     borderlayer="true"
     showborder="false"
     inkscape:zoom="0.70710678"
     inkscape:cx="1272.4449"
     inkscape:cy="1275.5404"
     inkscape:window-x="0"
     inkscape:window-y="0"
     inkscape:window-maximized="1"
     inkscape:current-layer="svg866"
     inkscape:snap-nodes="true" />
  <path
     style="opacity:1;fill:#9dfdfb;fill-opacity:1;stroke:none;stroke-width:0.5;stroke-miterlimit:4;stroke-dasharray:none;stroke-opacity:1"
     d="m 1208.1211,790.25197 c -176.748,0 -200.3732,0.1825 -203.0722,1.5782 -6.5671,3.3959 -6.2129,-3.5869 -6.2129,122.6211 0,63.2128 0.3141,115.24573 0.6972,115.62893 0.3832,0.3836 94.4436,0.5782 209.0235,0.4336 l 208.3281,-0.2618 0.2637,-115.35743 c 0.291,-126.7886 0.6369,-119.6545 -5.9571,-123.0644 -2.699,-1.3957 -26.3222,-1.5782 -203.0703,-1.5782 z"
     id="rect940"
     inkscape:connector-curvature="0"
     sodipodi:nodetypes="scscccccs" />
  <path
     style="fill:#ebc22d;stroke-width:1"
     d="m 999.3574,1040.6621 -0.3027,9.8359 c -0.3482,11.3377 0.7762,15.0418 5.4258,17.877 3.1077,1.895 9.3786,1.959 203.4316,1.959 176.9395,0 200.5802,-0.1804 203.2793,-1.5762 5.0476,-2.6102 6.3285,-6.4509 5.9902,-17.9629 l -0.2968,-10.1328 h -208.7637 z m 157.2227,39.5664 -0.2793,24.7305 -0.2793,24.7285 h 52.0996 52.0977 l -0.2793,-24.7285 -0.2793,-24.7305 h -51.5391 z"
     id="path933"
     inkscape:connector-curvature="0"
     sodipodi:nodetypes="cccscccccccccccccc" />
  <path
     inkscape:connector-curvature="0"
     id="path901"
     d="m 1024.0768,1210.12 0.269,-58.0477 h 183.7744 183.7744 l 0.2691,58.0477 0.269,58.0477 h -184.3125 -184.3124 z"
     style="fill:#63a351;stroke-width:1"
     sodipodi:nodetypes="ccccccccc" />
  <path
     style="fill:#000000;stroke-width:1"
     d="m 1410.8008,781.90627 -203.7148,0.26757 -203.7168,0.26758 -4.3281,2.86524 c -2.3807,1.57547 -5.2362,4.64362 -6.3457,6.81836 -1.9609,3.84376 -2.0245,7.68544 -2.2422,137.69921 -0.1706,101.81127 0.0752,134.49137 1.0234,136.86917 1.5339,3.8462 5.8086,8.4659 9.9629,10.7656 2.7976,1.5487 10.5134,1.7837 73.9258,2.25 l 70.8027,0.5195 0.2813,23.8184 c 0.1963,16.6936 -0.077,24.2463 -0.9102,25.25 -0.9402,1.1329 -5.7955,1.4316 -23.2383,1.4316 -22.1119,0 -24.5488,0.3744 -24.5488,3.7774 0,0.7036 0.7368,2.0161 1.6367,2.916 1.4663,1.4663 12.7604,1.6367 108.7324,1.6367 95.9721,0 107.2663,-0.1704 108.7325,-1.6367 0.9,-0.8999 1.6347,-2.2124 1.6347,-2.916 0,-3.403 -2.4369,-3.7774 -24.5488,-3.7774 -17.4428,0 -22.2981,-0.2987 -23.2383,-1.4316 -0.8335,-1.0037 -1.1045,-8.5564 -0.9082,-25.25 l 0.2793,-23.8184 70.8027,-0.5195 c 63.4124,-0.4663 71.1281,-0.7013 73.9258,-2.25 4.1518,-2.2984 8.428,-6.9174 9.9668,-10.7656 0.9525,-2.3814 1.2035,-34.9171 1.0528,-136.91995 l -0.1973,-133.79492 -2.8086,-4.60547 c -1.7844,-2.92653 -4.4844,-5.4899 -7.4102,-7.03515 z m -202.6797,8.3457 c 176.7481,0 200.3713,0.18242 203.0703,1.57812 6.594,3.40988 6.2481,-3.72415 5.9571,123.06446 l -0.2637,115.35745 -208.3281,0.2617 c -114.5799,0.1446 -208.6403,-0.05 -209.0235,-0.4336 -0.3831,-0.3832 -0.6972,-52.4161 -0.6972,-115.62891 0,-126.20801 -0.3542,-119.22514 6.2129,-122.6211 2.699,-1.3957 26.3242,-1.57812 203.0722,-1.57812 z M 999.3575,1040.6621 h 208.7636 208.7637 l 0.2969,10.1328 c 0.3383,11.512 -0.9427,15.3527 -5.9903,17.9629 -2.6991,1.3958 -26.3398,1.5762 -203.2793,1.5762 -194.053,0 -200.3239,-0.064 -203.4316,-1.959 -4.6496,-2.8352 -5.774,-6.5392 -5.4258,-17.8769 z m 157.2226,39.5664 h 51.541 51.5391 l 0.2793,24.7305 0.2793,24.7285 h -52.0977 -52.0996 l 0.2793,-24.7285 z m -132.2344,71.8438 -0.2695,58.0488 -0.2676,58.0469 h 184.3125 184.3125 l -0.2695,-58.0469 -0.2695,-58.0488 h -183.7735 z m 11.4532,11.4551 h 172.3222 172.3203 l 0.2715,46.5937 0.2715,46.5938 h -172.8633 -172.8632 l 0.2714,-46.5938 z m 83.7168,10.9316 c -12.5793,0 -13.4062,0.1283 -14.9375,2.3145 -2.1815,3.1146 -2.0387,5.5959 0.4629,8.0976 1.8467,1.8467 3.4691,2.082 14.3437,2.082 13.71,0 16.8926,-1.1221 16.8926,-5.9629 0,-5.7028 -2.1238,-6.5312 -16.7617,-6.5312 z m 44.3535,0 c -11.6269,0 -13.2374,0.2217 -15.0977,2.082 -2.748,2.748 -2.6275,4.7572 0.4727,7.8575 2.4297,2.4296 3.1719,2.5546 15.0566,2.5546 11.5195,0 12.6688,-0.1775 14.625,-2.2773 2.6833,-2.8796 2.6962,-5.4796 0.041,-8.1348 -1.8603,-1.8603 -3.4706,-2.082 -15.0976,-2.082 z m 44.4316,0 c -10.6654,0 -13.3771,0.3125 -14.9355,1.7227 -2.4989,2.2615 -2.4209,6.0907 0.1777,8.6894 1.8511,1.851 3.4718,2.082 14.5781,2.082 11.1064,0 12.7251,-0.231 14.5762,-2.082 2.532,-2.5321 2.6764,-5.9475 0.3594,-8.5078 -1.4946,-1.6515 -3.453,-1.9043 -14.7559,-1.9043 z m 44.0703,0 c -11.627,0 -13.2354,0.2217 -15.0957,2.082 -2.6872,2.6872 -2.6363,5.0044 0.1797,8.002 2.1276,2.2647 3.032,2.4101 15.0215,2.4101 12.5427,0 12.7964,-0.045 14.918,-2.7421 2.6981,-3.4296 2.7121,-5.032 0.074,-7.67 -1.8604,-1.8603 -3.4708,-2.082 -15.0977,-2.082 z m 44.5352,0 c -10.7605,0 -13.477,0.3109 -15.0371,1.7227 -2.6595,2.4069 -2.447,7.1491 0.4101,9.1503 1.7764,1.2443 5.1624,1.6211 14.5762,1.6211 10.8746,0 12.499,-0.2353 14.3457,-2.082 2.5016,-2.5017 2.6424,-4.983 0.4609,-8.0976 -1.5293,-2.1833 -2.3634,-2.3145 -14.7558,-2.3145 z m -220.8184,0.016 c -7.269,0.01 -13.733,0.3605 -14.3632,0.7813 -3.6789,2.4564 -3.5124,8.3184 0.2988,10.5351 1.0388,0.6041 7.3941,1.1129 14.123,1.1309 10.8706,0.028 12.466,-0.2005 14.3164,-2.0508 2.5016,-2.5017 2.6425,-4.983 0.461,-8.0976 -1.5314,-2.1862 -2.3497,-2.3129 -14.836,-2.2989 z m 264.0664,0 c -12.4862,-0.015 -13.3065,0.1127 -14.8379,2.2989 -2.1815,3.1146 -2.0406,5.5959 0.461,8.0976 1.8423,1.8423 3.4709,2.082 14.125,2.082 6.6234,0 12.9753,-0.4992 14.1152,-1.1093 3.9896,-2.135 4.2688,-8.0702 0.4981,-10.5879 -0.6301,-0.4208 -7.0923,-0.7713 -14.3614,-0.7813 z m -263.8164,19.7676 c -12.4546,0 -15.2489,0.6841 -17.125,4.1895 -1.1447,2.1391 0.1167,5.9085 2.5118,7.5078 0.6302,0.4208 7.0942,0.7712 14.3632,0.7812 12.4863,0.015 13.3046,-0.1126 14.836,-2.2988 2.1815,-3.1146 2.0406,-5.5961 -0.461,-8.0977 -1.8423,-1.8423 -3.4709,-2.082 -14.125,-2.082 z m 43.0469,0 c -10.8746,0 -12.497,0.2353 -14.3437,2.082 -2.5016,2.5016 -2.6444,4.9831 -0.4629,8.0977 1.5294,2.1833 2.3633,2.3144 14.7558,2.3144 14.5665,0 16.9434,-0.8905 16.9434,-6.3496 0,-5.0436 -3.0286,-6.1445 -16.8926,-6.1445 z m 44.5606,0 c -12.7387,0 -12.9732,0.043 -15.0977,2.7441 -2.6981,3.4295 -2.7141,5.0301 -0.076,7.668 1.8604,1.8604 3.4708,2.082 15.0977,2.082 11.627,0 13.2373,-0.2216 15.0976,-2.082 1.1454,-1.1453 2.0821,-3.0188 2.0821,-4.1641 0,-1.1453 -0.9367,-3.0206 -2.0821,-4.166 -1.8589,-1.859 -3.47,-2.082 -15.0214,-2.082 z m 44.1757,0 c -11.1063,0 -12.727,0.2309 -14.5781,2.082 -2.532,2.532 -2.6764,5.9474 -0.3594,8.5078 1.4946,1.6515 3.453,1.9043 14.7559,1.9043 10.6654,0 13.3771,-0.3124 14.9355,-1.7226 2.4989,-2.2616 2.4209,-6.0908 -0.1777,-8.6895 -1.8511,-1.8511 -3.4698,-2.082 -14.5762,-2.082 z m 44.1758,0 c -11.5514,0 -13.1626,0.223 -15.0215,2.082 -1.1454,1.1454 -2.084,3.0206 -2.084,4.166 0,1.1453 0.9386,3.0188 2.084,4.1641 1.8603,1.8604 3.4708,2.082 15.0977,2.082 11.6269,0 13.2373,-0.2216 15.0976,-2.082 2.6375,-2.6379 2.6216,-4.2385 -0.076,-7.668 -2.1245,-2.7005 -2.359,-2.7441 -15.0977,-2.7441 z m 44.5586,0 c -9.4138,0 -12.7998,0.3769 -14.5762,1.6211 -2.7662,1.9375 -3.0513,6.2509 -0.5918,8.9687 1.4983,1.6555 3.4618,1.9043 15.0391,1.9043 12.5794,0 13.4042,-0.1282 14.9355,-2.3144 2.1815,-3.1146 2.0407,-5.5961 -0.4609,-8.0977 -1.8467,-1.8467 -3.4711,-2.082 -14.3457,-2.082 z m 43.0469,0 c -10.6541,0 -12.2827,0.2397 -14.125,2.082 -2.5016,2.5016 -2.6425,4.9831 -0.461,8.0977 1.5314,2.1862 2.3517,2.3138 14.8379,2.2988 7.2691,-0.01 13.7313,-0.3604 14.3614,-0.7812 3.7707,-2.5177 3.4915,-8.4529 -0.4981,-10.5879 -1.1399,-0.6102 -7.4918,-1.1094 -14.1152,-1.1094 z m -44.3203,19.7363 c -5.9877,0.093 -11.8812,0.6723 -13.3028,1.668 -3.8064,2.6661 -2.6644,9.5781 1.8496,11.1914 0.859,0.307 6.5364,0.5956 12.6153,0.6406 9.6794,0.072 11.3924,-0.1862 13.7949,-2.0761 4.0936,-3.2198 3.613,-7.7033 -1.0918,-10.1797 -1.7963,-0.9456 -7.8775,-1.3376 -13.8652,-1.2442 z m -220.125,0.047 c -12.1581,0 -15.4269,0.9838 -16.4649,4.9531 -0.7533,2.8805 0.9512,6.4387 3.5938,7.5 1.302,0.5229 7.341,0.9797 13.4199,1.0157 9.6649,0.058 11.398,-0.2047 13.7969,-2.0918 1.5762,-1.2397 2.7422,-3.2008 2.7422,-4.6094 0,-1.4087 -1.166,-3.3696 -2.7422,-4.6094 -2.4026,-1.8899 -4.1849,-2.1582 -14.3457,-2.1582 z m 44.5898,0 c -10.1608,0 -11.9431,0.2683 -14.3457,2.1582 -3.5784,2.815 -3.5387,6.4359 0.1035,9.3008 2.6161,2.0577 3.8489,2.2125 15.1836,1.8984 13.5579,-0.3758 15.2871,-1.1964 15.2871,-7.25 0,-4.9394 -3.1023,-6.1074 -16.2285,-6.1074 z m 43.8223,0 c -11.4253,0 -12.2054,0.1353 -14.625,2.5547 -1.4056,1.4057 -2.5547,3.0765 -2.5547,3.7129 0,2.2165 2.2331,5.3084 4.4922,6.2187 1.2511,0.504 7.3334,0.9465 13.5156,0.9825 10.5897,0.062 11.3871,-0.081 13.7949,-2.4883 1.4056,-1.4056 2.5567,-3.3019 2.5567,-4.2129 0,-0.9111 -1.1511,-2.8072 -2.5567,-4.2129 -2.4196,-2.4194 -3.1976,-2.5547 -14.623,-2.5547 z m 88.5019,0 c -11.4254,0 -12.2034,0.1353 -14.623,2.5547 -1.4057,1.4057 -2.5567,3.3018 -2.5567,4.2129 0,0.911 1.151,2.8073 2.5567,4.2129 2.4196,2.4195 3.1976,2.5547 14.623,2.5547 11.4253,0 12.2054,-0.1352 14.625,-2.5547 1.4056,-1.4056 2.5567,-3.3019 2.5567,-4.2129 0,-0.9111 -1.1511,-2.8072 -2.5567,-4.2129 -2.4196,-2.4194 -3.1997,-2.5547 -14.625,-2.5547 z m 88.5293,0 c -10.2785,0 -12.0566,0.2654 -14.4629,2.1582 -3.5785,2.815 -3.5367,6.4359 0.1055,9.3008 2.6132,2.0555 3.8506,2.2122 15.0625,1.8984 13.4678,-0.377 15.668,-1.3167 15.668,-6.6933 0,-5.3767 -3.1609,-6.6641 -16.3731,-6.6641 z m -132.7558,0.027 c -5.5975,0 -11.1934,0.3108 -12.8828,0.9531 -4.6809,1.7797 -4.9659,9.0919 -0.4395,11.2734 v 0 c 3.1799,1.5319 22.9249,1.5924 26.2441,0.08 4.8231,-2.1976 4.8059,-9.4943 -0.027,-11.332 -1.6973,-0.6454 -7.2971,-0.9716 -12.8945,-0.9765 z m 0,18.625 c -46.6626,-0.01 -93.3256,0.4238 -95.2246,1.289 -4.6425,2.1152 -4.8371,9.4473 -0.2988,11.2734 v 0 c 3.1586,1.2703 187.2796,1.3483 190.6152,0.08 4.8526,-1.8449 4.938,-9.1445 0.1328,-11.334 -1.8998,-0.8659 -48.562,-1.3055 -95.2246,-1.3105 z"
     id="path899"
     inkscape:connector-curvature="0" />
</svg>
