<?xml version="1.0" encoding="UTF-8"?>
<svg width="105.83mm" height="105.83mm" version="1.1" viewBox="0 0 105.83 105.83" xmlns="http://www.w3.org/2000/svg" xmlns:cc="http://creativecommons.org/ns#" xmlns:dc="http://purl.org/dc/elements/1.1/" xmlns:rdf="http://www.w3.org/1999/02/22-rdf-syntax-ns#">
 <metadata>
  <rdf:RDF>
   <cc:Work rdf:about="">
    <dc:format>image/svg+xml</dc:format>
    <dc:type rdf:resource="http://purl.org/dc/dcmitype/StillImage"/>
    <dc:title/>
   </cc:Work>
  </rdf:RDF>
 </metadata>
 <g transform="translate(-115.66 -151.86)">
  <rect x="115.66" y="151.86" width="105.83" height="105.83" rx="19.932" fill="#0ff" fill-opacity=".98039"/>
  <path d="m195.8 177.55-35.785 4.2138-12.762 35.696-11.965 20.602 19.623 19.623h46.654c11.043 0 19.932-8.8899 19.932-19.932v-34.504z" fill-opacity=".078431"/>
  <path d="m195.8 177.55-6.4687 42.175-35.82 4.613-18.223 13.724 19.623 19.623h46.654c11.043 0 19.932-8.8899 19.932-19.932v-34.504z" fill-opacity=".078431"/>
  <path d="m151.07 207.24-15.789 15.789c-4.1644 4.1644-4.1644 10.87 0 15.034 4.1644 4.1644 10.87 4.1644 15.034 0l15.772-15.772a23.601 23.601 0 0 1-9.3093-5.7248 23.601 23.601 0 0 1-5.7078-9.3262z" fill="#fff"/>
  <path d="m195.8 177.55c-12.264-12.264-32.388-12.264-44.652 0-12.264 12.264-12.264 32.389-2.6e-4 44.652 12.264 12.264 32.389 12.263 44.652-2.6e-4 12.264-12.264 12.264-32.388 0-44.652zm-11.275 11.276c6.1698 6.1699 6.1698 15.931 0 22.101-6.1698 6.1698-15.931 6.1703-22.101 2.7e-4 -6.1698-6.1698-6.1693-15.931 2.6e-4 -22.101 6.1698-6.1698 15.931-6.1698 22.101 0z" color="#000000" color-rendering="auto" dominant-baseline="auto" fill="#fff" image-rendering="auto" shape-rendering="auto" solid-color="#000000" style="font-feature-settings:normal;font-variant-alternates:normal;font-variant-caps:normal;font-variant-ligatures:normal;font-variant-numeric:normal;font-variant-position:normal;isolation:auto;mix-blend-mode:normal;shape-padding:0;text-decoration-color:#000000;text-decoration-line:none;text-decoration-style:solid;text-indent:0;text-orientation:mixed;text-transform:none;white-space:normal"/>
 </g>
</svg>
