<?xml version="1.0" encoding="UTF-8" standalone="no"?>
<svg
   xmlns:dc="http://purl.org/dc/elements/1.1/"
   xmlns:cc="http://creativecommons.org/ns#"
   xmlns:rdf="http://www.w3.org/1999/02/22-rdf-syntax-ns#"
   xmlns:svg="http://www.w3.org/2000/svg"
   xmlns="http://www.w3.org/2000/svg"
   xmlns:sodipodi="http://sodipodi.sourceforge.net/DTD/sodipodi-0.dtd"
   xmlns:inkscape="http://www.inkscape.org/namespaces/inkscape"
   viewBox="0 0 920.66663 570.72449"
   height="570.72449"
   width="920.66663"
   xml:space="preserve"
   id="svg2"
   version="1.1"
   sodipodi:docname="proporcaoOuro.svg"
   inkscape:version="0.92.4 (33fec40, 2019-01-16)"><sodipodi:namedview
     pagecolor="#ffffff"
     bordercolor="#666666"
     borderopacity="1"
     objecttolerance="10"
     gridtolerance="10"
     guidetolerance="10"
     inkscape:pageopacity="0"
     inkscape:pageshadow="2"
     inkscape:window-width="1366"
     inkscape:window-height="709"
     id="namedview893"
     showgrid="false"
     inkscape:pagecheckerboard="false"
     showborder="false"
     inkscape:zoom="0.22819711"
     inkscape:cx="74.172167"
     inkscape:cy="-291.49322"
     inkscape:window-x="0"
     inkscape:window-y="0"
     inkscape:window-maximized="1"
     inkscape:current-layer="g12"
     inkscape:object-paths="true"
     inkscape:snap-intersection-paths="true"
     inkscape:snap-smooth-nodes="true" /><metadata
     id="metadata8"><rdf:RDF><cc:Work
         rdf:about=""><dc:format>image/svg+xml</dc:format><dc:type
           rdf:resource="http://purl.org/dc/dcmitype/StillImage" /><dc:title></dc:title></cc:Work></rdf:RDF></metadata><defs
     id="defs6" /><g
     id="g12"
     transform="matrix(0.13333333,0,0,-0.13333333,0,570.69599)"><path
       inkscape:connector-curvature="0"
       d="m 4936.9757,-4380.9489 c 0,-276.141 -223.86,-500 -500,-500 -276.14,0 -500,223.859 -500,500 0,276.141 223.86,500 500,500 276.14,0 500,-223.859 500,-500 z"
       style="fill:none;stroke:#ccccc9;stroke-width:30;stroke-linecap:round;stroke-linejoin:round;stroke-miterlimit:10;stroke-dasharray:none;stroke-opacity:1"
       id="path14" /><path
       inkscape:connector-curvature="0"
       d="m 3194.8398,-4747.6003 c 0,-450.109 -364.89,-815 -815,-815 -450.11,0 -815,364.891 -815,815 0,450.11 364.89,815 815,815 450.11,0 815,-364.89 815,-815 z"
       style="fill:none;stroke:#ccccc9;stroke-width:29.99055195;stroke-linecap:round;stroke-linejoin:round;stroke-miterlimit:10;stroke-dasharray:none;stroke-opacity:1"
       id="path16" /><path
       inkscape:connector-curvature="0"
       d="m -1810.2701,-2116.1891 c 0,-1173.598 -951.4,-2125 -2125,-2125 -1173.605,0 -2125,951.402 -2125,2125 0,1173.59998 951.395,2124.9999849 2125,2124.9999849 1173.6,0 2125,-951.4000049 2125,-2124.9999849 z"
       style="fill:none;stroke:#ccccc9;stroke-width:30;stroke-linecap:round;stroke-linejoin:round;stroke-miterlimit:10;stroke-dasharray:none;stroke-opacity:1"
       id="path18" /><path
       inkscape:connector-curvature="0"
       d="m 766.86358,-4472.7894 c 0,-723.5 -586.5,-1310 -1310,-1310 -723.49998,0 -1309.99998,586.5 -1309.99998,1310 0,723.49 586.5,1310 1309.99998,1310 723.5,0 1310,-586.51 1310,-1310 z"
       style="fill:none;stroke:#ccccc9;stroke-width:29.99055225;stroke-linecap:round;stroke-linejoin:round;stroke-miterlimit:10;stroke-dasharray:none;stroke-opacity:1"
       id="path20" /><path
       inkscape:connector-curvature="0"
       d="M 4261.77,18.4492 H 15 V 4265.22 h 4246.77 z"
       style="fill:none;stroke:#346dbf;stroke-width:30;stroke-linecap:round;stroke-linejoin:round;stroke-miterlimit:10;stroke-dasharray:none;stroke-opacity:1"
       id="path22" /><path
       inkscape:connector-curvature="0"
       d="M 4261.77,1641.99 H 6885 V 4265.22 H 4261.77 Z"
       style="fill:none;stroke:#346dbf;stroke-width:30;stroke-linecap:round;stroke-linejoin:round;stroke-miterlimit:10;stroke-dasharray:none;stroke-opacity:1"
       id="path24" /><path
       inkscape:connector-curvature="0"
       d="M 5261.37,1642.09 H 6885 V 18.4492 H 5261.37 Z"
       style="fill:none;stroke:#346dbf;stroke-width:30;stroke-linecap:round;stroke-linejoin:round;stroke-miterlimit:10;stroke-dasharray:none;stroke-opacity:1"
       id="path26" /><path
       inkscape:connector-curvature="0"
       d="M 5261.09,1017.8 H 4261.74 V 18.4492 h 999.35 z"
       style="fill:none;stroke:#346dbf;stroke-width:30;stroke-linecap:round;stroke-linejoin:round;stroke-miterlimit:10;stroke-dasharray:none;stroke-opacity:1"
       id="path28" /><path
       inkscape:connector-curvature="0"
       d="m 4885.22,1017.8 h -623.48 v 624.14 h 623.48 z"
       style="fill:none;stroke:#346dbf;stroke-width:30;stroke-linecap:round;stroke-linejoin:round;stroke-miterlimit:10;stroke-dasharray:none;stroke-opacity:1"
       id="path30" /><path
       inkscape:connector-curvature="0"
       d="m 4885.22,1265.79 h 376.16 v 376.15 h -376.16 z"
       style="fill:none;stroke:#346dbf;stroke-width:30;stroke-linecap:round;stroke-linejoin:round;stroke-miterlimit:10;stroke-dasharray:none;stroke-opacity:1"
       id="path32" /><path
       inkscape:connector-curvature="0"
       d="m 5012.66,1265.79 h 248.72 v -248.06 h -248.72 z"
       style="fill:none;stroke:#346dbf;stroke-width:30;stroke-linecap:round;stroke-linejoin:round;stroke-miterlimit:10;stroke-dasharray:none;stroke-opacity:1"
       id="path34" /><path
       inkscape:connector-curvature="0"
       d="m 5012.66,1145.18 h -127.44 v -127.44 h 127.44 z"
       style="fill:none;stroke:#346dbf;stroke-width:30;stroke-linecap:round;stroke-linejoin:round;stroke-miterlimit:10;stroke-dasharray:none;stroke-opacity:1"
       id="path36" /><path
       inkscape:connector-curvature="0"
       d="m 8302.3139,-379.3959 c 0,2349.12 1900.8801,4250 4250.0001,4250 h -10 c 1448.16,0 2620,-1171.84 2620,-2620 0,-900.961 -729.04,-1630 -1630,-1630 h 10 c -552.73,0 -1000,447.270002 -1000,1000 0,348.22 281.78,630 630,630 h -10 c 210.04,0 380,-169.96 380,-380 0,-138.18 -111.82,-250 -250,-250 -66.33,0 -120,58.14 -120,130"
       style="fill:none;stroke:#346dbf;stroke-width:30;stroke-linecap:round;stroke-linejoin:round;stroke-miterlimit:10;stroke-dasharray:none;stroke-opacity:1"
       id="path38" /><circle
       style="opacity:1;fill:none;fill-opacity:1;stroke:#ccccc9;stroke-width:30.00000075;stroke-miterlimit:4;stroke-dasharray:none;stroke-opacity:1"
       id="path933"
       cx="5773.5161"
       cy="3945.1802"
       r="312.125"
       transform="scale(1,-1)" /><circle
       style="opacity:1;fill:none;fill-opacity:1;stroke:#ccccc9;stroke-width:30;stroke-miterlimit:4;stroke-dasharray:none;stroke-opacity:1"
       id="path935"
       cx="6755.8135"
       cy="3338.8853"
       r="185.685"
       transform="scale(1,-1)" /><circle
       style="opacity:1;fill:none;fill-opacity:1;stroke:#ccccc9;stroke-width:30;stroke-miterlimit:4;stroke-dasharray:none;stroke-opacity:1"
       id="path937"
       cx="7354.2412"
       cy="2728.6506"
       r="124.355"
       transform="scale(1,-1)" /><circle
       style="opacity:1;fill:none;fill-opacity:1;stroke:#ccccc9;stroke-width:30;stroke-miterlimit:4;stroke-dasharray:none;stroke-opacity:1"
       id="path939"
       cx="7759.5532"
       cy="2290.8174"
       r="63.719997"
       transform="scale(1,-1)" /></g></svg>