<?xml version="1.0" encoding="UTF-8" standalone="no"?>
<svg
   xmlns:dc="http://purl.org/dc/elements/1.1/"
   xmlns:cc="http://creativecommons.org/ns#"
   xmlns:rdf="http://www.w3.org/1999/02/22-rdf-syntax-ns#"
   xmlns:svg="http://www.w3.org/2000/svg"
   xmlns="http://www.w3.org/2000/svg"
   xmlns:sodipodi="http://sodipodi.sourceforge.net/DTD/sodipodi-0.dtd"
   xmlns:inkscape="http://www.inkscape.org/namespaces/inkscape"
   viewBox="0 0 920.66663 570.72449"
   height="570.72449"
   width="920.66663"
   xml:space="preserve"
   id="svg2"
   version="1.1"
   sodipodi:docname="proporcaoOuro.svg"
   inkscape:version="0.92.3 (2405546, 2018-03-11)"><sodipodi:namedview
     pagecolor="#ffffff"
     bordercolor="#666666"
     borderopacity="1"
     objecttolerance="10"
     gridtolerance="10"
     guidetolerance="10"
     inkscape:pageopacity="0"
     inkscape:pageshadow="2"
     inkscape:window-width="1366"
     inkscape:window-height="719"
     id="namedview893"
     showgrid="false"
     inkscape:pagecheckerboard="false"
     showborder="false"
     inkscape:zoom="0.22819711"
     inkscape:cx="979.0916"
     inkscape:cy="-453.63375"
     inkscape:window-x="0"
     inkscape:window-y="25"
     inkscape:window-maximized="1"
     inkscape:current-layer="g12"
     inkscape:object-paths="true"
     inkscape:snap-intersection-paths="true"
     inkscape:snap-smooth-nodes="true" /><metadata
     id="metadata8"><rdf:RDF><cc:Work
         rdf:about=""><dc:format>image/svg+xml</dc:format><dc:type
           rdf:resource="http://purl.org/dc/dcmitype/StillImage" /><dc:title /></cc:Work></rdf:RDF></metadata><defs
     id="defs6" /><g
     id="g12"
     transform="matrix(0.13333333,0,0,-0.13333333,0,570.69599)"><g
       id="g946"><path
         id="path22"
         style="fill:none;stroke:#000000;stroke-width:30;stroke-linecap:round;stroke-linejoin:round;stroke-miterlimit:10;stroke-dasharray:none;stroke-opacity:1"
         d="M 4261.77,18.4492 H 15 V 4265.22 h 4246.77 z"
         inkscape:connector-curvature="0" /><path
         id="path24"
         style="fill:none;stroke:#000000;stroke-width:30;stroke-linecap:round;stroke-linejoin:round;stroke-miterlimit:10;stroke-dasharray:none;stroke-opacity:1"
         d="M 4261.77,1641.99 H 6885 V 4265.22 H 4261.77 Z"
         inkscape:connector-curvature="0" /><path
         id="path26"
         style="fill:none;stroke:#000000;stroke-width:30;stroke-linecap:round;stroke-linejoin:round;stroke-miterlimit:10;stroke-dasharray:none;stroke-opacity:1"
         d="M 5261.37,1642.09 H 6885 V 18.4492 H 5261.37 Z"
         inkscape:connector-curvature="0" /><path
         id="path28"
         style="fill:none;stroke:#000000;stroke-width:30;stroke-linecap:round;stroke-linejoin:round;stroke-miterlimit:10;stroke-dasharray:none;stroke-opacity:1"
         d="M 5261.09,1017.8 H 4261.74 V 18.4492 h 999.35 z"
         inkscape:connector-curvature="0" /><path
         id="path30"
         style="fill:none;stroke:#000000;stroke-width:30;stroke-linecap:round;stroke-linejoin:round;stroke-miterlimit:10;stroke-dasharray:none;stroke-opacity:1"
         d="m 4885.22,1017.8 h -623.48 v 624.14 h 623.48 z"
         inkscape:connector-curvature="0" /><path
         id="path32"
         style="fill:none;stroke:#000000;stroke-width:30;stroke-linecap:round;stroke-linejoin:round;stroke-miterlimit:10;stroke-dasharray:none;stroke-opacity:1"
         d="m 4885.22,1265.79 h 376.16 v 376.15 h -376.16 z"
         inkscape:connector-curvature="0" /><path
         id="path34"
         style="fill:none;stroke:#000000;stroke-width:30;stroke-linecap:round;stroke-linejoin:round;stroke-miterlimit:10;stroke-dasharray:none;stroke-opacity:1"
         d="m 5012.66,1265.79 h 248.72 v -248.06 h -248.72 z"
         inkscape:connector-curvature="0" /><path
         id="path36"
         style="fill:none;stroke:#000000;stroke-width:30;stroke-linecap:round;stroke-linejoin:round;stroke-miterlimit:10;stroke-dasharray:none;stroke-opacity:1"
         d="m 5012.66,1145.18 h -127.44 v -127.44 h 127.44 z"
         inkscape:connector-curvature="0" /></g><path
       inkscape:connector-curvature="0"
       d="m 9628.3363,-2052.1292 c 0,2349.11998 1900.8807,4250 4250.0007,4250 h -10 c 1448.16,0 2620,-1171.84 2620,-2620.00002 0,-900.96098 -729.04,-1629.99998 -1630,-1629.99998 h 10 c -552.73,0 -1000,447.27 -1000,1000 0,348.21998 281.78,629.99998 630,629.99998 h -10 c 210.04,0 380,-169.96 380,-380 0,-138.18 -111.82,-249.99998 -250,-249.99998 -66.33,0 -120,58.13998 -120,129.99998"
       style="fill:none;stroke:#000000;stroke-width:30;stroke-linecap:round;stroke-linejoin:round;stroke-miterlimit:10;stroke-dasharray:none;stroke-opacity:1"
       id="path38" /><g
       id="g4659"><path
         id="path14"
         style="fill:none;stroke:#000000;stroke-width:30;stroke-linecap:round;stroke-linejoin:round;stroke-miterlimit:10;stroke-dasharray:none;stroke-opacity:1"
         d="m 1315.7689,-3560.7465 c 0,-276.141 -223.86,-500 -499.99999,-500 -276.14,0 -500,223.859 -500,500 0,276.141 223.86,500 500,500 276.13999,0 499.99999,-223.859 499.99999,-500 z"
         inkscape:connector-curvature="0" /><path
         id="path16"
         style="fill:none;stroke:#000000;stroke-width:29.9905529;stroke-linecap:round;stroke-linejoin:round;stroke-miterlimit:10;stroke-dasharray:none;stroke-opacity:1"
         d="m 1630.7689,-3560.7465 c 0,-450.109 -364.89,-815 -814.99999,-815 -450.11,0 -814.99999997,364.891 -814.99999997,815 0,450.11 364.88999997,815 814.99999997,815 450.10999,0 814.99999,-364.89 814.99999,-815 z"
         inkscape:connector-curvature="0" /><path
         id="path18"
         style="fill:none;stroke:#000000;stroke-width:30;stroke-linecap:round;stroke-linejoin:round;stroke-miterlimit:10;stroke-dasharray:none;stroke-opacity:1"
         d="m 2940.7689,-3560.7465 c 0,-1173.598 -951.4,-2125 -2124.99999,-2125 -1173.605,0 -2125.00001,951.402 -2125.00001,2125 0,1173.6 951.39501,2125 2125.00001,2125 1173.59999,0 2124.99999,-951.4 2124.99999,-2125 z"
         inkscape:connector-curvature="0" /><path
         id="path20"
         style="fill:none;stroke:#000000;stroke-width:29.9905529;stroke-linecap:round;stroke-linejoin:round;stroke-miterlimit:10;stroke-dasharray:none;stroke-opacity:1"
         d="m 2125.7689,-3560.7465 c 0,-723.5 -586.5,-1310 -1310,-1310 -723.49998,0 -1309.99998,586.5 -1309.99998,1310 0,723.49 586.5,1310 1309.99998,1310 723.5,0 1310,-586.51 1310,-1310 z"
         inkscape:connector-curvature="0" /><circle
         transform="scale(1,-1)"
         r="312.125"
         cy="3560.7466"
         cx="815.76892"
         id="path933"
         style="opacity:1;fill:none;fill-opacity:1;stroke:#000000;stroke-width:30;stroke-miterlimit:4;stroke-dasharray:none;stroke-opacity:1" /><circle
         transform="scale(1,-1)"
         r="185.685"
         cy="3560.7466"
         cx="815.76892"
         id="path935"
         style="opacity:1;fill:none;fill-opacity:1;stroke:#000000;stroke-width:30;stroke-miterlimit:4;stroke-dasharray:none;stroke-opacity:1" /><circle
         transform="scale(1,-1)"
         r="124.355"
         cy="3560.7466"
         cx="815.76892"
         id="path937"
         style="opacity:1;fill:none;fill-opacity:1;stroke:#000000;stroke-width:30;stroke-miterlimit:4;stroke-dasharray:none;stroke-opacity:1" /><circle
         transform="scale(1,-1)"
         r="63.719997"
         cy="3560.7466"
         cx="815.76892"
         id="path939"
         style="opacity:1;fill:none;fill-opacity:1;stroke:#000000;stroke-width:30;stroke-miterlimit:4;stroke-dasharray:none;stroke-opacity:1" /></g><path
       id="path4661"
       style="fill:none;stroke:#000000;stroke-width:18.3622551;stroke-linecap:round;stroke-linejoin:round;stroke-miterlimit:10;stroke-dasharray:none;stroke-opacity:1"
       d="m 9611.4273,-7032.7489 c 167.1446,1428.0899 1457.9897,2448.4318 2886.0797,2281.2872 l -6.08,0.7115 c 880.374,-103.0395 1509.387,-898.8096 1406.347,-1779.183 -64.105,-547.7172 -559.18,-939.0459 -1106.896,-874.9408 l 6.079,-0.7115 c -336.018,39.3279 -576.101,343.0588 -536.774,679.0775 24.777,211.6918 216.127,362.9439 427.82,338.1673 l -6.08,0.7116 c 127.688,-14.9448 218.919,-130.3609 203.974,-258.0495 -9.832,-84.0032 -85.766,-144.0252 -169.77,-134.1934 -40.323,4.7195 -68.813,43.883 -63.701,87.5685"
       inkscape:connector-curvature="0" /></g></svg>