<?xml version="1.0" encoding="UTF-8" standalone="no"?>
<!-- Created with Inkscape (http://www.inkscape.org/) -->

<svg
   xmlns:dc="http://purl.org/dc/elements/1.1/"
   xmlns:cc="http://creativecommons.org/ns#"
   xmlns:rdf="http://www.w3.org/1999/02/22-rdf-syntax-ns#"
   xmlns:svg="http://www.w3.org/2000/svg"
   xmlns="http://www.w3.org/2000/svg"
   xmlns:sodipodi="http://sodipodi.sourceforge.net/DTD/sodipodi-0.dtd"
   xmlns:inkscape="http://www.inkscape.org/namespaces/inkscape"
   width="600"
   height="600"
   viewBox="0 0 158.75 158.75"
   version="1.1"
   id="svg8"
   inkscape:version="0.92.4 (unknown)"
   sodipodi:docname="snivy.svg">
  <defs
     id="defs2" />
  <sodipodi:namedview
     id="base"
     pagecolor="#ffffff"
     bordercolor="#666666"
     borderopacity="1.0"
     inkscape:pageopacity="0.0"
     inkscape:pageshadow="2"
     inkscape:zoom="0.25"
     inkscape:cx="-149.94576"
     inkscape:cy="479.16474"
     inkscape:document-units="px"
     inkscape:current-layer="layer1"
     showgrid="false"
     inkscape:pagecheckerboard="false"
     showborder="false"
     units="px"
     inkscape:window-width="1366"
     inkscape:window-height="703"
     inkscape:window-x="0"
     inkscape:window-y="0"
     inkscape:window-maximized="1"
     showguides="true"
     inkscape:object-paths="true"
     inkscape:snap-intersection-paths="true"
     inkscape:snap-smooth-nodes="true"
     inkscape:snap-nodes="true"
     inkscape:guide-bbox="true" />
  <metadata
     id="metadata5">
    <rdf:RDF>
      <cc:Work
         rdf:about="">
        <dc:format>image/svg+xml</dc:format>
        <dc:type
           rdf:resource="http://purl.org/dc/dcmitype/StillImage" />
        <dc:title></dc:title>
      </cc:Work>
    </rdf:RDF>
  </metadata>
  <g
     inkscape:label="Imagem"
     inkscape:groupmode="layer"
     id="layer1"
     style="display:inline;opacity:1"
     transform="translate(3.7797682,-46.023811)">
    <rect
       style="opacity:1;fill:#00ffff;fill-opacity:1;stroke:none;stroke-width:1.04325247;stroke-linecap:round;stroke-linejoin:round;stroke-miterlimit:4;stroke-dasharray:none;stroke-opacity:1"
       id="rect950"
       width="158.75"
       height="158.75"
       x="-3.7797682"
       y="46.023811"
       ry="11.169471" />
    <path
       style="opacity:1;fill:#000000;fill-opacity:0.15686275;stroke:none;stroke-width:5.25733566;stroke-linecap:round;stroke-linejoin:round;stroke-miterlimit:4;stroke-dasharray:none;stroke-opacity:1"
       d="m 216.61523,187.41211 c 1.00993,1.24032 2.09246,2.46103 3.23438,3.66406 z m -0.0566,0.0566 L 100,304.02734 V 657.78516 C 100,681.17245 118.82755,700 142.21484,700 H 316.7832 l 91.99024,-91.99023 -1.15625,-2.39258 c -1.01579,1.07269 -2.15205,2.08639 -3.43164,3.02148 -19.69799,14.39467 -39.64844,2.27149 -39.64844,2.27149 35.35533,-0.50506 15.44531,-48.35547 15.44531,-48.35547 h 0.01 c -6.47344,-0.67869 -12.85954,-1.93846 -18.98242,-3.78125 1.77533,9.30191 0.85765,20.61952 -10.10938,28.39844 -21.71826,15.40483 -46.4668,4.79882 -46.4668,4.79882 40.9112,-11.11166 35.11719,-42.95507 35.11719,-42.95508 -1.67043,-1.0816 -3.28981,-2.22624 -4.85156,-3.43554 -20.31834,-15.73294 -33.51437,-40.08495 -34.81055,-68.4707 l -0.002,0.002 c -4.41944,10.6066 -5.02539,9.72851 -5.02539,9.72851 C 292.47467,483.74644 290,478.44336 290,478.44336 c -4.5078,13.08147 -6.27539,9.2793 -6.27539,9.2793 -3.88906,-4.41941 -2.29883,-15.29102 -2.29883,-15.29102 -7.77815,7.86656 -8.8125,5.19727 -8.8125,5.19727 4.57161,-22.40085 39.55751,-64.0539 45.58203,-71.10157 1.36107,-2.70209 2.68816,-5.22594 3.93946,-7.51172 l -0.0234,0.0156 c 0,0 -10.60614,-43.94223 19.19336,-54.54883 0.42961,-0.15291 0.84649,-0.29113 1.25781,-0.42187 -0.64904,-7.43803 -3.78993,-10.71054 -4.83789,-12.09571 -8.48738,-9.94182 -14.34088,-5.66128 -47.3125,-25.67187 C 204.54491,254.17983 216.35202,188.5789 216.55863,187.46872 Z"
       transform="matrix(0.26458333,0,0,0.26458333,-30.238102,19.565475)"
       id="path1139"
       inkscape:connector-curvature="0" />
    <g
       id="g1174">
      <g
         style="opacity:1"
         id="g1068">
        <path
           style="display:inline;opacity:1;fill:#62b663;fill-opacity:1;stroke:#000000;stroke-width:1.32291663;stroke-linecap:butt;stroke-linejoin:miter;stroke-miterlimit:4;stroke-dasharray:none;stroke-opacity:1"
           d="m 70.57405,69.000012 c -5.56317,0.02749 -9.97406,1.886706 -9.97406,1.886706 -13.09621,5.345393 -33.53646,-1.747697 -33.53646,-1.747697 l 14.29319,16.180406 c 0,0 17.23863,10.957893 16.83773,12.561513 -0.29542,1.18167 3.24532,15.81474 5.13509,23.45954 -2.19397,0.75943 -4.37399,1.76362 -5.57899,3.02101 -0.67288,0.70213 -1.44205,2.7466 -2.08153,5.56917 l -1.39009,-3.18792 c 0,0 -11.06496,12.71291 -12.38788,19.19521 0,0 0.27367,0.70625 2.33164,-1.37511 0,0 -0.42075,2.87645 0.60823,4.04575 0,0 0.46768,1.00599 1.66037,-2.45515 0,0 0.6548,1.40306 1.28622,2.22157 0,0 0.16033,0.23233 1.32964,-2.574 l 5.26221,-5.54282 c -0.36828,9.6339 1.5339,20.65541 9.33431,24.18767 14.02292,6.35 32.14688,-7.67291 32.14688,-7.67291 7.9375,-5.82083 7.54062,-18.91771 7.54062,-18.91771 11.37709,8.86354 18.52083,-3.175 18.91771,-5.55625 3.70417,-11.90625 3.30729,-27.91354 3.30729,-27.91354 -2.51354,1.5875 -13.62604,10.18646 -13.62604,10.18646 C 103.52346,89.039611 100.08388,86.790656 100.08388,86.790656 99.42242,90.230239 93.07242,112.65368 93.07242,112.65368 91.27426,110.3651 84.98679,105.24277 82.73197,103.4315 88.76431,96.91602 93.59949,87.863626 87.46036,78.102813 82.85248,70.776572 76.13723,68.972521 70.57405,69.000012 Z m 11.1094,35.528058 c -0.17157,4.01285 -0.91415,12.35894 -0.91415,12.35894 -0.99219,15.27969 4.16718,18.05781 4.43177,18.58698 5.82083,6.54844 12.66951,2.89181 12.66951,2.89181 l 1.81643,-2.75952 c -4.49792,13.62604 -16.27188,8.59896 -16.27188,8.59896 -11.37708,-4.63021 -12.7,-20.6375 -12.7,-20.6375 l -0.66146,-3.96875 c 0,0 -0.53745,0.0948 -1.34927,0.26768 3.01562,-4.48583 6.32778,-9.55755 6.32778,-9.55755 1.96432,-1.49026 4.3521,-3.45191 6.65127,-5.78105 z"
           id="path923"
           inkscape:connector-curvature="0" />
        <path
           style="display:inline;opacity:1;fill:none;stroke:#000000;stroke-width:1.32291663;stroke-linecap:round;stroke-linejoin:round;stroke-miterlimit:4;stroke-dasharray:none;stroke-opacity:1"
           d="m 67.00097,127.56125 c 0,0 -1.68379,13.56393 2.05798,21.14102 0,0 0.65481,-1.4967 0.65481,-4.0224 0,0 1.12253,3.3676 3.64823,4.58367 1.75945,0.84714 0.37418,-2.61924 0,-4.95785 0,0 0.58915,1.79388 3.39548,2.72933 1.37762,0.45921 -7.2308,-13.29984 -6.48244,-19.09959"
           id="path925"
           inkscape:connector-curvature="0"
           sodipodi:nodetypes="cccscsc" />
        <ellipse
           style="display:inline;opacity:1;fill:#ffffff;fill-opacity:1;stroke:none;stroke-width:1.32291663;stroke-linecap:butt;stroke-linejoin:round;stroke-miterlimit:4;stroke-dasharray:none;stroke-opacity:1"
           id="path891"
           cx="68.428253"
           cy="91.446365"
           rx="15.434814"
           ry="11.592815" />
        <path
           style="display:inline;opacity:1;fill:#994d4a;fill-opacity:1;stroke:#000000;stroke-width:1.32291663;stroke-linecap:butt;stroke-linejoin:miter;stroke-miterlimit:4;stroke-dasharray:none;stroke-opacity:1"
           d="m 67.2472,83.502292 c 0,0 -3.9215,14.457588 5.95312,14.126858 4.31587,-0.13077 6.11581,-2.10656 9.16593,-3.16555 0,0 0.99218,-12.18973 0.28348,-12.567706 -0.70871,-0.377976 -14.97731,-1.322916 -15.0718,-1.03943 -0.0945,0.283482 -0.33073,2.645832 -0.33073,2.645832 z"
           id="path889"
           inkscape:connector-curvature="0"
           sodipodi:nodetypes="cccsccc" />
        <path
           style="display:inline;fill:#543633;fill-opacity:1;stroke:#000000;stroke-width:1.32291663;stroke-linecap:butt;stroke-linejoin:miter;stroke-miterlimit:4;stroke-dasharray:none;stroke-opacity:1"
           d="m 75.26628,84.183409 c 0,0 -3.80859,2.605879 -1.60361,7.684 0,0 4.07586,-2.204977 1.60361,-7.684 z"
           id="path914"
           inkscape:connector-curvature="0" />
        <circle
           style="display:inline;opacity:1;fill:#ffffff;fill-opacity:0.33976835;stroke:none;stroke-width:1.32291663;stroke-linecap:round;stroke-linejoin:round;stroke-miterlimit:4;stroke-dasharray:none;stroke-opacity:1"
           id="path927"
           cx="69.789093"
           cy="86.06308"
           r="2.4473958" />
        <path
           style="display:inline;fill:#f1d04f;fill-opacity:1;stroke:#000000;stroke-width:1.32291663;stroke-linecap:butt;stroke-linejoin:miter;stroke-miterlimit:4;stroke-dasharray:none;stroke-opacity:1"
           d="m 57.56156,83.974764 c 0,0 3.96875,-13.323661 17.76488,-10.394346 13.79613,2.929316 12.00038,24.367372 -1.89763,34.389982 l -8.55263,-4.34313 c 0,0 13.63075,-4.27631 17.23889,-15.367998 0,0 -8.81614,-7.232668 -24.55351,-4.284508 z"
           id="path882"
           inkscape:connector-curvature="0"
           sodipodi:nodetypes="cscccc" />
        <path
           style="display:inline;fill:#f1d04f;fill-opacity:1;stroke:#000000;stroke-width:1.32291663;stroke-linecap:butt;stroke-linejoin:miter;stroke-miterlimit:4;stroke-dasharray:none;stroke-opacity:1"
           d="m 54.98721,125.14246 c 0,0 -2.80633,-11.62622 5.07812,-14.43255 7.88445,-2.80633 4.00904,8.68626 4.00904,8.68626 z"
           id="path884"
           inkscape:connector-curvature="0" />
        <path
           style="display:inline;fill:#f1d04f;fill-opacity:1;stroke:#000000;stroke-width:1.32291663;stroke-linecap:butt;stroke-linejoin:miter;stroke-miterlimit:4;stroke-dasharray:none;stroke-opacity:1"
           d="m 61.53531,134.76417 c 0,0 4.7197,-10.34595 8.02699,-12.14134 l 1.41741,1.03943 c 0,0 0,-2.92931 0.75596,-4.25223 0,0 7.9375,-5.62239 15.02455,-1.55915 0,0 2.45684,2.03162 -1.6064,8.22098 0,0 6.80357,-1.13393 6.94531,-8.17373 0,0 0.99219,-5.05543 -6.04762,-8.64621 0,0 -6.09486,-3.07105 -13.04017,2.69308 0,0 -6.75633,6.14212 -8.69346,9.73289 l -5.05436,8.74315 z"
           id="path886"
           inkscape:connector-curvature="0" />
        <path
           style="display:inline;fill:#f1d04f;fill-opacity:1;stroke:#000000;stroke-width:1.32291663;stroke-linecap:butt;stroke-linejoin:miter;stroke-miterlimit:4;stroke-dasharray:none;stroke-opacity:1"
           d="m 81.1331,142.9485 c 0,0 18.79548,10.71162 19.54383,-17.44522 0,0 4.69862,8.78012 -1.12222,17.24678 0,0 -6.94531,8.59896 -18.42161,0.19844 z"
           id="path921"
           inkscape:connector-curvature="0" />
        <path
           style="display:inline;fill:#eef0bb;fill-opacity:1;stroke:#000000;stroke-width:1.32291663;stroke-linecap:butt;stroke-linejoin:miter;stroke-miterlimit:4;stroke-dasharray:none;stroke-opacity:1"
           d="m 59.60142,164.8261 c 0,0 1.53299,8.42488 -9.29143,11.36484 0,0 6.54811,2.80634 12.2944,-1.26953 5.7463,-4.07585 1.06908,-11.82667 1.06908,-11.82667 z"
           id="path872"
           inkscape:connector-curvature="0" />
        <path
           style="display:inline;fill:#eef0bb;fill-opacity:1;stroke:#000000;stroke-width:1.32291663;stroke-linecap:butt;stroke-linejoin:round;stroke-miterlimit:4;stroke-dasharray:none;stroke-opacity:1"
           d="m 27.0636,69.139199 c 0,0 -3.37667,17.560352 19.53665,31.466521 8.72374,5.29447 10.27247,4.16167 12.51809,6.79211 0.57261,0.75686 3.51462,3.62865 -1.88988,13.98512 0,0 -6.56497,9.74434 -7.88788,19.38274 -1.32292,9.63839 2.43264,18.08365 8.97693,23.15104 6.59883,5.10961 17.069,5.89461 24.86663,2.91978 6.51374,-2.48502 12.33616,-7.41046 16.71075,-14.82603 0,0 2.06494,-3.68238 2.93357,-8.56005 0,0 -3.87688,11.91532 -13.89802,15.83572 -2.12557,0.83155 -27.61621,4.3426 -27.44738,-25.22954 0,0 -1.14573,-10.43457 11.44126,-25.48485 0,0 5.80391,-9.95042 3.91403,-12.21827 0,0 -15.49703,9.92187 -19.27679,-12.378726 0,0 -22.82031,-5.386162 -30.49796,-14.835565 z"
           id="path39"
           inkscape:connector-curvature="0"
           sodipodi:nodetypes="csccsacccsccccc" />
        <path
           style="display:inline;fill:#eef0bb;fill-opacity:1;stroke:#000000;stroke-width:1.32291663;stroke-linecap:butt;stroke-linejoin:miter;stroke-miterlimit:4;stroke-dasharray:none;stroke-opacity:1"
           d="m 70.29877,168.40803 c 0,0 5.26819,12.66058 -4.08624,12.79421 0,0 5.27857,3.20724 10.49033,-0.60135 5.21175,-3.8086 1.82304,-12.36775 -0.007,-12.21882 -1.8296,0.14891 -6.39753,0.026 -6.39753,0.026 z"
           id="path870"
           inkscape:connector-curvature="0" />
        <path
           style="display:inline;fill:none;stroke:#000000;stroke-width:0.26458332px;stroke-linecap:butt;stroke-linejoin:miter;stroke-opacity:1"
           d="m 53.25263,100.28443 c 0,0 2.91042,0.26459 6.74688,-0.39687"
           id="path936"
           inkscape:connector-curvature="0" />
        <path
           style="display:inline;fill:none;stroke:#000000;stroke-width:0.26458332px;stroke-linecap:butt;stroke-linejoin:miter;stroke-opacity:1"
           d="m 34.59951,78.45631 c 0,0 -0.72761,-0.661459 -2.24896,-1.918228"
           id="path938"
           inkscape:connector-curvature="0" />
        <path
           style="display:inline;fill:none;stroke:#000000;stroke-width:0.26458332px;stroke-linecap:butt;stroke-linejoin:miter;stroke-opacity:1"
           d="m 56.72529,122.04641 c 0,0 3.40651,1.78594 7.50755,0.92605"
           id="path940"
           inkscape:connector-curvature="0" />
        <path
           style="display:inline;fill:none;stroke:#000000;stroke-width:0.26458332px;stroke-linecap:butt;stroke-linejoin:miter;stroke-opacity:1"
           d="m 53.35185,128.99173 c 0,0 3.50573,1.62057 8.63203,1.19062"
           id="path942"
           inkscape:connector-curvature="0" />
      </g>
      <path
         id="rect1124"
         transform="matrix(0.26458333,0,0,0.26458333,-30.238102,19.565475)"
         d="m 419.57422,365.91406 c -18.66338,0.47278 -34.16211,11.45117 -34.16211,11.45117 -2.85717,5.00002 -2.85742,16.07227 -2.85742,16.07227 l -1.07227,-0.78711 0.0723,0.42969 c 0,0 4.56075,55.13946 42.39062,75.36328 -0.99635,-0.67398 -2.00039,-1.37015 -3.01562,-2.11328 0,0 48.68341,27.74256 67.05078,-23.08008 l -3.79102,5.75977 c 0,0 -25.88477,13.82032 -47.88476,-10.92969 -1.00003,-2.00001 -20.50001,-12.49999 -16.75,-70.25 0,0 0.12171,-1.41185 0.16601,-1.91602 -0.0485,10e-4 -0.098,-0.001 -0.14648,0 z"
         style="opacity:1;fill:#000000;fill-opacity:0.07843137;stroke:none;stroke-width:5.25733566;stroke-linecap:round;stroke-linejoin:round;stroke-miterlimit:4;stroke-dasharray:none;stroke-opacity:1"
         inkscape:connector-curvature="0" />
    </g>
  </g>
</svg>
