<?xml version="1.0" encoding="UTF-8" standalone="no"?>
<svg
   xmlns:dc="http://purl.org/dc/elements/1.1/"
   xmlns:cc="http://creativecommons.org/ns#"
   xmlns:rdf="http://www.w3.org/1999/02/22-rdf-syntax-ns#"
   xmlns:svg="http://www.w3.org/2000/svg"
   xmlns="http://www.w3.org/2000/svg"
   width="105.36mm"
   height="105.36mm"
   version="1.1"
   viewBox="0 0 105.36 105.36"
   id="svg16">
  <defs
     id="defs20" />
  <metadata
     id="metadata2">
    <rdf:RDF>
      <cc:Work
         rdf:about="">
        <dc:format>image/svg+xml</dc:format>
        <dc:type
           rdf:resource="http://purl.org/dc/dcmitype/StillImage" />
        <dc:title></dc:title>
      </cc:Work>
    </rdf:RDF>
  </metadata>
  <rect
     style="fill:#00ffff;fill-opacity:0.97753003;stroke-width:1"
     id="rect4"
     rx="19.844"
     height="105.36"
     width="105.36"
     y="0"
     x="-105.36"
     transform="scale(-1,1)" />
  <path
     id="path13"
     transform="scale(0.26458333)"
     d="M 281.4082 62.685547 L 171.81055 185.83398 L 171.76367 282.25391 L 287.7207 398.21094 L 323.21094 398.21094 C 364.76146 398.21094 398.21094 364.76146 398.21094 323.21094 L 398.21094 179.48828 L 281.4082 62.685547 z "
     style="fill:#000000;fill-opacity:0.15686275;stroke:none;stroke-width:0.99999994px;stroke-linecap:butt;stroke-linejoin:miter;stroke-opacity:1" />
  <path
     style="opacity:1;fill:#ffffff;fill-opacity:0.98039216;stroke:none;stroke-width:15.88945198;stroke-miterlimit:4;stroke-dasharray:none;stroke-opacity:1"
     d="m 74.455911,16.585452 c 4.13148,4.13149 4.7967,10.11841 1.49152,13.42359 l -22.67096,22.67096 22.67096,22.67095 c 3.30518,3.30519 2.63997,9.2921 -1.49152,13.42359 -4.13149,4.13149 -10.1184,4.7967 -13.42359,1.49151 l -30.12851,-30.1285 -1.49149,-1.49151 c -1.55295,-1.55295 -2.22892,-3.69791 -2.08114,-5.96429 -0.14862,-2.26757 0.52744,-4.41411 2.08114,-5.96779 l 1.49149,-1.49151 30.12851,-30.12851 c 3.30519,-3.30518 9.2921,-2.63997 13.42359,1.49151 z"
     id="rect27" />
</svg>
