<?xml version="1.0" encoding="UTF-8" standalone="no"?>
<svg
   xmlns:dc="http://purl.org/dc/elements/1.1/"
   xmlns:cc="http://creativecommons.org/ns#"
   xmlns:rdf="http://www.w3.org/1999/02/22-rdf-syntax-ns#"
   xmlns:svg="http://www.w3.org/2000/svg"
   xmlns="http://www.w3.org/2000/svg"
   id="svg16"
   viewBox="0 0 105.36 105.36"
   version="1.1"
   height="105.36mm"
   width="105.36mm">
  <defs
     id="defs20" />
  <metadata
     id="metadata2">
    <rdf:RDF>
      <cc:Work
         rdf:about="">
        <dc:format>image/svg+xml</dc:format>
        <dc:type
           rdf:resource="http://purl.org/dc/dcmitype/StillImage" />
        <dc:title></dc:title>
      </cc:Work>
    </rdf:RDF>
  </metadata>
  <g
     id="g14"
     transform="translate(-141.6 -230.71)">
    <rect
       fill="#0ff"
       fill-opacity=".97753"
       id="rect4"
       rx="19.844"
       height="105.36"
       width="105.36"
       y="230.71"
       x="141.6" />
    <g
       fill-opacity=".078431"
       id="g10"
       transform="matrix(.35278 0 0 .35278 141.6 230.71)">
      <path
         id="path6"
         d="m171.17 49.222-36.422 79.042-86.2 42.249 128.15 128.15h65.714c31.162 0 56.25-25.088 56.25-56.25v-65.698z" />
      <path
         id="path8"
         d="m250.61 128.66-84.227 40.241-37.847 81.592 48.173 48.174h65.707c31.162 0 56.25-25.088 56.25-56.25v-65.701z" />
    </g>
    <path
       fill="#fff"
       fill-opacity=".97753"
       id="path12"
       d="m194.28 244.76c-5.8632 0-10.583 4.7202-10.583 10.583v17.462h-17.462c-5.8632 0-10.583 4.7202-10.583 10.583 0 5.8632 4.7202 10.583 10.583 10.583h17.462v17.462c0 5.8632 4.7202 10.583 10.583 10.583s10.583-4.7202 10.583-10.583v-17.462h17.462c5.8632 0 10.583-4.7202 10.583-10.583 0-5.8632-4.7202-10.583-10.583-10.583h-17.462v-17.462c0-5.8632-4.7202-10.583-10.583-10.583z" />
  </g>
</svg>
