<?xml version="1.0" encoding="UTF-8" standalone="no"?>
<svg
   xmlns:dc="http://purl.org/dc/elements/1.1/"
   xmlns:cc="http://creativecommons.org/ns#"
   xmlns:rdf="http://www.w3.org/1999/02/22-rdf-syntax-ns#"
   xmlns:svg="http://www.w3.org/2000/svg"
   xmlns="http://www.w3.org/2000/svg"
   xmlns:sodipodi="http://sodipodi.sourceforge.net/DTD/sodipodi-0.dtd"
   xmlns:inkscape="http://www.inkscape.org/namespaces/inkscape"
   sodipodi:docname="adicionar.svg"
   inkscape:version="1.0alpha (9dee831, 2019-01-15)"
   id="svg8"
   version="1.1"
   viewBox="0 0 105.36338 105.36373"
   height="105.36373mm"
   width="105.36338mm">
  <defs
     id="defs2" />
  <sodipodi:namedview
     inkscape:window-maximized="1"
     inkscape:window-y="27"
     inkscape:window-x="67"
     inkscape:window-height="995"
     inkscape:window-width="1613"
     showgrid="false"
     inkscape:document-rotation="0"
     inkscape:current-layer="g14"
     inkscape:document-units="mm"
     inkscape:cy="279.85443"
     inkscape:cx="206.0617"
     inkscape:zoom="0.35"
     inkscape:pageshadow="2"
     inkscape:pageopacity="0.0"
     borderopacity="1.0"
     bordercolor="#666666"
     pagecolor="#ffffff"
     id="base" />
  <metadata
     id="metadata5">
    <rdf:RDF>
      <cc:Work
         rdf:about="">
        <dc:format>image/svg+xml</dc:format>
        <dc:type
           rdf:resource="http://purl.org/dc/dcmitype/StillImage" />
        <dc:title></dc:title>
      </cc:Work>
    </rdf:RDF>
  </metadata>
  <g
     transform="translate(-51.312843,-74.12185)"
     id="layer1"
     inkscape:groupmode="layer"
     inkscape:label="Camada 1">
    <g
       id="g14"
       transform="translate(-90.287167,-156.58816)">
      <path
         style="opacity:1;fill:#29e2e8;fill-opacity:1;stop-opacity:1"
         d="m 161.44401,230.71001 h 65.672 c 10.99357,0 19.844,8.85042 19.844,19.844 v 65.672 c 0,10.99357 -8.85043,19.844 -19.844,19.844 h -65.672 c -10.99358,0 -19.844,-8.85043 -19.844,-19.844 v -65.672 c 0,-10.99358 8.85042,-19.844 19.844,-19.844 z"
         id="rect4"
         inkscape:connector-curvature="0" />
      <g
         fill-opacity=".078431"
         id="g10"
         transform="matrix(0.35278,0,0,0.35278,141.6,230.71)"
         style="opacity:1;stop-opacity:1">
        <path
           inkscape:connector-curvature="0"
           id="path6"
           d="m 171.17,49.222 -36.422,79.042 -86.2,42.249 128.15,128.15 h 65.714 c 31.162,0 56.25,-25.088 56.25,-56.25 v -65.698 z" />
        <path
           inkscape:connector-curvature="0"
           id="path8"
           d="m 250.61,128.66 -84.227,40.241 -37.847,81.592 48.173,48.174 h 65.707 c 31.162,0 56.25,-25.088 56.25,-56.25 v -65.701 z" />
      </g>
      <path
         inkscape:connector-curvature="0"
         fill="#fff"
         fill-opacity=".97753"
         id="path12"
         d="m 194.28,244.76 c -5.8632,0 -10.583,4.7202 -10.583,10.583 v 17.462 h -17.462 c -5.8632,0 -10.583,4.7202 -10.583,10.583 0,5.8632 4.7202,10.583 10.583,10.583 h 17.462 v 17.462 c 0,5.8632 4.7202,10.583 10.583,10.583 5.8628,0 10.583,-4.7202 10.583,-10.583 v -17.462 h 17.462 c 5.8632,0 10.583,-4.7202 10.583,-10.583 0,-5.8632 -4.7202,-10.583 -10.583,-10.583 h -17.462 v -17.462 c 0,-5.8632 -4.7202,-10.583 -10.583,-10.583 z"
         style="opacity:1;stop-opacity:1" />
    </g>
  </g>
</svg>
