<?xml version="1.0" encoding="UTF-8" standalone="no"?>
<svg
   xmlns:dc="http://purl.org/dc/elements/1.1/"
   xmlns:cc="http://creativecommons.org/ns#"
   xmlns:rdf="http://www.w3.org/1999/02/22-rdf-syntax-ns#"
   xmlns:svg="http://www.w3.org/2000/svg"
   xmlns="http://www.w3.org/2000/svg"
   id="svg8"
   version="1.1"
   viewBox="0 0 105.36009 105.36018"
   height="105.36018mm"
   width="105.36009mm">
  <defs
     id="defs2" />
  <metadata
     id="metadata5">
    <rdf:RDF>
      <cc:Work
         rdf:about="">
        <dc:format>image/svg+xml</dc:format>
        <dc:type
           rdf:resource="http://purl.org/dc/dcmitype/StillImage" />
        <dc:title></dc:title>
      </cc:Work>
    </rdf:RDF>
  </metadata>
  <g
     transform="translate(-405.4271,-134.7961)"
     id="layer1">
    <g
       transform="translate(360.34159,97.601162)"
       id="layer1-5">
      <rect
         x="45.085506"
         y="37.194935"
         width="105.36"
         height="105.36"
         rx="19.844"
         id="rect4"
         fill-opacity=".97753"
         fill="#0ff"
         style="opacity:1;stop-opacity:1" />
      <path
         id="path861"
         transform="scale(0.26458333)"
         d="m 472.74219,236.45117 -206.46875,206.46875 95.87109,95.8711 h 131.4668 c 41.5505,0 75.00195,-33.45146 75.00195,-75.00196 V 332.32227 Z"
         style="fill:#000000;fill-opacity:0.0980392;stroke:none;stroke-width:0.999999px;stroke-linecap:butt;stroke-linejoin:miter;stroke-opacity:1" />
      <path
         d="m 125.07963,62.560814 c -4.14591,-4.145909 -10.82099,-4.145626 -14.96662,0 L 97.765507,74.908313 85.418008,62.560814 c -4.145908,-4.145909 -10.820996,-4.145626 -14.966622,0 -4.145909,4.145908 -4.145626,10.820996 0,14.966622 L 82.798885,89.874935 70.451386,102.22243 c -4.145909,4.14591 -4.145626,10.821 0,14.96662 4.145624,4.14563 10.820995,4.14563 14.966621,0 l 12.347498,-12.3475 12.347505,12.3475 c 4.14591,4.14591 10.821,4.14563 14.96662,0 4.14591,-4.14591 4.14563,-10.821 0,-14.96662 l -12.3475,-12.347497 12.3475,-12.347498 c 4.14591,-4.145909 4.14563,-10.820997 0,-14.966621 z"
         id="path12"
         fill-opacity=".97753"
         fill="#fff"
         style="opacity:1;stop-opacity:1" />
    </g>
  </g>
</svg>
