<?xml version="1.0" encoding="UTF-8" standalone="no"?>
<!-- Created with Inkscape (http://www.inkscape.org/) -->

<svg
   xmlns:dc="http://purl.org/dc/elements/1.1/"
   xmlns:cc="http://creativecommons.org/ns#"
   xmlns:rdf="http://www.w3.org/1999/02/22-rdf-syntax-ns#"
   xmlns:svg="http://www.w3.org/2000/svg"
   xmlns="http://www.w3.org/2000/svg"
   xmlns:sodipodi="http://sodipodi.sourceforge.net/DTD/sodipodi-0.dtd"
   xmlns:inkscape="http://www.inkscape.org/namespaces/inkscape"
   version="1.1"
   id="svg2"
   width="39.388981"
   height="39.385906"
   viewBox="0 0 39.388981 39.385907"
   sodipodi:docname="add.svg"
   inkscape:version="0.92.4 (33fec40, 2019-01-16)">
  <metadata
     id="metadata8">
    <rdf:RDF>
      <cc:Work
         rdf:about="">
        <dc:format>image/svg+xml</dc:format>
        <dc:type
           rdf:resource="http://purl.org/dc/dcmitype/StillImage" />
        <dc:title />
      </cc:Work>
    </rdf:RDF>
  </metadata>
  <defs
     id="defs6" />
  <sodipodi:namedview
     pagecolor="#ffffff"
     bordercolor="#666666"
     borderopacity="1"
     objecttolerance="10"
     gridtolerance="10"
     guidetolerance="10"
     inkscape:pageopacity="0"
     inkscape:pageshadow="2"
     inkscape:window-width="1366"
     inkscape:window-height="744"
     id="namedview4"
     showgrid="false"
     inkscape:zoom="5.6568543"
     inkscape:cx="56.338334"
     inkscape:cy="36.88393"
     inkscape:window-x="0"
     inkscape:window-y="0"
     inkscape:window-maximized="1"
     inkscape:current-layer="svg2"
     showguides="false" />
  <path
     style="fill:#000000;stroke-width:0.07693004"
     d="M 19.752266,1.2630552e-4 C 17.657664,-0.00615269 15.708661,0.22176631 14.181953,0.66418881 7.7179068,2.5373961 2.5297706,7.725532 0.65656327,14.18958 c -0.4176795,1.441325 -0.6335429,3.267235 -0.6523437,5.228516 -6.466e-4,0.04866 -0.003560001,0.09792 -0.003910001,0.146484 -0.003179999,0.761653 0.0178130013,1.538788 0.0781250013,2.328125 0.3038195,3.976258 2.07821383,7.950008 4.97656253,11.144531 3.189742,3.515693 7.8886319,5.925873 12.2148439,6.265625 2.151871,0.168994 4.949777,0.07283 6.480468,-0.222656 5.856708,-1.130602 11.211445,-5.341416 13.833985,-10.878906 1.307912,-2.761653 1.804687,-5.104041 1.804687,-8.501953 0,-3.397911 -0.496775,-5.738347 -1.804687,-8.5 C 34.647398,4.9980864 28.412654,0.58482541 21.885078,0.08606381 21.164809,0.03102923 20.450466,0.0022194 19.752266,1.2630552e-4 Z M 19.691716,4.2813763 c 2.001785,0 3.466404,0.2485875 5.232422,0.890625 5.327117,1.9366779 9.179028,6.6333147 10.054687,12.2578137 0.178871,1.148912 0.178871,3.39015 0,4.539062 -0.39924,2.564391 -1.421142,4.975413 -3.001953,7.078125 -0.594617,0.790928 -2.146572,2.342883 -2.9375,2.9375 -2.374014,1.784776 -4.984787,2.802813 -7.951172,3.099609 C 17.345271,35.458602 13.484942,34.34434 10.346013,31.984502 9.5550858,31.389885 8.0031298,29.83793 7.4085134,29.047002 5.8277037,26.94429 4.8038515,24.533268 4.4046102,21.968877 c -0.17887,-1.148912 -0.17887,-3.390151 0,-4.539062 C 4.9271502,14.073456 6.492712,11.032412 8.8987508,8.6934857 10.926068,6.7227186 13.1402,5.4626686 15.846016,4.7403607 17.101396,4.4052413 18.136212,4.2813763 19.691719,4.2813763 Z m 0.164062,3.3144531 c -0.211703,-0.011163 -0.427637,-5.286e-4 -0.644528,0.033203 -1.360752,0.211629 -2.45241,1.2962718 -2.675781,2.6601566 -0.04034,0.246286 -0.07399,1.73835 -0.07422,3.314454 v 2.865234 h -2.865234 c -1.576104,2.4e-4 -3.074256,0.03464 -3.328125,0.07617 -1.7073442,0.279252 -2.8968674,1.89912 -2.6542962,3.615234 0.190265,1.346067 1.300011,2.471853 2.6542962,2.69336 0.253869,0.04152 1.752021,0.07594 3.328125,0.07617 l 2.865234,0.002 v 2.865234 c 2.5e-4,1.576104 0.03388,3.066215 0.07422,3.3125 0.218629,1.334929 1.349793,2.482229 2.630859,2.666016 0.493908,0.07086 1.147103,0.01771 1.5625,-0.126953 1.11481,-0.38823 1.951103,-1.408679 2.121094,-2.583985 0.0382,-0.264093 0.07141,-1.751691 0.07227,-3.306641 l 0.002,-2.826171 2.865234,-0.002 c 1.576104,-2.41e-4 3.072302,-0.0327 3.326172,-0.07422 1.707345,-0.279253 2.896868,-1.901074 2.654297,-3.617188 -0.190265,-1.346067 -1.300011,-2.471853 -2.654297,-2.693359 -0.25387,-0.04152 -1.750068,-0.07594 -3.326172,-0.07617 h -2.865234 l -0.002,-2.828125 C 22.921331,12.0858 22.888112,10.598201 22.849922,10.334108 22.628702,8.8046546 21.337723,7.6740146 19.85578,7.5958723 Z"
     id="path26"
     inkscape:connector-curvature="0" />
</svg>
