<?xml version="1.0" encoding="UTF-8" standalone="no"?>
<!-- Created with Inkscape (http://www.inkscape.org/) -->

<svg
   xmlns:dc="http://purl.org/dc/elements/1.1/"
   xmlns:cc="http://creativecommons.org/ns#"
   xmlns:rdf="http://www.w3.org/1999/02/22-rdf-syntax-ns#"
   xmlns:svg="http://www.w3.org/2000/svg"
   xmlns="http://www.w3.org/2000/svg"
   xmlns:sodipodi="http://sodipodi.sourceforge.net/DTD/sodipodi-0.dtd"
   xmlns:inkscape="http://www.inkscape.org/namespaces/inkscape"
   version="1.1"
   id="svg2"
   width="143.21648"
   height="107.19331"
   viewBox="0 0 143.21648 107.19331"
   sodipodi:docname="carrinho.svg"
   inkscape:version="0.92.4 (33fec40, 2019-01-16)">
  <metadata
     id="metadata8">
    <rdf:RDF>
      <cc:Work
         rdf:about="">
        <dc:format>image/svg+xml</dc:format>
        <dc:type
           rdf:resource="http://purl.org/dc/dcmitype/StillImage" />
        <dc:title />
      </cc:Work>
    </rdf:RDF>
  </metadata>
  <defs
     id="defs6" />
  <sodipodi:namedview
     pagecolor="#ffffff"
     bordercolor="#666666"
     borderopacity="1"
     objecttolerance="10"
     gridtolerance="10"
     guidetolerance="10"
     inkscape:pageopacity="0"
     inkscape:pageshadow="2"
     inkscape:window-width="1366"
     inkscape:window-height="744"
     id="namedview4"
     showgrid="false"
     inkscape:zoom="4"
     inkscape:cx="72.154443"
     inkscape:cy="39.857035"
     inkscape:window-x="0"
     inkscape:window-y="0"
     inkscape:window-maximized="1"
     inkscape:current-layer="svg2" />
  <path
     style="fill:#2d2d2d;stroke-width:0.31999999"
     d="m 90.523621,106.92371 c -1.47003,-0.35108 -3.22903,-1.87936 -4.29981,-3.73584 -0.75661,-1.31179 -0.94531,-2.01782 -0.94531,-3.536936 v -1.89798 l -18,-0.39477 c -9.900002,-0.21712 -21.168002,-0.52886 -25.040002,-0.69277 -3.872,-0.1639 -9.01356,-0.34956 -11.42569,-0.41258 l -4.38568,-0.11458 0.16798,2.42428 c 0.1353,1.952646 0.0547,2.642176 -0.41431,3.544286 -2.0097,3.86549 -8.03695,2.16008 -9.53552,-2.698076 -1.39029,-4.50714 0.42761,-7.75787 4.15322,-7.42672 2.55285,0.22692 51.724262,0.22292 56.382392,-0.005 4.09772,-0.20012 4.20135,-0.22277 3.50964,-0.76686 -1.47325,-1.15886 -6.74651,-2.890452 -11.1599,-3.664602 -6.908792,-1.21187 -15.530772,-1.52627 -34.727912,-1.26635 -18.90944,0.25602 -18.32893,0.32003 -18.31932,-2.02019 0.006,-1.40332 0.1373,-1.62749 1.52283,-2.59533 1.17768,-0.82265 2.61685,-1.06371 10.79227,-1.80767 10.80348,-0.98312 12.33803,-1.0853 24.16,-1.608841 11.23171,-0.49739 18.500572,-0.47981 25.682472,0.0621 l 2.48246,0.18732 0.61971,-1.400961 c 0.34084,-0.77052 0.90913,-2.98232 1.26286,-4.9151 1.38388,-7.561373 2.77539,-14.142486 4.26142,-20.154141 0.34804,-1.408 0.88926,-3.64 1.20269,-4.96 1.2738,-5.36439 4.96337,-17.749116 7.4359,-24.96 0.69401,-2.024 1.63073,-4.76 2.08161,-6.08 0.45088,-1.32 0.92908,-2.544 1.06268,-2.72 0.13359,-0.176 0.46838,-1.084581 0.74396,-2.019069 C 101.0837,6.9149696 104.30822,3.3794886 109.06832,1.1189246 111.16454,0.12343759 111.70019,0.00447559 114.10621,6.3588777e-5 116.3034,-0.00393641 117.32811,0.17920159 119.6785,0.99610859 c 6.59638,2.29266101 10.01727,5.22460401 10.33231,8.85551101 0.19883,2.2915964 -0.0578,3.0182174 -1.36138,3.8547794 -2.00852,1.288937 -3.6932,0.798841 -7.30838,-2.1261 -6.53976,-5.2911424 -10.59442,-5.3039684 -13.7779,-0.04358 -1.47388,2.435441 -2.50175,5.072553 -3.74557,9.609683 -0.50661,1.848 -1.43997,5.232 -2.07412,7.52 -1.940869,7.002612 -4.653399,19.508922 -5.749709,26.509453 -0.43664,2.788199 -0.86204,5.179725 -0.94534,5.314506 -0.0833,0.134781 -0.51677,3.613526 -0.96327,7.730547 -0.44649,4.117022 -0.95576,8.469452 -1.13169,9.672072 -0.17593,1.202611 -0.23933,2.316901 -0.14088,2.476201 0.0984,0.1593 0.79479,0.65051 1.54742,1.09157 1.58509,0.92893 3.12573,2.73454 3.66336,4.2934 0.51097,1.48157 0.47361,5.577153 -0.0626,6.860433 -0.55775,1.33489 -1.67771,2.53389 -3.00227,3.21414 -0.572,0.29377 -1.04,0.64099 -1.04,0.77162 0,0.13062 0.35653,0.76218 0.7923,1.40347 2.25957,3.325276 1.34388,7.969376 -1.7523,8.887056 -0.616,0.18258 -1.192,0.31802 -1.28,0.30099 -0.088,-0.017 -0.6077,-0.13789 -1.15488,-0.26858 z m 1.71488,-4.43036 c 1.06487,-1.35465 -0.37867,-4.226526 -2.12445,-4.226526 -1.19006,0 -1.63555,0.5471 -1.63555,2.008606 0,0.95114 0.22347,1.46409 0.95768,2.19831 1.02676,1.02675 2.00523,1.0336 2.80232,0.0196 z m -69.431202,-2.48468 c 1.52494,-1.068106 0.33704,-4.244446 -1.64297,-4.393176 -0.66524,-0.05 -1.092,0.16539 -1.56726,0.79095 -0.57922,0.76238 -0.60665,0.97174 -0.24252,1.85084 0.42095,1.01626 1.72351,2.249536 2.3759,2.249536 0.20111,0 0.68569,-0.22417 1.07685,-0.49815 z M 109.63824,88.304812 c -4.00978,-0.36598 -5.57144,-0.91866 -5.42287,-1.91922 0.17557,-1.18247 1.55439,-1.83547 5.59678,-2.65061 4.19408,-0.84572 6.98464,-1.19165 15.94634,-1.97674 9.55036,-0.83667 11.54343,-0.90452 12.70976,-0.43266 1.26549,0.51198 1.51894,0.8373 1.52535,1.95794 0.007,1.15019 -1.90149,2.71571 -3.64389,2.98974 -0.72117,0.11342 -2.46322,0.47693 -3.87122,0.80781 -4.77636,1.12242 -16.85806,1.76974 -22.84025,1.22374 z M 22.311809,77.196091 c -2.73508,-1.11062 -1.88684,0.3573 -14.1335501,-24.458601 -3.71565,-7.52913 -7.07545,-14.51313 -7.46622999,-15.52 -0.56404,-1.453277 -0.71083,-2.490355 -0.7120199964195,-5.030672 -0.001,-2.858883 0.08109999642,-3.322045 0.7735999964195,-4.34489 2.35189999,-3.47391 9.95590009,-5.855555 21.46489009,-6.723008 5.5753,-0.42022 34.40317,-0.178553 38.24,0.320573 12.404672,1.61369 20.231372,3.455834 22.800002,5.366355 1.10152,0.819296 1.40485,2.168116 0.656,2.91697 -0.56177,0.56177 -2.68485,0.469802 -5.39573,-0.233734 -1.30915,-0.339754 -4.25227,-0.909556 -6.54027,-1.266228 -2.288,-0.356672 -5.024,-0.790531 -6.08,-0.964128 -2.028122,-0.333408 -10.128022,-1.055817 -10.256362,-0.914736 -0.0414,0.04555 0.12628,1.090826 0.37271,2.322826 0.8075,4.036989 0.56379,3.68 2.51232,3.68 2.66023,0 9.762232,0.614035 11.320532,0.978768 0.76406,0.178835 2.83749,0.528397 4.60762,0.776806 1.77012,0.24841 3.34034,0.573591 3.48938,0.722624 0.14903,0.149031 -0.16922,2.856404 -0.70723,6.016384 -0.53801,3.159981 -1.39623,8.337418 -1.90717,11.505418 -2.5912,16.066483 -2.96009,17.320797 -5.5383,18.831733 -0.82231,0.4819 -2.33617,0.96818 -3.61425,1.16097 -3.278902,0.49457 -8.628812,1.21939 -14.199252,1.92376 -2.728,0.34495 -6.904,0.91803 -9.28,1.27352 -2.376,0.35548 -6.33015,0.87261 -8.78701,1.14917 -2.45685,0.27656 -5.17651,0.63739 -6.04368,0.80184 -2.27776,0.43197 -4.01802,0.34092 -5.576,-0.29172 z m 9.40478,-3.5598 c 0.85905,-0.17696 4.51391,-0.61394 8.12191,-0.97107 3.608,-0.35713 7.28,-0.78877 8.16,-0.95921 0.88,-0.17043 4.48,-0.60189 8,-0.95881 11.678282,-1.184111 13.148102,-1.748799 13.744232,-5.280383 0.11883,-0.704 0.48876,-2.432 0.82207,-3.84 0.3333,-1.408 0.89876,-4.47936 1.25657,-6.825245 0.35781,-2.345885 0.72072,-4.378765 0.80647,-4.517513 0.25459,-0.411933 -2.49985,-0.657242 -7.37981,-0.657242 h -4.581142 l 0.42488,1.204227 c 0.23368,0.662327 0.52481,1.850327 0.64695,2.64 0.12214,0.789674 0.59515,2.960829 1.05112,4.824787 l 0.82905,3.389015 1.288072,0.290985 c 0.70844,0.160042 1.33724,0.445156 1.39734,0.633588 0.17199,0.539273 -3.319432,1.934422 -6.305802,2.519753 -1.496,0.293219 -3.14978,0.673424 -3.67506,0.844906 -0.80238,0.261939 -7.72363,1.252185 -15.31171,2.190701 -1.8474,0.228492 -2.43868,0.631536 -2.44833,1.668891 -0.003,0.28977 -0.51391,0.97377 -1.13604,1.52 -1.56621,1.37515 -3.09456,1.36517 -4.53362,-0.0296 -0.58038,-0.56252 -1.05524,-1.19122 -1.05524,-1.39712 0,-0.20589 -0.842,-0.681355 -1.87111,-1.056591 -1.60122,-0.58383 -1.95217,-0.86198 -2.43302,-1.928316 -0.74916,-1.661328 -0.41761,-3.08745 1.02495,-4.408788 1.07314,-0.98295 1.101,-1.064649 0.71101,-2.084723 -0.22324,-0.583926 -0.74028,-1.997683 -1.14898,-3.141683 -0.64343,-1.80105 -0.84429,-2.072934 -1.49771,-2.027322 -0.87451,0.06105 -7.45845,2.791594 -8.34042,3.459005 -0.65982,0.499309 -0.7169,0.280195 2.12783,8.168317 0.60298,1.672 1.35272,3.760001 1.66609,4.640001 0.98332,2.7613 1.11204,2.83062 4.83945,2.60619 1.78095,-0.10723 3.94095,-0.33976 4.8,-0.51672 z m 13.0431,-13.049473 c -0.11605,-0.484 -0.38363,-1.24 -0.59462,-1.68 -0.21099,-0.44 -0.71545,-2.060739 -1.12101,-3.601642 -1.06072,-4.030051 -0.98236,-3.964492 -4.15811,-3.478339 -1.44723,0.221546 -2.94097,0.532259 -3.31939,0.690471 -0.37843,0.158211 -1.31209,0.445366 -2.0748,0.638118 -1.12215,0.283594 -1.34201,0.453584 -1.15232,0.890928 0.12894,0.297254 0.64128,1.656493 1.13856,3.020525 0.49727,1.364035 1.12751,2.912035 1.40053,3.44 l 0.49641,0.959939 h 4.79787 4.79788 z m 14.2724,0.64 c -0.007,-0.253466 -1.05669,-4.173731 -2.33537,-8.72 l -0.76502,-2.72 -2.8466,0.115715 c -3.9073,0.158832 -5.43759,0.456439 -5.28211,1.027245 0.85828,3.150992 1.71181,6.022285 1.94321,6.53704 0.15824,0.352 0.45268,1.216 0.65431,1.92 0.20163,0.704 0.42315,1.46 0.49225,1.68 0.0917,0.292035 1.20801,0.4 4.1357,0.4 2.20552,0 4.00715,-0.108 4.00363,-0.24 z M 18.179379,52.85446 c 1.0968,-0.512794 3.18597,-1.326247 4.6426,-1.807668 2.12766,-0.703196 2.6072,-0.976048 2.43882,-1.387641 -0.11527,-0.281783 -0.55669,-1.520333 -0.98092,-2.752333 -0.97204,-2.822851 -1.70701,-4.391776 -1.98527,-4.237882 -0.11886,0.06574 -0.72011,0.31426 -1.33611,0.552266 -2.82641,1.092048 -7.51634,3.716755 -7.44915,4.168893 0.10328,0.694848 1.80394,5.536169 2.10804,6.001005 0.34072,0.520809 0.26739,0.536169 2.56199,-0.53664 z m 17.81912,-5.185559 c 2.2,-0.376051 4.10781,-0.780361 4.23957,-0.898473 0.13176,-0.118109 0.0368,-0.783738 -0.21108,-1.479178 -0.24785,-0.695437 -0.84066,-2.524432 -1.31735,-4.064432 -0.94725,-3.060144 -1.01047,-3.107104 -3.35114,-2.488944 -0.616,0.162682 -2.5286,0.64385 -4.25023,1.069261 -1.72162,0.425411 -3.22337,0.866617 -3.33721,0.980461 -0.21248,0.21248 0.74731,3.625148 1.18101,4.199222 0.13296,0.176 0.49293,1.089706 0.79992,2.030454 0.5193,1.591328 0.61697,1.697392 1.40234,1.522906 0.4643,-0.103152 2.64417,-0.495226 4.84417,-0.871277 z m 37.235292,-0.842083 c 0.0871,-0.308 0.25392,-1.352 0.37064,-2.32 0.11673,-0.968 0.48714,-2.83112 0.82315,-4.140269 0.77916,-3.035773 0.76769,-3.421245 -0.10908,-3.666438 -1.02302,-0.286096 -15.473812,-0.950189 -16.030212,-0.736675 -0.40201,0.154262 -0.4022,0.500422 -0.002,2.680262 0.25308,1.376717 0.65697,3.15112 0.89752,3.94312 0.24055,0.792 0.51929,1.813718 0.61943,2.270483 0.1801,0.821507 0.22277,0.832714 3.9484,1.036775 2.071482,0.113459 4.774332,0.476227 6.006332,0.806156 2.92087,0.782202 3.28606,0.795504 3.47529,0.126586 z M 54.520689,45.594146 c 0.0672,-0.05777 -0.10712,-0.938054 -0.38738,-1.956182 -1.42291,-5.169047 -1.9981,-7.101101 -2.16322,-7.266224 -0.20363,-0.203626 -7.19079,0.612438 -8.02922,0.937769 -0.50087,0.194349 -0.49872,0.299859 0.0315,1.542963 0.313,0.733888 0.75439,2.126346 0.98087,3.094346 0.22648,0.968 0.62019,2.290605 0.87493,2.93912 l 0.46315,1.17912 4.05361,-0.182938 c 2.22948,-0.100614 4.10859,-0.230204 4.1758,-0.287974 z M 12.958499,41.12804 c 0.62054,-0.519052 5.80396,-2.939747 6.86522,-3.206105 0.44813,-0.112474 0.81478,-0.307235 0.81478,-0.432803 0,-0.37673 -1.03281,-3.357639 -1.28275,-3.702314 -0.12764,-0.176 -0.55097,-1.292 -0.94074,-2.48 -0.42543,-1.296643 -0.88723,-2.16 -1.15539,-2.16 -0.75464,0 -3.79946,1.787574 -4.87243,2.860538 -1.13004,1.130041 -1.98869,3.292736 -1.98869,5.008944 0,0.959494 0.38777,3.108905 0.81636,4.525123 0.13077,0.432147 0.97092,0.232966 1.74364,-0.413383 z m 14.78882,-5.725187 c 0.75415,-0.255181 2.92627,-0.742265 4.82692,-1.082409 1.90066,-0.340144 3.51505,-0.677751 3.58753,-0.750234 0.18203,-0.182022 -1.7393,-6.758403 -2.07364,-7.097731 -0.32543,-0.330288 -9.01211,0.574275 -10.48963,1.09231 -1.20143,0.421235 -1.25776,0.700506 -0.44911,2.226768 0.32499,0.613392 0.69663,1.547261 0.82587,2.075261 0.42951,1.754787 1.5361,4 1.97147,4 0.23617,0 1.04644,-0.208784 1.80059,-0.463965 z m 20.36123,-2.947699 2.67005,-0.20783 -0.18944,-0.990253 c -0.1042,-0.54464 -0.50398,-1.962253 -0.88841,-3.150253 l -0.69897,-2.16 h -4.56531 -4.56531 l 0.43435,1.04 c 0.23889,0.572 0.67647,1.974662 0.97239,3.11703 0.29593,1.142365 0.60562,2.186365 0.68821,2.32 0.18338,0.29672 2.5759,0.308916 6.14244,0.0313 z M 109.27851,64.62053 c -0.968,-0.16031 -2.03125,-0.562726 -2.36279,-0.894262 -0.59039,-0.590388 -0.57533,-0.6168 0.73171,-1.2836 3.99905,-2.040164 26.33222,-4.082522 29.85187,-2.72994 0.98985,0.380397 1.58085,1.632564 1.18283,2.506116 -0.62909,1.380684 -2.54948,1.993728 -7.64364,2.440067 -4.47052,0.391696 -19.3212,0.365504 -21.75998,-0.03838 z m 3.99999,-21.399373 c -5.23944,-0.804957 -4.21775,-2.289104 2.72,-3.951149 3.08977,-0.740204 9.6417,-1.71287 16.79999,-2.494044 4.42076,-0.482429 8.89649,-0.252157 9.72717,0.500451 0.94186,0.853334 0.91534,2.600179 -0.0472,3.107049 -0.396,0.208541 -0.79412,0.4913 -0.88473,0.628356 -0.53547,0.810025 -16.78783,2.521712 -23.51526,2.476608 -1.76,-0.01181 -3.92,-0.132071 -4.8,-0.267271 z"
     id="path5491"
     inkscape:connector-curvature="0" />
</svg>
