<?xml version="1.0" encoding="UTF-8" standalone="no"?>
<!-- Created with Inkscape (http://www.inkscape.org/) -->

<svg
   xmlns:dc="http://purl.org/dc/elements/1.1/"
   xmlns:cc="http://creativecommons.org/ns#"
   xmlns:rdf="http://www.w3.org/1999/02/22-rdf-syntax-ns#"
   xmlns:svg="http://www.w3.org/2000/svg"
   xmlns="http://www.w3.org/2000/svg"
   xmlns:sodipodi="http://sodipodi.sourceforge.net/DTD/sodipodi-0.dtd"
   xmlns:inkscape="http://www.inkscape.org/namespaces/inkscape"
   version="1.1"
   id="svg2"
   width="334.02512"
   height="280.45718"
   viewBox="0 0 334.02511 280.45719"
   sodipodi:docname="cnpq.svg"
   inkscape:version="0.92.4 (33fec40, 2019-01-16)">
  <metadata
     id="metadata8">
    <rdf:RDF>
      <cc:Work
         rdf:about="">
        <dc:format>image/svg+xml</dc:format>
        <dc:type
           rdf:resource="http://purl.org/dc/dcmitype/StillImage" />
        <dc:title />
      </cc:Work>
    </rdf:RDF>
  </metadata>
  <defs
     id="defs6" />
  <sodipodi:namedview
     pagecolor="#ffffff"
     bordercolor="#666666"
     borderopacity="1"
     objecttolerance="10"
     gridtolerance="10"
     guidetolerance="10"
     inkscape:pageopacity="0"
     inkscape:pageshadow="2"
     inkscape:window-width="1366"
     inkscape:window-height="744"
     id="namedview4"
     showgrid="false"
     inkscape:zoom="0.56372124"
     inkscape:cx="-202.21928"
     inkscape:cy="419.24088"
     inkscape:window-x="0"
     inkscape:window-y="0"
     inkscape:window-maximized="1"
     inkscape:current-layer="svg2" />
  <path
     inkscape:connector-curvature="0"
     id="path16"
     d="m 300.8453,277.20718 c 0.37711,-1.7875 1.10369,-5.725 1.61463,-8.75 0.51093,-3.025 1.38363,-7.07203 1.93934,-8.9934 2.22532,-7.69408 0.42297,-8.97793 -5.79826,-4.1302 -6.43528,5.01452 -13.48178,6.3153 -21.38457,3.94757 -7.83342,-2.34695 -11.40169,-10.08893 -10.51954,-22.82397 0.87005,-12.56039 6.86028,-25.05823 14.57189,-30.40238 4.49276,-3.11349 14.1756,-5.18889 19.52595,-4.18515 2.1227,0.39822 5.37914,2.18661 7.54578,4.14404 4.47383,4.04184 5.58633,4.22667 7.18365,1.19349 1.75887,-3.33994 2.76734,-3.71937 9.88548,-3.71937 9.5058,0 9.61504,0.14711 7.50943,10.11332 -0.97099,4.59583 -2.56582,12.18105 -3.54407,16.85605 -0.97825,4.675 -2.70435,12.775 -3.83577,18 -1.13142,5.225 -2.76975,12.875 -3.64073,17 -0.87098,4.125 -2.02963,9.1875 -2.57478,11.25 l -0.99117,3.75 h -9.08645 -9.08646 z m 0.71781,-29.3661 c 3.49993,-1.76142 6.41912,-6.64533 8.30909,-13.90144 2.07967,-7.98437 1.93543,-13.31746 -0.46675,-17.25739 -5.87785,-9.64056 -17.42827,-4.24367 -21.53827,10.06368 -5.2183,18.16543 0.87351,27.54834 13.69593,21.09515 z M 19.212615,259.00442 c -9.13741,-2.00136 -12.2062001,-4.50767 -16.5875801,-13.54724 -2.35705999,-4.86305 -2.66071999,-6.65809 -2.62200999,-15.5 0.0241,-5.5 0.63958,-12.475 1.36776999,-15.5 4.14942,-17.23723 15.3112601,-30.63483 29.5388601,-35.45562 15.62581,-5.29454 40.09424,-2.67741 47.89442,5.12277 3.18734,3.18734 5.15818,9.85618 3.9399,13.33166 -0.82996,2.36765 -1.32944,2.51694 -9.35554,2.79624 -10.95143,0.3811 -12.33293,-0.0205 -13.51204,-3.92828 -1.36971,-4.53943 -5.36275,-7.11067 -11.8822,-7.65132 -4.61622,-0.38281 -6.20914,-0.0395 -9.92813,2.14002 -9.34667,5.47751 -16.06695,20.95845 -16.12444,37.14453 -0.0367,10.3329 1.66434,14.41621 7.07522,16.98384 6.57734,3.12115 17.12756,0.62438 21.01664,-4.97372 4.45778,-6.41673 4.67118,-6.51012 14.87617,-6.51012 9.25142,0 9.5,0.0603 9.5,2.30422 0,5.60317 -8.43142,14.84308 -18,19.72603 -9.213,4.7015 -24.98195,6.19245 -37.19704,3.51699 z m 65.76661,-1.43468 c -0.30166,-0.48808 0.8027,-7.35058 2.45413,-15.25 1.65143,-7.89941 4.12022,-19.98756 5.48619,-26.86256 1.36597,-6.875 3.15183,-15.425 3.96858,-19 0.81674,-3.575 1.77744,-8.3 2.13488,-10.5 1.251875,-7.70504 0.7926,-7.5 16.799385,-7.5 10.29135,0 14.61558,0.35306 15.30964,1.25 1.10115,1.42301 1.55819,3.13362 7.81488,29.25 6.35097,26.50991 6.34797,26.5 8.02603,26.5 2.08302,0 2.49569,-1.39078 8.89406,-29.97473 3.13632,-14.0111 5.91801,-25.8236 6.18154,-26.25 0.6157,-0.99622 17.09615,-1.01976 17.6938,-0.0253 0.2479,0.4125 -0.18263,3.675 -0.95675,7.25 -0.77411,3.575 -2.28368,10.55 -3.3546,15.5 -1.07092,4.95 -2.596,11.925 -3.38907,15.5 -0.79307,3.575 -2.88632,13.2438 -4.65167,21.48622 -4.70331,21.95978 -2.31568,19.61702 -19.65998,19.2906 l -14.70848,-0.27679 -6.78634,-27.5 c -3.73248,-15.125 -7.02879,-28.5125 -7.32512,-29.75 -0.334,-1.3948 -1.29172,-2.25 -2.51973,-2.25 -1.08952,0 -1.98095,0.23394 -1.98095,0.51986 0,0.28593 -1.5888,8.27343 -3.53067,17.75 -1.94186,9.47658 -4.41462,21.73014 -5.49502,27.23014 -1.0804,5.5 -2.20017,11.0125 -2.48839,12.25 -0.49229,2.11375 -1.03403,2.25 -8.945955,2.25 -4.63206,0 -8.66874,-0.39935 -8.97039,-0.88744 z m 96.430425,-0.95326 c 0,-1.01239 0.94262,-6.29989 2.09471,-11.75 5.16045,-24.41224 8.16948,-38.80104 10.53975,-50.39971 1.40387,-6.86972 2.97626,-13.28222 3.4942,-14.25 0.85348,-1.59473 2.93314,-1.75959 22.19642,-1.75959 27.21082,0 35.52811,1.8881 41.07039,9.32333 1.68957,2.26665 2.09932,4.23837 2.07811,10 -0.0381,10.34935 -2.46202,16.58186 -8.59265,22.09381 -7.66457,6.89111 -13.65391,8.71535 -31.0501,9.45725 -8.06804,0.34409 -14.96185,0.91942 -15.31958,1.27852 -0.70301,0.70572 -2.52928,7.77843 -4.47925,17.34709 -2.24129,10.99822 -1.64767,10.5 -12.51056,10.5 -8.58011,0 -9.52144,-0.18198 -9.52144,-1.8407 z m 50.43428,-42.14446 c 9.00334,-4.39605 11.666,-16.21489 4.51522,-20.04187 -1.10257,-0.59007 -5.78253,-1.31254 -10.39992,-1.60549 -8.04836,-0.51062 -8.46059,-0.43293 -9.97611,1.88004 -0.86946,1.32697 -2.31648,6.08044 -3.21561,10.56328 -2.11344,10.53715 -1.65022,11.1892 7.94886,11.1892 5.0122,0 8.24187,-0.57617 11.12756,-1.98516 z M 111.07632,151.79051 c -0.36667,-0.36666 -0.66667,-9.05166 -0.66667,-19.3 0,-13.15926 -0.35253,-18.98586 -1.2,-19.83333 -0.72821,-0.72821 -4.26667,-1.2 -9,-1.2 -4.289995,0 -7.799995,-0.13967 -7.799995,-0.31039 0,-0.67097 5.10915,-12.955108 11.781435,-28.326568 3.85251,-8.87533 7.31691,-18.10033 7.69867,-20.5 4.25444,-26.74299 15.59749,-44.76049 34.44754,-54.7170697 7.87007,-4.15697 13.64498,-5.91235 23.46535,-7.13267003 29.38223,-3.65116997 57.26335,14.24764973 67.44361,43.29671973 2.18279,6.22853 2.52502,8.92835 2.55929,20.18998 0.0443,14.5398 -1.02349,19.09945 -7.18294,30.67385 l -3.55157,6.673858 4.34386,15.82614 c 4.86675,17.73124 8.93135,33.42038 8.96949,34.62184 0.0139,0.43763 -2.9543,0.66263 -6.59598,0.5 l -6.62123,-0.29569 -1.78767,-6 c -0.98321,-3.3 -4.52118,-15.42793 -7.86214,-26.95094 l -6.07448,-20.950948 3.51626,-5.10546 c 4.42064,-6.41858 8.34737,-17.58245 9.12919,-25.95469 1.97042,-21.1008 -11.41604,-41.68377 -32.15654,-49.44379 -16.28208,-6.0919 -30.84597,-4.35087 -45.58835,5.44984 -11.23263,7.46744 -18.45594,19.93697 -20.45413,35.30979 -0.38274,2.94458 -3.5906,12.38089 -7.12856,20.96956 -3.53797,8.58868 -6.30182,16.52947 -6.14189,17.64621 0.22987,1.60508 1.23347,2.13517 4.79078,2.53043 l 4.5,0.5 0.5,18.169718 c 0.275,9.99335 0.87434,18.54335 1.33187,19 0.45752,0.45665 15.98252,1.05528 34.5,1.33028 l 33.66813,0.5 1.66983,5 c 3.13694,9.393 7.44466,8.5 -41.00316,8.5 -23.55834,0 -43.13334,-0.3 -43.5,-0.66667 z m 94.86264,-5.58333 c -0.98304,-3.4375 -2.6432,-9.175 -3.68926,-12.75 -7.30575,-24.96819 -11.84005,-41.658598 -11.84005,-43.582308 0,-1.41027 1.41821,-3.37288 3.80104,-5.26011 2.09057,-1.65576 5.12503,-5.40608 6.74324,-8.33403 2.50018,-4.52376 2.93211,-6.3752 2.87499,-12.32355 -0.14029,-14.60831 -9.59106,-25.71246 -23.08429,-27.12278 -9.09375,-0.95048 -15.31414,0.89943 -21.38856,6.36087 -5.86721,5.27512 -8.3626,9.68317 -9.7899,17.29363 -0.56405,3.00756 -2.19777,8.56323 -3.63049,12.34594 -2.35812,6.22597 -2.45908,7.03884 -1.06549,8.57874 1.24746,1.37842 1.53946,4.66001 1.53946,17.30091 0,12.848328 0.27717,15.876998 1.57143,17.171258 1.31981,1.31981 4.65609,1.57143 20.83605,1.57143 h 19.26462 l 1.66395,5.9849 c 0.91517,3.2917 1.66395,6.22349 1.66395,6.51511 0,0.29161 -13.1625,0.4109 -29.25,0.26509 l -29.25,-0.2651 -0.5,-18.43787 -0.5,-18.437868 -3.25,-0.84072 c -1.7875,-0.4624 -3.25,-1.2891 -3.25,-1.83711 0,-0.97863 0.85206,-3.43471 6.74633,-19.44643 1.61974,-4.4 3.26319,-10.42479 3.65213,-13.38841 0.8853,-6.74595 5.24849,-16.50095 9.59434,-21.45061 11.17959,-12.73285 30.75008,-17.35844 46.59862,-11.01383 7.51846,3.00985 16.78235,10.90219 20.75636,17.68331 3.01491,5.14456 5.65222,14.87488 5.65222,20.85379 0,9.19345 -4.25202,20.61638 -10.19274,27.38249 -3.12939,3.56418 -3.16182,3.70514 -2.01952,8.77781 0.63853,2.835498 2.78265,10.555448 4.76473,17.155448 6.98419,23.25631 9.4352,32.01793 9.44133,33.75 0.005,1.48335 -0.96009,1.75 -6.33547,1.75 H 207.7263 Z M 166.54227,74.698122 c -2.67452,-2.54421 -4.18425,-4.99923 -4.67149,-7.59646 -2.82919,-15.08089 14.82082,-24.59782 25.60978,-13.80887 4.88355,4.88356 5.87617,10.23492 3.07366,16.57048 -2.68326,6.06595 -6.89257,8.58529 -14.35246,8.59017 -5.23306,0.003 -6.03663,-0.30898 -9.65949,-3.75532 z"
     style="fill:#0364a3;fill-opacity:1" />
</svg>
