<?xml version="1.0" encoding="UTF-8" standalone="no"?>
<!-- Created with Inkscape (http://www.inkscape.org/) -->

<svg
   xmlns:dc="http://purl.org/dc/elements/1.1/"
   xmlns:cc="http://creativecommons.org/ns#"
   xmlns:rdf="http://www.w3.org/1999/02/22-rdf-syntax-ns#"
   xmlns:svg="http://www.w3.org/2000/svg"
   xmlns="http://www.w3.org/2000/svg"
   xmlns:sodipodi="http://sodipodi.sourceforge.net/DTD/sodipodi-0.dtd"
   xmlns:inkscape="http://www.inkscape.org/namespaces/inkscape"
   version="1.1"
   id="svg2"
   width="342.23843"
   height="289.46686"
   viewBox="0 0 342.23843 289.46686"
   sodipodi:docname="cnpq.svg"
   inkscape:version="0.92.4 (5da689c313, 2019-01-14)">
  <metadata
     id="metadata8">
    <rdf:RDF>
      <cc:Work
         rdf:about="">
        <dc:format>image/svg+xml</dc:format>
        <dc:type
           rdf:resource="http://purl.org/dc/dcmitype/StillImage" />
        <dc:title></dc:title>
      </cc:Work>
    </rdf:RDF>
  </metadata>
  <defs
     id="defs6" />
  <sodipodi:namedview
     pagecolor="#ffffff"
     bordercolor="#666666"
     borderopacity="1"
     objecttolerance="10"
     gridtolerance="10"
     guidetolerance="10"
     inkscape:pageopacity="0"
     inkscape:pageshadow="2"
     inkscape:window-width="1366"
     inkscape:window-height="716"
     id="namedview4"
     showgrid="false"
     inkscape:zoom="0.39861111"
     inkscape:cx="251.35567"
     inkscape:cy="365.72035"
     inkscape:window-x="-8"
     inkscape:window-y="-8"
     inkscape:window-maximized="1"
     inkscape:current-layer="svg2" />
  <g
     id="g12"
     transform="translate(-188.92308,-80.486933)">
    <path
       style="fill:#d2e8ef"
       d="m 491.25,368.96884 c -2.6945,-1.08306 -2.86246,-3.80295 -0.77,-12.46884 0.79682,-3.3 1.46479,-7.21454 1.48438,-8.69897 l 0.0356,-2.69898 -3.75,1.63111 c -2.32221,1.01008 -6.60558,1.64797 -11.25,1.6754 -14.23296,0.084 -20.88546,-6.7165 -21.78588,-22.27072 -1.05775,-18.27201 9.73731,-38.11025 22.88063,-42.04808 10.02556,-3.00373 18.19851,-2.29284 23.80958,2.07099 2.30003,1.78876 2.48898,1.7933 4.35533,0.10457 2.87663,-2.60287 22.28678,-2.60608 24.18947,-0.004 1.3344,1.82491 1.42251,1.28451 -5.41988,33.23869 -1.05995,4.95 -3.74041,17.55 -5.95657,28 -4.88021,23.0119 -4.5148,22.52773 -16.93346,22.43661 -4.75157,-0.0349 -9.65172,-0.47036 -10.88922,-0.96777 z m 2.02351,-40.96934 C 496.42387,325.52142 500,315.35573 500,308.87841 c 0,-5.8276 -3.22758,-9.15323 -7.76859,-8.0046 -5.61921,1.42135 -12.2693,20.3581 -9.37782,26.7042 1.4099,3.09439 6.7474,3.31029 10.41992,0.42149 z m -279.56298,19.87419 c -11.56866,-1.48806 -17.49854,-5.86692 -22.40883,-16.54758 -2.06827,-4.49882 -2.37862,-6.67871 -2.37862,-16.70722 0,-17.72864 3.49583,-28.48615 13.12391,-40.38532 5.66289,-6.99868 14.08756,-12.89273 21.29566,-14.89883 7.39779,-2.05889 24.05114,-2.81976 31.87938,-1.45653 3.6222,0.63078 8.99156,2.21769 11.9319,3.52646 8.73829,3.88951 11.89038,8.63285 12.12625,18.24792 C 279.47683,287.66888 278.87379,288 264.07756,288 250.95811,288 249,287.44865 249,283.75455 c 0,-1.015 -1.10455,-2.95 -2.45455,-4.3 -4.28614,-4.28615 -12.98956,-2.99371 -18.18514,2.70044 -7.58107,8.30854 -12.57239,29.201 -9.25189,38.72617 2.85874,8.20061 15.73169,7.9634 21.53485,-0.39682 4.52448,-6.51812 4.43704,-6.48434 16.7853,-6.48434 15.61955,0 16.8574,1.37596 11.43989,12.71626 -1.10781,2.31894 -4.46814,6.45902 -7.4674,9.20017 -11.96834,10.93838 -26.76652,14.64867 -47.69053,11.95726 z m 60.25834,-2.4112 c -1.33605,-1.60984 -0.84378,-4.52018 8.4509,-49.96249 5.3523,-26.16777 7.37544,-33.87267 9.25589,-35.25 1.18821,-0.87031 6.32307,-1.25 16.90469,-1.25 13.01454,0 15.49721,0.25143 17.28012,1.75 1.94899,1.63816 5.86986,15.13386 10.67688,36.75 0.73386,3.3 1.76024,7.125 2.28085,8.5 0.8814,2.3279 1.05574,2.12138 2.53257,-3 0.87231,-3.025 2.31308,-9.1 3.20171,-13.5 3.50578,-17.35858 6.47203,-28.02819 8.13176,-29.25 2.64473,-1.94692 20.73159,-1.69131 22.74433,0.32143 1.92181,1.92181 1.92297,2.03335 0.1016,9.72305 -2.09755,8.85567 -8.33574,37.28673 -9.47992,43.20552 -3.16982,16.39725 -6.28978,29.21663 -7.59581,31.20988 C 356.99116,346.94312 356.54523,347 340.5,347 c -15.98896,0 -16.49277,-0.0636 -17.82977,-2.25 -0.75673,-1.2375 -3.97255,-13.00749 -7.14626,-26.15553 -3.50662,-14.52721 -6.07524,-23.35413 -6.54746,-22.5 -0.42739,0.77304 -2.64793,10.85553 -4.93453,22.40553 -4.80395,24.2656 -5.5861,27.11109 -7.67214,27.91157 -0.84338,0.32364 -5.94151,0.58843 -11.32918,0.58843 -7.59362,0 -10.08263,-0.34564 -11.07179,-1.53751 z M 371.2,345.8 c -1.4651,-1.4651 -1.50108,-5.80477 -0.0978,-11.8 2.25629,-9.63975 12.35727,-58.45718 13.96624,-67.49802 0.48921,-2.74891 1.65996,-5.56141 2.60166,-6.25 2.02353,-1.47964 37.70453,-1.71868 48.50912,-0.32499 8.69351,1.12139 16.83461,4.88079 19.91133,9.19468 2.08511,2.92353 2.45442,4.72464 2.74334,13.37897 0.32349,9.69011 0.22988,10.20149 -3.01468,16.46913 -3.83189,7.40223 -9.83725,12.56225 -18.73835,16.10067 -4.42404,1.75867 -8.472,2.34403 -19.529,2.82404 l -13.94817,0.60552 -1.65484,6 c -0.91016,3.3 -2.20865,8.925 -2.88553,12.5 -1.83602,9.69701 -2.30621,10 -15.51828,10 -7.33501,0 -11.55524,-0.41023 -12.34501,-1.2 z m 51.70116,-50.24889 c 3.46915,-1.79396 6.09884,-5.6715 6.09884,-8.99287 0,-3.94042 -3.67446,-5.71249 -11.11108,-5.35852 l -6.30865,0.30028 -1.14285,4 c -0.62857,2.2 -1.45452,5.6875 -1.83545,7.75 l -0.6926,3.75 h 6.09498 c 3.36633,0 7.34932,-0.64865 8.89681,-1.44889 z M 300.46622,239.32336 c -1.43509,-1.43508 -1.64199,-3.70425 -1.43612,-15.75 0.13229,-7.74035 0.17963,-16.21086 0.10521,-18.82336 L 299,200 h -7.92857 c -10.59026,0 -11.79623,-1.08713 -9.01982,-8.13095 1.09466,-2.77717 2.63151,-6.28937 3.41521,-7.80488 3.48113,-6.73176 15.53343,-37.1946 15.5357,-39.26733 0.005,-4.29814 4.93694,-20.73392 8.11027,-27.02611 10.55223,-20.923271 29.19958,-33.859783 53.13305,-36.860786 11.24376,-1.409849 23.75838,0.719103 36.25416,6.167456 10.84776,4.729789 25.27756,18.9025 30.95416,30.40264 5.31711,10.77187 6.98696,18.291 6.99994,31.51996 0.0126,12.85777 -1.33528,18.73727 -7.03208,30.67364 l -3.42373,7.17365 3.46389,12.82635 c 1.90513,7.0545 4.82787,17.77636 6.49497,23.82636 3.75587,13.63032 3.803,15.26049 0.47775,16.52475 -3.29003,1.25087 -12.55904,1.25875 -15.8344,0.0135 -1.61946,-0.61572 -2.74358,-0.61572 -3.12412,0 C 417.14945,240.56719 412.6118,241 407.39271,241 h -9.48926 l -1.37698,-3.25 c -1.43783,-3.39361 -1.49373,-3.35744 -3.09102,2 -0.29105,0.9762 -10.3301,1.25 -45.83264,1.25 -41.20413,0 -45.61691,-0.15696 -47.13659,-1.67664 z m 91.52417,-16.85911 c -1.49109,-5.54851 -2.59637,-8.11386 -3.13201,-7.26934 -1.14996,1.8131 -1.06439,4.80509 0.13742,4.80509 0.54769,0 1.74674,2.70096 2.66454,6.00213 0.91781,3.30116 1.886,5.78487 2.15153,5.51933 0.26553,-0.26553 -0.55413,-4.34127 -1.82148,-9.05721 z m -8.81227,-31.14931 c -1.06989,-3.74822 -2.49162,-9.06494 -3.1594,-11.81494 -0.66778,-2.75 -1.40073,-5.61377 -1.62877,-6.36394 -0.22805,-0.75017 1.8877,-3.45017 4.70165,-6 8.66599,-7.85259 11.33609,-15.7407 8.55039,-25.2599 -0.86531,-2.95689 -3.01941,-7.12178 -4.7869,-9.25531 -11.43078,-13.79809 -35.42387,-7.91178 -39.90694,9.79051 -0.56949,2.24875 -2.20398,7.71266 -3.63221,12.14201 -2.09312,6.49139 -2.37558,8.46667 -1.45636,10.18426 0.70801,1.32291 1.14042,7.79918 1.14042,17.08 0,14.65745 0.0439,14.96087 2.25,15.55208 1.2375,0.33164 9.9,0.61602 19.25,0.63195 9.35,0.0159 17.675,0.45765 18.5,0.98161 2.28062,1.44841 2.31823,-0.17073 0.17812,-7.66833 z M 365.5,167.0747 c -5.43035,-1.3397 -9.46783,-4.06891 -12.25427,-8.28349 -2.2676,-3.42983 -2.74255,-5.24294 -2.72745,-10.41199 0.0155,-5.32048 0.46744,-6.89803 3.01385,-10.52112 4.27317,-6.07999 8.60933,-8.32382 16.12202,-8.34265 5.25401,-0.0132 6.79501,0.42835 10.41696,2.98455 8.38996,5.92125 10.83697,16.5188 5.88035,25.46673 -3.65547,6.59903 -13.26836,10.88009 -20.45146,9.10797 z M 314,179.55902 c 0,-0.24254 -0.45,-0.7191 -1,-1.05902 -0.55,-0.33992 -1,-0.14148 -1,0.44098 0,0.58246 0.45,1.05902 1,1.05902 0.55,0 1,-0.19844 1,-0.44098 z"
       id="path26"
       inkscape:connector-curvature="0" />
    <path
       style="fill:#accedf"
       d="m 490.39198,366.5791 c -0.29989,-0.7815 0.38923,-5.93053 1.53138,-11.4423 2.88545,-13.92454 2.99661,-13.51834 -2.86683,-10.47627 -3.87435,2.01008 -6.36328,2.55657 -11.50843,2.52689 -12.00682,-0.0693 -17.06657,-3.45946 -20.02344,-13.41634 -4.18285,-14.08518 1.42263,-33.14384 12.74122,-43.32022 5.58424,-5.02072 10.49714,-6.76144 19.39887,-6.87335 5.43011,-0.0683 6.72473,0.3169 10.864,3.23224 4.66353,3.28458 4.71022,3.29409 6.14195,1.25 C 507.97122,286.203 509.14575,286 518.58809,286 c 8.49516,0 10.58601,0.29013 11.0638,1.53523 0.51585,1.34429 -2.32146,15.87115 -9.66122,49.46477 -1.14159,5.225 -2.93286,13.70039 -3.98059,18.83421 -1.04773,5.13381 -2.43372,9.97131 -3.07997,10.75 -1.69693,2.04468 -21.7533,2.04013 -22.53813,-0.005 z m 3.52628,-37.38754 c 3.34119,-2.46673 6.9669,-12.42391 7.03014,-19.3067 0.0813,-8.85133 -3.93197,-12.67199 -10.27509,-9.78187 -4.53826,2.06777 -9.6351,14.44313 -9.66144,23.45845 -0.0231,7.89249 6.17797,10.59756 12.90639,5.63012 z M 216.5,346.9836 c -12.5202,-1.36903 -18.41927,-5.16856 -23.69456,-15.2614 -1.76418,-3.37528 -2.28879,-6.37051 -2.6154,-14.9323 -0.70832,-18.56826 3.61594,-31.7095 14.33036,-43.54931 3.05367,-3.37442 7.89831,-7.47477 10.76587,-9.11189 7.51304,-4.28928 19.73944,-6.53892 31.67653,-5.82843 14.56548,0.86693 23.44709,4.27579 28.33489,10.87524 2.12001,2.86241 3.35922,11.07101 2.30528,15.27026 L 276.9619,287 H 264.68095 C 251.97305,287 250,286.42943 250,282.75455 c 0,-1.015 -1.10455,-2.95 -2.45455,-4.3 -4.46929,-4.4693 -14.91873,-3.07134 -20.18514,2.70044 -5.64882,6.19088 -10.31873,20.38532 -10.34553,31.44579 -0.0274,11.30727 3.21461,15.40328 12.18556,15.39548 5.34505,-0.005 10.17773,-2.82785 12.9849,-7.58565 C 244.90711,315.79739 247.23536,315 257.98331,315 268.85576,315 270,315.39487 270,319.14683 c 0,10.77124 -17.95539,25.75275 -32.73737,27.31521 -11.48683,1.21417 -13.87895,1.27426 -20.76263,0.52156 z m 59.08945,-2.29454 c -1.70568,-1.24722 -1.59585,-2.25574 2.25971,-20.75 2.22889,-10.69148 5.93356,-28.66406 8.23261,-39.93906 3.27974,-16.08451 4.6245,-20.89148 6.24338,-22.31756 1.83992,-1.6208 3.72447,-1.78319 17.40744,-1.5 12.31409,0.25485 15.52762,0.61377 16.27324,1.81756 0.511,0.825 3.4464,11.85 6.52311,24.5 6.79512,27.93841 6.49498,26.89513 7.43678,25.85066 0.74484,-0.82603 1.96565,-5.80713 7.56116,-30.85066 4.11898,-18.4351 4.41734,-19.39978 6.31387,-20.41477 2.77912,-1.48734 20.06526,-0.85867 21.06838,0.76623 0.48763,0.78988 -0.11702,5.77622 -1.45513,12 -1.25919,5.85669 -5.07376,23.69854 -8.47682,39.64854 -4.85636,22.76156 -6.61884,29.37646 -8.19306,30.75 -1.71585,1.49711 -4.1396,1.75 -16.77246,1.75 -11.42141,0 -15.0294,-0.31645 -15.92605,-1.39685 -0.63761,-0.76826 -4.12659,-13.43211 -7.7533,-28.14187 -4.67827,-18.97482 -6.85693,-26.27522 -7.49896,-25.12797 -0.49772,0.88937 -3.17225,12.99071 -5.94339,26.89187 -3.49386,17.52654 -5.53413,25.65802 -6.65534,26.52482 -2.2327,1.72609 -18.26599,1.67877 -20.64517,-0.0609 z m 96.35554,-0.25534 c -1.08098,-1.30251 -0.68792,-4.54437 2.33402,-19.25 8.64661,-42.07703 12.61431,-60.79152 13.21582,-62.33518 0.96512,-2.47679 3.53617,-2.82161 21.00517,-2.81712 29.34816,0.008 41.23556,2.58203 46.59052,10.09025 2.16242,3.03193 2.40838,4.4037 2.39872,13.37833 -0.01,8.89417 -0.30657,10.56287 -2.68578,15.09002 -6.59405,12.54715 -19.56826,18.36561 -41.01828,18.3952 -9.18968,0.0127 -10.84149,0.26387 -11.60477,1.76478 -0.48948,0.9625 -1.89213,6.7 -3.117,12.75 -2.88443,14.24698 -3.16452,14.5 -16.05175,14.5 -7.64532,0 -10.04912,-0.34021 -11.06667,-1.56628 z m 52.63505,-48.3194 c 3.59785,-2.19397 6.81792,-8.28511 5.9033,-11.16681 -1.18802,-3.74314 -4.70018,-5.06241 -12.62792,-4.74345 L 410.5,280.5 408.81822,287 c -2.89281,11.1806 -2.98172,11.0006 5.43178,10.99626 5.32836,-0.003 8.06637,-0.50156 10.33004,-1.88194 z m -122.46457,-57.0218 c -1.09405,-0.69288 -1.3454,-4.05954 -1.198,-16.04651 0.10259,-8.34332 -0.11296,-17.16685 -0.47901,-19.60784 L 299.77291,199 h -7.30467 C 284.26093,199 282,198.43093 282,196.36517 c 0,-0.78147 4.5,-11.88279 10,-24.66959 5.5,-12.7868 10.00315,-24.13677 10.00701,-25.22215 0.0137,-3.85415 4.05723,-19.06411 6.63915,-24.97343 7.47851,-17.11626 22.84121,-31.056273 40.35384,-36.6168 10.18649,-3.234364 25.45437,-3.665049 36.01542,-1.015942 13.34848,3.348296 20.18243,7.294279 30.50592,17.614372 14.37097,14.36623 19.83275,27.30297 19.85078,47.01837 0.0113,12.39754 -1.37708,18.42638 -7.07065,30.70262 l -3.57239,7.70261 6.6984,24.66218 c 3.68412,13.5642 6.4592,25.28552 6.16684,26.04738 -0.39558,1.03087 -2.71937,1.38521 -9.08437,1.38521 -7.91804,0 -8.62419,-0.16699 -9.51434,-2.25 -0.52883,-1.2375 -4.35179,-14.05644 -8.49547,-28.48653 l -7.53396,-26.23654 4.13909,-6.06378 c 16.01493,-23.46186 9.58129,-54.20636 -14.19707,-67.8437 -11.50752,-6.59978 -26.62353,-8.472802 -37.9082,-4.6972 -8.90352,2.97891 -18.46776,9.90374 -23.10019,16.72528 -5.37555,7.91585 -6.52472,10.89835 -8.26274,21.4446 -1.05006,6.37174 -3.20032,12.98218 -7.55254,23.21845 -3.34649,7.87082 -6.08453,14.73332 -6.08453,15.25 0,0.51668 1.48899,0.93942 3.30887,0.93942 6.45533,0 6.63615,0.53505 6.928,20.5 l 0.26313,18 33.78737,0.5 c 26.40477,0.39075 33.96461,0.7871 34.59854,1.81396 0.44615,0.72268 1.65098,4.68639 2.67739,8.80825 1.62445,6.52345 1.67646,7.61432 0.40146,8.42073 -1.87625,1.18669 -87.97879,1.23421 -89.84929,0.0496 z m 95.97978,-0.91454 c -0.53631,-1.00211 -2.7965,-8.31461 -5.02264,-16.25 -2.22614,-7.93539 -6.07817,-21.60907 -8.56007,-30.38596 C 382.03064,182.76514 380,174.64793 380,173.50379 c 0,-1.2491 1.84301,-3.62083 4.61272,-5.93602 8.41086,-7.03061 11.49447,-18.13663 7.71806,-27.79753 -4.14252,-10.59747 -11.50293,-15.77701 -22.3965,-15.76047 -11.93347,0.0181 -21.3072,6.81883 -23.98541,17.40159 -0.5691,2.24875 -2.19929,7.77668 -3.62265,12.28428 -1.7742,5.6187 -2.33206,8.92019 -1.7742,10.5 0.44755,1.2674 1.06893,9.50436 1.38085,18.30436 l 0.56713,16 19.78838,0.5 c 15.27926,0.38607 19.98124,0.81276 20.63475,1.87254 1.54835,2.51093 4.30447,14.09197 3.71762,15.62126 -0.4976,1.29674 -4.88517,1.5062 -31.55035,1.5062 -23.67975,0 -31.16285,-0.29432 -31.78138,-1.25 C 322.86406,216.0625 322.275,207.4 322,197.5 l -0.5,-18 -3.25,-0.31336 c -4.42595,-0.42674 -4.28997,-2.24489 1.29929,-17.3732 2.50212,-6.77239 5.23379,-15.87652 6.0704,-20.2314 3.61129,-18.79835 15.98844,-32.18113 33.94454,-36.70253 2.62936,-0.66208 8.0582,-0.93486 12.75656,-0.64097 31.37105,1.96231 50.82102,35.74669 36.69267,63.73479 -1.59049,3.15075 -4.12018,7.18848 -5.62152,8.97272 l -2.72972,3.24409 1.53966,6.15493 c 0.84681,3.38521 4.52549,16.23059 8.17485,28.54528 5.07244,17.11683 6.36943,22.71058 5.50679,23.75 C 415.10779,239.57504 412.304,240 406.91274,240 c -6.56356,0 -8.00138,-0.29711 -8.81749,-1.82202 z m -36.8726,-73.8389 c -4.37177,-2.15481 -7.93265,-6.54839 -9.23888,-11.39936 -3.49337,-12.97338 9.01586,-25.44036 22.01454,-21.94017 15.56633,4.19157 18.15347,25.78075 3.95731,33.02309 -4.7191,2.40751 -12.20337,2.54904 -16.73297,0.31644 z"
       id="path24"
       inkscape:connector-curvature="0" />
    <path
       style="fill:#8bb6cf"
       d="m 492.04094,367.04646 c -1.263,-0.79889 -1.14565,-2.54957 0.87327,-13.02808 1.28278,-6.65785 2.08718,-12.35032 1.78756,-12.64994 -0.29962,-0.29962 -2.70477,0.72109 -5.34479,2.26824 -4.09516,2.39992 -5.90556,2.8167 -12.3285,2.83816 -9.80595,0.0328 -13.49883,-1.98064 -17.27848,-9.42042 -8.66778,-17.06151 2.88249,-46.30418 20.33653,-51.48748 9.61365,-2.85494 16.74543,-1.68638 22.64945,3.71118 l 2.23599,2.04417 2.46626,-2.66114 C 509.71106,286.20873 510.52932,286 517.87046,286 c 9.44692,0 11.13072,0.50805 11.12594,3.35699 -0.004,2.14733 -3.11732,17.4002 -11.34289,55.56426 -3.24328,15.04781 -4.87958,20.77089 -6.2186,21.75 -2.10547,1.53956 -17.09476,1.82955 -19.39397,0.37521 z m 2.18527,-37.00975 c 3.46397,-2.72477 6.75723,-10.91316 7.3664,-18.31589 0.57769,-7.02018 -0.64831,-10.33347 -4.656,-12.58292 -2.22795,-1.25052 -2.96227,-1.21956 -6.07176,0.25599 -4.19545,1.99087 -7.08329,6.7368 -9.27969,15.25045 -1.98047,7.67664 -1.99281,10.66666 -0.0595,14.40532 1.3339,2.57947 2.07116,2.95034 5.86514,2.95034 2.79822,0 5.22594,-0.6973 6.83539,-1.96329 z m -281.09324,15.83777 c -7.36937,-1.2244 -11.59189,-3.42442 -15.63236,-8.1448 -5.21891,-6.09712 -7.02112,-12.4384 -6.88614,-24.22968 0.19125,-16.70635 4.83166,-29.35617 14.74985,-40.20825 8.04907,-8.80696 15.31186,-12.19363 30.65454,-14.29433 13.82056,-1.8923 31.50368,2.41169 37.60797,9.15359 4.31128,4.76161 5.6345,15.79732 2.1586,18.00276 -1.80763,1.14694 -20.5372,1.04945 -22.71907,-0.11825 -0.99118,-0.53047 -2.0753,-2.33021 -2.40914,-3.99943 -1.38365,-6.91824 -13.30846,-9.26887 -20.61776,-4.06419 -6.96179,4.95723 -12.54381,17.86276 -13.71404,31.70665 -1.08645,12.8527 3.15953,19.32145 12.6823,19.32145 4.03097,0 10.42858,-3.32177 12.69131,-6.58959 4.40655,-6.3639 4.52031,-6.41041 15.67853,-6.41041 12.7395,0 13.68328,0.65537 11.01292,7.6476 -2.36385,6.18965 -10.84457,14.47778 -18.73324,18.30782 -9.56248,4.64269 -23.29818,6.11653 -36.52427,3.91906 z m 62.25468,-2.30666 c -0.30227,-0.7877 0.64076,-7.2002 2.09561,-14.25 1.45485,-7.0498 5.09385,-24.69981 8.08667,-39.22223 2.99281,-14.52243 5.94401,-27.00993 6.55822,-27.75 0.84697,-1.02054 4.82586,-1.34559 16.47124,-1.34559 14.8319,0 15.40328,0.0766 16.78759,2.25 0.7882,1.2375 3.53819,11.025 6.11108,21.75 6.60964,27.55197 7.46186,30.44008 8.63579,29.26615 0.76998,-0.76998 7.24787,-27.98083 11.41422,-47.94622 C 352.4707,261.8986 354.56537,261 363.94898,261 c 10.58708,0 11.6113,0.72349 10.12225,7.15012 -1.63902,7.07385 -7.71934,34.94347 -12.05617,55.2604 -2.22014,10.40079 -4.53687,19.51329 -5.14828,20.25 -1.5405,1.8562 -31.1684,1.93759 -32.56965,0.0895 -0.52127,-0.6875 -3.5386,-12.05 -6.70518,-25.25 -6.69661,-27.91509 -7.43136,-30.5 -8.6695,-30.5 -0.50735,0 -0.92573,0.3375 -0.92974,0.75 -0.0374,3.85473 -11.29684,54.82505 -12.24372,55.42629 -0.68694,0.4362 -5.42561,0.79998 -10.53037,0.8084 -7.14274,0.0118 -9.40803,-0.3147 -9.83097,-1.41687 z m 96.89697,-0.2685 c -0.35894,-0.93538 0.12941,-5.54788 1.08522,-10.25 9.26279,-45.5686 14.83106,-70.56854 15.87633,-71.28013 0.6896,-0.46946 12.05383,-0.68023 25.25383,-0.46836 21.53903,0.34571 24.60809,0.60723 29.93028,2.55036 7.11677,2.59832 9.26611,4.37252 11.68899,9.64881 4.60533,10.02899 -0.0189,26.74527 -9.37211,33.87928 -1.83235,1.3976 -6.01256,3.77084 -9.28935,5.27385 -5.3894,2.47204 -7.3156,2.77403 -20.18944,3.16522 -8.81783,0.26794 -14.5817,0.86025 -15.15188,1.55705 -0.50615,0.61853 -2.12771,6.5246 -3.60348,13.1246 -1.47576,6.6 -3.15001,12.5625 -3.72055,13.25 -0.7083,0.8535 -4.33906,1.25 -11.44629,1.25 -8.87579,0 -10.50506,-0.2505 -11.06155,-1.70068 z m 51.29849,-45.90578 c 6.53048,-3.09892 9.59378,-12.11351 5.40463,-15.90463 -2.65805,-2.4055 -16.97194,-3.4458 -18.64036,-1.35474 -1.46055,1.83053 -4.64376,16.57726 -3.85414,17.85489 1.00733,1.62989 13.30309,1.20142 17.08987,-0.59552 z M 302.14515,237.6749 c -0.69116,-0.8328 -1.20105,-8.35607 -1.37244,-20.25 L 300.5,198.5 l -8.2972,-0.2912 c -6.05707,-0.21259 -8.4449,-0.67613 -8.84429,-1.71693 -0.30091,-0.78414 3.79761,-11.57972 9.10781,-23.99018 5.58951,-13.0632 10.04437,-24.97241 10.57981,-28.28308 2.99885,-18.54193 9.00045,-31.2665 19.94182,-42.28059 C 335.6537,89.188082 350.75569,82.863732 369,82.66928 c 17.26555,-0.184021 32.01857,5.648333 44.70868,17.67481 9.12024,8.64329 13.87022,15.7926 17.68077,26.61174 2.73973,7.77882 3.01297,9.70865 3.05032,21.54417 0.0452,14.3284 -0.87381,18.30499 -7.11866,30.80249 l -3.39912,6.80249 3.66151,13.69751 c 2.01383,7.53363 5.01274,18.73861 6.66424,24.89996 1.6515,6.16135 2.7355,11.89885 2.40888,12.75 -0.45606,1.18848 -2.16731,1.544 -7.37524,1.53224 -3.72976,-0.008 -7.35389,-0.37867 -8.05362,-0.82276 -1.26806,-0.8048 -5.24598,-13.30375 -13.22122,-41.54217 l -4.20256,-14.88025 2.12947,-2.61975 c 3.67308,-4.51877 8.99927,-16.36855 10.16704,-22.61976 5.40542,-28.93583 -17.33794,-55.5292 -47.45583,-55.48918 -24.79138,0.0329 -42.6391,16.45129 -46.1611,42.46418 -0.37047,2.73625 -3.59064,12.12894 -7.15592,20.87265 -3.56528,8.74371 -6.11003,16.26239 -5.65499,16.70818 0.45504,0.44578 2.62735,0.95309 4.82735,1.12734 l 4,0.31683 0.27379,17.9262 c 0.17035,11.15322 0.68889,18.42637 1.37245,19.25 C 321.0169,220.72529 328.04202,221 354,221 c 24.9962,0 32.99549,0.2961 33.7699,1.25 1.43822,1.77157 4.97384,14.01877 4.47719,15.50874 -0.62652,1.87956 -88.54035,1.79776 -90.10194,-0.0838 z m 96.32711,0.0751 c -0.73909,-1.98693 -9.24259,-31.87124 -13.58713,-47.75 -2.18202,-7.975 -4.15978,-15.06271 -4.39501,-15.75047 -0.23524,-0.68776 2.23148,-3.90141 5.48159,-7.14146 7.01177,-6.99002 9.6629,-13.85846 8.52965,-22.0982 -0.97167,-7.06483 -5.96557,-14.7997 -11.92745,-18.47396 -4.41964,-2.72379 -5.75618,-3.03591 -13,-3.03591 -7.02368,0 -8.68762,0.36076 -12.79201,2.77346 -5.49248,3.22867 -10.08384,9.39997 -11.71738,15.74951 -0.63349,2.46237 -2.35616,8.20435 -3.82815,12.75995 -2.20785,6.833 -2.46278,8.62489 -1.45636,10.23643 0.82183,1.31596 1.21999,6.95133 1.21999,17.26708 0,10.57722 0.37115,15.68472 1.2,16.51357 0.84991,0.84991 6.79526,1.2 20.37868,1.2 h 19.17868 l 1.07454,2.75 c 1.90925,4.88618 3.31583,11.42263 2.76625,12.85481 -0.44178,1.15128 -5.85421,1.39519 -30.95978,1.39519 -26.82058,0 -30.49629,-0.18737 -31.03138,-1.58179 -0.33385,-0.86998 -0.60699,-9.41998 -0.60699,-19 L 323,179 h -2.30887 c -1.26988,0 -3.10324,-0.58086 -4.07414,-1.2908 -1.65223,-1.20813 -1.43123,-2.18466 3.45123,-15.25 2.86907,-7.67756 5.77582,-17.14045 6.45943,-21.02865 2.58924,-14.7269 11.10599,-26.21686 24.16622,-32.60268 C 357.20374,105.64485 358.00057,105.5 369,105.5 c 10.86453,0 11.87346,0.17691 18.25853,3.20145 25.60149,12.12719 33.64433,43.85255 16.74939,66.06884 -2.20435,2.89865 -4.00792,5.76134 -4.00792,6.36153 0,0.60018 3.62404,13.42013 8.05342,28.48877 4.42938,15.06864 7.77782,27.84345 7.44098,28.38847 -0.93114,1.50661 -16.45322,1.27038 -17.02214,-0.25906 z m -34.81707,-73.16218 c -7.95897,-2.93396 -12.4754,-10.63263 -11.20551,-19.10086 0.99663,-6.64599 7.26138,-13.03428 13.72534,-13.996 8.65784,-1.28813 16.34871,3.07661 19.37252,10.99434 5.08956,13.32682 -8.4946,27.04139 -21.89235,22.10252 z"
       id="path22"
       inkscape:connector-curvature="0" />
    <path
       style="fill:#72a6c5"
       d="m 491.56322,366.10229 c -0.30515,-0.49373 0.60178,-6.38525 2.01538,-13.09226 1.41361,-6.70701 2.29014,-12.47463 1.94784,-12.81693 -0.3423,-0.3423 -1.38828,-0.0646 -2.3244,0.61717 -5.43933,3.96127 -10.50419,5.39307 -17.77813,5.02575 -8.83452,-0.44612 -11.82597,-2.26691 -15.42391,-9.38799 -6.88682,-13.63048 1.04056,-40.17136 14.29282,-47.8524 2.31395,-1.34117 6.97479,-2.97356 10.35741,-3.62754 7.40833,-1.43228 11.72573,-0.33291 17.04948,4.34141 l 3.52818,3.09777 1.96946,-2.70363 C 509.09515,287.09838 509.50733,287 518.52439,287 c 5.14667,0 9.61179,0.41133 9.92251,0.91407 0.49494,0.80084 -2.92213,18.2247 -9.33228,47.58593 -1.08068,4.95 -2.9434,13.5 -4.13936,19 -1.19596,5.5 -2.63475,10.5625 -3.19731,11.25 -1.20072,1.46738 -19.3303,1.78334 -20.21473,0.35229 z m 1.17297,-34.78139 c 2.6179,-1.24228 4.15501,-3.02586 5.90843,-6.85582 C 505.01505,310.55022 503.04005,298 494.47987,298 c -5.90824,0 -10.41038,5.31731 -13.12378,15.5 -3.98958,14.97189 0.98096,22.75561 11.3801,17.8209 z M 210.6135,344.94216 c -16.54269,-4.11864 -23.1563,-20.87468 -18.03169,-45.68452 3.03687,-14.7024 13.10084,-29.0227 24.43164,-34.76446 9.88673,-5.00998 26.48765,-6.72998 39.11762,-4.05293 15.00297,3.18004 21.28504,9.21873 20.66916,19.86836 L 276.5,285.5 265.14313,285.78375 C 253.24437,286.08104 251,285.45359 251,281.82981 c 0,-5.29229 -10.5562,-9.29556 -17.19594,-6.5213 -10.82673,4.5237 -18.4694,21.70373 -17.65295,39.68225 0.35333,7.78055 0.53633,8.34077 3.62628,11.10164 2.71702,2.42766 4.12072,2.9076 8.50399,2.9076 6.66461,0 11.37558,-2.46004 15.03472,-7.85105 L 246.13219,317 h 11.43391 c 12.77792,0 12.95149,0.12366 10.02033,7.13889 -2.72109,6.51251 -9.22358,12.58443 -18.28561,17.07485 l -8.54895,4.23617 -13.12594,0.22994 c -7.21926,0.12646 -14.87486,-0.2055 -17.01243,-0.73769 z m 65.02881,-1.71189 c -0.28483,-0.46087 -0.0659,-2.83871 0.48662,-5.2841 1.38661,-6.13761 12.74438,-61.18581 14.01893,-67.94617 0.57031,-3.025 1.50045,-6.0625 2.06698,-6.75 0.74489,-0.90396 5.41137,-1.25 16.8565,-1.25 h 15.82646 l 1.57488,5.25 c 0.86618,2.8875 3.82542,14.64755 6.57609,26.13345 2.75067,11.4859 5.40283,21.6011 5.89369,22.47821 0.75652,1.35183 1.04759,1.21726 1.91085,-0.88346 0.56011,-1.36301 3.11938,-11.9282 5.68727,-23.4782 2.56789,-11.55 5.18426,-22.8 5.81415,-25 l 1.14527,-4 10.25,-0.28498 c 12.13212,-0.33732 11.49006,-1.58551 7.80048,15.16457 -5.02226,22.80025 -9.5095,43.42034 -11.5598,53.12041 -1.16254,5.5 -2.34134,10.7875 -2.61958,11.75 -0.45454,1.5724 -2.12497,1.75 -16.45993,1.75 -15.60775,0 -15.97387,-0.0488 -16.86705,-2.25 -0.50216,-1.2375 -3.73503,-13.84815 -7.18417,-28.02366 -6.10209,-25.07878 -7.19301,-28.72662 -8.26913,-27.65049 -0.28486,0.28486 -3.12183,13.32183 -6.30438,28.97104 L 296.5,343.5 l -10.16991,0.2841 c -5.59345,0.15625 -10.40295,-0.093 -10.68778,-0.55383 z m 96.88353,-0.18846 c -0.32571,-0.527 0.80456,-7.6145 2.5117,-15.75 1.70714,-8.1355 5.07442,-24.24181 7.48284,-35.79181 2.40842,-11.55 4.75901,-22.8 5.22354,-25 l 0.8446,-4 24.18465,-0.26773 c 22.32333,-0.24713 24.6673,-0.10612 30.45574,1.8321 10.35619,3.4677 13.77109,7.98197 13.77109,18.20447 0,22.25674 -15.1483,33.66372 -44.77144,33.7138 -12.01909,0.0203 -10.92928,-1.08972 -14.25289,14.51736 -1.17125,5.5 -2.35025,10.7875 -2.62,11.75 -0.42859,1.5293 -1.86174,1.75 -11.36404,1.75 -5.98048,0 -11.14008,-0.43119 -11.46579,-0.95819 z m 54.52695,-47.85931 c 4.35317,-4.35317 5.70008,-8.23471 4.08642,-11.77632 -1.56004,-3.42391 -5.26725,-4.5303 -14.057,-4.19522 L 409.5,279.5 407.81822,286 c -0.92497,3.575 -1.71247,7.9625 -1.75,9.75 L 406,299 h 8.61765 8.61764 z M 303.25,238.33772 c -0.93655,-0.37791 -1.25384,-5.18517 -1.26531,-19.17105 -0.008,-10.26667 -0.3609,-19.21043 -0.78328,-19.87502 -0.46457,-0.73098 -3.61938,-1.2803 -7.98569,-1.39049 -11.05021,-0.27887 -11.15792,-0.52557 -5.64104,-12.92066 9.69241,-21.77648 15.17512,-35.62952 15.82335,-39.9805 4.51219,-30.28641 20.96391,-50.97729 47.10197,-59.238834 10.68912,-3.378546 28.07454,-3.145566 39.07841,0.523684 18.97357,6.326752 33.95727,20.86614 40.92882,39.71515 2.27007,6.13759 2.86255,9.65955 3.26156,19.38828 0.58225,14.19665 -0.48282,19.91278 -5.86934,31.50014 -2.1447,4.61364 -3.89945,9.24373 -3.89945,10.2891 0,1.04537 2.07177,9.42058 4.60394,18.61158 7.58511,27.53163 8.33311,30.67385 7.50019,31.50677 -0.43886,0.43886 -4.11233,0.66432 -8.16326,0.50103 l -7.36532,-0.2969 -1.8441,-6 C 414.17648,216.67982 405,183.97793 405,182.56571 c 0,-0.85859 1.54395,-3.71014 3.43099,-6.33677 1.88705,-2.62663 4.60388,-8.26967 6.03742,-12.54009 5.96619,-17.77298 2.24395,-34.87173 -10.47458,-48.11676 -12.31732,-12.82721 -30.21519,-18.270121 -46.30053,-14.08042 -12.033,3.1342 -22.2549,10.47496 -28.80933,20.68914 C 325.47471,127.49368 322,138.3534 322,143.69568 c 0,1.78143 -3.13406,10.79116 -6.96458,20.02164 -6.31633,15.22057 -6.81047,16.89903 -5.30887,18.03268 0.91064,0.6875 3.1447,1.25 4.96458,1.25 1.81988,0 3.39559,0.1125 3.50159,0.25 0.10599,0.1375 0.44349,8.575 0.75,18.75 l 0.55728,18.5 33.66796,0.5 c 18.51738,0.275 33.94864,0.78126 34.29169,1.12502 0.34304,0.34376 1.54788,3.89068 2.6774,7.88204 1.68974,5.97098 1.81526,7.40813 0.70832,8.10967 -1.40482,0.89032 -85.41136,1.10226 -87.59537,0.22099 z M 399.13488,237.25 c -0.51452,-0.9625 -1.6324,-4.225 -2.48418,-7.25 -0.85178,-3.025 -4.72164,-16.65576 -8.59969,-30.29058 C 384.17295,186.0746 381,174.39326 381,173.75088 c 0,-0.64238 2.2805,-3.3431 5.06778,-6.0016 6.43549,-6.13816 8.8883,-11.45018 8.8883,-19.24928 0,-14.66561 -10.78719,-25.80994 -24.9545,-25.7807 -13.42922,0.0277 -23.33235,8.13905 -26.07206,21.35476 -0.61866,2.98427 -2.26745,8.69748 -3.66398,12.69603 -2.34455,6.71293 -2.41573,7.40647 -0.92875,9.04956 1.31128,1.44895 1.66173,4.74207 1.8868,17.72991 L 341.5,199.5 361.16944,200 c 10.8182,0.275 19.98553,0.81734 20.37186,1.20519 0.38633,0.38785 1.51199,3.62479 2.50148,7.19318 1.46029,5.26626 1.55581,6.68989 0.50723,7.56012 -0.87104,0.7229 -10.86151,0.98571 -30.67092,0.80682 L 324.5,216.5 324.22621,198.5738 c -0.17035,-11.15322 -0.68889,-18.42637 -1.37245,-19.25 C 322.2495,178.59571 320.67109,178 319.34617,178 c -1.32492,0 -2.64267,-0.60908 -2.92833,-1.35351 -0.28567,-0.74444 1.72741,-7.38545 4.4735,-14.75782 2.7461,-7.37237 5.47901,-16.44725 6.07315,-20.1664 4.61021,-28.85873 34.55401,-44.751062 60.66,-32.19459 18.05675,8.68495 27.84619,27.75083 23.91917,46.58492 -1.76769,8.47789 -4.50154,14.45083 -9.17394,20.04333 -1.91231,2.2889 -3.21805,4.81461 -2.95766,5.72109 0.25641,0.89264 3.93238,13.39473 8.16881,27.78243 4.23643,14.38769 7.42795,26.87519 7.09225,27.75 -0.9312,2.42666 -14.22874,2.29021 -15.53824,-0.15945 z M 363.00051,163.93099 C 356.85429,161.34628 353,155.40282 353,148.50982 353,138.60374 359.72472,132 369.81228,132 c 15.5246,0 22.13141,20.07653 9.72169,29.54189 -4.08744,3.11764 -12.06118,4.26985 -16.53346,2.3891 z"
       id="path20"
       inkscape:connector-curvature="0" />
    <path
       style="fill:#5590b5"
       d="m 493.08893,366.12965 c -1.19777,-0.80366 -1.03024,-2.85443 1.10829,-13.56678 1.38564,-6.941 2.12074,-12.86636 1.63356,-13.16745 -0.48719,-0.3011 -2.94433,0.81607 -5.46033,2.48259 -7.0416,4.66416 -17.18309,5.33872 -24.37216,1.6211 C 461.43262,341.13812 458,332.99018 458,324.51375 458,301.63337 471.36405,285 489.74724,285 c 4.95277,0 7.26526,1.00062 12.17679,5.2689 3.27001,2.84175 3.48213,2.89138 4.71589,1.10335 C 509.53371,287.1784 510.02054,287 518.57081,287 c 6.66451,0 8.61711,0.32613 9.07351,1.5155 0.56552,1.47371 -0.37718,6.86865 -4.62785,26.4845 -2.54159,11.72883 -5.1925,24.0397 -8.35384,38.79534 -1.33099,6.21244 -2.73682,11.61244 -3.12407,12 -1.10395,1.10484 -16.87531,1.39062 -18.44963,0.33431 z m 1.70127,-35.60657 c 4.01119,-3.37519 7.23863,-11.34218 7.84309,-19.36081 0.41352,-5.4856 0.15383,-7.21291 -1.47039,-9.77998 -2.44991,-3.8721 -6.05,-4.87413 -10.63258,-2.9594 -5.52744,2.30951 -9.83831,11.2644 -11.10929,23.07711 -0.42492,3.94931 -0.10849,5.68295 1.5058,8.25 1.80572,2.87144 2.5607,3.25 6.48175,3.25 3.26385,0 5.21675,-0.6553 7.38162,-2.47692 z M 212,344.61282 c -7.76427,-1.72165 -11.44863,-3.95109 -14.95732,-9.05079 -4.4691,-6.49561 -6.43665,-15.26329 -5.62417,-25.06203 1.26108,-15.20891 4.79366,-24.6667 12.95576,-34.68653 7.97843,-9.79437 16.1924,-13.88068 31.94973,-15.89447 9.98767,-1.27642 23.62639,0.85533 31.10087,4.8611 7.51796,4.02908 11.67763,13.42282 8.53995,19.28564 C 275.04856,285.77778 273.79421,286 265.0466,286 253.84815,286 252,285.56211 252,282.90879 c 0,-3.14943 -5.1182,-7.91758 -9.19412,-8.56529 -12.48598,-1.98419 -22.26861,8.18959 -26.33738,27.39044 -2.8036,13.23036 -1.2663,22.09662 4.51083,26.01606 6.75172,4.58064 15.23714,2.40992 22.01887,-5.63282 L 247.31307,317 h 10.28445 c 5.65645,0 10.51667,0.37575 10.8005,0.835 1.1815,1.91171 -2.14602,8.82226 -6.58864,13.68319 C 250.78761,343.57776 230.90498,348.8048 212,344.61282 Z m 64.42981,-1.93514 c -0.27908,-0.72727 1.79929,-12.31477 4.61861,-25.75 2.81932,-13.43522 5.48751,-26.45268 5.92931,-28.92768 2.29921,-12.88035 5.20016,-24.49431 6.29134,-25.18746 0.67701,-0.43005 7.8526,-0.78881 15.94575,-0.79723 13.01436,-0.0135 14.81869,0.18692 15.61372,1.73469 0.49441,0.9625 3.03388,10.525 5.64328,21.25 7.29338,29.97684 7.94693,32.31303 9.15086,32.71083 1.30997,0.43284 1.43477,0.0234 5.39874,-17.71083 1.65964,-7.425 3.44218,-15.075 3.96121,-17 0.51903,-1.925 1.64568,-6.84144 2.50368,-10.92543 0.858,-4.08399 2.05467,-8.02149 2.65929,-8.75 1.29805,-1.56406 18.38296,-1.8964 19.3227,-0.37587 0.32248,0.52179 0.13344,2.88429 -0.42009,5.25 -1.46141,6.24589 -9.46888,42.91823 -13.05656,59.79603 -1.69461,7.9721 -3.43312,14.84674 -3.86336,15.27698 -0.43023,0.43023 -7.67178,0.65761 -16.09232,0.50527 L 324.7259,343.5 l -1.23559,-5 c -0.67958,-2.75 -3.81938,-15.575 -6.97734,-28.5 -5.51404,-22.568 -6.69415,-26.15216 -8.13605,-24.71025 -0.36103,0.36102 -3.22071,13.19367 -6.35485,28.517 -3.13414,15.32332 -6.02281,28.38543 -6.41927,29.02692 -1.06934,1.73022 -18.50361,1.58839 -19.17299,-0.15599 z M 373,341.69014 c 0,-1.27042 1.77806,-10.83292 3.95125,-21.25 2.17319,-10.41708 5.56697,-26.81514 7.54174,-36.44014 1.97478,-9.625 4.01207,-18.5125 4.52732,-19.75 0.93095,-2.23593 1.07323,-2.25 22.74815,-2.25 29.61775,0 38.51717,2.28168 42.98154,11.01983 2.83012,5.53943 2.89341,11.6864 0.20976,20.37503 -2.59105,8.38886 -7.28281,13.45752 -16.41057,17.72892 -6.43187,3.00983 -7.68976,3.22988 -21.6414,3.7859 -8.14693,0.32467 -15.21516,1.04032 -15.70717,1.59032 -0.49201,0.55 -1.93783,5.95 -3.21292,12 -3.58535,17.01155 -2.17493,15.5 -14.46295,15.5 C 373.19605,344 373,343.95697 373,341.69014 Z m 50.98007,-43.44169 c 7.3501,-3.69283 10.31074,-12.74772 5.6115,-17.16242 -3.17479,-2.98256 -17.25073,-4.28402 -19.71217,-1.82258 -0.83695,0.83696 -2.34396,5.43977 -3.3489,10.22846 -1.5512,7.39173 -1.61596,8.84043 -0.42883,9.59209 2.50799,1.58798 14.13634,1.04452 17.8784,-0.83555 z M 302.66667,237.33333 C 302.3,236.96667 302,228.01481 302,217.44032 302,200.8309 301.7847,198.13136 300.41821,197.60699 299.54823,197.27314 295.49823,197 291.41821,197 286.29769,197 284,196.62673 284,195.79489 c 0,-0.66281 4.28577,-11.15902 9.52393,-23.32491 5.23816,-12.16589 9.92147,-24.56109 10.40735,-27.54489 4.40972,-27.07996 15.92216,-44.25034 36.70232,-54.74013 18.07222,-9.122831 41.32992,-8.686994 59.81669,1.120933 8.55098,4.536618 21.16986,17.377627 25.74099,26.194107 5.87787,11.33682 7.25012,17.28933 7.26176,31.5 0.0113,13.79079 -0.97975,17.99088 -7.1663,30.37074 l -3.43349,6.87074 4.22738,15.62926 c 8.01812,29.64422 8.96977,33.55553 8.47682,34.84015 -0.66604,1.73565 -12.92786,1.76915 -14.31429,0.0391 -0.55094,-0.6875 -1.75583,-3.95 -2.67751,-7.25 -0.92169,-3.3 -2.54839,-8.925 -3.61489,-12.5 -1.0665,-3.575 -3.77458,-12.91994 -6.01795,-20.76654 l -4.07887,-14.26654 3.57538,-4.87063 c 1.96645,-2.67885 4.69641,-7.84896 6.06657,-11.48915 12.16995,-32.33257 -11.15239,-65.642968 -45.92739,-65.59632 -16.44577,0.0221 -30.29403,7.33585 -39.14861,20.67584 -4.54895,6.85327 -6.03583,10.9217 -7.50727,20.54144 -0.71713,4.6884 -3.42001,12.87812 -7.60791,23.05198 -3.57258,8.67904 -6.25216,16.41447 -5.95463,17.18984 0.32002,0.83394 2.29916,1.53645 4.84545,1.71992 L 317.5,183.5 l 0.27399,17.97399 c 0.16089,10.55462 0.69697,18.3975 1.2987,19 0.6392,0.64 13.68196,1.21412 34.66725,1.52601 l 33.64252,0.5 1.79518,6 c 3.16128,10.56584 7.87467,9.5 -42.01097,9.5 -24.10834,0 -44.13334,-0.3 -44.5,-0.66667 z m 96.8535,-0.3007 c -0.47869,-0.77454 -12.93952,-44.09585 -17.34135,-60.28896 -1.00252,-3.68797 -0.9297,-3.84268 4.00048,-8.5 7.19757,-6.79922 9.2613,-11.19879 9.2613,-19.74367 0,-5.3767 -0.5404,-8.04355 -2.33032,-11.5 -5.42917,-10.48409 -11.90658,-14.45737 -23.61028,-14.48269 -6.94373,-0.015 -8.61744,0.34565 -12.67638,2.7317 -6.29618,3.70121 -10.55687,9.11526 -12.39553,15.75099 -0.83818,3.025 -2.62739,8.89284 -3.97603,13.03964 C 337.84616,162.05232 337.36689,166 339,166 c 0.62596,0 1,6.12585 1,16.37756 0,12.38092 0.32351,16.64604 1.32571,17.47779 0.83701,0.69466 8.4848,1.20059 20.74643,1.37245 l 19.42072,0.2722 1.18213,3.61072 c 0.65017,1.9859 1.49061,5.25507 1.86764,7.26483 l 0.68552,3.65412 -30.36408,-0.26484 L 324.5,215.5 324,197.00844 l -0.5,-18.49157 -3,-0.51486 c -2.03772,-0.34972 -3.09373,-1.16759 -3.29221,-2.54978 -0.16071,-1.1192 1.76638,-7.41631 4.28243,-13.99357 2.51605,-6.57726 5.18495,-15.36813 5.93088,-19.53525 1.90625,-10.6492 5.47752,-17.56843 12.54916,-24.31364 8.57899,-8.18296 15.03107,-10.84585 27.59338,-11.38828 9.57394,-0.41339 10.44359,-0.27636 17.87164,2.81595 26.82732,11.16824 34.89122,44.00806 16.44321,66.96414 -3.84179,4.78059 -4.26893,2.18372 6.0708,36.90868 3.83386,12.87564 6.73711,23.78814 6.45167,24.25 -0.72418,1.17174 -14.1489,1.0566 -14.88079,-0.12763 z m -34.15549,-72.98524 c -4.85935,-1.15912 -8.98056,-4.63012 -10.75094,-9.05473 -2.1809,-5.4506 -2.03174,-8.73997 0.63626,-14.03077 C 357.76116,135.9821 364.09297,132 369.5,132 c 9.30009,0 17.41927,9.38421 16.04545,18.54546 -0.93411,6.22914 -5.96253,11.81853 -12.00006,13.33879 -2.43707,0.61366 -4.56926,1.06969 -4.73821,1.01339 -0.16895,-0.0563 -1.71807,-0.43891 -3.4425,-0.85025 z"
       id="path18"
       inkscape:connector-curvature="0" />
    <path
       style="fill:#0b649c"
       d="m 493.43565,361.75 c 0.37711,-1.7875 1.10369,-5.725 1.61463,-8.75 0.51093,-3.025 1.38363,-7.07203 1.93934,-8.9934 2.22532,-7.69408 0.42297,-8.97793 -5.79826,-4.1302 -6.43528,5.01452 -13.48178,6.3153 -21.38457,3.94757 C 461.97337,341.47702 458.4051,333.73504 459.28725,321 c 0.87005,-12.56039 6.86028,-25.05823 14.57189,-30.40238 4.49276,-3.11349 14.1756,-5.18889 19.52595,-4.18515 2.1227,0.39822 5.37914,2.18661 7.54578,4.14404 4.47383,4.04184 5.58633,4.22667 7.18365,1.19349 1.75887,-3.33994 2.76734,-3.71937 9.88548,-3.71937 9.5058,0 9.61504,0.14711 7.50943,10.11332 -0.97099,4.59583 -2.56582,12.18105 -3.54407,16.85605 -0.97825,4.675 -2.70435,12.775 -3.83577,18 -1.13142,5.225 -2.76975,12.875 -3.64073,17 -0.87098,4.125 -2.02963,9.1875 -2.57478,11.25 L 510.92291,365 H 501.83646 492.75 Z m 0.71781,-29.3661 c 3.49993,-1.76142 6.41912,-6.64533 8.30909,-13.90144 2.07967,-7.98437 1.93543,-13.31746 -0.46675,-17.25739 -5.87785,-9.64056 -17.42827,-4.24367 -21.53827,10.06368 -5.2183,18.16543 0.87351,27.54834 13.69593,21.09515 z m -282.3505,11.16334 c -9.13741,-2.00136 -12.2062,-4.50767 -16.58758,-13.54724 -2.35706,-4.86305 -2.66072,-6.65809 -2.62201,-15.5 0.0241,-5.5 0.63958,-12.475 1.36777,-15.5 4.14942,-17.23723 15.31126,-30.63483 29.53886,-35.45562 15.62581,-5.29454 40.09424,-2.67741 47.89442,5.12277 3.18734,3.18734 5.15818,9.85618 3.9399,13.33166 -0.82996,2.36765 -1.32944,2.51694 -9.35554,2.79624 -10.95143,0.3811 -12.33293,-0.0205 -13.51204,-3.92828 -1.36971,-4.53943 -5.36275,-7.11067 -11.8822,-7.65132 -4.61622,-0.38281 -6.20914,-0.0395 -9.92813,2.14002 -9.34667,5.47751 -16.06695,20.95845 -16.12444,37.14453 -0.0367,10.3329 1.66434,14.41621 7.07522,16.98384 6.57734,3.12115 17.12756,0.62438 21.01664,-4.97372 C 247.08161,318.09339 247.29501,318 257.5,318 c 9.25142,0 9.5,0.0603 9.5,2.30422 0,5.60317 -8.43142,14.84308 -18,19.72603 -9.213,4.7015 -24.98195,6.19245 -37.19704,3.51699 z m 65.76661,-1.43468 c -0.30166,-0.48808 0.8027,-7.35058 2.45413,-15.25 1.65143,-7.89941 4.12022,-19.98756 5.48619,-26.86256 1.36597,-6.875 3.15183,-15.425 3.96858,-19 0.81674,-3.575 1.77744,-8.3 2.13488,-10.5 1.25188,-7.70504 0.7926,-7.5 16.79939,-7.5 10.29135,0 14.61558,0.35306 15.30964,1.25 1.10115,1.42301 1.55819,3.13362 7.81488,29.25 6.35097,26.50991 6.34797,26.5 8.02603,26.5 2.08302,0 2.49569,-1.39078 8.89406,-29.97473 3.13632,-14.0111 5.91801,-25.8236 6.18154,-26.25 0.6157,-0.99622 17.09615,-1.01976 17.6938,-0.0253 0.2479,0.4125 -0.18263,3.675 -0.95675,7.25 -0.77411,3.575 -2.28368,10.55 -3.3546,15.5 -1.07092,4.95 -2.596,11.925 -3.38907,15.5 -0.79307,3.575 -2.88632,13.2438 -4.65167,21.48622 -4.70331,21.95978 -2.31568,19.61702 -19.65998,19.2906 L 325.61214,342.5 318.8258,315 c -3.73248,-15.125 -7.02879,-28.5125 -7.32512,-29.75 -0.334,-1.3948 -1.29172,-2.25 -2.51973,-2.25 -1.08952,0 -1.98095,0.23394 -1.98095,0.51986 0,0.28593 -1.5888,8.27343 -3.53067,17.75 -1.94186,9.47658 -4.41462,21.73014 -5.49502,27.23014 -1.0804,5.5 -2.20017,11.0125 -2.48839,12.25 -0.49229,2.11375 -1.03403,2.25 -8.94596,2.25 -4.63206,0 -8.66874,-0.39935 -8.97039,-0.88744 z M 374,341.1593 c 0,-1.01239 0.94262,-6.29989 2.09471,-11.75 5.16045,-24.41224 8.16948,-38.80104 10.53975,-50.39971 1.40387,-6.86972 2.97626,-13.28222 3.4942,-14.25 C 390.98214,263.16486 393.0618,263 412.32508,263 c 27.21082,0 35.52811,1.8881 41.07039,9.32333 1.68957,2.26665 2.09932,4.23837 2.07811,10 -0.0381,10.34935 -2.46202,16.58186 -8.59265,22.09381 -7.66457,6.89111 -13.65391,8.71535 -31.0501,9.45725 -8.06804,0.34409 -14.96185,0.91942 -15.31958,1.27852 -0.70301,0.70572 -2.52928,7.77843 -4.47925,17.34709 -2.24129,10.99822 -1.64767,10.5 -12.51056,10.5 C 374.94133,343 374,342.81802 374,341.1593 Z m 50.43428,-42.14446 c 9.00334,-4.39605 11.666,-16.21489 4.51522,-20.04187 -1.10257,-0.59007 -5.78253,-1.31254 -10.39992,-1.60549 -8.04836,-0.51062 -8.46059,-0.43293 -9.97611,1.88004 -0.86946,1.32697 -2.31648,6.08044 -3.21561,10.56328 -2.11344,10.53715 -1.65022,11.1892 7.94886,11.1892 5.0122,0 8.24187,-0.57617 11.12756,-1.98516 z M 303.66667,236.33333 C 303.3,235.96667 303,227.28167 303,217.03333 c 0,-13.15926 -0.35253,-18.98586 -1.2,-19.83333 -0.72821,-0.72821 -4.26667,-1.2 -9,-1.2 -4.29,0 -7.8,-0.13967 -7.8,-0.31039 0,-0.67097 5.10915,-12.95511 11.78144,-28.32657 3.85251,-8.87533 7.31691,-18.10033 7.69867,-20.5 4.25444,-26.74299 15.59749,-44.76049 34.44754,-54.717075 7.87007,-4.156968 13.64498,-5.912344 23.46535,-7.132669 29.38223,-3.651172 57.26335,14.24765 67.44361,43.296724 2.18279,6.22853 2.52502,8.92835 2.55929,20.18998 0.0443,14.5398 -1.02349,19.09945 -7.18294,30.67385 l -3.55157,6.67386 4.34386,15.82614 c 4.86675,17.73124 8.93135,33.42038 8.96949,34.62184 0.0139,0.43763 -2.9543,0.66263 -6.59598,0.5 l -6.62123,-0.29569 -1.78767,-6 c -0.98321,-3.3 -4.52118,-15.42793 -7.86214,-26.95094 l -6.07448,-20.95095 3.51626,-5.10546 c 4.42064,-6.41858 8.34737,-17.58245 9.12919,-25.95469 1.97042,-21.1008 -11.41604,-41.68377 -32.15654,-49.44379 -16.28208,-6.091907 -30.84597,-4.350874 -45.58835,5.44984 -11.23263,7.46744 -18.45594,19.93697 -20.45413,35.30979 -0.38274,2.94458 -3.5906,12.38089 -7.12856,20.96956 -3.53797,8.58868 -6.30182,16.52947 -6.14189,17.64621 0.22987,1.60508 1.23347,2.13517 4.79078,2.53043 l 4.5,0.5 0.5,18.16972 c 0.275,9.99335 0.87434,18.54335 1.33187,19 0.45752,0.45665 15.98252,1.05528 34.5,1.33028 l 33.66813,0.5 1.66983,5 c 3.13694,9.393 7.44466,8.5 -41.00316,8.5 -23.55834,0 -43.13334,-0.3 -43.5,-0.66667 z M 398.52931,230.75 c -0.98304,-3.4375 -2.6432,-9.175 -3.68926,-12.75 C 387.5343,193.03181 383,176.3414 383,174.41769 c 0,-1.41027 1.41821,-3.37288 3.80104,-5.26011 2.09057,-1.65576 5.12503,-5.40608 6.74324,-8.33403 2.50018,-4.52376 2.93211,-6.3752 2.87499,-12.32355 -0.14029,-14.60831 -9.59106,-25.71246 -23.08429,-27.12278 -9.09375,-0.95048 -15.31414,0.89943 -21.38856,6.36087 -5.86721,5.27512 -8.3626,9.68317 -9.7899,17.29363 -0.56405,3.00756 -2.19777,8.56323 -3.63049,12.34594 -2.35812,6.22597 -2.45908,7.03884 -1.06549,8.57874 1.24746,1.37842 1.53946,4.66001 1.53946,17.30091 0,12.84833 0.27717,15.877 1.57143,17.17126 1.31981,1.31981 4.65609,1.57143 20.83605,1.57143 h 19.26462 l 1.66395,5.9849 c 0.91517,3.2917 1.66395,6.22349 1.66395,6.51511 0,0.29161 -13.1625,0.4109 -29.25,0.26509 L 325.5,214.5 325,196.06213 l -0.5,-18.43787 -3.25,-0.84072 c -1.7875,-0.4624 -3.25,-1.2891 -3.25,-1.83711 0,-0.97863 0.85206,-3.43471 6.74633,-19.44643 1.61974,-4.4 3.26319,-10.42479 3.65213,-13.38841 0.8853,-6.74595 5.24849,-16.50095 9.59434,-21.45061 11.17959,-12.73285 30.75008,-17.35844 46.59862,-11.01383 7.51846,3.00985 16.78235,10.90219 20.75636,17.68331 3.01491,5.14456 5.65222,14.87488 5.65222,20.85379 0,9.19345 -4.25202,20.61638 -10.19274,27.38249 -3.12939,3.56418 -3.16182,3.70514 -2.01952,8.77781 0.63853,2.8355 2.78265,10.55545 4.76473,17.15545 6.98419,23.25631 9.4352,32.01793 9.44133,33.75 0.005,1.48335 -0.96009,1.75 -6.33547,1.75 h -6.34168 z m -39.39669,-71.50906 c -2.67452,-2.54421 -4.18425,-4.99923 -4.67149,-7.59646 -2.82919,-15.08089 14.82082,-24.59782 25.60978,-13.80887 4.88355,4.88356 5.87617,10.23492 3.07366,16.57048 -2.68326,6.06595 -6.89257,8.58529 -14.35246,8.59017 -5.23306,0.003 -6.03663,-0.30898 -9.65949,-3.75532 z"
       id="path16"
       inkscape:connector-curvature="0" />
    <path
       style="fill:#0364a3"
       d="m 501.62479,362.5309 c -5.6322,-2.00759 -6.15641,-2.81314 -4.79269,-7.36482 0.64234,-2.14397 1.1679,-5.02831 1.1679,-6.40965 0,-1.38135 0.69501,-3.08834 1.54446,-3.79333 1.80356,-1.49682 1.12479,-6.45109 -1.25361,-9.14997 -1.3341,-1.51387 -1.18051,-2.07794 1.49755,-5.5 1.99742,-2.55232 3.5177,-6.2509 4.59786,-11.1858 2.03802,-9.31104 2.02081,-10.58297 -0.2357,-17.42289 C 502.18942,295.75981 502.50404,295 506.9268,295 c 0.96977,0 2.57771,-0.9 3.5732,-2 1.42519,-1.57482 3.07997,-2 7.78382,-2 h 5.97384 l -0.69374,5.25 c -0.38156,2.8875 -1.5271,8.4 -2.54565,12.25 -1.01854,3.85 -2.17288,9.7 -2.56518,13 -0.3923,3.3 -1.8466,8.25 -3.23178,11 -1.38517,2.75 -2.46519,6.46627 -2.40004,8.25839 0.21433,5.89559 -2.53884,21.44823 -3.95573,22.34587 -1.79362,1.13632 -2.63017,1.07008 -7.24075,-0.57336 z M 213.16932,342.04817 c -1.83187,-0.45572 -4.55649,-2.00298 -6.05471,-3.43837 -1.49823,-1.43539 -3.17773,-2.6098 -3.73224,-2.6098 -0.5545,0 -2.29123,-1.33921 -3.8594,-2.97603 -3.62644,-3.78518 -4.62606,-10.37076 -3.94723,-26.00468 0.48203,-11.10159 0.61284,-11.64673 3.96138,-16.50865 1.90458,-2.76538 3.46288,-5.5632 3.46288,-6.21738 0,-2.38932 10.28127,-13.51278 13.87099,-15.00723 1.99596,-0.83095 3.85401,-1.85633 4.12901,-2.27863 0.275,-0.42229 3.74757,-1.55393 7.71683,-2.51475 5.50051,-1.33148 9.30565,-1.59458 16,-1.10631 4.83074,0.35235 10.02141,0.62736 11.53482,0.61113 3.8238,-0.041 11.96564,4.28362 15.11809,8.03009 2.86786,3.40826 3.10792,4.5859 1.69332,8.30657 -0.79931,2.10236 -1.71735,2.52722 -6.25,2.89246 -6.68452,0.53863 -11.23233,-1.20291 -13.23021,-5.06637 C 252.01501,275.12836 247.13246,272 243.96833,272 c -0.94841,0 -2.34778,-0.93888 -3.1097,-2.08639 -1.23096,-1.85394 -1.69021,-1.94747 -4.12197,-0.83949 -1.50516,0.6858 -2.73666,1.64764 -2.73666,2.13742 0,0.48978 -1.58502,1.55278 -3.52227,2.36221 -7.04274,2.94264 -17.34385,16.12199 -15.97416,20.4375 0.34134,1.07546 -0.14567,4.7754 -1.08224,8.22207 -0.93657,3.44667 -1.86019,8.24986 -2.0525,10.67375 -0.1923,2.4239 -0.57994,4.63738 -0.86142,4.91885 -0.28148,0.28148 0.20583,1.30472 1.08291,2.27388 0.87708,0.96916 2.34056,3.24671 3.25218,5.06122 2.30005,4.57806 7.51249,7.83666 12.55538,7.8491 2.25617,0.006 6.99596,-1.00637 10.53287,-2.24874 5.05588,-1.77593 6.64986,-2.83934 7.45559,-4.97396 1.25106,-3.31444 6.06273,-5.61257 8.52789,-4.07306 1.23048,0.76845 2.19467,0.67918 3.57635,-0.33113 2.20204,-1.61017 5.12873,-1.80822 5.99552,-0.40572 0.66033,1.06844 -5.1713,10.71204 -7.77481,12.85696 C 253.00732,336.06216 246.69773,339 244.6173,339 c -1.0779,0 -2.82863,0.7875 -3.8905,1.75 -1.56467,1.41823 -4.04414,1.78571 -13.07874,1.93837 -6.13143,0.1036 -12.64686,-0.18449 -14.47874,-0.6402 z M 226.5,274 c 0.33992,-0.55 0.14148,-1 -0.44098,-1 -0.58246,0 -1.05902,0.45 -1.05902,1 0,0.55 0.19844,1 0.44098,1 0.24254,0 0.7191,-0.45 1.05902,-1 z m 244.19686,66.9776 c -0.86609,-1.23653 -2.03453,-1.78526 -3.0069,-1.41212 -1.21239,0.46524 -2.31518,-0.98828 -4.64016,-6.11592 -3.45043,-7.60975 -3.6272,-9.29548 -1.62763,-15.52142 0.7822,-2.43548 1.68218,-6.00687 1.99997,-7.93643 0.97702,-5.93232 7.76436,-15.10925 13.5476,-18.31724 6.50334,-3.60744 14.41634,-4.56042 18.84613,-2.26969 4.71489,2.43817 4.05109,4.21396 -1.83582,4.91118 -6.69517,0.79294 -10.63932,3.23041 -11.40259,7.04673 -0.33453,1.67264 -1.57492,4.07016 -2.75643,5.32782 -1.83294,1.95107 -2.21353,3.7926 -2.59334,12.54807 -0.51063,11.77116 0.43171,13.89962 7.75883,17.52479 4.82257,2.38602 4.01705,3.4754 -3.78574,5.11983 -7.34808,1.54859 -8.87728,1.41676 -10.50392,-0.9056 z m -139.94724,-0.6854 c -1.51272,-0.23381 -3.17179,-1.21252 -3.68684,-2.1749 -1.23564,-2.30881 -4.75252,-17.35324 -5.46426,-23.37487 -0.30929,-2.61666 -1.21657,-5.76666 -2.01618,-7 -0.79962,-1.23334 -1.9058,-5.16743 -2.45817,-8.74243 -2.39346,-15.49067 -5.32232,-20.06586 -10.62229,-16.59319 -1.77708,1.16439 -2.34764,2.78723 -2.90791,8.27091 -0.38337,3.75225 -1.304,7.75051 -2.04585,8.88501 -0.74185,1.13451 -1.68124,5.16682 -2.08753,8.9607 -0.40629,3.79388 -1.29754,8.26565 -1.98055,9.93726 -0.68301,1.67162 -1.55756,6.18931 -1.94345,10.03931 -1.01149,10.09167 -2.18219,11.5 -9.55964,11.5 -7.07113,0 -7.11082,-0.12082 -3.94226,-12 1.10028,-4.125 2.46818,-10.425 3.03979,-14 0.57161,-3.575 1.51303,-8.3 2.09204,-10.5 0.57901,-2.2 1.34091,-6.925 1.69311,-10.5 0.57335,-5.81969 0.88386,-6.53449 2.96682,-6.82957 1.75942,-0.24924 2.14392,-0.73671 1.57754,-2 -1.13644,-2.53478 -0.43243,-15.51084 0.91314,-16.83065 1.36299,-1.33689 22.01411,-2.17354 25.30756,-1.02531 2.35517,0.82112 4.66721,6.07096 6.46752,14.68553 1.84284,8.81807 4.73971,19.81163 5.72585,21.7295 0.5007,0.97378 1.15044,3.5705 1.44385,5.7705 0.85635,6.42088 4.3413,13.5 6.64585,13.5 2.71936,0 5.09224,-3.72784 5.09224,-8 0,-1.95524 0.64343,-4.47362 1.42985,-5.59639 0.78642,-1.12277 1.74369,-4.81533 2.12727,-8.20568 0.38357,-3.39035 1.31514,-6.67695 2.07014,-7.30355 0.88111,-0.73126 1.37274,-3.26202 1.37274,-7.06648 0,-3.26157 0.66173,-7.20687 1.4714,-8.77259 0.80926,-1.56495 1.76678,-4.6926 2.1278,-6.95034 0.36103,-2.25773 1.1614,-4.15265 1.77861,-4.21093 2.07301,-0.19575 7.09799,0.18051 9.96982,0.74652 3.31056,0.65248 3.29422,1.67383 -0.22985,14.35944 -1.14593,4.125 -2.09122,8.65149 -2.10064,10.05887 -0.009,1.40738 -0.67783,3.43238 -1.48534,4.5 -0.84926,1.12282 -1.4816,4.17526 -1.5,7.24079 -0.0175,2.91481 -0.67496,6.54339 -1.46105,8.06352 -0.78608,1.52012 -1.74309,5.66027 -2.12669,9.20034 -0.3836,3.54006 -1.31544,7.95394 -2.07076,9.8086 -0.75531,1.85467 -1.3733,4.61207 -1.3733,6.12756 0,4.13215 -2.18219,5.40221 -7.76394,4.5187 -6.02155,-0.95313 -7.07771,-0.98608 -10.73606,-0.33498 -1.65,0.29366 -4.23767,0.34262 -5.75038,0.1088 z m 47.39586,-0.36203 c -1.70853,-0.68431 -2.16286,-1.42142 -1.65598,-2.68661 0.3842,-0.95896 1.08224,-3.99356 1.5512,-6.74356 0.46897,-2.75 1.76896,-8.375 2.88888,-12.5 1.11992,-4.125 2.04392,-8.77027 2.05332,-10.32281 0.009,-1.55255 0.9346,-6.72755 2.05599,-11.5 3.27199,-13.92506 3.82211,-16.45112 4.4955,-20.64263 0.99855,-6.21546 3.18819,-9.75739 5.56559,-9.00283 1.0978,0.34843 2.67699,0.0683 3.50933,-0.62245 1.20385,-0.9991 2.48566,-1.00675 6.26793,-0.0374 3.59109,0.92037 5.47262,0.94115 7.68868,0.0849 1.98602,-0.76733 6.64803,-0.90671 14.42811,-0.43133 9.82027,0.60002 12.47138,1.14961 18.20561,3.77411 4.68846,2.14587 7.0218,3.84479 7.74072,5.63611 1.39093,3.4657 0.5492,12.39191 -1.78279,18.90592 -2.05827,5.74944 -3.89283,8.1497 -6.52409,8.53589 -0.91377,0.13411 -3.42184,1.96286 -5.57347,4.06387 -3.18099,3.10616 -4.43645,3.71979 -6.71808,3.28363 -1.60977,-0.30773 -4.09261,0.13157 -5.82397,1.03044 -2.11182,1.0964 -6.26033,1.62093 -13.81691,1.74699 -13.58458,0.2266 -15.80643,1.47665 -16.97058,9.54792 -0.42324,2.93441 -1.43574,6.07145 -2.25,6.9712 -0.81426,0.89974 -1.48047,3.26245 -1.48047,5.25046 0,2.60156 -0.62287,4.05082 -2.22251,5.17126 -2.45222,1.7176 -7.98144,1.94903 -11.63201,0.48687 z m 48.66719,-39.61018 c 6.28547,-3.61118 8.43209,-7.52725 7.80422,-14.23722 -0.76621,-8.18836 -2.50265,-9.42263 -14.38752,-10.22671 l -9.72937,-0.65825 -3.8384,3.65109 c -3.68515,3.50533 -3.81568,3.85114 -3.26942,8.66158 0.39283,3.45925 0.10479,5.90522 -0.93038,7.9005 -1.35521,2.61218 -1.33713,3.0693 0.18808,4.75464 3.83377,4.23627 16.91257,4.31983 24.16279,0.15437 z M 311.75861,235.20035 c -6.10924,-0.31884 -8.66903,-2.44726 -7.25029,-6.02849 0.36427,-0.91952 0.57354,-5.49686 0.46503,-10.17186 -0.1085,-4.675 -0.21691,-11.49893 -0.2409,-15.16429 -0.0512,-7.82264 -0.94404,-8.67644 -9.74298,-9.31694 -5.36947,-0.39086 -5.48645,-0.46458 -5.35147,-3.37232 0.0759,-1.63499 2.18302,-7.17431 4.68249,-12.30958 2.49947,-5.13528 4.83996,-10.46187 5.20109,-11.83687 0.36112,-1.375 2.4165,-6.85898 4.56751,-12.18663 2.5673,-6.35873 3.91091,-11.25905 3.91091,-14.26356 0,-2.51732 0.42282,-5.35834 0.9396,-6.31338 0.51678,-0.95504 1.19245,-2.94246 1.5015,-4.4165 0.30905,-1.47404 1.12373,-3.27404 1.8104,-4 0.68668,-0.72596 1.9235,-3.34031 2.7485,-5.80966 1.04569,-3.1299 2.35492,-4.89851 4.32268,-5.8394 1.90156,-0.90924 2.6284,-1.85597 2.22732,-2.90118 -0.83747,-2.1824 1.83358,-5.85547 6.3156,-8.68485 2.09826,-1.32457 4.44937,-3.025338 5.2247,-3.779486 3.28621,-3.196422 8.44151,-6.176463 14.46368,-8.360795 5.81134,-2.107858 8.03017,-2.325589 22.93776,-2.250852 12.08058,0.06056 16.97367,0.439205 18.25616,1.412713 0.96366,0.731485 2.69805,1.344285 3.85422,1.361777 1.15616,0.01749 3.63116,1.150979 5.5,2.518861 1.86883,1.367882 4.61931,2.981302 6.11217,3.585377 1.49286,0.604076 5.98312,4.948585 9.97835,9.654465 7.55599,8.90002 8.38588,10.10559 11.5993,16.85001 6.42124,13.47711 5.09993,45.70764 -2.18556,53.31205 -4.39028,4.58247 -3.83665,11.88539 2.52199,33.26734 1.5794,5.31097 2.88594,10.93597 2.90343,12.5 0.0175,1.56404 0.6925,3.71721 1.5,4.78483 0.80751,1.06762 1.4682,3.15264 1.4682,4.63337 0,3.09294 -2.42726,4.17393 -6.76349,3.01213 -2.32533,-0.62302 -2.73651,-1.26245 -2.73651,-4.25565 0,-1.93735 -0.52108,-4.15438 -1.15796,-4.92672 -0.63688,-0.77234 -1.89221,-4.10426 -2.78963,-7.40426 -0.89741,-3.3 -2.52811,-9.15 -3.62377,-13 -1.09566,-3.85 -2.48532,-9.025 -3.08812,-11.5 -0.60281,-2.475 -1.71353,-5.38763 -2.46827,-6.47251 -1.74877,-2.51372 -1.75856,-5.16527 -0.0215,-5.83184 1.71072,-0.65646 9.22338,-16.0432 10.10477,-20.69565 2.49142,-13.15107 2.51654,-14.21185 0.51744,-21.8442 C 418.88782,135.01294 418,130.43673 418,128.98645 c 0,-1.59564 -1.75742,-4.90008 -4.45062,-8.36838 -2.44783,-3.15233 -4.72816,-6.60599 -5.06738,-7.67479 C 408.14277,111.87448 407.07086,111 406.09998,111 c -0.97089,0 -3.21177,-1.8 -4.97974,-4 -1.76797,-2.2 -4.07801,-4 -5.13344,-4 -1.73291,0 -6.62135,-1.79543 -11.22323,-4.122084 C 383.80853,98.395062 381.90249,98 380.52792,98 c -1.37457,0 -4.49552,-0.53393 -6.93545,-1.186511 -3.59914,-0.962623 -6.0077,-0.893579 -12.76435,0.365905 -9.25569,1.725323 -18.63645,5.394286 -20.63482,8.070606 -0.71869,0.9625 -1.86486,1.75 -2.54706,1.75 -1.75687,0 -8.64624,7.27333 -8.64624,9.12812 0,0.84908 -1.77827,3.14017 -3.9517,5.09131 -2.17344,1.95113 -4.14032,4.61245 -4.37086,5.91404 -2.95692,16.69439 -5.92682,29.48461 -7.16372,30.85137 -0.84245,0.9309 -2.54018,4.80263 -3.77273,8.60385 -1.76113,5.43141 -2.82984,7.19065 -4.99099,8.21588 -2.88037,1.36641 -3.46328,2.63657 -1.70787,3.72147 0.57317,0.35424 1.75623,2.4288 2.62903,4.61013 1.4224,3.55493 1.868,3.90432 4.29853,3.37049 4.79653,-1.0535 5.41014,0.96416 4.65328,15.30074 -0.76438,14.47895 0.33897,19.85083 4.49658,21.89243 1.69599,0.83281 11.89189,1.29164 33.33221,1.5 l 30.88882,0.30017 2.33295,4.41342 c 1.28313,2.42738 2.20861,4.53777 2.05664,4.68975 -0.40694,0.40694 -69.2483,0.94807 -75.97156,0.59718 z m -7.0755,-73.38785 c -0.31922,-0.79773 -0.55618,-0.56078 -0.60416,0.60417 -0.0434,1.05416 0.19293,1.64479 0.52522,1.3125 0.33229,-0.3323 0.36781,-1.1948 0.0789,-1.91667 z m 99.8291,73.31148 c -1.91964,-0.41081 -3.10582,-1.35164 -3.31793,-2.63169 -0.18158,-1.09576 -1.0405,-3.54921 -1.9087,-5.45212 -0.86821,-1.90291 -1.79649,-5.50291 -2.06286,-8 -0.26637,-2.49709 -0.82668,-4.99017 -1.24513,-5.54017 -0.41846,-0.55 -1.3128,-3.7 -1.98742,-7 -0.67463,-3.3 -2.0988,-8.21862 -3.16484,-10.93026 -1.06604,-2.71164 -1.83143,-6.08664 -1.70087,-7.5 0.13056,-1.41336 -0.74235,-4.14474 -1.9398,-6.06974 -2.98247,-4.79456 -2.78078,-6.10591 1.71278,-11.13665 9.34117,-10.45785 10.3329,-11.87451 9.7835,-13.97544 -0.30049,-1.14907 -0.0663,-3.14281 0.52044,-4.43054 0.81036,-1.77855 0.6659,-3.56697 -0.60101,-7.4403 -0.91728,-2.80444 -1.42241,-5.496 -1.12251,-5.98125 0.86732,-1.40335 -3.53367,-8.19741 -7.93942,-12.25654 -3.30804,-3.04779 -3.77222,-3.89715 -2.56647,-4.69621 2.22063,-1.47161 -1.09965,-2.4693 -5.48185,-1.64719 -2.48769,0.46669 -4.83591,0.0624 -8.14849,-1.40291 -4.02688,-1.78128 -4.93569,-1.87609 -6.74765,-0.70394 -1.15169,0.74503 -3.44398,1.67933 -5.09398,2.07624 -11.29563,2.71714 -13.5,3.71428 -13.5,6.10667 0,1.30351 -0.42605,2.63334 -0.94679,2.95517 -0.52073,0.32183 -2.36969,2.6935 -4.1088,5.27036 -2.36969,3.51123 -3.21448,5.94777 -3.37139,9.72387 -0.11516,2.77126 -0.4926,5.71366 -0.83875,6.53866 -2.57623,6.14001 -4.4208,14.62741 -3.4404,15.83027 0.65132,0.7991 1.16987,7.4646 1.29868,16.69317 0.29892,21.41628 -1.30341,19.95434 21.8841,19.96671 20.25597,0.0108 21.10863,0.24672 21.71031,6.00661 0.2998,2.87002 0.12273,3.01805 -4.18696,3.5 -2.475,0.27678 -14.4,0.27824 -26.5,0.003 l -22,-0.5 -0.18732,-5.5 C 326.3138,177.67085 326.347,177.99826 324.13263,175.64118 322.95968,174.39263 322,172.53182 322,171.50604 c 0,-2.98732 4.19305,-14.78581 6.18054,-17.3909 1.20886,-1.58451 1.82133,-4.10147 1.82504,-7.5 0.007,-6.7463 1.51384,-11.89056 4.53285,-15.47844 1.35386,-1.60898 2.46157,-3.77294 2.46157,-4.80882 0,-1.03587 0.84547,-2.60731 1.87882,-3.49209 1.03335,-0.88478 2.04585,-1.99729 2.25,-2.47224 0.37942,-0.88272 2.40965,-2.41233 9.24137,-6.96263 3.13511,-2.08815 5.79419,-2.76204 14,-3.54804 11.0901,-1.06227 15.02221,-0.37034 21.85994,3.84666 2.05157,1.26525 4.16684,2.30046 4.70061,2.30046 1.50925,0 12.84674,11.66901 14.56405,14.98992 1.0351,2.00166 1.33086,4.24823 0.90768,6.89465 -0.45635,2.85384 -0.13945,4.7521 1.16076,6.95319 1.60133,2.71083 1.65551,3.6364 0.51776,8.84495 -1.82007,8.3322 -4.09488,14.38539 -5.62703,14.97333 -0.72827,0.27946 -2.74948,3.4635 -4.49158,7.07564 l -3.16746,6.56752 2.00646,4.1004 c 1.10356,2.25522 2.32348,6.06749 2.71094,8.47172 0.38746,2.40422 2.03156,8.25422 3.65357,13 1.62201,4.74577 3.33987,11.03139 3.81747,13.96802 0.47761,2.93664 1.57674,6.12208 2.44251,7.07875 0.86577,0.95666 1.57413,2.40146 1.57413,3.21065 0,1.49389 -1.94557,3.96902 -2.95,3.75295 -0.3025,-0.0651 -1.89451,-0.40605 -3.53779,-0.75771 z m 2.15196,-3.6912 c 0.88816,-2.31451 -1.07718,-3.84498 -2.59264,-2.01897 -1.28112,1.54365 -0.70081,3.58619 1.01887,3.58619 0.5348,0 1.243,-0.70525 1.57377,-1.56722 z m -40.86181,-70.62309 c -4.75356,-1.26449 -8.92481,-6.60629 -9.50347,-12.17037 -0.38599,-3.71151 -0.0222,-4.57857 3.51979,-8.38932 3.66362,-3.9416 4.32509,-4.25 9.11546,-4.25 7.03981,0 10.7118,2.06363 12.01372,6.7516 2.41837,8.70811 0.83735,12.92587 -6.25976,16.69944 -2.63666,1.40193 -4.88262,2.50245 -4.99101,2.44561 -0.1084,-0.0568 -1.86103,-0.54598 -3.89473,-1.08696 z M 365,150 c 0,-0.55 -0.47656,-1 -1.05902,-1 -0.58246,0 -0.7809,0.45 -0.44098,1 0.33992,0.55 0.81648,1 1.05902,1 0.24254,0 0.44098,-0.45 0.44098,-1 z m 12.45729,-8.0691 C 377.14086,141.41891 376.17842,141 375.31854,141 c -1.27119,0 -1.33244,0.27832 -0.32768,1.48899 1.29115,1.55573 3.46837,1.06308 2.46643,-0.55809 z"
       id="path14"
       inkscape:connector-curvature="0" />
  </g>
</svg>
