<?xml version="1.0" encoding="UTF-8" standalone="no"?>
<!-- Created with Inkscape (http://www.inkscape.org/) -->

<svg
   xmlns:dc="http://purl.org/dc/elements/1.1/"
   xmlns:cc="http://creativecommons.org/ns#"
   xmlns:rdf="http://www.w3.org/1999/02/22-rdf-syntax-ns#"
   xmlns:svg="http://www.w3.org/2000/svg"
   xmlns="http://www.w3.org/2000/svg"
   xmlns:sodipodi="http://sodipodi.sourceforge.net/DTD/sodipodi-0.dtd"
   xmlns:inkscape="http://www.inkscape.org/namespaces/inkscape"
   version="1.1"
   id="svg2"
   width="32.571663"
   height="34.380157"
   viewBox="0 0 32.571663 34.380158"
   sodipodi:docname="emoji.svg"
   inkscape:version="0.92.4 (33fec40, 2019-01-16)">
  <metadata
     id="metadata8">
    <rdf:RDF>
      <cc:Work
         rdf:about="">
        <dc:format>image/svg+xml</dc:format>
        <dc:type
           rdf:resource="http://purl.org/dc/dcmitype/StillImage" />
        <dc:title />
      </cc:Work>
    </rdf:RDF>
  </metadata>
  <defs
     id="defs6" />
  <sodipodi:namedview
     pagecolor="#ffffff"
     bordercolor="#666666"
     borderopacity="1"
     objecttolerance="10"
     gridtolerance="10"
     guidetolerance="10"
     inkscape:pageopacity="0"
     inkscape:pageshadow="2"
     inkscape:window-width="1366"
     inkscape:window-height="744"
     id="namedview4"
     showgrid="false"
     inkscape:zoom="11.313709"
     inkscape:cx="9.8103547"
     inkscape:cy="21.448292"
     inkscape:window-x="0"
     inkscape:window-y="0"
     inkscape:window-maximized="1"
     inkscape:current-layer="svg2" />
  <g
     id="g10254">
    <path
       id="path24"
       d="M 16.302734 0.099609375 C 15.440853 0.097963908 14.584257 0.13724852 14.103516 0.21679688 C 12.456729 0.48929067 10.924243 0.92425946 9.7714844 1.4492188 C 4.5299326 3.8361892 1.0865286 8.4066583 0.26171875 14.068359 C 0.10098838 15.171651 0.10098838 17.330302 0.26171875 18.433594 C 0.74188871 21.729601 2.0664111 24.595271 4.2441406 27.042969 L 4.7519531 27.613281 L 4.7675781 27.763672 A 16.261234 16.261234 0 0 0 16.285156 32.558594 A 16.261234 16.261234 0 0 0 16.900391 32.537109 L 17.007812 32.417969 L 17.671875 32.361328 C 25.224535 31.700859 31.207153 26.007902 32.310547 18.433594 C 32.470635 17.334783 32.472026 15.173651 32.3125 14.068359 C 31.569768 8.922311 28.5652 4.5600529 24.042969 2.0625 C 22.420953 1.166688 20.591443 0.55683362 18.535156 0.22460938 C 18.031159 0.14318089 17.164616 0.10125484 16.302734 0.099609375 z "
       style="fill:#fdca4b;stroke-width:0.06715553" />
    <path
       sodipodi:nodetypes="cssssscscccsccccssccscscccccccc"
       style="fill:#ef9020;stroke-width:0.06715553"
       d="M 9.6260576,34.068395 C 8.6277375,33.816801 7.6968014,33.293417 6.8843015,32.526946 5.6266171,31.34051 4.996693,29.825707 4.8356068,27.600372 4.7860698,26.916039 4.9317249,26.262129 5.2938793,25.542987 5.6428425,24.850039 6.0303606,24.378043 7.1666871,23.261915 8.3006894,22.14807 8.5422177,21.786549 8.701656,20.964359 8.8078707,20.416632 8.746573,19.451239 8.5665689,18.83679 8.3033152,17.938174 8.4271795,17.407912 8.9548659,17.174491 c 1.0287686,-0.455073 2.3641481,0.664965 2.8259531,2.370245 0.436907,1.613334 0.281388,2.879177 -0.474968,3.865998 -0.400907,0.523064 -0.415753,0.7207 -0.0564,0.750848 0.129275,0.01085 1.353184,-0.240226 2.719799,-0.557937 1.366615,-0.31771 3.576463,-0.83181 4.910774,-1.142441 2.875381,-0.669401 2.875725,-0.669462 3.225887,-0.575173 0.56875,0.153148 0.891595,0.613861 0.894282,1.276176 0.0019,0.460099 -0.215811,0.85475 -0.58631,1.062982 -0.157797,0.08869 -1.334473,0.407924 -2.905799,0.788356 -1.452342,0.351624 -2.650544,0.639317 -2.662673,0.639317 -0.08685,0 0.02568,0.162848 0.306648,0.443824 0.407634,0.407634 0.520317,0.749981 0.412432,1.253033 -0.09092,0.423937 -0.270457,0.720526 -0.592611,0.978967 l -0.248656,0.199479 0.310294,0.273131 c 0.230767,0.203129 0.329813,0.350647 0.386451,0.575581 0.146257,0.580836 -0.137552,1.28087 -0.642455,1.584663 -0.140995,0.08483 -0.269398,0.164559 -0.285342,0.177166 -0.01595,0.0126 0.07058,0.125651 0.192279,0.25121 0.333302,0.343882 0.35869,0.732813 0.07653,1.172515 -0.221351,0.344946 -0.479035,0.57476 -0.870672,0.776505 -0.219091,0.11286 -3.430249,0.842678 -3.70774,0.842678 -1.250939,0.127853 -1.254017,0.144744 -2.5565114,-0.113219 z"
       id="path20"
       inkscape:connector-curvature="0" />
    <path
       id="path18"
       d="M 11.685547 3.7363281 C 10.563255 3.7359076 9.8878717 3.8392132 8.8339844 4.1757812 C 7.6845977 4.542848 7.4214049 4.7519553 7.421875 5.296875 C 7.422208 5.7079119 7.6154834 6.0157766 7.9765625 6.1796875 C 8.1327756 6.2505999 8.3090161 6.3097356 8.3671875 6.3105469 C 8.425359 6.311358 8.7745477 6.2066793 9.1445312 6.078125 C 10.239467 5.6976779 10.69578 5.6191406 11.820312 5.6191406 C 12.909709 5.6191406 13.426 5.7024871 14.242188 6.0097656 C 15.083151 6.3263726 15.131809 6.3346796 15.460938 6.2089844 C 15.835755 6.0658409 16.017242 5.7892913 16.017578 5.359375 C 16.018019 4.8082444 15.625993 4.4971659 14.482422 4.1367188 C 13.561159 3.8463419 12.793693 3.7367444 11.685547 3.7363281 z M 23.101562 7.5390625 C 22.244417 7.5146466 21.385808 7.6104153 20.542969 7.8242188 C 20.200779 7.9110227 19.782574 8.0412124 19.615234 8.1152344 C 18.950579 8.4092433 18.846935 9.1449145 19.396484 9.6582031 C 19.658791 9.903202 19.984173 9.9468965 20.488281 9.8027344 C 20.773374 9.7212074 20.905107 9.7054575 20.873047 9.7578125 C 20.846248 9.8015731 20.755522 9.9418244 20.669922 10.068359 C 20.379049 10.498289 20.228792 11.150774 20.263672 11.839844 C 20.32693 13.089485 20.952002 14.012568 21.914062 14.279297 C 22.775111 14.51802 23.738868 14.010085 24.195312 13.078125 C 24.761839 11.921406 24.585334 10.561678 23.75 9.6523438 L 23.580078 9.46875 L 23.820312 9.46875 C 24.219946 9.46875 25.327139 9.782572 25.96875 10.078125 C 26.47767 10.312563 26.6226 10.352659 26.875 10.324219 C 27.590493 10.243572 27.896106 9.4336927 27.433594 8.8457031 C 27.269195 8.636703 26.367939 8.1940265 25.648438 7.96875 C 24.812881 7.7071373 23.958708 7.5634784 23.101562 7.5390625 z M 11.753906 8.0175781 C 11.65262 8.0069918 11.553633 8.0078308 11.453125 8.0195312 C 11.252109 8.0429324 11.045274 8.1130096 10.802734 8.2304688 C 9.896882 8.6691635 9.3389016 9.9193731 9.5097656 11.130859 C 9.6652419 12.233246 10.405217 13.120181 11.316406 13.298828 C 12.124983 13.457358 12.989638 12.961991 13.435547 12.082031 C 14.23038 10.513504 13.546309 8.5116836 12.068359 8.0820312 C 11.95878 8.0501759 11.855193 8.0281644 11.753906 8.0175781 z M 15.703125 18.349609 C 14.487675 18.31393 13.385456 18.433084 12.976562 18.644531 C 12.678763 18.79853 12.513712 19.118654 12.544922 19.482422 C 12.578414 19.872753 12.775236 20.153898 13.126953 20.3125 C 13.391869 20.431984 13.425163 20.431517 14.171875 20.314453 C 16.059584 20.018513 17.8616 20.362878 19.373047 21.308594 C 19.934525 21.659913 20.202677 21.702403 20.580078 21.5 C 20.826424 21.367884 21.054688 21.015124 21.054688 20.765625 C 21.054687 20.507542 20.88495 20.187938 20.630859 19.964844 C 20.074706 19.476535 18.809969 18.895734 17.628906 18.585938 C 16.959518 18.410356 16.702481 18.378939 15.703125 18.349609 z "
       style="fill:#65471a;stroke-width:0.06715553;fill-opacity:1" />
  </g>
</svg>
