<?xml version="1.0" encoding="UTF-8" standalone="no"?>
<!-- Created with Inkscape (http://www.inkscape.org/) -->

<svg
   xmlns:dc="http://purl.org/dc/elements/1.1/"
   xmlns:cc="http://creativecommons.org/ns#"
   xmlns:rdf="http://www.w3.org/1999/02/22-rdf-syntax-ns#"
   xmlns:svg="http://www.w3.org/2000/svg"
   xmlns="http://www.w3.org/2000/svg"
   xmlns:sodipodi="http://sodipodi.sourceforge.net/DTD/sodipodi-0.dtd"
   xmlns:inkscape="http://www.inkscape.org/namespaces/inkscape"
   version="1.1"
   id="svg2"
   width="32.571663"
   height="34.380157"
   viewBox="0 0 32.571663 34.380158"
   sodipodi:docname="emoji.svg"
   inkscape:version="0.92.4 (5da689c313, 2019-01-14)">
  <metadata
     id="metadata8">
    <rdf:RDF>
      <cc:Work
         rdf:about="">
        <dc:format>image/svg+xml</dc:format>
        <dc:type
           rdf:resource="http://purl.org/dc/dcmitype/StillImage" />
        <dc:title />
      </cc:Work>
    </rdf:RDF>
  </metadata>
  <defs
     id="defs6" />
  <sodipodi:namedview
     pagecolor="#ffffff"
     bordercolor="#666666"
     borderopacity="1"
     objecttolerance="10"
     gridtolerance="10"
     guidetolerance="10"
     inkscape:pageopacity="0"
     inkscape:pageshadow="2"
     inkscape:window-width="1366"
     inkscape:window-height="716"
     id="namedview4"
     showgrid="false"
     inkscape:zoom="16"
     inkscape:cx="7.2000734"
     inkscape:cy="19.046195"
     inkscape:window-x="-8"
     inkscape:window-y="-8"
     inkscape:window-maximized="1"
     inkscape:current-layer="svg2" />
  <g
     id="g12"
     transform="matrix(0.95486757,0,0,0.95486757,-0.90570108,-5.4823286e-4)">
    <path
       style="fill:#fde09f;stroke-width:0.07032967"
       d="M 11.300912,35.899122 C 9.6943231,35.628676 8.1256697,34.576079 7.0934938,33.075863 6.5365315,32.266346 6.0372129,30.871532 5.9404623,29.854947 5.8613295,29.023475 5.8444701,28.97997 5.4269173,28.529752 3.6193685,26.580799 2.1886381,23.956496 1.513772,21.352102 0.17123544,16.171085 1.2379997,10.934253 4.5237605,6.5758245 5.0702606,5.8509142 6.8355296,4.0856452 7.5604399,3.539145 9.6120036,1.9924984 12.03872,0.85938304 14.382418,0.35373371 15.224658,0.17202174 16.983012,5.7414544e-4 18.004396,5.7414544e-4 c 0.915836,0 2.742306,0.16588361456 3.446155,0.31298645456 2.511862,0.52497398 4.837493,1.5969557 6.997802,3.2255844 0.724911,0.5465002 2.490179,2.3117692 3.036679,3.0366795 2.583906,3.4274455 3.811012,7.4158135 3.537052,11.4962085 -0.161399,2.403895 -0.756261,4.579221 -1.826015,6.677476 -0.821203,1.610736 -1.693184,2.817165 -3.021532,4.180442 -2.22368,2.282149 -4.909011,3.836641 -7.972354,4.615056 -1.031964,0.262229 -2.48858,0.494555 -3.100715,0.494555 -0.270806,0 -0.324615,0.03243 -0.618352,0.372664 -0.488825,0.566204 -0.924922,0.760458 -2.45691,1.0944 -2.344644,0.511086 -3.467002,0.604312 -4.725294,0.392496 z"
       id="path26"
       inkscape:connector-curvature="0" />
    <path
       style="fill:#fdca4b;stroke-width:0.07032967"
       d="M 11.745056,35.93908 C 10.691393,35.770738 9.5655882,35.283196 8.6670211,34.606106 7.1293296,33.447421 6.2258663,31.733084 5.9904418,29.527255 L 5.9254431,28.918243 5.3942124,28.321158 C 3.1135511,25.757768 1.7250795,22.75729 1.222214,19.305495 c -0.1683274,-1.15544 -0.1683274,-3.415988 0,-4.571428 C 2.086009,8.8047625 5.6931209,4.0189526 11.182418,1.5191605 12.389663,0.96938871 13.994059,0.512375 15.718682,0.22700161 c 1.006929,-0.16661652 3.586121,-0.16169255 4.641759,0.008862 2.153479,0.34792704 4.068352,0.98722549 5.767033,1.92537859 4.735978,2.6156014 7.882409,7.1835456 8.660246,12.5728248 0.167067,1.157535 0.166503,3.420681 -0.0011,4.571428 -1.155598,7.932313 -7.421819,13.893533 -15.33146,14.58522 l -0.694332,0.06072 -0.37013,0.415517 c -0.531826,0.597039 -0.827345,0.713937 -2.988459,1.182142 -1.961786,0.42502 -2.847023,0.519419 -3.657143,0.389988 z"
       id="path24"
       inkscape:connector-curvature="0" />
    <path
       style="fill:#edb647;stroke-width:0.07032967"
       d="M 11.885715,35.957519 C 11.75033,35.9417 11.358011,35.850037 11.013894,35.753824 8.3499433,35.008999 6.5516025,32.969529 6.0915145,30.17143 5.8157252,28.494172 5.8680115,27.862833 6.3710938,26.795606 6.7216631,26.051917 7.2596744,25.381355 8.3254327,24.359774 8.8330385,23.87321 9.3498435,23.332419 9.4738888,23.158017 10.056667,22.338655 10.180696,21.096351 9.8211339,19.679911 9.6534848,19.019481 9.640286,18.890304 9.7115405,18.607325 c 0.096959,-0.385058 0.4355475,-0.714506 0.8056965,-0.783947 1.202966,-0.225678 2.424292,0.942413 2.885225,2.759465 0.427523,1.685347 0.254311,2.958477 -0.543026,3.991312 -0.367915,0.476579 -0.403607,0.674198 -0.121769,0.674198 0.08419,0 2.534683,-0.553846 5.445543,-1.230769 2.910861,-0.676923 5.431432,-1.23077 5.601269,-1.23077 0.397471,0 0.889917,0.248219 1.090008,0.549421 0.237224,0.357097 0.345102,0.933409 0.24024,1.28341 -0.113444,0.378641 -0.508334,0.804968 -0.873044,0.942544 -0.161936,0.06108 -1.459577,0.392038 -2.883645,0.735449 -1.424069,0.343411 -2.606294,0.641462 -2.627166,0.662335 -0.02087,0.02087 0.07399,0.136237 0.210812,0.256365 0.722586,0.634439 0.703045,1.679699 -0.04497,2.405625 l -0.273444,0.265368 0.228045,0.191887 c 0.689519,0.580192 0.637099,1.589793 -0.117462,2.262323 -0.339167,0.302294 -0.369647,0.351305 -0.26994,0.434055 0.370438,0.307435 0.414367,0.897378 0.101357,1.361169 -0.495201,0.73375 -0.823088,0.884497 -2.944728,1.353844 -2.382515,0.527058 -2.787157,0.577644 -3.734824,0.46691 z m 9.352028,-13.640267 c -1.582886,-0.990416 -3.470217,-1.351195 -5.44715,-1.041267 -0.782006,0.122597 -0.817214,0.122513 -1.094651,-0.0026 -0.368341,-0.166099 -0.57487,-0.460409 -0.609945,-0.869189 -0.03269,-0.380962 0.139687,-0.715745 0.451564,-0.877023 0.428219,-0.221441 1.584261,-0.346533 2.85716,-0.309167 1.046591,0.03072 1.315242,0.06371 2.016269,0.247595 1.236887,0.32444 2.561763,0.933111 3.144203,1.4445 0.2661,0.233639 0.44261,0.567901 0.44261,0.838182 0,0.261292 -0.238654,0.630993 -0.496644,0.769354 -0.395239,0.21197 -0.675399,0.167533 -1.263416,-0.200391 z m 2.659741,-7.362641 c -1.007533,-0.279336 -1.661072,-1.245872 -1.72732,-2.554578 -0.03653,-0.72164 0.119926,-1.405547 0.424547,-1.855798 0.08965,-0.132516 0.185971,-0.278433 0.214036,-0.324262 0.03358,-0.05483 -0.104089,-0.03896 -0.402656,0.04642 -0.527935,0.150976 -0.87014,0.105952 -1.144845,-0.150627 -0.575524,-0.5375495 -0.465697,-1.3078255 0.230373,-1.6157309 0.175249,-0.077521 0.611843,-0.2153255 0.970207,-0.3062323 1.765352,-0.4478178 3.598264,-0.3956072 5.348361,0.1523489 0.753511,0.2359244 1.696848,0.6994026 1.869018,0.9182812 0.484373,0.6157813 0.163783,1.4631081 -0.585529,1.5475671 -0.264329,0.02979 -0.416623,-0.01141 -0.949597,-0.256923 -0.671937,-0.309523 -1.831248,-0.638591 -2.249771,-0.638591 h -0.250293 l 0.177667,0.193407 c 0.874817,0.952315 1.059958,2.375315 0.466654,3.586707 -0.478021,0.97601 -1.489105,1.50802 -2.390852,1.258013 z M 12.800001,13.92898 c -0.954257,-0.187091 -1.728844,-1.117345 -1.891669,-2.271837 -0.17894,-1.268748 0.404236,-2.5780822 1.352905,-3.0375122 0.508007,-0.2460216 0.866553,-0.2877616 1.325587,-0.1543173 1.547807,0.4499601 2.264099,2.5451735 1.431697,4.1878385 -0.466985,0.921552 -1.371725,1.441851 -2.21852,1.275828 z M 9.3025524,6.4728745 C 8.9244066,6.3012162 8.7214914,5.9784113 8.7211426,5.5479464 8.7206503,4.9772708 8.9966408,4.7582243 10.200354,4.3738078 c 1.1037,-0.3524761 1.811122,-0.4617494 2.98646,-0.461309 1.160523,4.36e-4 1.963417,0.1154807 2.928224,0.4195824 1.197622,0.3774839 1.608239,0.7049261 1.607777,1.2821063 C 17.722463,6.064424 17.533259,6.3534228 17.140726,6.5033321 16.796042,6.6349684 16.743692,6.626427 15.862978,6.2948553 15.008214,5.9730531 14.46836,5.8860007 13.327473,5.8860007 c -1.177684,0 -1.65476,0.081777 -2.801449,0.480206 C 10.138553,6.5008372 9.7716872,6.6102943 9.7107662,6.6094448 9.6498452,6.6085952 9.466149,6.5471386 9.3025524,6.4728745 Z"
       id="path22"
       inkscape:connector-curvature="0" />
    <path
       style="fill:#ef9020;stroke-width:0.07032967"
       d="M 12.062899,35.96018 C 11.87024,35.943268 11.696174,35.907727 11.676085,35.8812 11.655997,35.854673 11.365056,35.763788 11.029549,35.679234 9.9840427,35.415748 9.0091053,34.867626 8.1582021,34.064927 6.8410724,32.822414 6.1813745,31.236012 6.0126745,28.905496 5.9607961,28.188817 6.1133357,27.504 6.4926075,26.750867 c 0.3654572,-0.725701 0.7712916,-1.220006 1.9613273,-2.388888 1.1876017,-1.166492 1.4405459,-1.545101 1.6075202,-2.406152 0.111235,-0.573616 0.04704,-1.584639 -0.1414721,-2.22813 -0.2756965,-0.94109 -0.1459777,-1.496415 0.4066501,-1.740869 1.077394,-0.476582 2.475891,0.696396 2.959524,2.482277 0.457557,1.689589 0.294688,3.015263 -0.497418,4.048727 -0.419856,0.547786 -0.435404,0.754764 -0.05907,0.786337 0.135385,0.01136 1.417143,-0.251581 2.848352,-0.584308 1.431209,-0.332727 3.745507,-0.871126 5.142885,-1.19644 3.011288,-0.70104 3.011648,-0.701104 3.378361,-0.602359 0.595632,0.160387 0.933736,0.642876 0.93655,1.336496 0.002,0.481846 -0.226011,0.89515 -0.614022,1.113224 -0.165255,0.09288 -1.397548,0.427205 -3.043143,0.825618 -1.520988,0.368244 -2.775824,0.669535 -2.788526,0.669535 -0.09095,0 0.02689,0.170545 0.321142,0.464802 0.426901,0.426901 0.54491,0.785429 0.431925,1.312258 -0.09522,0.443975 -0.28324,0.754582 -0.620621,1.025239 l -0.260409,0.208907 0.324961,0.286041 c 0.241674,0.21273 0.345401,0.367221 0.404716,0.602786 0.15317,0.60829 -0.144053,1.341411 -0.672821,1.659563 -0.147659,0.08884 -0.282131,0.172337 -0.298828,0.18554 -0.0167,0.0132 0.07392,0.13159 0.201367,0.263084 0.349056,0.360135 0.375643,0.76745 0.08015,1.227934 -0.231813,0.36125 -0.501677,0.601927 -0.911825,0.813207 -0.229446,0.118195 -3.592382,0.882508 -3.882988,0.882508 -0.07787,0 -0.122013,0.03165 -0.09811,0.07033 0.02605,0.04215 -0.06387,0.07057 -0.224421,0.07094 -0.147338,3.52e-4 -0.426129,0.01214 -0.619535,0.02623 -0.193407,0.01409 -0.509278,0.01178 -0.701937,-0.0051 z m 9.352487,-13.632202 c -1.46076,-0.8927 -2.694158,-1.249897 -4.29011,-1.242436 -0.464176,0.0022 -1.115738,0.0528 -1.447915,0.112515 -0.671687,0.120744 -0.959988,0.07912 -1.233834,-0.178147 -0.213186,-0.200278 -0.332195,-0.574847 -0.276673,-0.870803 0.04751,-0.253249 0.363758,-0.572883 0.62538,-0.632074 0.08405,-0.01902 0.295239,-0.06796 0.469305,-0.10877 0.174066,-0.04081 0.807033,-0.0916 1.406594,-0.112871 1.71077,-0.0607 3.043186,0.202748 4.475088,0.884818 1.079206,0.514066 1.534663,0.848078 1.681805,1.233365 0.107203,0.280707 0.110039,0.348498 0.02404,0.574462 -0.121865,0.320191 -0.379951,0.517414 -0.736469,0.56279 -0.228525,0.02909 -0.346835,-0.0087 -0.697207,-0.222849 z m 2.163411,-7.597936 c -0.459294,-0.228876 -0.818999,-0.627644 -1.098746,-1.218067 -0.207593,-0.438139 -0.220709,-0.513882 -0.220709,-1.274612 0,-0.738282 0.01716,-0.845578 0.196803,-1.230769 0.108241,-0.232088 0.291711,-0.540659 0.407709,-0.685714 0.187006,-0.233849 0.195593,-0.263737 0.07578,-0.263737 -0.07432,0 -0.269682,0.04747 -0.434134,0.105495 -0.647807,0.228559 -1.208058,0.06058 -1.441969,-0.4323553 -0.287957,-0.6068248 0.0408,-1.0652231 0.955905,-1.3328486 1.430939,-0.4184841 3.135795,-0.525912 4.491618,-0.2830305 1.384993,0.2481062 2.840484,0.8527494 3.15049,1.3087825 0.388386,0.5713329 0.0032,1.3372539 -0.672487,1.3372539 -0.11261,0 -0.470225,-0.124345 -0.794701,-0.276322 -0.324475,-0.151979 -0.818213,-0.339522 -1.097196,-0.416764 -0.589043,-0.1630891 -1.561347,-0.3211107 -1.619286,-0.263171 -0.02189,0.021892 0.109615,0.199544 0.292237,0.394782 0.603758,0.645467 0.867819,1.553799 0.734368,2.526128 -0.223429,1.627919 -1.679661,2.625865 -2.925678,2.004949 z M 12.32605,13.675097 c -1.251099,-0.623449 -1.742005,-2.502107 -1.028096,-3.9344372 0.696063,-1.3965244 2.26974,-1.6534576 3.275516,-0.5347917 0.511288,0.5686745 0.653411,1.0005469 0.650455,1.9765499 -0.0029,0.97218 -0.14715,1.416753 -0.635859,1.960316 -0.635081,0.706363 -1.502959,0.910617 -2.262016,0.532363 z M 9.502852,6.4642808 C 9.1287558,6.3851642 8.8483071,6.055876 8.8097608,5.6504902 8.7543698,5.067949 9.0303723,4.8402437 10.272814,4.4434552 11.26216,4.1274959 12.130722,3.9955964 13.221979,3.9955964 c 1.131892,0 1.998554,0.1369842 3.024176,0.4780004 1.106271,0.3678317 1.406593,0.6290424 1.406593,1.2234086 0,0.2418115 -0.04317,0.3382514 -0.239121,0.5342037 -0.315964,0.3159647 -0.625058,0.3159546 -1.474224,-4.85e-5 C 14.333721,5.6336334 12.430467,5.6195087 10.782842,6.1928922 9.9304881,6.4895166 9.776528,6.5221598 9.502852,6.4642808 Z"
       id="path20"
       inkscape:connector-curvature="0" />
    <path
       style="fill:#b38932;stroke-width:0.07032967"
       d="m 21.415386,22.327978 c -1.46076,-0.8927 -2.694158,-1.249897 -4.29011,-1.242436 -0.464176,0.0022 -1.115738,0.0528 -1.447915,0.112515 -0.671687,0.120744 -0.959988,0.07912 -1.233834,-0.178147 -0.213186,-0.200278 -0.332195,-0.574847 -0.276673,-0.870803 0.04751,-0.253249 0.363758,-0.572883 0.62538,-0.632074 0.08405,-0.01902 0.295239,-0.06796 0.469305,-0.10877 0.174066,-0.04081 0.807033,-0.0916 1.406594,-0.112871 1.71077,-0.0607 3.043186,0.202748 4.475088,0.884818 1.079206,0.514066 1.534663,0.848078 1.681805,1.233365 0.107203,0.280707 0.110039,0.348498 0.02404,0.574462 -0.121865,0.320191 -0.379951,0.517414 -0.736469,0.56279 -0.228525,0.02909 -0.346835,-0.0087 -0.697207,-0.222849 z m 2.163411,-7.597936 c -0.459294,-0.228876 -0.818999,-0.627644 -1.098746,-1.218067 -0.207593,-0.438139 -0.220709,-0.513882 -0.220709,-1.274612 0,-0.738282 0.01716,-0.845578 0.196803,-1.230769 0.108241,-0.232088 0.291711,-0.540659 0.407709,-0.685714 0.187006,-0.233849 0.195593,-0.263737 0.07578,-0.263737 -0.07432,0 -0.269682,0.04747 -0.434134,0.105495 -0.647807,0.228559 -1.208058,0.06058 -1.441969,-0.4323553 -0.287957,-0.6068248 0.0408,-1.0652231 0.955905,-1.3328486 1.430939,-0.4184841 3.135795,-0.525912 4.491618,-0.2830305 1.384993,0.2481062 2.840484,0.8527494 3.15049,1.3087825 0.388386,0.5713329 0.0032,1.3372539 -0.672487,1.3372539 -0.11261,0 -0.470225,-0.124345 -0.794701,-0.276322 -0.324475,-0.151979 -0.818213,-0.339522 -1.097196,-0.416764 -0.589043,-0.1630891 -1.561347,-0.3211107 -1.619286,-0.263171 -0.02189,0.021892 0.109615,0.199544 0.292237,0.394782 0.603758,0.645467 0.867819,1.553799 0.734368,2.526128 -0.223429,1.627919 -1.679661,2.625865 -2.925678,2.004949 z M 12.32605,13.675097 c -1.251099,-0.623449 -1.742005,-2.502107 -1.028096,-3.9344372 0.696063,-1.3965244 2.26974,-1.6534576 3.275516,-0.5347917 0.511288,0.5686745 0.653411,1.0005469 0.650455,1.9765499 -0.0029,0.97218 -0.14715,1.416753 -0.635859,1.960316 -0.635081,0.706363 -1.502959,0.910617 -2.262016,0.532363 z M 9.502852,6.4642808 C 9.1287558,6.3851642 8.8483071,6.055876 8.8097608,5.6504902 8.7543698,5.067949 9.0303723,4.8402437 10.272814,4.4434552 11.26216,4.1274959 12.130722,3.9955964 13.221979,3.9955964 c 1.131892,0 1.998554,0.1369842 3.024176,0.4780004 1.106271,0.3678317 1.406593,0.6290424 1.406593,1.2234086 0,0.2418115 -0.04317,0.3382514 -0.239121,0.5342037 -0.315964,0.3159647 -0.625058,0.3159546 -1.474224,-4.85e-5 C 14.333721,5.6336334 12.430467,5.6195087 10.782842,6.1928922 9.9304881,6.4895166 9.776528,6.5221598 9.502852,6.4642808 Z"
       id="path18"
       inkscape:connector-curvature="0" />
    <path
       style="fill:#926d28;stroke-width:0.07032967"
       d="m 21.246503,22.146633 c -0.671259,-0.405816 -1.385203,-0.707839 -2.17323,-0.91935 -0.778856,-0.20905 -2.432321,-0.256731 -3.384067,-0.09759 -0.663557,0.110955 -0.720859,0.110831 -0.958782,-0.0021 -0.296576,-0.140735 -0.44471,-0.342037 -0.499315,-0.67853 -0.04668,-0.287671 0.11294,-0.642021 0.345444,-0.766863 0.54878,-0.294666 2.774659,-0.434146 3.920987,-0.245701 1.026951,0.168821 1.85208,0.431696 2.777186,0.884772 0.983562,0.481706 1.404424,0.812492 1.518601,1.19358 0.146551,0.489145 -0.239062,0.991968 -0.759064,0.989787 -0.111088,-4.93e-4 -0.454405,-0.156504 -0.78776,-0.358037 z m 2.408076,-7.44305 c -0.421663,-0.191455 -0.848323,-0.651515 -1.103281,-1.189648 -0.20865,-0.440391 -0.221627,-0.515136 -0.221627,-1.276572 0,-0.737229 0.01728,-0.845693 0.195316,-1.225855 0.107423,-0.229386 0.308766,-0.555516 0.447427,-0.724734 0.138662,-0.169218 0.23443,-0.3253521 0.212817,-0.3469652 -0.02161,-0.021612 -0.259516,0.027595 -0.528675,0.1093492 -0.716614,0.217666 -1.011647,0.199749 -1.316872,-0.079969 -0.465097,-0.4262295 -0.358205,-1.1092024 0.210811,-1.3469525 0.48679,-0.2033942 1.656771,-0.4556358 2.483014,-0.5353242 1.678537,-0.1618905 3.650745,0.2051833 5.040575,0.9381697 0.681936,0.3596477 0.883684,0.9394223 0.481961,1.385042 -0.318486,0.35329 -0.605973,0.353775 -1.362458,0.0023 -0.938046,-0.4358349 -2.776217,-0.8531733 -2.897004,-0.6577356 -0.02166,0.035049 0.115545,0.1971777 0.304903,0.3602866 1.338219,1.152714 1.067177,3.847079 -0.458628,4.559115 -0.445016,0.207672 -1.068644,0.220032 -1.488279,0.0295 z M 12.401831,13.652341 C 11.977282,13.454204 11.552256,12.99448 11.29855,12.45899 11.0899,12.018599 11.076924,11.943854 11.076924,11.182418 c 0,-0.758773 0.01349,-0.837268 0.218207,-1.2692655 0.285132,-0.6017027 0.584552,-0.9335779 1.045936,-1.1593122 0.744832,-0.3644125 1.593265,-0.1806235 2.1803,0.4722996 0.432303,0.4808243 0.618998,0.9936701 0.65462,1.7982181 0.05,1.129162 -0.357794,2.02768 -1.139639,2.511056 -0.448819,0.277484 -1.178626,0.329692 -1.634517,0.116927 z M 9.5699936,6.4132349 C 9.1662352,6.3510767 8.8615389,5.9755196 8.8615389,5.5400207 c 0,-0.4667046 0.2696109,-0.6616221 1.4260351,-1.0309641 1.858401,-0.5935408 3.94745,-0.6067186 5.757135,-0.036316 1.118336,0.3524936 1.537709,0.6610678 1.537709,1.1314456 0,0.4856378 -0.305878,0.7958141 -0.784786,0.7958141 -0.118542,0 -0.504745,-0.1076263 -0.858229,-0.2391694 C 14.32898,5.5615396 12.43124,5.55053 10.76044,6.1307854 10.004073,6.3934659 9.7827219,6.4459843 9.5699936,6.4132349 Z"
       id="path16"
       inkscape:connector-curvature="0" />
    <path
       style="fill:#65471a;stroke-width:0.07032967"
       d="m 21.309891,22.110723 c -0.649068,-0.410212 -1.397773,-0.732981 -2.182067,-0.940698 -0.838132,-0.221976 -2.460146,-0.274272 -3.437583,-0.110832 -0.753446,0.125985 -0.852874,0.109914 -1.183669,-0.191316 -0.326717,-0.297517 -0.261517,-0.944383 0.114324,-1.134236 0.612488,-0.309391 3.15321,-0.404022 4.297786,-0.160074 1.736291,0.370063 3.596916,1.303455 3.795049,1.903807 0.152745,0.462819 -0.11238,0.871133 -0.605718,0.932852 -0.231997,0.02902 -0.345978,-0.01375 -0.798122,-0.299503 z m 2.342474,-7.483805 c -0.844713,-0.428916 -1.343587,-1.445925 -1.270352,-2.58975 0.04437,-0.692978 0.260063,-1.249084 0.654735,-1.688055 C 23.526557,9.8043286 23.456769,9.7449429 22.61099,9.9868137 21.908628,10.187671 21.626555,10.173639 21.378413,9.9254957 21.046019,9.5931028 21.016613,9.1548175 21.307203,8.864223 21.477118,8.6943079 22.399156,8.4010184 23.23441,8.2512 c 0.847767,-0.1520619 2.406485,-0.1520619 3.254251,0 1.273359,0.2283998 2.669188,0.7752644 3.008714,1.1787675 0.37091,0.4408018 0.156617,1.0778645 -0.391934,1.1651635 -0.206638,0.03289 -0.381882,-0.01651 -0.891505,-0.251261 C 27.428883,9.982238 26.365868,9.706398 25.678185,9.6858709 25.061144,9.667453 24.987382,9.747844 25.38182,10.008871 c 0.605139,0.400462 1.004272,1.270492 1.009077,2.199592 0.0052,1.011701 -0.410537,1.884191 -1.101427,2.311336 -0.463756,0.286718 -1.189836,0.334227 -1.637105,0.107119 z M 12.414109,13.568829 c -0.41818,-0.208574 -0.790376,-0.608193 -1.042209,-1.118998 -0.213276,-0.432601 -0.224647,-0.496675 -0.224647,-1.265934 0,-0.761496 0.01322,-0.838163 0.219565,-1.2736442 0.863251,-1.8218262 2.974529,-1.660594 3.62101,0.2765262 0.121835,0.365066 0.143851,0.56951 0.12118,1.125274 -0.02357,0.577714 -0.06017,0.748369 -0.245064,1.14253 -0.249933,0.532819 -0.622743,0.937471 -1.037051,1.125626 -0.391224,0.177671 -1.044293,0.172411 -1.412784,-0.01138 z M 9.4560581,6.2878973 C 9.3031382,6.2346748 9.1709234,6.1906526 9.1622461,6.1900702 9.0966475,6.1856673 8.9318686,5.7313668 8.9318686,5.5549132 c 0,-0.460633 0.2046657,-0.6079047 1.3557054,-0.9755269 1.858401,-0.5935409 3.94745,-0.6067186 5.757135,-0.036316 0.731717,0.2306333 1.213184,0.4703676 1.35699,0.6756782 0.187132,0.2671693 0.142379,0.6677756 -0.10189,0.9120438 C 17.109455,6.3211464 17.053158,6.3396196 16.754754,6.3096465 16.571728,6.2912624 16.168792,6.1811735 15.859341,6.0650044 14.373235,5.5071136 12.456266,5.4896602 10.864342,6.0195264 9.7202523,6.4003324 9.7582844,6.3930847 9.4560581,6.2878973 Z"
       id="path14"
       inkscape:connector-curvature="0" />
  </g>
</svg>
