<?xml version="1.0" encoding="UTF-8" standalone="no"?>
<!-- Created with Inkscape (http://www.inkscape.org/) -->

<svg
   xmlns:dc="http://purl.org/dc/elements/1.1/"
   xmlns:cc="http://creativecommons.org/ns#"
   xmlns:rdf="http://www.w3.org/1999/02/22-rdf-syntax-ns#"
   xmlns:svg="http://www.w3.org/2000/svg"
   xmlns="http://www.w3.org/2000/svg"
   xmlns:sodipodi="http://sodipodi.sourceforge.net/DTD/sodipodi-0.dtd"
   xmlns:inkscape="http://www.inkscape.org/namespaces/inkscape"
   width="110.18465mm"
   height="112.56325mm"
   viewBox="0 0 110.18465 112.56325"
   version="1.1"
   id="svg8"
   inkscape:version="0.92.1 r15371"
   sodipodi:docname="logoCTISM.svg">
  <defs
     id="defs2" />
  <sodipodi:namedview
     id="base"
     pagecolor="#ffffff"
     bordercolor="#666666"
     borderopacity="1.0"
     inkscape:pageopacity="0.0"
     inkscape:pageshadow="2"
     inkscape:zoom="1"
     inkscape:cx="506.3375"
     inkscape:cy="155.50225"
     inkscape:document-units="mm"
     inkscape:current-layer="layer1"
     showgrid="false"
     inkscape:pagecheckerboard="true"
     showborder="false"
     inkscape:window-width="1920"
     inkscape:window-height="1028"
     inkscape:window-x="-8"
     inkscape:window-y="-8"
     inkscape:window-maximized="1" />
  <metadata
     id="metadata5">
    <rdf:RDF>
      <cc:Work
         rdf:about="">
        <dc:format>image/svg+xml</dc:format>
        <dc:type
           rdf:resource="http://purl.org/dc/dcmitype/StillImage" />
        <dc:title></dc:title>
      </cc:Work>
    </rdf:RDF>
  </metadata>
  <g
     inkscape:label="Camada 1"
     inkscape:groupmode="layer"
     id="layer1"
     transform="translate(-53.375532,-63.459178)">
    <g
       id="g3743"
       transform="translate(-119.32708,-8.9958333)">
      <path
         transform="scale(0.26458333)"
         sodipodi:nodetypes="cccccscccccccccccccccccccscccccccssccsccccssscccsccsccscscccccsccsccsscsccssccsscccsccccccsccscccccccccccccccscccccsccccsccccscc"
         inkscape:connector-curvature="0"
         id="path3723"
         d="m 800.09375,374.73242 -0.084,11.88281 -0.084,11.88086 0.72461,0.19532 c 1.2596,0.33758 13.6809,0.22599 14.34375,-0.12891 0.57589,-0.30807 0.61914,-0.72201 0.61914,-5.91992 v -5.58985 h 17.11914 17.1211 v 42.55469 42.55274 l -6.80079,0.0879 -6.79882,0.0859 -0.0879,5.26758 c -0.0484,2.89724 -0.017,5.45412 0.0703,5.68164 0.12862,0.3351 5.53503,0.39818 28.4082,0.33203 l 28.24805,-0.082 v -5.59961 -5.59961 l -6.79883,-0.0859 -6.80078,-0.0879 v -42.55274 -42.55469 h 17.12109 17.11914 v 5.58985 c 0,5.19791 0.0435,5.61189 0.61914,5.91992 0.9365,0.50117 13.83113,0.44055 14.52539,-0.0684 0.49973,-0.36631 0.53842,-1.38364 0.46094,-12.08008 l -0.0859,-11.68164 h -64.47851 z m 185.87891,21.62696 c -0.27951,-0.0937 -2.03167,1.12223 -30.03907,20.55273 -16.75816,11.6262 -23.67968,16.59898 -23.67968,17.01367 0,0.42524 0.64527,0.85716 2.35547,1.57617 1.29615,0.54497 2.31059,1.13442 2.2539,1.31055 -0.0567,0.17597 -8.31602,7.28519 -18.35547,15.79688 -10.03941,8.51164 -18.29707,15.65667 -18.34961,15.8789 -0.15473,0.65314 0.49703,0.70313 5.16407,0.40039 2.43541,-0.15874 4.49863,-0.21426 4.58593,-0.12695 0.0872,0.0871 -5.18242,6.38477 -11.70898,13.99609 -6.5266,7.61129 -11.86524,14.03212 -11.86524,14.26758 0,0.91121 -2.15228,2.25074 28.32032,-17.61914 12.32001,-8.03335 22.39843,-14.78381 22.39843,-15 0,-0.29556 -0.95279,-0.36522 -3.81835,-0.2832 l -3.81836,0.10742 1.07812,-1.22852 c 0.5932,-0.676 6.63287,-7.25559 13.41992,-14.62109 6.78709,-7.36554 12.38346,-13.65089 12.4375,-13.96875 0.0826,-0.4859 -0.38671,-0.68938 -2.95898,-1.27539 -1.68204,-0.38317 -3.0586,-0.8073 -3.0586,-0.94336 0,-0.13606 7.98838,-8.00284 17.75196,-17.48242 9.76376,-9.47955 17.83135,-17.44202 17.92773,-17.69336 0.0965,-0.2513 0.0984,-0.53442 0.004,-0.62891 -0.0129,-0.0129 -0.0263,-0.0231 -0.0449,-0.0293 z m -244.49805,0.61523 c -0.32391,0 -0.36255,0.14965 -0.14258,0.55859 0.16581,0.30803 8.30147,8.32516 18.07813,17.81446 9.77669,9.48926 17.71634,17.34686 17.64453,17.46289 -0.0717,0.11595 -1.29571,0.47731 -2.72071,0.80273 -1.42495,0.32542 -2.82194,0.76081 -3.10351,0.9668 -0.60106,0.43952 -0.96625,0.0171 15.53906,17.91406 6.00563,6.51201 10.92044,11.94937 10.92188,12.08203 10e-4,0.13191 -1.65376,0.14495 -3.67774,0.0293 -3.13239,-0.17877 -3.67969,-0.13998 -3.67969,0.26367 0,0.39402 18.76665,12.813 45.7168,30.25 h 0.002 c 2.52889,1.6362 4.72395,2.97461 4.87891,2.97461 0.15496,0 0.28144,-0.18042 0.28125,-0.40039 -1.9e-4,-0.22001 -5.32806,-6.61551 -11.83984,-14.21289 -6.51183,-7.59738 -11.83985,-13.9127 -11.83985,-14.03516 0,-0.12283 2.1418,-0.12075 4.75977,0.006 3.23834,0.15685 4.82664,0.12275 4.96875,-0.10742 0.26487,-0.4286 1.21455,0.40718 -19.32813,-17.01172 -9.59198,-8.13339 -17.43945,-14.9284 -17.43945,-15.09961 0,-0.1711 1.12438,-0.74505 2.49805,-1.27539 1.79338,-0.69241 2.46836,-1.10497 2.39843,-1.46289 -0.10949,-0.55941 -53.22167,-37.51953 -53.91601,-37.51953 z m -0.84961,84.50586 c -3.2421,0.0393 -3.82468,0.16353 -3.91406,0.39648 -0.25505,0.66463 6.8157,43.08518 7.27344,43.63672 0.22276,0.26831 1.11091,0.41973 2.46874,0.41992 2.98311,3.8e-4 8.72345,0.57675 11.54883,1.16016 10.97091,2.26537 15.42428,7.7759 14.38672,17.80469 -0.37534,3.628 -0.86792,5.5953 -2.92969,11.69531 -1.15423,3.41461 -1.56472,5.03673 -1.35156,5.35156 0.54762,0.80878 31.23275,27.34753 31.61524,27.34375 0.20432,-0.002 1.37931,-0.87294 2.61132,-1.93359 6.96295,-5.99452 13.6657,-8.94506 20.29102,-8.9375 5.11858,0.006 9.13055,1.54068 12.49414,4.78125 4.85307,4.67558 7.23438,11.03907 7.60742,20.33398 0.10923,2.72089 0.31853,4.57198 0.53321,4.71485 0.19453,0.12926 10.50606,0.23633 22.91406,0.23633 12.408,-10e-6 22.71822,-0.10707 22.91211,-0.23633 0.20867,-0.13905 0.43317,-1.93436 0.54883,-4.39453 0.11478,-2.44014 0.46528,-5.26095 0.84765,-6.82227 4.39903,-17.96156 23.24925,-22.83493 39.00977,-10.08594 1.62531,1.31479 3.12699,2.33284 3.33789,2.26367 0.47879,-0.1573 29.22093,-26.82156 29.44922,-27.32031 0.018,-0.0393 -0.0118,-0.1724 -0.0664,-0.34961 l 0.002,-0.002 -0.008,-0.0137 c -0.23064,-0.73715 -1.00548,-2.48704 -1.97851,-4.4336 -2.81522,-5.63179 -3.8936,-9.49687 -3.92383,-14.03711 -0.0477,-7.48282 3.32438,-12.70321 10.41406,-16.12304 5.3187,-2.56558 10.40786,-3.56434 18.44336,-3.61914 4.67312,-0.0318 4.92142,-0.0651 5.17578,-0.70508 0.32871,-0.82651 2.3616,-38.12041 2.11328,-38.76758 -0.15348,-0.40021 -3.39103,-0.46484 -23.34765,-0.46484 -18.14657,0 -23.24426,0.0871 -23.50391,0.40039 -0.18229,0.22 -0.78526,2.6242 -1.3418,5.34179 -2.52499,12.32981 -6.93229,23.12408 -13.4375,32.91211 -13.717,20.63936 -34.68544,33.76239 -60.00586,37.55469 -4.4516,0.6666 -17.9217,0.57417 -22.54883,-0.1543 -16.05494,-2.52755 -30.32041,-9.74359 -40.6621,-20.57031 -3.61898,-3.78871 -5.13778,-5.68589 -8.07618,-10.08594 -7.31316,-10.95099 -12.024,-24.71311 -13.53906,-39.55664 -0.71732,-7.02769 -0.72412,-7.06423 -1.3457,-7.24414 -0.30191,-0.0873 -11.16644,-0.2596 -24.14258,-0.38281 -10.73174,-0.10178 -16.6329,-0.14672 -19.875,-0.10742 z m 123.08008,17.94141 c -3.92651,0.0947 -7.02523,1.44677 -9.89063,4.27539 -2.13603,2.10859 -3.38309,4.25677 -4.12304,7.09765 -2.06544,7.92975 3.02132,16.23036 11.15429,18.20313 10.09346,2.4483 19.80816,-6.5336 18.21289,-16.83985 -1.06718,-6.8945 -6.83909,-12.27828 -13.61718,-12.70117 -0.59644,-0.0372 -1.1754,-0.0487 -1.73633,-0.0351 z"
         style="fill:#05a4e1;fill-opacity:1;stroke-width:0.32000002" />
      <path
         transform="scale(0.26458333)"
         id="path3721"
         d="m 867.63867,273.85156 c -0.79166,-0.019 -1.2384,0.008 -1.50976,0.0859 l -0.11524,-0.004 -0.006,0.0469 c -0.14354,0.0644 -0.22387,0.15049 -0.26953,0.26953 -0.10677,0.27836 -0.28707,1.84789 -0.40234,3.48828 -0.16177,2.30234 -0.11486,3.04269 0.21094,3.24414 0.23206,0.14351 2.08889,0.35827 4.125,0.47656 5.5697,0.32391 5.59269,0.32291 6.02148,0.0508 0.25425,-0.16135 0.47318,-1.48717 0.60547,-3.64649 l 0.20898,-3.39258 -1.72656,-0.17578 c -0.9498,-0.0971 -3.32905,-0.26243 -5.28711,-0.36523 -0.76589,-0.0402 -1.37294,-0.0665 -1.85547,-0.0781 z m -19.70508,9.04102 c -3.65238,0 -5.37893,0.56986 -7.86132,2.5918 l -1.70508,1.38867 -0.27344,-1.34961 -0.27148,-1.34961 -3.18555,0.0703 c -4.30001,0.0961 -6.45996,0.36899 -6.64063,0.83984 -0.20273,0.52834 1.57081,25.66513 1.8418,26.10352 0.11754,0.19011 0.81708,0.34272 1.55469,0.33984 2.59124,-0.01 8.6471,-0.61194 8.92187,-0.88672 0.15727,-0.1573 0.0531,-3.40398 -0.23828,-7.48046 -0.55634,-7.77786 -0.43108,-9.27527 0.87305,-10.49024 0.86876,-0.80946 2.17612,-1.08517 3.23242,-0.68359 1.65986,0.6311 1.82823,1.31386 2.43945,9.91992 0.31367,4.4166 0.66566,8.1266 0.78321,8.24414 0.32723,0.32723 10.06181,-0.34111 10.4375,-0.7168 0.46813,-0.46813 -0.80493,-17.96092 -1.48438,-20.39648 -0.66773,-2.39365 -1.93014,-4.11389 -3.84961,-5.24219 -1.39101,-0.81747 -1.81664,-0.90234 -4.57422,-0.90234 z m 18.68946,0.63867 c -0.78069,0.0178 -1.14765,0.10014 -1.28711,0.25 -0.51508,0.55302 -1.81937,25.80944 -1.36133,26.36133 0.18701,0.22537 1.27375,0.45131 2.4668,0.51367 5.09877,0.26615 7.70133,0.22662 7.91601,-0.12109 0.23974,-0.38793 1.37967,-19.6799 1.40235,-23.70313 0.008,-1.4355 -0.12983,-2.55068 -0.33204,-2.67578 -0.1906,-0.11781 -2.45758,-0.33792 -5.03711,-0.49023 -1.79289,-0.10583 -2.98688,-0.15258 -3.76757,-0.13477 z m 27.76562,2.55273 c -0.7583,0.01 -1.48659,0.0666 -2.16992,0.17579 -4.28164,0.68401 -8.26928,3.57474 -9.92773,7.19726 -1.07105,2.33949 -1.81032,6.52351 -1.58204,8.95703 0.24246,2.5863 1.96388,6.05345 3.88282,7.82227 2.40548,2.2173 6.46381,3.81192 11.42773,4.49023 3.99254,0.54558 7.71102,-0.2177 10.47461,-2.14844 1.90239,-1.32907 4.16016,-4.25281 4.16016,-5.38867 0,-0.75658 -0.10938,-0.79934 -6.79688,-2.7207 l -2.47656,-0.71289 -1.36328,1.44726 c -1.55131,1.64527 -2.98277,2.08487 -5.00977,1.53907 -2.66283,-0.71705 -4.00334,-3.60238 -3.26758,-7.03321 0.8377,-3.90587 2.64391,-5.6378 5.62305,-5.39062 2.17228,0.18013 3.25541,0.89644 4.00391,2.64258 l 0.5957,1.38476 3.94531,0.22461 c 2.17021,0.1251 4.37825,0.17647 4.90625,0.11524 0.90584,-0.10523 0.9552,-0.18666 0.90039,-1.44532 -0.0713,-1.64107 -1.31397,-4.33785 -2.79687,-6.07031 -2.48296,-2.90078 -9.2212,-5.1531 -14.5293,-5.08594 z m -83.83398,2.16407 c -0.52133,-0.0168 -1.04795,-0.004 -1.57813,0.041 -5.00704,0.42199 -10.09864,2.3001 -12.67383,4.67383 -3.76849,3.4738 -5.05304,7.77973 -3.91601,13.13086 1.18783,5.59007 3.91725,8.82543 8.98242,10.64648 3.14502,1.13073 10.32557,0.21417 14.78711,-1.88671 2.66925,-1.25689 5.55728,-4.23551 6.47461,-6.67969 0.84824,-2.26035 1.22359,-5.09293 0.7168,-5.40625 -0.41095,-0.25402 -8.22246,0.66418 -9.23828,1.08594 -0.4557,0.18916 -0.83208,0.76602 -1.06641,1.63671 -1.01836,3.78191 -5.72265,4.94006 -8.27149,2.03711 -1.95061,-2.2216 -2.54564,-7.08477 -1.10742,-9.04687 0.89242,-1.2175 2.56957,-1.98576 4.33789,-1.98633 1.2206,-4.2e-4 1.719,0.18241 2.60352,0.95898 0.60136,0.528 1.3019,0.96094 1.55664,0.96094 0.25482,0 2.25153,-0.70215 4.4375,-1.55859 4.57727,-1.79339 4.81497,-2.11083 3.14453,-4.18945 -2.17315,-2.70421 -5.54017,-4.30071 -9.18945,-4.41797 z m -40.46485,2.22461 c -0.51712,0.0743 -1.54955,0.54188 -3.90625,1.66211 -2.29682,1.09175 -3.68613,1.94096 -3.79687,2.32031 -0.0962,0.32904 -0.27359,2.36158 -0.39453,4.51758 -0.21729,3.86974 -0.21266,3.91992 0.46875,3.91992 0.37961,0 1.53836,-0.42632 2.57422,-0.94922 l 1.88281,-0.95117 1.95117,-4.99414 c 1.07293,-2.74693 1.86969,-5.12692 1.76953,-5.28907 -0.1131,-0.183 -0.23855,-0.2809 -0.54883,-0.23632 z m 157.29297,2.87109 c -0.4526,-0.009 -0.90881,-0.005 -1.36914,0.0137 -2.4669,0.10008 -3.39764,0.28784 -4.9375,0.99805 -3.47044,1.60063 -5.97808,4.22729 -7.26172,7.60547 -3.57396,9.40592 2.23846,18.19685 13.08203,19.78515 2.60134,0.3806 2.87452,0.38123 5.19727,0.008 2.84871,-0.45797 5.12427,-1.56607 7.14844,-3.48047 3.13508,-2.965 4.50179,-6.54537 4.32226,-11.32617 -0.094,-2.50519 -0.26212,-3.25085 -1.13867,-5.10157 -2.41583,-5.10055 -8.25388,-8.36068 -15.04297,-8.50195 z m -152.3457,7.28906 c -1.30228,0.0365 -2.64134,0.253 -3.96094,0.65039 -9.14884,2.75501 -14.33033,9.26746 -13.13086,16.50586 0.65137,3.93098 3.2962,8.35292 6.25391,10.45899 0.51999,0.37028 1.75329,1.00611 2.74023,1.41211 3.67386,1.51128 8.729,0.76297 13.79493,-2.04102 5.63599,-3.11947 8.17497,-6.35762 8.82421,-11.25195 0.16041,-1.20866 0.10197,-1.5791 -0.27734,-1.72461 -0.26544,-0.1019 -2.47826,0.56517 -4.91602,1.48242 l -4.43164,1.66797 -0.80078,1.58203 c -1.13473,2.24239 -2.56378,3.13398 -4.74219,2.95898 -1.3765,-0.11051 -1.8911,-0.32665 -2.69531,-1.13086 l -0.99414,-0.99414 0.93555,-0.51171 c 0.515,-0.28143 4.46536,-2.26977 8.77734,-4.41797 4.44201,-2.21295 7.87665,-4.1146 7.92578,-4.38672 0.12722,-0.7067 -2.10121,-4.33578 -3.83007,-6.23828 -0.83672,-0.92073 -2.3969,-2.13093 -3.51954,-2.73047 -1.71354,-0.91514 -3.78266,-1.35187 -5.95312,-1.29102 z m 153.66016,0.78907 c 1.76944,0.0204 3.52245,1.16322 4.04492,3.10351 0.43854,1.62867 -0.036,4.31538 -1.17188,6.64063 -0.66259,1.35635 -1.11136,1.83993 -2.15625,2.31445 -1.46498,0.66508 -1.57026,0.67424 -2.88281,0.28125 -1.26459,-0.37863 -2.34736,-1.46628 -2.78711,-2.79883 -0.71297,-2.16026 0.34423,-6.52193 2.01172,-8.29687 0.8123,-0.86466 1.87974,-1.25641 2.94141,-1.24414 z m 58.97851,2.59179 c -0.50438,0 -3.97304,3.6771 -12.93555,13.71485 -6.73549,7.54355 -12.24942,13.95185 -12.25195,14.24023 -0.003,0.28842 1.76128,2.20992 3.91992,4.26953 2.36829,2.25967 4.17826,3.74011 4.56446,3.73633 0.43562,-0.005 4.51281,-4.35663 12.76367,-13.62891 6.66701,-7.49238 12.18386,-13.86585 12.26172,-14.16406 0.19544,-0.74733 -7.36522,-8.16797 -8.32227,-8.16797 z m -246.32812,3.13867 c -0.57759,0.15103 -26.52513,19.6155 -26.92969,20.20118 -0.12926,0.1872 -0.23767,0.42907 -0.24024,0.53906 -0.008,0.3391 5.25423,7.11431 5.61329,7.22656 0.18565,0.0581 2.25707,-1.33307 4.60351,-3.0918 2.34645,-1.75869 4.40036,-3.11578 4.5625,-3.01562 0.16226,0.10027 3.54578,4.52482 7.51953,9.83203 3.97376,5.30721 7.51828,9.97312 7.87696,10.36914 0.35856,0.3961 0.84952,0.7207 1.09179,0.7207 0.24235,0 2.38665,-1.47324 4.76367,-3.27343 2.99762,-2.27018 4.28086,-3.43108 4.1875,-3.78711 -0.0738,-0.28249 -3.62147,-5.15789 -7.88281,-10.83399 -4.26134,-5.67609 -7.67961,-10.49796 -7.5957,-10.71679 0.0839,-0.21873 1.96637,-1.75114 4.18359,-3.4043 2.31961,-1.72948 4.03125,-3.22933 4.03125,-3.5332 0,-0.29054 -1.17857,-2.06829 -2.61914,-3.95118 -1.89229,-2.47324 -2.77007,-3.38481 -3.16601,-3.28125 z m 30.83398,1.33594 c 0.37739,-0.005 0.74212,0.054 1.08008,0.18164 0.93672,0.35395 2.67187,1.82868 2.67187,2.27149 0,0.13674 -1.67681,1.0452 -3.72656,2.01953 -2.04971,0.97432 -3.75309,1.77148 -3.78711,1.77148 -0.31759,0 -0.48633,-0.67945 -0.48633,-1.96094 0,-1.25994 0.17659,-1.73763 0.98829,-2.6621 0.89104,-1.01475 2.1276,-1.60527 3.25976,-1.6211 z m 223.25,16.22656 c -0.73712,0.11895 -20.13854,17.7309 -20.13476,18.27735 0.003,0.36922 1.34464,2.03553 5.02148,6.23633 l 1.76172,2.01367 0.84765,-0.55274 c 0.46549,-0.30474 2.89064,-2.41919 5.38868,-4.69726 2.49807,-2.27807 5.07048,-4.51922 5.71875,-4.98047 3.1759,-2.25971 7.10204,0.39725 5.36523,3.63086 -0.323,0.60125 -3.21574,3.48276 -6.42773,6.4043 -3.21204,2.92149 -5.83985,5.53287 -5.83985,5.80273 0,0.27001 1.456,2.20982 3.23438,4.30859 1.77842,2.09881 3.42992,3.81446 3.66992,3.81446 0.093,0 0.77487,-0.54924 1.68359,-1.31641 2.19876,-0.4369 4.22352,-2.96328 6.5938,-5.86914 7.8704,-7.22589 8.8143,-8.50306 9.0625,-11.97266 0.2129,-2.97603 -0.8453,-5.37672 -3.4727,-7.88281 -2.0474,-1.95288 -3.7909,-2.86618 -6.1309,-3.20898 -0.836,-0.12246 -1.5195,-0.32614 -1.5195,-0.45313 0,-0.12692 0.431,-0.6155 0.959,-1.08594 0.528,-0.47043 0.9609,-0.97199 0.9609,-1.11523 0,-0.1434 -1.3791,-1.87967 -3.06442,-3.85742 -2.21787,-2.6027 -3.23346,-3.56791 -3.67774,-3.4961 z m 20.99806,30.33789 c -5.7234,0 -12.7651,4.7231 -15.5859,10.45313 -0.96164,1.95322 -1.07024,2.45039 -1.06646,4.90039 0.004,2.35695 0.13057,2.98704 0.93746,4.64063 1.3159,2.69654 3.4475,4.72387 5.9082,5.62109 l 1.9922,0.72656 -0.9804,0.62109 c -0.5394,0.34152 -0.9805,0.89403 -0.9805,1.22852 0,0.61765 4.3292,7.94101 4.9395,8.35547 0.4523,0.30724 0.6029,0.2138 17.0566,-10.57422 8.9113,-5.84275 14.4772,-9.68579 14.4805,-9.99609 0,-0.87757 -5.2574,-9.09986 -5.7989,-9.06055 -0.2738,0.0198 -2.5127,1.35275 -4.9765,2.96094 -2.4638,1.60822 -4.5559,2.92383 -4.6485,2.92383 -0.092,0 -0.2368,-0.97214 -0.3222,-2.16016 -0.4282,-5.96251 -5.2446,-10.64063 -10.9551,-10.64063 z m 0.6074,11.24415 c 0.6102,-0.0417 1.144,0.10886 1.7871,0.4414 1.299,0.67174 2.0225,2.18354 1.8086,3.7793 -0.2229,1.66155 -0.9779,2.64941 -3.2051,4.19531 -1.4981,1.03979 -2.1356,1.27969 -3.6543,1.37305 -1.4181,0.0872 -1.9953,-0.0194 -2.5214,-0.46094 -2.8657,-2.40476 -1.2266,-6.39131 3.541,-8.61133 0.9477,-0.44126 1.634,-0.67509 2.2441,-0.71679 z m -318.74999,9.59765 c -5.4084,-0.15776 -10.50313,3.21512 -13.68945,9.58008 -2.42525,4.84467 -2.61202,9.09611 -0.58789,13.40039 1.59431,3.39024 6.22503,6.9193 10.07421,7.67773 4.80004,0.94583 9.64879,-0.82577 13.1543,-4.80664 2.07398,-2.35517 4.19745,-6.66618 4.7168,-9.57226 0.98184,-5.49423 -1.34574,-10.64631 -6.24805,-13.82617 -2.43783,-1.58129 -4.96156,-2.38142 -7.41992,-2.45313 z m 339.95309,7.37695 c -0.7392,-0.14252 -16.6657,7.06392 -18.6992,8.46094 -1.8557,1.27484 -3.4889,3.4809 -3.7988,5.13281 -0.9017,4.8062 2.0555,10.84698 6.2324,12.73047 1.5057,0.67896 1.6552,1.04101 0.543,1.32032 -0.4271,0.10718 -1.008,0.45072 -1.291,0.76367 -0.4771,0.52717 -0.4068,0.83476 0.9726,4.21093 0.8186,2.00334 1.6912,4.03944 1.9395,4.52344 0.2481,0.48401 0.6512,0.87891 0.8965,0.87891 0.5464,0 23.8676,-10.43989 24.3105,-10.88281 0.3718,-0.37176 0.115,-1.15091 -2.1289,-6.47657 -0.966,-2.29258 -1.7616,-3.75976 -2.0391,-3.75976 -0.2501,0 -3.3603,1.30244 -6.9121,2.89453 -3.5517,1.59213 -7.0734,2.97885 -7.8261,3.08203 -2.5346,0.34738 -4.2657,-1.04648 -4.2657,-3.43359 0,-1.48328 1.2538,-2.44394 5.8028,-4.44532 8.6956,-3.82575 10.5172,-4.75405 10.5058,-5.35742 -0.021,-1.16829 -3.7034,-9.53864 -4.2422,-9.64258 z m -342.5234,2.90235 c 0.20521,0.004 0.4145,0.0227 0.62695,0.0566 2.94667,0.47119 6.28609,2.95982 6.95117,5.17969 0.54191,1.8088 -0.36029,3.92618 -2.00586,4.70703 -0.62233,0.29541 -1.54157,0.52709 -2.04297,0.51953 -2.354,-0.0431 -6.26306,-2.43597 -7.32031,-4.48047 -1.46076,-2.82476 0.71277,-6.03945 3.79102,-5.98242 z M 668.28711,398.125 c -0.24272,0.0932 -1.18917,2.2659 -2.10352,4.83008 -1.38334,3.87931 -1.59084,4.73368 -1.23632,5.08594 0.23436,0.23289 1.57834,0.84498 2.98632,1.35937 1.40803,0.51439 2.80777,0.95193 3.10938,0.97461 0.69683,0.0494 0.82157,-0.20121 2.66015,-5.34375 1.29151,-3.61206 1.45439,-4.32447 1.07618,-4.66992 -0.65791,-0.60106 -5.97806,-2.43362 -6.49219,-2.23633 z m 9.49609,3.38672 c -0.57551,0.111 -3.55009,7.78815 -3.58789,9.25586 -0.0203,0.80961 0.32543,0.95726 12.0586,5.18164 6.64399,2.39206 12.25527,4.35585 12.4707,4.36719 0.53129,0.0234 1.03474,-1.05426 2.65234,-5.68164 1.17838,-3.37108 1.31107,-3.99989 0.92578,-4.36915 -0.60563,-0.58079 -23.85626,-8.88165 -24.51953,-8.7539 z m -5.22656,15.4043 c -0.73599,0.0106 -1.14537,1.02082 -1.95117,4.41601 -1.14671,4.83107 -1.11465,5.43058 0.30078,5.79492 l 1.05273,0.27149 -1.73046,1.58008 c -4.64512,4.24543 -4.70012,12.06503 -0.11329,16.20898 3.43552,3.10386 11.38811,4.72676 15.57813,3.17969 3.39991,-1.25533 6.04544,-3.9014 7.04883,-7.05274 0.61795,-1.94097 0.48432,-5.29916 -0.2793,-7.02539 -0.62343,-1.40927 -0.62617,-1.47656 -0.0644,-1.47656 1.31112,0 4.81008,1.32648 5.2832,2.00195 1.21024,1.72793 0.18356,5.25612 -1.70703,5.86719 -0.59316,0.19174 -1.19465,0.55858 -1.33789,0.81445 -0.73448,1.31244 -3.08924,8.86877 -2.87305,9.21875 0.13648,0.22084 0.73338,0.52574 1.32813,0.67578 1.53441,0.38684 4.28166,0.0766 5.6875,-0.64062 3.95852,-2.01944 6.88162,-9.13943 6.90429,-16.81641 0.0102,-3.57309 -0.0517,-3.96738 -0.88867,-5.67187 -0.94462,-1.92363 -2.7474,-3.71418 -4.80664,-4.77539 -0.67408,-0.34742 -6.938,-1.92587 -13.91992,-3.50586 -6.98192,-1.58003 -12.90964,-2.93462 -13.17383,-3.01172 -0.12064,-0.0353 -0.23275,-0.0543 -0.33789,-0.0527 z m 373.31636,1.81054 c -2.4106,0.0858 -4.8205,1.29139 -6.1699,3.31055 -1.5062,2.25373 -1.6843,3.28175 -1.6875,9.71484 0,6.42263 -0.2002,7.46094 -1.4218,7.46094 -1.0968,0 -1.9845,-1.06067 -2.4258,-2.90039 -0.4755,-1.98176 -0.2032,-3.18044 0.9804,-4.31445 0.5195,-0.49769 0.9454,-1.19305 0.9454,-1.54493 0,-0.83104 -2.5268,-9.20802 -2.9219,-9.6875 -0.459,-0.55691 -1.4007,-0.17228 -2.9766,1.21485 -3.0882,2.7185 -4.0062,6.89163 -2.9199,13.27344 1.4736,8.65674 4.5718,13.24537 9.5684,14.16992 v -0.002 c 3.9423,0.72944 7.7407,-1.58889 9.0468,-5.52149 0.5809,-1.74837 0.7061,-4.76433 0.4434,-10.71289 -0.1466,-3.32111 -0.109,-3.66452 0.459,-4.08008 0.5243,-0.38286 0.7232,-0.38652 1.2812,-0.0195 1.4022,0.92198 1.8114,4.68862 0.6172,5.67969 -0.8409,0.698 -1.0828,1.45497 -0.7695,2.41406 0.1638,0.50135 0.8183,2.60387 1.4531,4.67188 0.9556,3.11259 1.2611,3.75976 1.7754,3.75976 0.9991,0 3.0803,-2.13588 4.1308,-4.23828 0.8647,-1.73008 0.9727,-2.25911 0.9727,-4.80273 0,-3.33782 -0.9426,-8.34998 -2.1269,-11.3086 -0.9808,-2.44977 -3.2503,-5.10664 -5.0665,-5.93164 -0.9962,-0.45259 -2.0917,-0.64445 -3.1875,-0.60547 z m -365.45894,11.40625 c 0.39455,0.0145 0.80666,0.0615 1.23438,0.14258 2.19976,0.41715 3.45883,1.22058 4.16601,2.6582 0.50533,1.02724 0.54506,1.41184 0.2461,2.41016 -0.19578,0.65337 -0.71318,1.52483 -1.15039,1.93555 -1.56734,1.47243 -6.16498,0.93399 -8.19141,-0.95899 -0.78168,-0.73009 -0.94531,-1.13763 -0.94531,-2.34961 0,-2.45085 1.87877,-3.93903 4.64062,-3.83789 z m -1.42383,19.3086 c -0.3765,-6.9e-4 -0.81268,0.0117 -1.31445,0.0117 -6.5286,0 -10.76284,2.40624 -13.11133,7.44922 -0.96843,2.07958 -1.91015,6.6039 -1.91015,9.17383 0,6.65696 3.36236,11.64603 9.23242,13.69336 h 0.002 c 1.81452,0.63405 2.64233,0.72794 5.65235,0.65235 3.27367,-0.0822 3.68551,-0.1662 5.73632,-1.17579 4.20325,-2.06933 6.42977,-5.30891 7.36524,-10.71484 0.86018,-4.97091 0.55885,-9.4158 -0.83399,-12.29297 -0.85852,-1.77354 -3.99661,-5.18555 -4.76953,-5.18555 -0.81286,0 -0.85455,0.10336 -1.75,4.5 -0.97262,4.77479 -0.97858,5.22532 -0.0918,6.47071 1.07852,1.51491 1.17082,4.22708 0.19335,5.66992 -0.76062,1.12282 -3.17007,2.31426 -3.66992,1.81445 -0.13069,-0.13073 0.17841,-4.50004 0.68555,-9.70898 0.94682,-9.72499 1.21955,-10.35262 -1.41602,-10.35742 z m 378.54297,0.60547 c -1.86,-0.0675 -5.2365,0.10555 -5.9707,0.38476 -0.6608,0.25126 -0.748,0.4933 -0.748,2.05274 0,1.31414 -0.1172,1.76953 -0.4551,1.76953 -1.9166,0 -10.6126,0.7273 -12.0254,1.00586 -4.3575,0.85908 -6.296,3.04289 -6.6309,7.47265 -0.1689,2.23374 0.2534,6.39193 0.9024,8.88086 v 0.002 c 0.2646,1.01473 0.4459,1.19953 1.1797,1.19922 1.3931,-7.5e-4 6.2398,-0.92345 6.5664,-1.25 0.1848,-0.18482 0.1509,-0.91148 -0.088,-1.90625 -0.4307,-1.7955 -0.2541,-2.75844 0.5625,-3.08008 0.544,-0.21418 7.1711,-0.77407 9.3808,-0.79296 l 1.1543,-0.0117 0.2188,2.625 c 0.1204,1.4445 0.2953,2.70352 0.3887,2.79687 0.2401,0.2403 6.0057,0.0176 7.0761,-0.27343 0.8817,-0.24001 0.8887,-0.26218 0.8887,-2.93555 v -2.69336 l 1.7598,-0.20899 c 0.968,-0.11452 2.7218,-0.21938 3.8984,-0.23828 1.1765,-0.0174 2.5132,-0.17455 2.9687,-0.34765 0.372,-0.14142 0.5788,-0.33069 0.6172,-0.67383 0,-0.0109 0,-0.0219 0,-0.0332 0.053,-0.73209 -0.6875,-2.20036 -2.6621,-5.69727 l -2.4394,-4.32031 -2.4727,-0.0937 -2.4746,-0.0937 v -1.56641 c 0,-0.90712 -0.1671,-1.67322 -0.3984,-1.81836 -0.1292,-0.0809 -0.5812,-0.13179 -1.2012,-0.15429 z m -403.1914,4.36718 c -0.60125,0 -0.93954,1.90901 -1.04688,5.90235 l -0.082,3.02148 3.20117,2.33594 c 1.76002,1.28489 3.41506,2.29926 3.67774,2.2539 0.55687,-0.0961 0.87053,-1.33153 0.92382,-3.63281 0.0369,-1.59779 -0.0393,-1.74016 -3.08203,-5.75976 -1.71602,-2.26689 -3.33252,-4.1211 -3.59179,-4.1211 z m 19.64453,5.96094 c 0.50154,-0.0431 0.50031,0.15901 0.48047,0.96289 -0.0152,0.59161 -0.19554,2.50367 -0.40039,4.25 -0.20489,1.74637 -0.51768,3.22305 -0.69532,3.28125 -0.17767,0.0582 -0.81529,-0.15845 -1.41601,-0.48047 -2.09329,-1.12263 -2.87463,-4.00494 -1.63672,-6.03515 0.71845,-1.17835 1.32042,-1.55576 2.98047,-1.86719 0.29731,-0.0558 0.52032,-0.097 0.6875,-0.11133 z m 360.54687,13.99609 c -0.7707,0.005 -1.2575,0.031 -1.3633,0.084 -0.436,0.21845 -0.5624,1.11948 -0.7578,5.41601 -0.1508,3.31438 -0.1209,5.26781 0.084,5.47266 0.1753,0.17526 2.7493,0.44862 5.7187,0.60547 6.5556,0.34643 9.1774,0.75392 10.8418,1.6875 2.0509,1.15037 2.2554,1.87969 1.5625,5.55664 l -0.1933,1.02148 3.4746,1.76172 c 1.9104,0.96972 3.5447,1.76783 3.6328,1.77539 0.999,0.0724 2.2402,-3.11519 2.2402,-5.7539 0,-2.19028 -0.7554,-4.0062 -2.1132,-5.07422 l -0.8536,-0.66992 h 0.9805 c 1.6836,0 1.8647,-0.47105 2.1035,-5.47461 0.1686,-3.52815 0.1238,-4.66142 -0.1933,-4.97852 -0.4302,-0.43018 -19.7692,-1.4622 -25.1641,-1.42969 z m -351.67773,8.45899 c -3.2915,0.0134 -7.73267,0.0566 -12.52735,0.12695 l -17.43359,0.25586 -0.004,0.25 -0.15624,0.002 v 5.07618 4.75781 0.32031 l 0.33203,-0.002 c 0.84658,0.24893 4.99822,0.3164 17.55078,0.3164 9.67113,0 17.81129,-0.0883 18.08984,-0.19531 0.43287,-0.16618 0.50586,-0.95092 0.50586,-5.43359 0,-5.17705 -0.008,-5.24197 -0.72461,-5.42188 -0.19931,-0.0501 -2.34131,-0.0661 -5.63281,-0.0527 z m 349.11913,12.85156 c -0.4187,0.005 -0.6098,0.0548 -0.6641,0.14258 -0.1458,0.23595 -0.5096,2.31912 -0.8085,4.6289 -0.299,2.30983 -0.6049,4.48797 -0.6797,4.83985 -0.075,0.35199 -0.01,0.83252 0.1445,1.06836 0.1897,0.29061 4.191,0.9764 12.4043,2.125 6.6678,0.93252 12.5935,1.71157 13.1699,1.73047 1.3472,0.0458 1.4371,-0.19706 2.1738,-6.00196 0.5278,-4.15842 0.5356,-4.63451 0.084,-4.96484 -0.2746,-0.20084 -6.2876,-1.14983 -13.3613,-2.10938 -7.8917,-1.07056 -11.2067,-1.47291 -12.4629,-1.45898 z m -354.45898,0.25391 c -2.20621,-0.0324 -4.5066,0.44538 -6.76562,1.50195 -4.8912,2.28767 -7.46251,6.86953 -7.45117,13.2832 0.0129,7.8824 3.54232,13.49368 9.78515,15.55469 2.496,0.82394 7.17162,0.69033 9.66993,-0.27734 3.48922,-1.35141 6.39417,-4.3208 7.88867,-8.06446 0.75598,-1.89339 1.00643,-6.86503 0.49804,-9.8789 -1.23865,-7.34358 -7.00634,-12.022 -13.625,-12.11914 z m 383.96288,3.70898 c -0.2328,0.0141 -0.4066,0.0445 -0.5039,0.0957 -0.308,0.16222 -0.5665,0.54177 -0.5703,0.84375 0,0.3018 -0.2844,2.56531 -0.6231,5.0293 -0.4788,3.4851 -0.5313,4.56457 -0.2324,4.85938 0.2114,0.20836 1.2487,0.51534 2.3047,0.68164 1.056,0.16667 2.601,0.31716 3.4336,0.33984 1.7805,0.0455 1.5859,0.51608 2.4277,-5.81641 0.4241,-3.18943 0.4905,-4.54391 0.2422,-4.875 -0.3914,-0.52189 -4.8488,-1.25705 -6.4785,-1.1582 z m -383.53514,7.42188 c 2.82966,-0.017 4.31613,0.5472 5.18164,1.96679 1.3714,2.24939 0.4441,4.93966 -2.08984,6.06055 -1.9253,0.85168 -5.35543,1.07633 -7.02149,0.45898 -2.33582,-0.86558 -3.50418,-3.26235 -2.61523,-5.36328 0.91381,-2.15973 2.88547,-3.10037 6.54492,-3.12304 z m 357.18944,2.73047 c -3.1335,0 -5.649,1.61818 -7.2109,4.63867 -1.6769,3.24276 -2.2156,9.30664 -1.1074,12.45703 0.3404,0.96797 0.6213,1.84938 0.6289,1.95898 0.01,0.10953 -0.5539,0.29003 -1.2442,0.40039 -1.0618,0.16982 -1.3075,0.36025 -1.5898,1.24024 -0.6055,1.88829 -2.0071,8.56638 -1.8789,8.95117 0.082,0.24593 1.1219,0.39901 2.9843,0.43945 2.142,0.0464 4.3435,0.42522 8.7793,1.50586 9.1064,2.21851 11.7285,1.99571 14.6895,-1.24414 0.9524,-1.04209 1.8624,-2.46668 2.2812,-3.57226 2.6259,-6.93086 3.4762,-14.86396 1.9532,-18.23243 -1.0915,-2.41417 -4.4925,-5.33928 -5.4903,-4.72265 -0.1499,0.0927 -0.9626,2.2562 -1.8066,4.80859 -1.2781,3.86563 -1.4686,4.73459 -1.1367,5.19531 1.6548,2.2961 1.711,2.45092 1.5625,4.2793 -0.1872,2.30234 -0.7834,3.53629 -1.8965,3.92773 -1.5889,0.55881 -1.6612,0.22275 -1.8555,-8.55078 -0.1928,-8.71355 -0.2932,-9.26426 -2.0019,-11.05273 -1.6526,-1.72981 -3.2806,-2.42773 -5.6602,-2.42773 z m -0.5117,11.42773 c 0.1501,0.0149 0.3035,0.0495 0.457,0.10351 1.2771,0.44913 1.7194,1.75265 1.9024,5.61329 0.1851,3.90621 0.2039,3.88055 -2.0801,2.84375 -2.2548,-1.02358 -3.3741,-3.71088 -2.6563,-6.37696 0.3919,-1.45525 1.3263,-2.28767 2.377,-2.18359 z m -352.08985,7.48047 c -1.03163,0.0298 -1.80341,0.17525 -1.97461,0.44922 -0.27092,0.43374 -0.10869,8.27718 0.20313,9.81836 0.12472,0.61644 0.34832,0.7207 1.5625,0.7207 2.07715,0 4.50782,0.59505 5.44726,1.33398 2.1337,1.67838 3.01006,6.2228 1.57422,8.16211 -1.10948,1.49847 -3.16525,2.8727 -5.83008,3.90039 -5.32683,2.05425 -8.7298,1.89178 -10.98633,-0.52734 -2.4698,-2.64873 -2.46199,-6.13577 0.0195,-8.73242 0.54277,-0.56799 0.98216,-1.19088 0.9746,-1.38477 -0.007,-0.19389 -1.13878,-2.15157 -2.51562,-4.35156 -1.62172,-2.59124 -2.72125,-4.0329 -3.12305,-4.09375 -0.9778,-0.14797 -4.41347,3.64983 -5.63672,6.23242 -0.89865,1.89748 -1.04771,2.58169 -1.14257,5.27539 -0.35231,9.98464 6.3089,19.46682 14.55859,20.72657 h 0.002 c 6.22829,0.94927 14.83029,-1.88111 19.29883,-6.34961 5.00757,-5.00761 6.16372,-10.81962 3.67188,-18.45313 -2.18374,-6.68969 -5.27465,-10.25835 -10.375,-11.97656 -1.57101,-0.52914 -4.00913,-0.7997 -5.72852,-0.75 z m 338.94535,13.50976 c -0.1361,0.005 -0.2174,0.0318 -0.2618,0.0781 -0.545,0.5701 -3.333,9.57981 -3.1289,10.11133 0.086,0.22306 7.7365,2.91679 17.002,5.98437 9.2655,3.06754 17.2065,5.55172 17.6465,5.52149 0.7336,-0.0513 0.9225,-0.42873 2.2929,-4.53711 1.67,-5.00618 1.7924,-5.77062 0.9864,-6.1875 -0.308,-0.15927 -8.1689,-2.77381 -17.4688,-5.81055 -12.4761,-4.0739 -16.116,-5.19243 -17.0683,-5.16016 z M 789.54297,643.75977 c -0.51919,0.0746 -1.46927,2.02953 -4.86914,10.01367 -4.87831,11.45597 -5.41198,12.92449 -5.85547,16.0957 -0.63228,4.5213 1.09081,9.26456 4.45508,12.26758 2.19186,1.95655 9.10213,5.46125 12.5,6.33984 4.22082,1.09142 7.54921,0.74487 11.35742,-1.18359 2.08052,-1.05362 4.86179,-3.92363 6.13281,-6.32813 2.09855,-3.9699 9.79052,-22.67226 9.50781,-23.11718 -0.34987,-0.55053 -9.60806,-4.55469 -10.53125,-4.55469 -0.39832,0 -0.82123,0.30091 -1.01171,0.7207 -0.17983,0.39595 -2.24316,5.25483 -4.58594,10.79883 -2.34278,5.544 -4.60685,10.61087 -5.03125,11.25781 -1.47209,2.24413 -4.34097,2.79872 -7.31055,1.41602 -2.37479,-1.10582 -3.17621,-2.38379 -3.13086,-4.99219 0.0336,-1.92805 0.36724,-2.85167 4.56055,-12.63672 2.48806,-5.80584 4.52344,-10.86461 4.52344,-11.24219 0,-0.58208 -0.76359,-1.00892 -5.03321,-2.8164 -2.7679,-1.17177 -5.32283,-2.09009 -5.67773,-2.03906 z m 157.9375,2 c -0.68584,-0.0266 -2.70247,0.60483 -7.18945,2.22851 -3.79435,1.3731 -7.04099,2.66757 -7.21485,2.87695 -0.21078,0.25395 0.003,3.57514 0.64258,9.96485 0.52732,5.27078 0.91783,10.01497 0.86719,10.54297 -0.0812,0.8471 -0.78766,-0.0554 -6.01172,-7.67969 -4.03434,-5.88798 -6.12439,-8.66804 -6.56055,-8.72852 -1.02682,-0.14252 -14.38378,4.86301 -14.49414,5.43164 -0.10768,0.55518 12.23101,34.6913 12.77735,35.34961 0.47365,0.57067 0.41496,0.58191 3.83789,-0.66015 4.92835,-1.78829 5.71875,-2.15631 5.71875,-2.66602 0,-0.26657 -1.23814,-3.88852 -2.75196,-8.04687 -4.79697,-13.17687 -5.24685,-14.47653 -4.94336,-14.28907 0.16332,0.10096 3.20318,4.46301 6.75586,9.69532 3.55268,5.23226 6.71925,9.7878 7.03711,10.12304 0.56769,0.59815 0.62399,0.5924 3.08008,-0.27734 6.18489,-2.19024 5.86259,-2.00636 5.85937,-3.31445 -0.002,-0.6474 -0.50287,-6.21701 -1.11523,-12.37696 -0.61236,-6.15998 -1.11063,-11.3434 -1.10742,-11.51953 0.0129,-0.70684 0.71351,1.08474 4.46484,11.41797 2.15237,5.92883 4.11169,10.85782 4.35547,10.95117 0.60612,0.2326 8.77369,-2.78409 9.0957,-3.35937 0.3334,-0.59573 -12.17728,-35.16454 -12.88867,-35.61328 -0.047,-0.0297 -0.11686,-0.047 -0.21484,-0.0508 z m -117.12305,11.89257 c -0.22498,-0.003 -0.35428,0.005 -0.375,0.0254 -0.44523,0.44519 -4.24331,37.5477 -3.88086,37.91016 0.17356,0.17363 2.59943,0.57466 5.39258,0.89063 h 0.002 c 6.32463,0.7155 5.95946,0.6933 6.43946,0.38867 0.2626,-0.16672 0.67523,-2.79174 1.18554,-7.55274 0.43023,-4.0137 0.82442,-7.3396 0.87696,-7.39062 0.0919,-0.0894 10.53838,0.9494 12.65234,1.25781 0.6302,0.0922 1.20765,-0.0202 1.4707,-0.2832 0.62499,-0.62514 1.26999,-7.23388 0.75586,-7.74805 -0.21849,-0.21853 -3.27727,-0.70191 -7.10351,-1.12109 l -6.72071,-0.73633 0.10352,-2.56055 c 0.0567,-1.40799 0.20573,-2.66484 0.33008,-2.79297 0.12419,-0.12835 3.86151,0.14997 8.30469,0.61719 5.13498,0.53994 8.19049,0.73724 8.38476,0.54297 0.44825,-0.44829 1.15662,-8.05847 0.7832,-8.41602 -0.40138,-0.38452 -25.2269,-2.98131 -28.60156,-3.03125 z m 56.69727,2.08985 c -0.54107,0.006 -1.09826,0.0228 -1.67188,0.0527 -4.49824,0.23441 -7.62933,1.00082 -10.08398,2.46875 -5.95453,3.56096 -7.22979,11.52802 -2.58789,16.16992 2.55666,2.55663 5.45052,3.7326 13.72265,5.57618 3.81918,0.85115 5.33985,1.91731 5.33985,3.74804 0,1.62051 -1.61528,3.16248 -3.63086,3.46485 -3.18297,0.47727 -5.68855,-1.0514 -6.83594,-4.16993 -0.51409,-1.39725 -0.71397,-1.61102 -1.57226,-1.69531 -1.49681,-0.14714 -10.09162,0.82013 -10.44727,1.17578 -0.97674,0.97675 1.35989,6.66588 3.74609,9.1211 1.88202,1.9364 3.64355,2.76482 6.88672,3.23828 1.93236,0.28211 4.0347,0.39672 6.10938,0.38867 0.0411,-1.6e-4 0.082,3e-4 0.12304,0 4.32262,-0.0281 8.50057,-0.63593 10.70118,-1.71094 2.33325,-1.13979 4.79748,-3.62607 5.96679,-6.01953 1.27612,-2.61214 1.50295,-6.82398 0.50977,-9.45703 -1.78088,-4.72142 -5.58299,-6.94858 -15.28711,-8.95313 -6.26449,-1.29403 -7.55561,-2.27456 -5.75391,-4.36914 0.72605,-0.84427 0.96491,-0.91796 2.97656,-0.91796 2.70887,0 3.95152,0.75303 4.76563,2.88476 0.54017,1.41415 0.57107,1.43555 2.02539,1.43555 1.54428,9.1e-4 8.0186,-0.57181 9.20117,-0.81445 1.03412,-0.21196 1.1364,-0.94928 0.42188,-3.07032 -2.01586,-5.98404 -6.50898,-8.63306 -14.625,-8.54687 z"
         style="fill:#373435;fill-opacity:1;stroke-width:0.32000002"
         inkscape:connector-curvature="0" />
    </g>
  </g>
</svg>
