<?xml version="1.0" encoding="UTF-8" standalone="no"?>
<!-- Created with Inkscape (http://www.inkscape.org/) -->

<svg
   xmlns:dc="http://purl.org/dc/elements/1.1/"
   xmlns:cc="http://creativecommons.org/ns#"
   xmlns:rdf="http://www.w3.org/1999/02/22-rdf-syntax-ns#"
   xmlns:svg="http://www.w3.org/2000/svg"
   xmlns="http://www.w3.org/2000/svg"
   xmlns:sodipodi="http://sodipodi.sourceforge.net/DTD/sodipodi-0.dtd"
   xmlns:inkscape="http://www.inkscape.org/namespaces/inkscape"
   version="1.1"
   id="svg2"
   width="160"
   height="163.2"
   viewBox="0 0 160 163.2"
   sodipodi:docname="logoCTISM.svg"
   inkscape:version="0.92.4 (33fec40, 2019-01-16)">
  <metadata
     id="metadata8">
    <rdf:RDF>
      <cc:Work
         rdf:about="">
        <dc:format>image/svg+xml</dc:format>
        <dc:type
           rdf:resource="http://purl.org/dc/dcmitype/StillImage" />
        <dc:title />
      </cc:Work>
    </rdf:RDF>
  </metadata>
  <defs
     id="defs6" />
  <sodipodi:namedview
     pagecolor="#ffffff"
     bordercolor="#666666"
     borderopacity="1"
     objecttolerance="10"
     gridtolerance="10"
     guidetolerance="10"
     inkscape:pageopacity="0"
     inkscape:pageshadow="2"
     inkscape:window-width="1366"
     inkscape:window-height="744"
     id="namedview4"
     showgrid="false"
     inkscape:zoom="4.0901277"
     inkscape:cx="50.672596"
     inkscape:cy="114.95604"
     inkscape:window-x="0"
     inkscape:window-y="0"
     inkscape:window-maximized="1"
     inkscape:current-layer="svg2" />
  <path
     inkscape:connector-curvature="0"
     id="path18"
     d="M 73.813334,127.46667 C 73.696,127.34933 73.6,126.58347 73.6,125.76475 c 0,-5.21632 -3.73991,-9.60475 -8.185357,-9.60475 -2.722646,0 -4.502291,0.75632 -8.610979,3.6595 -0.39153,0.27666 -3.344202,-2.10238 -10.374221,-8.35875 l -1.410553,-1.25532 0.70672,-2.06272 c 0.893465,-2.60776 1.203097,-5.90071 0.698579,-7.42942 -0.850672,-2.577562 -3.8868,-4.207712 -8.584189,-4.609005 -1.276,-0.109008 -2.32,-0.330615 -2.32,-0.492461 0,-0.357683 -2.184598,-13.556528 -2.412714,-14.577066 l -0.162108,-0.725238 8.547206,0.08524 8.54721,0.08524 0.215894,0.96 c 0.118742,0.528 0.394445,2.112 0.612669,3.52 1.893709,12.218253 9.579606,21.32896 20.716352,24.55673 2.180806,0.63206 3.201657,0.72137 8.095491,0.70821 4.715907,-0.0127 5.98776,-0.12332 8.056138,-0.70081 C 95.332675,107.40321 101.6,103.16421 106.3121,96.96 c 2.79829,-3.684378 5.22406,-9.353286 6.46997,-15.12 l 0.19012,-0.88 h 8.35862 8.35862 l -0.21283,4.88 c -0.11705,2.684 -0.29978,5.852 -0.40606,7.04 l -0.19323,2.16 h -1.89549 c -1.04251,0 -2.89744,0.227891 -4.12205,0.506422 -6.58818,1.498448 -8.76621,7.001108 -5.39278,13.624528 l 0.59638,1.17096 -5.12359,4.74904 c -2.81798,2.61198 -5.25043,4.79311 -5.40544,4.84697 -0.15502,0.0538 -0.93435,-0.40014 -1.73184,-1.00889 -4.15314,-3.17016 -9.889729,-2.86938 -13.016186,0.68247 C 91.398227,121.18844 90.24,124.29163 90.24,126.43371 V 127.68 h -8.106666 c -4.458668,0 -8.202668,-0.096 -8.32,-0.21333 z M 78.851616,96.674896 C 75.898,94.873798 75.28809,91.229363 77.540586,88.841021 c 4.407862,-4.673696 11.501612,1.620029 7.524601,6.675981 -1.363235,1.733072 -4.355824,2.290739 -6.213571,1.157894 z M 68.32,82.732176 c -0.352,-0.238842 -3.440144,-2.261811 -6.862544,-4.495494 -5.038662,-3.288557 -6.119322,-4.119005 -5.68,-4.364861 0.2984,-0.166992 0.542544,-0.486243 0.542544,-0.709443 0,-0.223204 -2.16,-2.747981 -4.8,-5.610618 -2.64,-2.862637 -4.8,-5.268426 -4.8,-5.346198 0,-0.07777 0.36,-0.278276 0.8,-0.445562 0.44,-0.167286 0.8,-0.525843 0.8,-0.79679 0,-0.270951 -1.908,-2.374112 -4.24,-4.673696 -2.332,-2.299584 -4.024,-4.073104 -3.76,-3.941159 0.264,0.131949 3.20577,2.123546 6.537264,4.425776 3.331498,2.302227 6.203805,4.283863 6.382909,4.403635 0.193209,0.1292 0.01146,0.472173 -0.446887,0.843322 -0.618185,0.500579 -0.69672,0.716902 -0.393081,1.082765 0.208697,0.251462 3.183843,2.823968 6.611433,5.716678 L 65.243626,74.08 64.064912,74.24 c -0.747334,0.101443 -1.214902,0.350339 -1.27759,0.680086 -0.05563,0.292624 1.307558,2.156436 3.116902,4.261559 3.549501,4.129747 3.789693,4.482768 2.415776,3.550531 z m 24.8,-0.05107 c 0,-0.111465 1.044,-1.420627 2.32,-2.909248 3.76455,-4.391837 4.128102,-4.928323 3.694077,-5.451289 -0.241795,-0.291351 -0.702122,-0.39096 -1.276154,-0.276154 -0.493856,0.09877 -0.897923,0.07064 -0.897923,-0.06251 0,-0.133149 2.88,-2.677417 6.4,-5.653926 3.52,-2.976509 6.4,-5.591802 6.4,-5.811763 0,-0.219959 -0.29703,-0.607978 -0.66007,-0.86226 -0.62537,-0.438028 -0.31837,-0.697027 5.84,-4.926806 3.57504,-2.455459 6.71607,-4.572637 6.98007,-4.704835 0.264,-0.132199 -1.5058,1.680697 -3.93287,4.028662 -2.42709,2.347962 -4.40709,4.452109 -4.4,4.675882 0.007,0.223773 0.37287,0.570886 0.81287,0.771363 0.44,0.20048 0.79927,0.449392 0.79838,0.553142 -9.6e-4,0.103748 -2.16089,2.533501 -4.8,5.39945 -2.63911,2.865949 -4.79838,5.354467 -4.79838,5.530042 0,0.175577 0.216,0.402115 0.48,0.50342 0.264,0.101309 0.48,0.295744 0.48,0.432084 0,0.136339 -1.836,1.439033 -4.08,2.894873 -2.244,1.455843 -5.268,3.417735 -6.72,4.35976 -1.452,0.942029 -2.64,1.621578 -2.64,1.510112 z M 71.04,78.24 V 76.8 h 2.388742 c 2.034173,0 2.437911,-0.09188 2.72,-0.618963 0.357463,-0.667927 0.487872,-31.88056 0.137021,-32.794864 C 76.11687,42.946042 75.181923,42.88 69.12,42.88 c -7.885984,0 -7.36,-0.196256 -7.36,2.746173 V 47.36 h -2.24 -2.24 v -4.002026 -4.002022 l 24.08,0.08202 24.08,0.08203 v 3.84 3.84 h -2.24 -2.24 l -0.16,-2.08 -0.16,-2.08 H 93.6 86.56 l -0.08291,16.619315 c -0.06527,13.083376 0.0029,16.673738 0.32,16.875101 0.221603,0.140682 1.374912,0.25799 2.562912,0.260685 L 91.52,76.8 v 1.44 1.44 H 81.28 71.04 Z"
     style="fill:#36a0df;stroke-width:0.31999999"
     sodipodi:nodetypes="cssccccsssccccsccccscccccccssccscccscscsssscsssssssscccscscccsccsccssscscccccsscsscccccsccsscccccccccccccccscccccccc" />
  <path
     inkscape:connector-curvature="0"
     id="path14"
     d="M 86.824614,162.2449 C 85.719934,161.77117 84.16,160.51954 84.16,159.81539 c 0,-0.25047 -0.0054,-0.56339 -0.01194,-0.69539 -0.0066,-0.132 0.577597,-0.32276 1.298141,-0.42392 1.167929,-0.16397 1.378454,-0.0879 1.940253,0.70107 1.068035,1.49992 3.533075,1.81905 4.531052,0.5866 1.343108,-1.65867 0.252381,-2.90373 -3.22071,-3.67642 -2.98783,-0.66473 -4.5368,-1.94581 -4.5368,-3.75217 0,-2.34429 2.104006,-3.75516 5.6,-3.75516 2.566554,0 4.119578,0.60421 4.765984,1.85422 C 95.12944,151.82118 94.964205,152 93.282448,152 92.276586,152 91.768019,151.80463 91.2,151.2 c -1.34159,-1.42806 -3.84,-0.90756 -3.84,0.8 0,1.058 0.483891,1.40752 2.4,1.73356 4.129587,0.70269 5.92,2.06965 5.92,4.51986 0,1.10834 -0.205155,1.63797 -0.973411,2.51296 -0.535376,0.60976 -1.211692,1.00429 -1.922794,1.31718 -1.066554,0.46929 -2.175367,0.79016 -3.404909,0.79154 -1.77148,-0.0535 -1.730742,-0.27703 -2.554272,-0.6302 z M 68.48,161.31792 c -0.942682,-0.17193 -1.113072,-0.33043 -1.076246,-1.0011 0.150032,-2.73235 1.178009,-12.03321 1.349347,-12.20855 0.113795,-0.11645 2.330899,0.0132 4.926899,0.2882 l 4.72,0.49993 v 0.85847 c 0,0.47215 -0.06738,0.92584 -0.149731,1.0082 -0.08236,0.0823 -1.385898,0.023 -2.896768,-0.13194 -2.026439,-0.20778 -2.868547,-0.18082 -3.210266,0.10278 -0.501321,0.41606 -0.642019,2.71782 -0.183456,3.00123 0.153879,0.0951 1.310423,0.2687 2.570093,0.38578 1.259674,0.11707 2.350829,0.31077 2.424787,0.43044 0.07396,0.11966 0.04917,0.54376 -0.05509,0.94243 -0.182915,0.69947 -0.276323,0.71718 -2.667142,0.50554 -1.890016,-0.1673 -2.539226,-0.11958 -2.737498,0.20122 -0.142947,0.2313 -0.411788,1.50347 -0.59742,2.82703 -0.364781,2.60092 -0.421255,2.65442 -2.417514,2.29034 z M 102.8857,160.4 c -1.29668,-3.25954 -4.004353,-11.20556 -3.935025,-11.54784 0.105603,-0.52138 4.107915,-2.0982 4.413965,-1.739 0.11569,0.13576 1.177,1.65084 2.35849,3.36684 1.94446,2.82416 2.76857,3.56971 3.18347,2.88 0.0794,-0.132 -0.0373,-1.968 -0.25943,-4.08 -0.29792,-2.83306 -0.30985,-3.93129 -0.0455,-4.18815 0.39616,-0.38491 4.06932,-1.80752 4.23617,-1.64067 0.0577,0.0577 0.61282,1.50082 1.23355,3.20688 0.62073,1.70607 1.62951,4.47858 2.24173,6.16114 l 1.11313,3.0592 -1.14772,0.47955 c -0.63124,0.26375 -1.19205,0.43511 -1.24623,0.3808 -0.099,-0.0993 -3.35231,-8.95722 -3.35231,-9.12762 0,-0.29528 -0.91658,-0.0223 -1.03716,0.30887 -0.0801,0.22 0.0633,2.55111 0.31866,5.18023 0.44012,4.53129 0.43441,4.8021 -0.10976,5.2 -1.30703,0.95573 -1.83854,0.56326 -4.41947,-3.26331 -1.36628,-2.0257 -2.69876,-3.8977 -2.96107,-4.16 -0.62386,-0.62386 -1.0712,-0.60603 -1.0712,0.0427 0,0.40955 1.9495,6.0695 3.02533,8.78338 0.13531,0.34134 -0.0665,0.62417 -0.62802,0.88 -1.14346,0.521 -1.65088,0.47242 -1.91161,-0.183 z m -47.066327,-1.93506 c -1.638048,-0.16142 -5.002579,-2.03373 -5.808359,-3.23226 -1.205081,-1.79246 -1.00566,-3.60395 0.896791,-8.14618 0.895293,-2.13758 1.730301,-3.9943 1.855568,-4.12607 0.327229,-0.34419 2.916627,0.73869 2.916627,1.21973 0,0.22169 -0.72,2.08462 -1.6,4.13984 -0.88,2.05522 -1.6,4.13657 -1.6,4.62523 0,1.97647 2.255123,3.36379 4.175152,2.56849 0.973907,-0.4034 1.715779,-1.73697 3.689808,-6.63268 0.514272,-1.27542 1.119664,-2.31942 1.345318,-2.32 0.803344,-0.002 2.629584,0.93326 2.621575,1.34263 -0.01827,0.93396 -3.193267,7.84804 -4.099613,8.92759 -1.031616,1.22878 -2.596429,1.81072 -4.392867,1.63368 z M 7.0131734,110.6312 c -2.4451456,-1.64779 -3.7053155,-6.233 -2.3505568,-8.55267 0.8419341,-1.44159 1.2815584,-1.5094 1.9097664,-0.29458 0.4160583,0.80457 0.454472,1.19037 0.1787719,1.79546 -0.8792039,1.92965 -0.097203,3.97794 1.7516566,4.58812 0.8661514,0.28586 1.448657,0.25571 2.8325085,-0.14659 2.408793,-0.70025 3.70468,-1.84244 3.70468,-3.26528 0,-1.57205 -0.799661,-2.94874 -1.84582,-3.17775 C 11.580022,101.22456 11.52,101.16261 11.52,99.850042 11.52,98.674243 11.59365,98.56 12.351639,98.56 c 2.26206,0 4.143262,1.98452 4.951037,5.22297 0.467294,1.87342 0.07083,3.5165 -1.218124,5.04834 -2.015742,2.39557 -6.7836451,3.34159 -9.0713786,1.79989 z M 146.91656,108.46887 c -3.0599,-1.039 -5.62536,-1.951 -5.70103,-2.02668 -0.0757,-0.0757 0.0234,-0.73544 0.22015,-1.46615 0.31386,-1.16557 0.44403,-1.30128 1.06103,-1.10624 6.20252,1.96074 10.73176,3.45601 11.16587,3.68627 0.48059,0.25492 0.49523,0.42467 0.12816,1.48587 -0.22793,0.65893 -0.61609,1.2246 -0.86258,1.25705 -0.24649,0.0324 -2.95171,-0.79111 -6.0116,-1.83012 z M 146.08,101.86848 c -1.056,-0.2574 -2.22895,-0.53007 -2.60656,-0.60594 -0.63343,-0.12727 -0.66137,-0.23716 -0.36107,-1.420242 0.19557,-0.77048 0.51407,-1.282298 0.79798,-1.282298 0.38753,0 0.43345,-0.336349 0.2554,-1.87047 -0.48686,-4.194791 1.66786,-6.797232 4.0388,-4.878007 0.6881,0.557002 0.76972,0.920759 0.91545,4.08 0.1589,3.444615 0.16569,3.469139 0.98739,3.564656 1.09327,0.127085 1.64717,-0.602771 1.58372,-2.086809 -0.0285,-0.665156 -0.0716,-1.749178 -0.0958,-2.408948 -0.057,-1.548201 0.57607,-2.260201 1.22626,-1.37926 0.97727,1.324096 0.27317,6.147641 -1.16409,7.974828 -0.55737,0.70858 -0.90408,0.83891 -2.16068,0.81225 -0.82322,-0.0175 -2.36077,-0.24236 -3.41677,-0.49976 z m 2.08,-4.721555 c 0,-0.91553 -0.18,-1.888003 -0.4,-2.161047 -1.08208,-1.342992 -2.8,-0.627542 -2.8,1.166096 0,1.563076 0.29535,2.108557 1.39113,2.5693 1.4689,0.617622 1.80887,0.321724 1.80887,-1.574349 z M 7.3708858,95.759504 C 5.2153526,94.672125 4.2492854,91.454352 5.2733222,88.77295 c 0.735809,-1.926688 1.9734557,-2.690163 4.3635229,-2.691753 2.9262129,-0.0019 4.5226409,1.786464 4.5698539,5.119417 0.04295,3.032199 -1.834682,5.118391 -4.606699,5.118391 -0.616,0 -1.6191014,-0.251776 -2.2291142,-0.559501 z M 11.54773,93.029824 C 13.924749,91.204806 12.188213,88.246122 9.0347146,88.748186 7.7478864,88.953059 6.4,90.194429 6.4,91.174691 c 0,0.318448 0.2984515,0.958419 0.6632256,1.422154 0.5664842,0.720169 0.9048915,0.84167 2.32,0.832979 0.9112264,-0.0056 1.8852534,-0.1856 2.1645044,-0.4 z M 157.36,90.321277 c -0.61041,-0.139747 -0.66442,-0.439197 -0.35668,-1.977856 0.16074,-0.803715 0.345,-0.996359 0.88,-0.92 0.58053,0.08285 0.6623,0.278461 0.57549,1.376579 -0.11442,1.447232 -0.29999,1.704154 -1.09881,1.521277 z m -7.92,-1.054659 c -2.024,-0.318404 -3.716,-0.589648 -3.76,-0.602768 -0.19355,-0.0577 -0.0462,-2.141588 0.17615,-2.491492 0.19065,-0.300003 1.2075,-0.252662 4.49784,0.209408 2.33832,0.328375 4.30401,0.649572 4.36821,0.713767 0.0642,0.06419 0.035,0.725961 -0.0649,1.470592 -0.21214,1.581654 0.10949,1.538473 -5.21732,0.700493 z M 154,84.591754 c -0.22,-0.0908 -0.4,-0.553047 -0.4,-1.02722 0,-1.90895 -1.8762,-2.924534 -5.40282,-2.924534 -0.87967,0 -1.65983,-0.108 -1.73369,-0.24 -0.0738,-0.132 -0.0666,-0.78 0.0161,-1.44 l 0.1504,-1.2 h 2.96033 c 1.62818,0 3.62842,0.09157 4.44499,0.203494 1.46979,0.20146 1.48466,0.215668 1.48466,1.418439 0,0.933897 -0.14804,1.261926 -0.64,1.418067 -0.80639,0.255939 -0.80278,0.506742 0.0224,1.555789 1.07475,1.366313 0.49158,2.81128 -0.90239,2.235965 z M 0.34494406,82.56 0.31936183,80.8 6.879681,80.892598 13.44,80.985194 v 1.236611 1.236608 l -3.28,0.219088 C 8.356,83.798 5.4756413,83.847856 3.7592029,83.788294 1.8760163,83.722947 0.58528925,83.806902 0.50446592,84 0.43079914,84.176 0.3590143,83.528 0.34494406,82.56 Z M 7.8279802,78.379606 C 7.2933693,78.224134 6.4338035,77.656294 5.9178346,77.117741 5.1075427,76.271978 4.9630605,75.843914 4.8575334,73.976349 4.6492077,70.289494 6.188439,68.164 9.0687261,68.161197 l 1.2287259,-0.0013 -0.247788,2.8 c -0.358551,4.051629 -0.3457328,4.282957 0.258805,4.670541 0.429126,0.275123 0.742459,0.205964 1.44,-0.317837 0.766943,-0.57592 0.880755,-0.865347 0.814416,-2.071091 -0.214875,-3.905517 0.123746,-4.927876 1.043247,-3.149754 0.397812,0.769283 0.506918,1.603053 0.413089,3.156768 -0.168445,2.789306 -0.732289,3.866512 -2.487026,4.751373 -1.518655,0.765814 -2.1527329,0.830793 -3.7042148,0.379606 z M 8.557601,75.12 C 8.9427824,74.632374 9.2942374,72.089446 9.060599,71.480595 8.8275037,70.873158 7.3751235,70.92712 6.6651971,71.569597 5.873449,72.286118 5.9028627,74.062864 6.72,74.88 c 0.7328176,0.732819 1.3814048,0.817526 1.837601,0.24 z M 146.45333,75.306666 C 146.336,75.189334 146.24,74.275651 146.24,73.276262 c 0,-2.322729 0.5389,-2.859126 3.08698,-3.072627 3.17811,-0.266291 3.95302,-0.447987 3.95302,-0.926877 0,-0.249833 0.31252,-0.621497 0.69449,-0.82592 0.60172,-0.322028 0.77626,-0.259417 1.30669,0.468743 0.35875,0.492493 0.92154,0.840419 1.35941,0.840419 0.5032,0 0.96474,0.351962 1.41331,1.07777 0.93558,1.513788 0.84757,1.80223 -0.5499,1.80223 -1.39167,0 -1.984,0.449024 -1.984,1.504 0,1.181955 -1.44208,1.009405 -1.87205,-0.224 -0.31701,-0.909363 -0.42727,-0.96 -2.09047,-0.96 -2.43264,0 -3.36827,0.413955 -3.60442,1.59472 -0.18284,0.914192 -0.95189,1.299786 -1.49973,0.751946 z M 1.6783347,72.786851 C 1.012346,72.320374 0.65620957,71.02727 1.2,71.050054 c 0.3686345,0.01546 1.4197251,1.570772 1.3014072,1.925725 -0.058431,0.175293 -0.42233,0.09176 -0.8230725,-0.188928 z M 16.128126,66.686314 C 16.249542,66.176842 16.632426,65.4 16.97898,64.96 c 1.807691,-2.295126 1.609985,-3.733066 -0.610246,-4.438384 -1.781985,-0.566096 -2.148578,-0.236134 -1.636513,1.472986 0.77745,2.594899 -1.429389,4.88111 -4.27276,4.426438 C 8.3525651,66.084134 7.0103712,65.287248 6.5024864,64.071709 5.9064362,62.645158 6.2008826,61.369053 7.4559075,59.939658 8.3683213,58.900477 8.4053904,58.773853 7.9044371,58.407546 7.4992912,58.111296 7.4105264,57.747366 7.5605078,56.997462 c 0.1111856,-0.555929 0.2991424,-1.07072 0.4176816,-1.143984 0.3029911,-0.187257 9.3554466,1.90145 10.2001466,2.35352 0.864131,0.462468 1.661664,1.958084 1.661664,3.116119 0,1.277021 -0.91569,4.332457 -1.540575,5.140528 -0.296684,0.383654 -0.956267,0.799126 -1.46574,0.92327 -0.891278,0.217178 -0.917965,0.190679 -0.705559,-0.700601 z M 12.91618,63.198106 C 14.186064,61.928221 13.593778,60.051261 11.726797,59.428931 8.6138211,58.391274 6.8482448,62.323517 9.92,63.452979 c 0.953302,0.350525 2.524433,0.216874 2.99618,-0.254873 z m 133.17305,2.600217 c -1.60957,-1.609568 -2.32568,-6.48023 -1.16374,-7.915174 l 0.6055,-0.747751 0.41369,1.380784 c 0.3212,1.072096 0.32892,1.516528 0.0345,1.987959 C 145.12228,61.876262 145.95135,64 147.34391,64 c 0.96067,0 1.13505,-0.505366 1.14081,-3.306173 0.005,-2.639014 0.45145,-3.757497 1.66919,-4.185753 1.88752,-0.663805 3.41252,1.176921 3.91534,4.725984 0.21376,1.508758 -0.23006,3.405942 -0.79677,3.405942 -0.53674,0 -0.90766,-1.870755 -0.58287,-2.939702 0.48619,-1.600106 -0.0993,-2.893914 -1.24977,-2.76154 -0.87921,0.101168 -0.87996,0.103463 -1.03984,3.189335 -0.12623,2.436281 -0.28867,3.229917 -0.7696,3.76 -0.85087,0.937843 -2.5568,0.894598 -3.54117,-0.08977 z m -3.47299,-11.129027 c -0.39193,-0.932317 -0.38752,-1.140698 0.0344,-1.626685 0.44215,-0.509334 0.35882,-0.674864 -0.96659,-1.92 -1.7762,-1.668633 -2.20742,-3.108118 -1.30641,-4.36096 0.53607,-0.745408 6.09305,-3.803721 7.01386,-3.860125 0.1933,-0.01184 0.58221,0.565901 0.86423,1.283866 l 0.51277,1.305392 -2.46423,1.120762 c -1.35532,0.616419 -2.71623,1.347312 -3.02423,1.624204 -0.79545,0.715114 -0.71602,2.178676 0.1512,2.786106 0.98437,0.689478 1.72968,0.62312 3.7688,-0.335558 3.26697,-1.535943 3.14067,-1.527741 3.67915,-0.238976 0.26447,0.63296 0.48085,1.259136 0.48085,1.3915 0,0.185968 -5.67142,2.874564 -7.90713,3.748452 -0.21551,0.08424 -0.58639,-0.322698 -0.83663,-0.917978 z M 13.313196,53.901216 C 11.219454,53.12673 9.4381603,52.424826 9.3547654,52.34143 9.1655779,52.152243 9.4950966,50.872685 9.8891056,50.266525 c 0.2450614,-0.377011 0.9604614,-0.220679 4.2428284,0.927155 2.171436,0.759344 4.007138,1.43048 4.079336,1.491411 0.206306,0.174109 -0.610253,2.677885 -0.864115,2.649597 -0.124935,-0.01392 -1.940217,-0.658986 -4.033959,-1.433472 z M 6.1257946,51.235075 c -0.5547226,-0.351491 -0.1874,-2.240822 0.4858896,-2.499187 0.8439328,-0.32385 1.1713699,0.382246 0.7580387,1.634653 -0.3994589,1.210371 -0.5418935,1.309363 -1.2439283,0.864534 z M 14.645804,49.58119 c -2.28247,-1.205123 -2.93284,-4.11854 -1.499137,-6.715587 1.45678,-2.638845 4.035678,-3.549369 6.602751,-2.331216 1.700425,0.806906 2.389881,2.130768 2.24968,4.319738 -0.267702,4.179641 -3.930496,6.534272 -7.353294,4.727065 z m 4.928999,-2.430787 C 20.249141,46.540138 20.352609,44.840362 19.76,44.107978 18.52908,42.586733 16.110785,42.070954 14.985197,43.089597 14.310859,43.699862 14.207391,45.399638 14.8,46.132022 c 1.23092,1.521245 3.649215,2.037024 4.774803,1.018381 z M 137.18612,43.147859 c -0.39849,-0.700006 -0.47184,-1.110137 -0.24,-1.341977 0.60742,-0.607418 0.34808,-1.111562 -0.75991,-1.477232 -2.094,-0.691082 -2.83959,-2.79265 -1.77269,-4.996583 C 135.37405,33.347875 137.45164,32 139.5495,32 c 1.32126,0 1.62498,0.137565 2.49735,1.131136 0.70585,0.803914 0.99315,1.454819 0.99315,2.250042 0,1.549395 0.65874,1.678854 2.50716,0.492729 0.85188,-0.546649 1.68352,-0.993907 1.84808,-0.993907 0.47851,0 1.5533,2.223267 1.21992,2.52344 -0.66818,0.601613 -10.29296,6.756403 -10.56265,6.754538 -0.16088,-9.6e-4 -0.55076,-0.455668 -0.86639,-1.010119 z m 3.66383,-4.315715 c 1.04633,-1.002448 1.20994,-2.450371 0.38045,-3.366947 -1.35628,-1.498675 -4.9104,0.329632 -4.9104,2.526006 0,0.400839 0.30421,1.033008 0.67602,1.404819 0.88891,0.888906 2.59866,0.638746 3.85393,-0.563878 z m -10.91066,-5.93377 -0.78071,-0.986214 2.30071,-2.159351 c 1.89256,-1.776279 2.30071,-2.334865 2.30071,-3.148704 0,-1.180771 -1.18616,-2.138581 -2.23585,-1.805423 -0.36695,0.116466 -1.58737,0.992408 -2.71204,1.946537 -1.12468,0.95413 -2.18969,1.734781 -2.3667,1.734781 -0.17701,0 -0.64507,-0.453955 -1.04015,-1.008788 l -0.71832,-1.008788 1.73653,-1.559315 c 0.95509,-0.857623 2.50943,-2.235596 3.45408,-3.062162 l 1.71755,-1.502848 0.74242,0.931088 c 0.53627,0.672544 0.69245,1.180961 0.56245,1.83095 -0.15684,0.784204 -0.0823,0.900017 0.58003,0.901059 1.94498,0.0031 3.78225,2.246025 3.33597,4.072592 -0.21596,0.883914 -5.13912,5.847105 -5.77597,5.822942 -0.176,-0.0067 -0.67132,-0.455936 -1.10071,-0.998356 z M 32.64,24.32 c -1.594842,-2.112 -3.085625,-3.84 -3.312852,-3.84 -0.227226,0 -0.978791,0.427994 -1.670144,0.951098 -0.691352,0.523103 -1.420443,0.955103 -1.620201,0.96 -0.344004,0.0084 -1.566169,-1.560644 -1.342372,-1.723404 0.05806,-0.04223 2.160219,-1.633653 4.671458,-3.536502 4.451788,-3.373267 4.581737,-3.445384 5.199999,-2.885863 0.920576,0.833109 0.77991,1.492391 -0.505155,2.367623 -2.029306,1.382118 -2.009319,1.481336 1.141568,5.666461 1.573757,2.090323 2.864064,3.944587 2.86735,4.120587 0.0058,0.31242 -1.902006,1.76 -2.319597,1.76 -0.115686,0 -1.515212,-1.728 -3.110054,-3.84 z m 88.18463,-0.934289 c -0.49231,-0.513859 -0.84325,-1.087477 -0.77987,-1.274706 0.15949,-0.471123 8.31904,-9.631005 8.57923,-9.631005 0.11576,0 0.68839,0.493095 1.27252,1.095766 l 1.06206,1.095766 -4.27928,4.823767 c -2.35361,2.653072 -4.43235,4.823977 -4.61942,4.824234 -0.18707,2.57e-4 -0.74293,-0.419963 -1.23524,-0.933822 z M 43.846378,20.57489 C 42.171709,19.710367 41.28,18.163806 41.28,16.123812 c 0,-1.44175 0.14952,-1.871837 0.979306,-2.816908 1.261574,-1.436854 4.056499,-2.530332 5.694502,-2.2279 1.100915,0.203267 3.246192,1.988159 3.246192,2.700863 0,0.161864 -1.44,1.016924 -3.2,1.900133 -1.76,0.883209 -3.2,1.798204 -3.2,2.033322 0,0.722535 1.117693,1.486678 2.174531,1.486678 0.720919,0 1.320035,-0.315898 2.124135,-1.12 0.616,-0.616 1.257024,-1.12 1.424496,-1.12 0.167472,0 0.521766,-0.08338 0.787318,-0.185277 0.745888,-0.286224 0.298867,0.968658 -0.701373,1.968897 -1.969801,1.969801 -4.937622,2.773453 -6.762729,1.83127 z m 2.564259,-5.060281 c 1.692713,-0.857761 1.928678,-1.352024 1.029363,-2.156132 -1.700051,-1.520074 -4.447421,0.15565 -3.767488,2.297933 0.274365,0.864442 0.806819,0.836867 2.738125,-0.141801 z m 56.599733,1.339613 c -1.08909,-0.575927 -1.54762,-1.077157 -2.0133,-2.200786 -0.83054,-2.004021 -0.50966,-3.536141 1.07183,-5.1176251 C 103.20467,8.40004 103.41027,8.32 105.19202,8.32 c 3.65552,0 6.08149,2.152588 5.70983,5.066386 -0.36478,2.85984 -1.88797,4.213614 -4.74089,4.213614 -1.20582,0 -2.17342,-0.229041 -3.15059,-0.745778 z m 4.03357,-1.383879 C 109.00442,13.509871 108.29587,9.92 105.94844,9.92 c -2.14881,0 -3.53058,3.857858 -1.94844,5.44 0.77688,0.776878 2.32142,0.832868 3.04394,0.110343 z M 56.650886,15.459629 C 55.176202,14.68895 54.373296,13.220343 54.327501,11.2099 54.281962,9.2106464 54.97401,8.1381312 56.966538,7.1199987 58.669898,6.2496246 61.561712,6.1367184 62.648797,6.898144 63.590806,7.5579514 63.546013,7.845305 62.429034,8.3079728 61.748739,8.58976 61.323587,8.6002131 60.85007,8.3467955 59.111123,7.4161402 56.96,8.6494448 56.96,10.577093 c 0,3.315629 3.319616,4.931359 4.966794,2.417448 0.55311,-0.844151 2.258713,-1.417034 2.751548,-0.924199 0.468519,0.46852 -1.028131,2.421654 -2.353932,3.071888 -1.792685,0.879215 -4.327188,1.021006 -5.673524,0.317401 z M 91.367405,14.465994 C 86.518419,12.803603 87.700973,5.44 92.816928,5.44 95.586432,5.44 98.56,7.0438602 98.56,8.537655 c 0,0.629177 -2.132512,0.209833 -2.915696,-0.5733523 -1.459251,-1.4592493 -3.444941,-0.9025369 -4.329178,1.2137363 -0.596467,1.427549 -0.315596,2.77782 0.752599,3.618061 0.98735,0.776651 1.938953,0.81965 2.920742,0.131977 0.968067,-0.678061 3.020704,-0.356161 2.870544,0.450166 -0.143085,0.768332 -2.109085,1.663189 -3.619011,1.647253 -0.704,-0.0074 -1.996669,-0.259206 -2.872595,-0.559502 z M 68.694598,13.52834 C 68.603923,13.381628 68.426243,11.357733 68.29975,9.0307952 L 68.06976,4.8 h 1.175165 c 0.749392,0 1.241897,0.1739078 1.359353,0.48 0.251892,0.6564166 0.538151,0.608361 1.906167,-0.32 1.233245,-0.8369021 2.919328,-1.0420646 3.964966,-0.4824566 0.823895,0.4409363 1.209792,1.8905065 1.460311,5.4854806 l 0.214841,3.083024 -1.331907,0.127018 c -0.732547,0.06986 -1.396426,0.0625 -1.47528,-0.01636 -0.07886,-0.07886 -0.144179,-1.019375 -0.145162,-2.090042 C 75.194918,7.480553 74.307603,5.8711914 72.582416,6.3223373 71.449699,6.618551 71.2,7.3788195 71.2,10.531434 V 13.6 l -1.170272,0.09755 C 69.38608,13.7512 68.78527,13.67506 68.694598,13.528345 Z M 81.895718,13.2 c -0.08044,-0.795073 0.06144,-5.027679 0.225248,-6.72 l 0.193591,-2 H 83.55728 84.8 v 2.5130589 c 0,1.3821824 -0.09251,3.3981821 -0.205587,4.4800001 L 84.388829,13.44 h -1.234416 c -0.678928,0 -1.245338,-0.108 -1.258695,-0.24 z M 42.88,9.1542365 c 0,-0.7119607 0.181021,-1.1552279 0.525802,-1.2875325 0.771196,-0.2959357 0.816934,-0.095008 0.274105,1.2041632 C 43.072448,10.524719 42.88,10.544777 42.88,9.1542365 Z M 82.3616,1.7753239 C 82.26353,1.519752 82.268944,1.172051 82.373632,1.0026551 82.478323,0.8332592 82.383072,0.62173187 82.161987,0.53259443 81.940896,0.44345696 82.624,0.3705263 83.68,0.3705263 c 1.056,0 1.760928,0.0656552 1.566509,0.14590052 C 85.05209,0.59667206 84.960877,1.0173036 85.043814,1.4511636 85.18449,2.1870652 85.105539,2.24 83.867261,2.24 83.002048,2.24 82.47783,2.0782165 82.3616,1.7753239 Z"
     style="fill:#393637;stroke-width:0.31999999"
     sodipodi:nodetypes="sscscsssssssscscacscscccscccccccccccccccccccscscscscccccscccccsccssscccccccsccccscssscccccccccccssscscscccccccscscscscssccsssccccccccccscccccsscccscsccccscccccssssccsccsscscsccccsccccsssccscsscsccccsccssssssccccscccsccssccccscscsccccsccccccccccscscccsccsccsccscsscsscccccscscscsssccsssscsccssccsccsccccccccsssccscsscssscscccsssscssssscscsscscccccsssccscccsscscsscsccssscccsscscscscscscscscscccccscccsccscsssscccssssc" />
</svg>
