<?xml version="1.0" encoding="UTF-8" standalone="no"?>
<!-- Created with Inkscape (http://www.inkscape.org/) -->

<svg
   xmlns:dc="http://purl.org/dc/elements/1.1/"
   xmlns:cc="http://creativecommons.org/ns#"
   xmlns:rdf="http://www.w3.org/1999/02/22-rdf-syntax-ns#"
   xmlns:svg="http://www.w3.org/2000/svg"
   xmlns="http://www.w3.org/2000/svg"
   xmlns:sodipodi="http://sodipodi.sourceforge.net/DTD/sodipodi-0.dtd"
   xmlns:inkscape="http://www.inkscape.org/namespaces/inkscape"
   version="1.1"
   id="svg2"
   width="331.55762"
   height="331.54007"
   viewBox="0 0 331.55761 331.54007"
   sodipodi:docname="lupa.svg"
   inkscape:version="0.92.4 (33fec40, 2019-01-16)">
  <metadata
     id="metadata8">
    <rdf:RDF>
      <cc:Work
         rdf:about="">
        <dc:format>image/svg+xml</dc:format>
        <dc:type
           rdf:resource="http://purl.org/dc/dcmitype/StillImage" />
        <dc:title />
      </cc:Work>
    </rdf:RDF>
  </metadata>
  <defs
     id="defs6" />
  <sodipodi:namedview
     pagecolor="#ffffff"
     bordercolor="#666666"
     borderopacity="1"
     objecttolerance="10"
     gridtolerance="10"
     guidetolerance="10"
     inkscape:pageopacity="0"
     inkscape:pageshadow="2"
     inkscape:window-width="1366"
     inkscape:window-height="744"
     id="namedview4"
     showgrid="false"
     inkscape:zoom="1.0049571"
     inkscape:cx="99.738813"
     inkscape:cy="2.4679025"
     inkscape:window-x="0"
     inkscape:window-y="0"
     inkscape:window-maximized="1"
     inkscape:current-layer="svg2" />
  <path
     style="fill:#040404;stroke-width:0.64864868"
     d="m 20.645969,330.63991 c -4.66581,-1.25392 -8.91895,-4.05158 -13.2169804,-8.69396 -4.22147,-4.55969 -6.14043,-8.32729 -7.10272996,-13.94518 -1.27256,-7.42916 1.22107996,-16.62109 6.71930996,-24.76838 1.15866,-1.7169 18.5528104,-19.62401 38.6536704,-39.79357 32.70879,-32.82057 36.54701,-36.88523 36.54701,-38.70309 0,-1.22413 -1.53281,-4.95192 -3.8578,-9.38213 -9.9442,-18.94848 -14.70615,-36.77068 -15.39596,-57.62124 -0.81129,-24.52267 4.23909,-46.394227 15.50223,-67.135137 8.32266,-15.32605 21.646121,-31.29063 34.886671,-41.80228 18.40291,-14.61005 40.96075,-24.2085501 65.83784,-28.0144201 7.71059,-1.17962 29.66945,-0.98554 37.89948,0.33497 54.94198,8.81542 97.15123,47.0754901 110.63999,100.2882871 2.80981,11.08463 3.73765,18.93138 3.79717,32.11236 0.10049,22.25861 -4.1003,41.0535 -13.48291,60.32433 -6.00365,12.33085 -13.85529,23.43601 -24.01738,33.96963 -34.31522,35.56979 -82.8546,48.9621 -131.00734,36.14574 -8.07124,-2.14825 -17.9165,-6.10683 -26.85566,-10.79811 -4.40496,-2.31174 -8.16048,-3.8578 -9.37092,-3.8578 -1.80288,0 -5.96227,3.92743 -38.703091,36.54469 -20.17572,20.09959 -38.08788,37.49374 -39.80479,38.65368 -9.30032,6.28327 -19.07064,8.45205 -27.66781,6.14161 z M 210.04434,232.79829 c 23.02867,-3.06622 42.27452,-12.72748 58.43017,-29.33148 10.93169,-11.23507 18.18827,-23.06292 22.95432,-37.41437 9.39172,-28.2802 6.0441,-58.31057 -9.32225,-83.626757 -30.49904,-50.24738 -98.38161,-62.85918 -145.37384,-27.00877 -5.62637,4.29237 -14.71899,13.44395 -18.9493,19.0722 -26.612011,35.406147 -26.464331,84.680797 0.35952,119.959927 21.50985,28.29007 56.81221,43.02129 91.90138,38.34925 z M 130.24625,125.02254 c -5.18515,-2.24595 -8.43243,-7.20203 -8.43243,-12.86982 0,-3.04062 0.51622,-4.58849 3.44111,-10.31806 16.47137,-32.265717 50.54382,-51.263267 85.78583,-47.831027 11.99155,1.16786 25.48712,5.09942 29.85054,8.69611 6.732,5.54908 6.3079,16.22698 -0.85916,21.63188 -3.91471,2.9522 -7.61012,3.38097 -13.4271,1.55793 -17.85454,-5.59561 -28.21145,-5.90523 -42.19662,-1.26147 -14.96934,4.97054 -26.56051,14.97266 -34.30942,29.605867 -1.74585,3.29691 -3.93504,6.76375 -4.86486,7.7041 -3.76883,3.81146 -10.23657,5.14252 -14.98789,3.08449 z"
     id="path2707"
     inkscape:connector-curvature="0" />
</svg>
