<?xml version="1.0" encoding="UTF-8" standalone="no"?>
<!-- Created with Inkscape (http://www.inkscape.org/) -->

<svg
   xmlns:dc="http://purl.org/dc/elements/1.1/"
   xmlns:cc="http://creativecommons.org/ns#"
   xmlns:rdf="http://www.w3.org/1999/02/22-rdf-syntax-ns#"
   xmlns:svg="http://www.w3.org/2000/svg"
   xmlns="http://www.w3.org/2000/svg"
   xmlns:sodipodi="http://sodipodi.sourceforge.net/DTD/sodipodi-0.dtd"
   xmlns:inkscape="http://www.inkscape.org/namespaces/inkscape"
   version="1.1"
   id="svg21"
   width="72.279419"
   height="18.608393"
   viewBox="0 0 72.27942 18.608393"
   sodipodi:docname="moodle.svg"
   inkscape:version="0.92.4 (5da689c313, 2019-01-14)">
  <metadata
     id="metadata27">
    <rdf:RDF>
      <cc:Work
         rdf:about="">
        <dc:format>image/svg+xml</dc:format>
        <dc:type
           rdf:resource="http://purl.org/dc/dcmitype/StillImage" />
        <dc:title></dc:title>
      </cc:Work>
    </rdf:RDF>
  </metadata>
  <defs
     id="defs25" />
  <sodipodi:namedview
     pagecolor="#ffffff"
     bordercolor="#666666"
     borderopacity="1"
     objecttolerance="10"
     gridtolerance="10"
     guidetolerance="10"
     inkscape:pageopacity="0"
     inkscape:pageshadow="2"
     inkscape:window-width="1366"
     inkscape:window-height="716"
     id="namedview23"
     showgrid="false"
     inkscape:zoom="0.85268759"
     inkscape:cx="327.35701"
     inkscape:cy="132.55997"
     inkscape:window-x="-8"
     inkscape:window-y="-8"
     inkscape:window-maximized="1"
     inkscape:current-layer="svg21" />
  <g
     id="g31"
     transform="matrix(0.0508779,0,0,0.0508779,-11.221615,-22.895055)">
    <path
       style="fill:#fbcda4"
       d="m 1512,815.33758 c -31.1943,-3.05123 -53.8498,-13.08606 -73.201,-32.42298 -26.0505,-26.0314 -36.0699,-64.12628 -27.7049,-105.33713 9.142,-45.03881 45.0256,-76.41312 94.5211,-82.64315 13.0211,-1.63898 38.1702,-0.65646 49.4486,1.93184 45.5596,10.4556 77.0037,46.74457 84.3295,97.32286 1.2377,8.54566 2.1238,23.3706 1.7068,28.5552 -0.079,0.97924 -17.7236,1.2987 -82.8501,1.5 l -82.75,0.25578 0.1978,2.8198 c 0.1088,1.5509 1.9007,6.2759 3.9819,10.5 5.3344,10.82673 16.0044,21.50037 26.7718,26.78075 l 7.9514,3.89945 12.5486,-0.0519 c 11.2562,-0.0466 13.3209,-0.34253 20.0485,-2.87399 15.4253,-5.80424 23.4447,-11.54778 24.6687,-17.66785 0.3243,-1.62134 0.8712,-3.12189 1.2153,-3.33456 1.1745,-0.7259 67.0214,-0.99963 67.7394,-0.28161 1.9598,1.95979 -9.9894,21.67814 -19.0926,31.50614 -15.7041,16.95462 -42.5517,31.40915 -68.1654,36.69982 -13.4856,2.78553 -30.1998,3.93367 -41.3654,2.84152 z M 1574.4644,679.75 c -1.1842,-5.5419 -5.1054,-14.37028 -8.9663,-20.18697 -5.0391,-7.59168 -11.572,-13.15363 -20.4981,-17.45168 -7.339,-3.53383 -7.7587,-3.61135 -19.5519,-3.61135 -11.9222,0 -12.1338,0.0405 -19.6795,3.76981 -5.7134,2.82368 -9.1329,5.4124 -13.6248,10.31456 -6.3347,6.91323 -13.7743,20.36357 -14.8168,26.78811 L 1476.7383,683 h 49.2103 49.2103 z M 724,813.91298 c -31.66458,-2.69674 -59.72141,-17.81099 -78.36979,-42.21792 -23.10205,-30.23586 -28.18604,-76.67364 -12.51532,-114.3164 8.6629,-20.80921 28.29962,-41.53216 49.38511,-52.11689 16.70209,-8.3843 31.61786,-11.64597 53.5,-11.69897 23.33709,-0.0565 38.13893,3.283 56.22936,12.68619 29.02558,15.08715 48.14722,40.49482 54.81023,72.82848 1.8802,9.12406 2.08645,12.66502 1.65558,28.42253 -0.70849,25.91035 -5.00929,40.7289 -17.09042,58.88572 -7.08379,10.64628 -22.5762,25.45812 -33.47703,32.0064 C 777.76616,810.62359 751.0524,816.21692 724,813.91298 Z m 22.79141,-52.95177 c 16.29822,-3.75949 29.97678,-19.14568 34.65063,-38.97638 2.22878,-9.45647 2.04489,-27.76104 -0.3739,-37.21839 -4.80495,-18.78718 -14.73779,-30.58348 -30.15106,-35.8076 -9.15867,-3.1042 -23.89966,-2.48687 -32.28494,1.35203 -9.6559,4.42062 -15.82922,10.80367 -21.47658,22.20622 -4.9219,9.93776 -6.49699,17.51575 -6.54378,31.48291 -0.0475,14.16991 1.42656,21.25309 6.76333,32.5 5.81789,12.26084 16.73232,21.68553 28.24263,24.3877 5.28291,1.24022 15.95512,1.27727 21.17367,0.0735 z m 206.90413,52.94284 c -26.07924,-2.13298 -48.0283,-11.83177 -66.4757,-29.37411 -11.19392,-10.64473 -16.52285,-17.83345 -22.67291,-30.58575 -6.88256,-14.27116 -9.60654,-26.21585 -10.27048,-45.03617 -0.64251,-18.21306 1.04655,-30.98972 5.92767,-44.83902 3.74352,-10.62153 5.73301,-14.56686 12.13338,-24.06149 22.35944,-33.16915 63.75868,-50.88999 107.72521,-46.1115 26.96609,2.9308 47.93379,12.45522 66.35669,30.14193 23.3326,22.40021 33.7764,50.21052 32.2821,85.96206 -1.4365,34.36526 -15.7,62.28637 -41.9074,82.03425 -22.6344,17.05553 -50.9256,24.50117 -83.09856,21.8698 z M 977.5,760.64391 c 9.67392,-2.57783 16.25843,-7.082 22.6509,-15.49445 9.2187,-12.13196 13.4884,-27.47165 12.5542,-45.10362 -0.9445,-17.82585 -5.9573,-31.1177 -15.37255,-40.76136 -7.78875,-7.97772 -15.98784,-11.4759 -28.28534,-12.06807 -20.50034,-0.98716 -32.81339,6.40158 -42.13417,25.28359 -11.8893,24.08532 -8.29142,57.95826 8.04974,75.78585 2.9169,3.18223 7.16695,6.87795 9.44458,8.21273 8.70206,5.09974 22.85694,6.87285 33.09264,4.14533 z m 188,49.88285 c -13.4491,-2.48376 -28.3327,-8.76487 -38.0733,-16.06757 -18.3279,-13.74079 -32.5173,-35.15023 -39.0761,-58.95919 -2.629,-9.5435 -2.7546,-11.02712 -2.7518,-32.5 0,-21.28948 0.148,-23.03801 2.6982,-32.5 6.2906,-23.33946 21.147,-45.91372 38.1557,-57.97736 16.9739,-12.03892 35.5101,-17.54455 58.9283,-17.50283 25.7796,0.0459 44.5617,5.67748 57.0737,17.11275 l 5.5453,5.06813 v -82.02892 c 0,-73.23841 0.1684,-82.19731 1.5714,-83.60034 1.3572,-1.3572 5.5736,-1.57143 30.9286,-1.57143 25.355,0 29.5714,0.21423 30.9286,1.57143 1.4166,1.41666 1.5714,18.90424 1.5714,177.56574 0,119.40499 -0.3329,176.61626 -1.0352,177.92857 -0.9886,1.84729 -2.4034,1.93426 -31.4648,1.93426 -35.1802,0 -32.5,0.90118 -32.5,-10.92765 v -7.05914 l -4.6705,3.56506 c -9.163,6.99426 -23.9282,12.94067 -39.4378,15.88279 -9.7305,1.84584 -28.5779,1.87809 -38.3917,0.0657 z m 47.2535,-47.57658 c 11.51,-3.94646 27.8271,-17.40154 32.4258,-26.73834 2.188,-4.44246 2.3395,-6.02679 2.6487,-27.71184 0.2129,-14.92452 -0.078,-24.85569 -0.8296,-28.28524 -1.6296,-7.44034 -9.6874,-19.08936 -17.8767,-25.84435 -12.2568,-10.10991 -22.9435,-13.53402 -35.9359,-11.51413 -9.9736,1.55055 -16.9556,4.86704 -23.7254,11.26959 -6.8107,6.44135 -11.4485,13.92467 -15.1117,24.38373 -2.6407,7.53956 -2.7988,8.94958 -2.803,24.9904 0,15.85682 0.1783,17.54324 2.7142,25.07841 9.5791,28.46347 33.9531,42.78603 58.4936,34.37177 z m -915.67876,45.63988 c -0.88089,-1.06141 -1.0414,-19.9106 -0.64931,-76.25 0.28646,-41.16203 0.62493,-76.86506 0.75214,-79.34006 0.18628,-3.6241 -1.18927,-29.88417 -1.57369,-30.04289 -0.0571,-0.0236 -8.65388,-0.44207 -19.10388,-0.92995 -10.45,-0.48788 -24.04825,-1.21037 -30.21832,-1.60553 l -11.21832,-0.71847 -1.03168,2.71352 c -1.36199,3.5823 -1.36211,49.97749 -1.4e-4,54.58992 3.60467,12.20757 5.23267,27.11823 5.71466,52.33985 0.4611,24.12855 0.37884,25.82342 -1.2377,25.5 -2.12252,-0.42466 -8.4216,-15.79539 -12.16395,-29.68192 -3.35765,-12.45904 -3.75043,-30.96739 -0.87358,-41.16453 1.5682,-5.55856 1.84811,-10.58506 1.93257,-34.70447 l 0.0988,-28.20447 -3.50115,-0.29553 c -10.09213,-0.85187 1.45884,-8.863 41.99885,-29.12813 59.82697,-29.9063 109.67878,-43.43946 197.73795,-53.67952 10.03087,-1.16645 18.69337,-1.83935 19.25,-1.49533 0.55663,0.34402 1.00211,1.61143 0.98997,2.81647 -0.0172,1.71224 -6.4534,6.85472 -29.45549,23.53489 -16.18838,11.73915 -29.90031,21.90649 -30.47097,22.59409 -0.77666,0.93582 1.06662,2.9177 7.33051,7.88173 4.60244,3.64736 9.82104,8.28639 11.59689,10.30897 3.29854,3.75683 12.42541,11.3713 13.62989,11.3713 0.36717,0 2.67438,-1.84979 5.12712,-4.11065 6.27778,-5.78666 18.70109,-11.32205 31.26413,-13.93021 13.74071,-2.85264 38.62592,-3.07532 53.5,-0.47872 34.71672,6.06056 58.29388,24.30748 67.05459,51.89512 3.94147,12.41177 4.44541,22.89929 4.44541,92.51362 0,58.63756 -0.17462,66.1426 -1.57143,67.53941 C 615.0702,809.78694 610.81047,810 585.01036,810 568.59463,810 554.45177,809.72686 553.58179,809.39301 552.16269,808.84845 552,802.34044 552,746.11678 c 0,-38.23581 -0.41406,-65.97143 -1.06202,-71.139 -1.70139,-13.56889 -6.27239,-21.36055 -15.43798,-26.31541 -3.40925,-1.84302 -5.62455,-2.16237 -15,-2.16237 -9.44347,0 -11.58618,0.3135 -15.14255,2.21551 -5.96903,3.19234 -11.05667,9.65146 -13.58147,17.24267 -2.1325,6.41165 -2.18324,7.89461 -2.5504,74.52886 -0.27907,50.64772 -0.67441,68.17771 -1.5501,68.73468 -1.53506,0.97636 -60.8159,0.97636 -62.35096,0 -0.87574,-0.557 -1.27033,-18.08443 -1.54743,-68.73468 -0.36147,-66.07448 -0.43151,-68.16467 -2.48966,-74.30133 -2.36268,-7.04464 -5.27519,-11.76866 -8.96054,-14.53377 -2.45488,-1.84188 -2.5005,-1.82941 -13.645,3.73137 -9.51964,4.75003 -20.8511,8.6788 -31.82159,11.03297 -1.45183,0.31155 -3.02683,1.35784 -3.5,2.32509 -0.47316,0.96725 -0.98182,32.58363 -1.13034,70.25863 -0.24697,62.64822 -0.41279,68.60678 -1.94113,69.75 -2.58911,1.9367 -61.59795,1.78739 -63.21409,-0.15994 z M 1333.0427,807.07973 C 1332.3304,805.74891 1332,749.35599 1332,629.13717 c 0,-158.6615 0.1548,-176.14908 1.5714,-177.56574 1.3599,-1.35986 5.6346,-1.56937 31.75,-1.55612 16.5982,0.008 30.7423,0.37325 31.4314,0.81072 0.9975,0.63339 1.2012,37.14318 1,179.23469 L 1397.5,808.5 l -31.7073,0.26399 c -30.5458,0.25432 -31.7456,0.19261 -32.75,-1.68426 z"
       id="path45"
       inkscape:connector-curvature="0" />
    <path
       style="fill:#fabd86"
       d="m 1506.6048,813.90145 c -39.9362,-4.21114 -73.7542,-28.45529 -88.8647,-63.70711 -9.4122,-21.95803 -11.0752,-53.3252 -4.2003,-79.22149 10.4416,-39.33065 43.7972,-67.5708 87.9973,-74.5018 13.4625,-2.11105 40.7252,-1.57491 52.4629,1.03172 50.422,11.19741 82.0304,52.16266 85.8987,111.32665 0.4556,6.96882 0.6382,13.00808 0.4058,13.42058 -0.2324,0.4125 -37.1835,0.75689 -82.1135,0.76531 -45.0977,0.008 -82.3116,0.40832 -83.0763,0.89267 -1.8218,1.15371 -0.9554,4.55466 3.5662,14.00005 5.1542,10.76688 17.0729,22.64892 27.8548,27.76925 7.1151,3.37891 8.9359,3.81114 17.5053,4.15533 10.7932,0.43351 17.4903,-0.91439 29.6087,-5.95932 9.7606,-4.06333 15.297,-8.30722 18.1173,-13.88767 l 2.267,-4.48562 32.233,-0.56641 c 17.7281,-0.31152 32.6163,-0.24324 33.0847,0.15174 0.4685,0.39499 -0.9955,4.26882 -3.2532,8.60852 -21.317,40.97381 -75.0355,65.95004 -129.4937,60.2076 z m 68.9823,-131.26773 c 0.7383,-1.92397 -3.1671,-13.09602 -6.8633,-19.63372 -4.9203,-8.70282 -14.2796,-17.40943 -23.3913,-21.76013 -7.7065,-3.67969 -8.0264,-3.73987 -19.8844,-3.73987 -11.9054,0 -12.1438,0.0454 -19.6196,3.74019 -10.1654,5.024 -19.2058,14.51816 -24.7441,25.98609 -2.1977,4.55054 -4.2982,10.18622 -4.6679,12.52372 l -0.6721,4.25 h 49.6592 c 41.0588,0 49.75,-0.23662 50.1835,-1.36628 z M 723.91331,812.93412 C 675.6752,808.89727 637.70099,776.17688 627.67818,730.01334 624.87739,717.11335 624.71215,691.41866 627.35012,679 c 9.0782,-42.73721 41.07418,-74.09509 84.33789,-82.65597 10.95798,-2.16833 36.47575,-2.42014 47.31199,-0.46687 23.72674,4.2768 43.39839,14.62406 59.65762,31.37983 13.38716,13.79598 20.85989,26.73307 25.95631,44.93659 2.24614,8.02281 2.67215,11.85808 3.08866,27.80642 0.42492,16.27024 0.22267,19.7646 -1.67802,28.99222 -5.11279,24.82204 -17.60856,45.06339 -37.70045,61.0693 -22.1724,17.66331 -51.54687,25.62285 -84.41081,22.8726 z m 22.97203,-50.99401 c 16.58521,-3.82357 30.80762,-19.80538 35.5567,-39.95528 2.22878,-9.45647 2.04489,-27.76104 -0.3739,-37.21839 -2.59816,-10.15872 -7.21302,-18.982 -13.28764,-25.40501 -9.59689,-10.1473 -19.82213,-13.94388 -35.36764,-13.13184 -14.84496,0.77545 -24.75948,6.40602 -32.69773,18.56942 -8.57389,13.13738 -12.47268,28.4424 -11.29752,44.34939 2.02229,27.37401 15.24807,46.87969 35.58239,52.47776 5.52402,1.52077 15.99883,1.67103 21.88534,0.31395 z m 207.56468,51.03793 C 925.64926,810.58106 902.23588,799.63405 883.37581,779.74701 871.20674,766.91532 862.94487,751.95127 858.39426,734.5 c -3.58459,-13.74662 -4.43423,-36.60072 -1.91975,-51.63838 2.18364,-13.05913 7.112,-26.92997 13.25385,-37.30286 6.62403,-11.18725 24.83666,-29.34797 35.78269,-35.68071 15.30883,-8.85681 29.85757,-13.36623 48.73823,-15.10654 50.26942,-4.63353 94.20012,18.76746 113.81652,60.62781 7.5016,16.00801 10.4945,32.57562 9.6624,53.48695 -0.6068,15.24861 -2.1711,23.706 -6.6997,36.22125 -12.2978,33.98673 -43.7409,59.69403 -81.0285,66.24737 -11.12589,1.95539 -24.31971,2.5578 -35.54998,1.62315 z m 23.61848,-51.58835 c 8.48704,-2.51621 12.96812,-5.2144 19.14687,-11.52891 17.72813,-18.11762 22.02013,-53.15357 9.61773,-78.50892 -8.55799,-17.49575 -23.96221,-26.29909 -43.96102,-25.12323 -12.11808,0.7125 -18.85928,3.58478 -26.62526,11.34444 -26.10987,26.08866 -21.69944,82.42639 7.80647,99.71801 9.3483,5.47847 23.57785,7.19304 34.01521,4.09861 z m 186.766,48.04378 c -14.6961,-2.65923 -29.8299,-9.72519 -41.4327,-19.34499 -15.2088,-12.60944 -28.5617,-33.98483 -34.1006,-54.58848 -2.5374,-9.43866 -2.6895,-11.26301 -2.7099,-32.5 -0.021,-21.31517 0.12,-23.02659 2.6683,-32.5 5.474,-20.34968 18.8155,-41.8933 33.4475,-54.01078 8.2627,-6.84271 23.9745,-14.78533 34.7929,-17.58852 5.2485,-1.35994 12.6944,-2.26211 21.6487,-2.62303 29.5762,-1.19209 50.6713,4.60761 63.5515,17.47233 2.891,2.8875 5.4911,5.25 5.7781,5.25 0.2869,0 0.5217,-37.26 0.5217,-82.8 0,-63.06667 0.286,-83.08599 1.2,-84 1.7134,-1.71342 58.8866,-1.71342 60.6,0 0.9242,0.92423 1.2,41.58183 1.2,176.91821 0,96.64502 -0.2731,176.43002 -0.607,177.3 -0.535,1.39421 -4.1986,1.58179 -30.893,1.58179 -26.6944,0 -30.358,-0.18758 -30.893,-1.58179 -0.3339,-0.86998 -0.607,-4.91998 -0.607,-9 0,-4.08001 -0.2443,-7.41821 -0.5429,-7.41821 -0.2986,0 -2.8861,1.7504 -5.75,3.88978 -9.5353,7.12301 -23.2204,12.61296 -38.8154,15.57128 -9.919,1.88161 -28.579,1.86842 -39.0572,-0.0276 z M 1217,762.23278 c 8.9682,-4.38487 19.3868,-12.4894 24.6171,-19.14942 7.1444,-9.09741 7.5594,-11.36391 7.1977,-39.31224 l -0.3148,-24.32277 -3.1959,-6.47417 c -3.9306,-7.96247 -11.4941,-16.58152 -19.671,-22.41646 -11.7601,-8.39183 -22.5841,-10.8953 -35.4088,-8.18961 -17.3431,3.65899 -29.7619,15.83053 -36.8756,36.14149 -2.6407,7.53956 -2.7988,8.94958 -2.803,24.9904 0,15.91964 0.171,17.52204 2.7572,25.21451 4.7198,14.03878 14.9064,27.19293 25.1971,32.53754 7.5153,3.90318 11.6266,4.73303 22,4.44065 8.8902,-0.25057 10.7214,-0.63456 16.5,-3.45992 z m -919.33333,46.10055 c -1.15432,-1.15432 -0.77781,-141.49679 0.39557,-147.44684 1.25966,-6.38753 -0.74814,-37.92686 -2.49045,-39.12118 -0.58949,-0.40408 -5.70301,-0.74158 -11.36339,-0.75 -5.66039,-0.008 -16.2117,-0.73708 -23.44736,-1.61924 -14.1947,-1.73059 -25.0055,-1.55065 -27.00826,0.44955 -0.91969,0.91851 -1.33913,7.9892 -1.57754,26.59317 -0.30831,24.05889 -0.1972,25.91713 2.19459,36.7016 1.38564,6.24778 2.99428,15.72937 3.57476,21.0702 1.30853,12.03951 1.40739,48.78941 0.13124,48.78941 -1.35621,0 -8.7359,-19.46327 -11.25354,-29.6802 -2.92244,-11.85968 -2.99921,-29.44719 -0.17817,-40.8198 1.74723,-7.04374 1.97676,-11.28715 1.92016,-35.5 l -0.0643,-27.5 -2.80929,-0.32214 c -1.59005,-0.18234 -2.65076,-0.83334 -2.44402,-1.5 0.65935,-2.12619 23.83772,-15.44569 46.25331,-26.57956 57.37082,-28.49622 105.40025,-41.58973 189.40442,-51.63437 11.77243,-1.40767 22.00993,-2.32704 22.75,-2.04305 0.74007,0.28399 1.34558,1.17575 1.34558,1.98169 0,0.80593 -13.725,11.48353 -30.5,23.72799 -16.775,12.24446 -30.5,22.56059 -30.5,22.92474 0,0.36415 4.51693,4.35888 10.03761,8.87719 5.52069,4.51831 10.58319,9.09916 11.25,10.17967 C 444.53824,607.13869 455.30128,616 456.5121,616 c 0.37455,0 2.77505,-1.84779 5.33445,-4.10621 2.5594,-2.25841 7.62957,-5.60816 11.26706,-7.44388 25.87594,-13.05877 76.42683,-11.75125 103.88639,2.68707 19.13143,10.05935 31.42449,25.37823 37.20531,46.36302 2.161,7.84458 2.2107,9.41003 2.55803,80.57878 0.30258,62.00111 0.14592,72.75164 -1.07493,73.76485 -1.04908,0.87066 -9.50811,1.11565 -31.80877,0.92123 L 553.5,808.5 l -0.5689,-68 c -0.61882,-73.96627 -0.54801,-73.05148 -6.43191,-83.09159 -2.93971,-5.01624 -9.57203,-9.81239 -15.94027,-11.52718 -2.18451,-0.58823 -7.59143,-0.91464 -12.01538,-0.72537 -14.81305,0.63377 -23.1375,6.87937 -27.77608,20.8396 -2.10564,6.33714 -2.1755,8.25458 -2.71436,74.50454 l -0.5531,68 h -31 -31 l -0.5716,-68 c -0.62268,-74.07593 -0.52372,-72.81298 -6.51772,-83.18465 C 416.08036,653.2831 411.30993,649 409.14921,649 c -0.57313,0 -3.72339,1.57149 -7.00058,3.49219 -8.22959,4.82323 -19.46104,9.17614 -30.04595,11.64472 -7.15155,1.66786 -9.08386,2.5075 -9.71735,4.22246 -0.4349,1.17735 -0.94233,32.95009 -1.12763,70.60609 -0.25676,52.17947 -0.62482,68.64843 -1.5473,69.23469 -1.47959,0.9403 -61.10861,1.06831 -62.04373,0.13318 z M 1333.6124,806.4323 C 1333.2756,805.55457 1333,725.72833 1333,629.04066 c 0,-147.65175 0.2194,-175.97785 1.3704,-176.93307 0.9735,-0.80796 10.1677,-1.06061 31.75,-0.87245 L 1396.5,451.5 v 178 178 l -31.1376,0.26409 c -27.7419,0.23529 -31.2044,0.0901 -31.75,-1.33179 z"
       id="path43"
       inkscape:connector-curvature="0" />
    <path
       style="fill:#f9a558"
       d="m 1502.5,812.94886 c -24.6455,-3.84572 -45.8224,-14.26854 -62.3641,-30.69428 -13.1267,-13.0348 -21.8311,-28.20459 -26.8275,-46.75458 -2.5047,-9.29884 -2.6957,-11.43738 -2.725,-30.5 -0.028,-17.94272 0.246,-21.60152 2.1928,-29.33016 10.4611,-41.52839 39.3218,-68.44269 83.4215,-77.79563 8.2884,-1.75786 13.7232,-2.19228 27.8023,-2.22237 20.0305,-0.0428 29.4984,1.41098 44.7951,6.87823 24.3799,8.71371 44.7345,27.29444 57.058,52.08545 8.1184,16.33178 13.2197,38.02102 13.4967,57.38448 l 0.1502,10.5 -83,0.5 -83,0.5 0.215,2.11888 c 0.4167,4.10746 4.4633,13.42019 8.3798,19.28517 10.5214,15.75594 28.3204,26.13911 44.7044,26.07859 10.6953,-0.0395 28.405,-5.8282 37.9461,-12.40325 2.8485,-1.963 5.6333,-5.07221 7.2811,-8.12911 l 2.6684,-4.95028 32.1526,-0.26385 c 21.9005,-0.17972 32.1526,0.07 32.1526,0.78324 0,0.5759 -1.1873,3.39464 -2.6384,6.26385 -14.4739,28.61789 -45.7799,50.7564 -83.1013,58.76619 -11.1517,2.39334 -40.5461,3.49327 -50.7603,1.89943 z M 1576,681.65655 c 0,-3.43238 -3.5062,-13.05008 -6.9551,-19.07814 -17.1068,-29.89951 -55.5806,-35.35292 -77.8622,-11.03645 -6.2249,6.79336 -11.7515,16.30578 -14.6325,25.18557 -0.9328,2.87514 -1.4116,5.68764 -1.0641,6.25 0.4169,0.67454 17.626,1.02247 50.5729,1.02247 H 1576 Z M 716.5,811.52639 c -12.40987,-1.97895 -20.21107,-4.30393 -30.12261,-8.97738 -32.08344,-15.12789 -52.45816,-41.75842 -58.94932,-77.04901 -2.37273,-12.8999 -1.54836,-39.58835 1.58996,-51.47374 5.12745,-19.41859 14.21904,-35.12143 28.14087,-48.60444 C 678.96474,604.30331 703.22808,595 736.5,595 c 31.05588,0 54.89974,8.44787 76.63838,27.15293 26.60435,22.89179 39.38156,61.46014 33.40935,100.84707 -3.78223,24.94396 -13.32123,43.08913 -31.85558,60.59595 -16.96474,16.02423 -36.74819,25.26086 -60.78839,28.38129 -10.07674,1.30796 -27.70699,1.09546 -37.40376,-0.45085 z M 751,761.29293 c 13.89114,-4.57378 24.70633,-16.83836 30.68121,-34.79293 2.36329,-7.10173 2.66665,-9.57197 2.70171,-22 0.0461,-16.33671 -1.35661,-22.76595 -7.5822,-34.75286 -9.17694,-17.66953 -27.13236,-26.86901 -46.75743,-23.95623 -18.21548,2.70357 -30.74385,14.1781 -37.51226,34.35686 -3.63728,10.84388 -4.59577,29.23335 -2.12928,40.85223 4.79788,22.60142 19.92295,39.13889 38.3674,41.95021 6.89115,1.05036 16.09021,0.36458 22.23085,-1.65728 z M 947.88196,811.9305 C 923.20023,808.30334 904.36139,799.19704 887.19141,782.59396 868.3359,764.361 858.52785,743.49441 855.82356,715.859 c -3.10506,-31.73087 5.53108,-61.4652 24.34324,-83.81405 12.78524,-15.18887 33.70412,-28.17516 54.3332,-33.72968 9.31623,-2.50845 11.43592,-2.69625 31,-2.74648 23.09955,-0.0593 29.62151,0.98242 46.2161,7.38198 24.0351,9.2689 47.3725,31.89554 57.169,55.42789 9.5891,23.03393 11.3216,52.36315 4.5811,77.5502 -10.6596,39.83142 -44.5806,69.16223 -87.46204,75.6266 -10.19127,1.53633 -28.96331,1.72101 -38.1222,0.37504 z M 973,762.94834 c 9.41151,-1.50086 17.77628,-5.74782 24.2233,-12.29867 22.7213,-23.08719 23.005,-70.46869 0.55663,-92.95654 -12.44173,-12.46362 -34.51947,-15.97295 -51.54818,-8.19375 -11.06166,5.05328 -21.63303,19.9536 -25.89619,36.50062 -2.27984,8.849 -2.2685,28.22447 0.0217,37 5.69098,21.80689 20.05463,37.02202 37.64277,39.87427 7.62138,1.23595 7.71134,1.23639 15,0.0741 z m 201.5,47.39578 c -28.7317,-3.41151 -50.2292,-15.49095 -66.4606,-37.34412 -14.1258,-19.01843 -20.6016,-38.44968 -21.6622,-65 -1.3535,-33.88314 8.1781,-61.48538 28.8708,-83.60596 19.6676,-21.02469 47.9029,-30.54257 81.5484,-27.48926 21.7213,1.9712 35.4352,7.16677 45.5101,17.24176 3.2194,3.2194 6.2649,5.85346 6.7678,5.85346 0.5431,0 1.0181,-34.00401 1.17,-83.75 L 1250.5,452.5 h 30 30 l 0.2528,177.25 0.2527,177.25 H 1280.5028 1250 v -9 c 0,-5.83397 -0.3838,-9 -1.091,-9 -0.6001,0 -2.8707,1.52326 -5.0457,3.38501 -14.3122,12.25075 -46.7363,20.64578 -69.3633,17.95911 z m 36.768,-45.34517 c 13.0695,-4.03676 30.0549,-17.84747 35.4421,-28.81776 2.7474,-5.59468 2.7948,-6.00474 3.111,-26.93008 0.2005,-13.26574 -0.1055,-23.30417 -0.8145,-26.71947 -3.3192,-15.98839 -19.5192,-33.6455 -36.2708,-39.53321 -10.9149,-3.8363 -26.142,-2.05273 -37.0498,4.33972 -6.5509,3.83904 -15.1623,13.72922 -19.1217,21.96117 -10.6534,22.14949 -9.752,52.45154 2.1592,72.58355 11.9108,20.13117 32.6577,29.25847 52.5445,23.11608 z m -913.86525,41.60821 c -0.29397,-0.76606 -0.23951,-33.72856 0.12101,-73.25 0.80608,-88.36312 0.70304,-109.37896 -0.54362,-110.88109 -0.59293,-0.71443 -6.02682,-1.40853 -14.0204,-1.79088 -14.7803,-0.70699 -18.65416,-1.90143 -8.95974,-2.76259 3.575,-0.31757 -3.5125,-0.65507 -15.75,-0.75 -27.38981,-0.21247 -25.72022,-1.11471 -26.78429,14.47413 -1.00675,14.74931 0.0791,42.52134 1.92961,49.35327 2.89206,10.6771 4.64675,26.74547 5.28397,48.38729 0.758,25.74431 0.13553,26.85762 -5.95177,10.64492 -7.81939,-20.82588 -9.72846,-39.09493 -5.80298,-55.53221 1.61539,-6.7642 1.9383,-12.3253 2.09031,-36 0.21745,-33.8659 0.36146,-31.27944 -1.76485,-31.69709 -2.32736,-0.45714 3.5991,-4.52344 19.78991,-13.57838 57.77912,-32.31379 109.40266,-49.18782 182.46009,-59.64019 24.47247,-3.5013 51.72945,-6.56057 52.76269,-5.92199 0.46643,0.28827 0.71063,1.13638 0.54268,1.8847 C 482.63742,540.29536 469,550.74997 452.5,562.77952 c -17.35733,12.65459 -30,22.53505 -30,23.44549 0,0.86548 2.52109,3.53141 5.60243,5.92429 7.15908,5.55956 13.19167,11.01146 14.98819,13.54544 1.39316,1.96506 12.4325,11.30526 13.36187,11.30526 0.26441,0 2.76367,-2.02756 5.55391,-4.50569 13.58741,-12.06754 35.14244,-17.39728 65.41095,-16.17366 17.58023,0.71069 29.78924,3.02661 41.82597,7.93393 25.15161,10.25421 40.4648,28.48475 45.20012,53.81128 1.3584,7.2653 1.54088,18.20436 1.31675,78.93414 L 615.5,807.5 h -31 -31 l -0.5,-69 -0.5,-69 -2.38501,-5.91881 c -3.04723,-7.56224 -8.75057,-13.73449 -15.38794,-16.65312 -7.40742,-3.25724 -21.06105,-3.29221 -28.22705,-0.0723 -8.35787,3.75547 -13.27156,9.57153 -16.59639,19.64422 -1.01897,3.08699 -1.44396,19.63522 -1.86197,72.5 l -0.54164,68.5 h -31 -31 l -0.54164,-68.5 C 424.39297,667.49568 424.40345,667.6636 419.96045,658.93178 418.44647,655.95638 410.91176,648 409.60801,648 c -0.21243,0 -3.47363,1.80768 -7.24712,4.01706 -8.42952,4.93549 -19.43074,9.22589 -29.36089,11.45054 -9.4012,2.10615 -10.17394,2.52101 -11.37868,6.10891 -0.58787,1.75077 -1.13517,30.10044 -1.36437,70.67349 L 359.87423,808 h -30.9685 c -25.54614,0 -31.06208,-0.24388 -31.50298,-1.39284 z M 1334.2472,629.76425 1334.5,452.5 h 31 31 v 177 177 l -31.2528,0.26425 -31.2527,0.26425 z"
       id="path41"
       inkscape:connector-curvature="0" />
    <path
       style="fill:#f88822"
       d="m 1498.5,811.39243 c -36.9398,-6.59419 -67.2898,-30.57364 -80.3214,-63.46164 -5.5863,-14.09818 -6.6807,-21.31963 -6.6578,-43.93079 0.018,-17.83723 0.3096,-21.64395 2.2448,-29.30698 12.3163,-48.77258 54.4022,-78.67261 110.7606,-78.6902 24.7883,-0.008 46.9177,5.92641 64.2189,17.22074 29.8939,19.51494 47.5741,53.71466 49.8982,96.52063 l 0.6648,12.24419 -82.9041,0.25581 -82.904,0.25581 0.073,4.06671 c 0.2087,11.66461 16.3966,32.2958 31.1038,39.64114 14.0447,7.01448 26.7791,7.20786 44.818,0.68061 11.9592,-4.32733 20.2661,-10.06694 23.3573,-16.13846 l 2.4183,-4.75 h 31.3649 c 23.1601,0 31.3649,0.304 31.3649,1.16211 0,2.2361 -9.0847,16.63193 -14.8012,23.4544 -17.5879,20.99045 -48.1954,36.87002 -79.6988,41.34872 -10.037,1.42691 -35.6223,1.10124 -45,-0.5728 z m 78.3293,-128.74372 c 0.6535,-3.39484 -4.1042,-15.81325 -8.8345,-23.05934 -18.2806,-28.00299 -55.0621,-32.37635 -76.8058,-9.13228 -3.326,3.55557 -7.62,9.29478 -9.5422,12.75379 -4.0527,7.29307 -7.9961,18.43651 -7.2303,20.43202 0.4401,1.14703 8.9584,1.33242 51.2921,1.11628 48.4978,-0.24761 50.7802,-0.34183 51.1207,-2.11047 z M 716.5,810.956 c -42.16231,-6.52895 -76.11918,-36.40583 -86.10116,-75.75593 -6.47626,-25.53017 -4.71881,-54.15786 4.71605,-76.82141 6.72708,-16.15916 21.63027,-34.12844 36.76628,-44.33033 25.97939,-17.51049 62.94949,-23.11433 96.44149,-14.61839 37.13747,9.42069 65.88606,37.71622 75.25605,74.07006 4.6005,17.84911 4.46999,44.26544 -0.3063,62 -7.92345,29.42003 -31.03863,55.77268 -59.3575,67.671 -14.37582,6.04008 -24.64766,7.99869 -43.91491,8.3736 -9.625,0.18728 -20.2,-0.0776 -23.5,-0.5886 z m 39.75928,-51.23958 C 769.07995,753.3801 779.0488,739.99834 783.61147,723 c 2.38912,-8.90074 2.41787,-29.06323 0.0542,-38 -7.46121,-28.20977 -28.25445,-43.54564 -54.16564,-39.94938 -15.22777,2.11349 -26.40732,10.78372 -34.02005,26.38403 -9.89403,20.27525 -10.07167,45.146 -0.46533,65.14993 6.35979,13.24341 14.83897,21.16644 27.47232,25.6704 3.87061,1.37993 7.42228,1.72322 15.5847,1.50635 9.93409,-0.26394 11.03096,-0.50788 18.18764,-4.04491 z M 943.5,810.40458 c -9.8743,-1.74769 -22.06399,-5.67382 -30,-9.66259 -20.67997,-10.39412 -39.92171,-30.42377 -48.4263,-50.40928 -13.47364,-31.66258 -11.62542,-73.6105 4.48916,-101.88791 20.98385,-36.82188 61.3753,-56.40501 107.989,-52.35669 27.26644,2.36804 48.28224,11.43051 66.66984,28.74946 9.6478,9.08712 16.0559,17.79739 21.8225,29.66243 8.8203,18.14805 12.2546,38.68073 10.1699,60.802 -2.558,27.14161 -11.8192,47.53795 -29.6242,65.24212 -16.5019,16.40853 -35.6894,26.19325 -58.67342,29.92071 -11.63028,1.88615 -33.58772,1.85637 -44.41648,-0.0602 z m 41.86919,-50.26557 c 11.82087,-5.81939 20.98501,-17.05248 26.35461,-32.30441 3.3938,-9.64017 4.3051,-29.33402 1.8895,-40.8346 -2.1659,-10.31133 -8.507,-22.78008 -14.91666,-29.33115 -17.71893,-18.10978 -49.91193,-17.42284 -66.03127,1.40899 -5.09801,5.95588 -10.42935,16.67942 -12.69337,25.53164 -2.40507,9.40375 -2.64266,27.56145 -0.49336,37.70509 2.0617,9.73015 7.61421,20.5916 14.11779,27.61624 10.18204,10.99783 18.18878,14.20824 34.44216,13.81007 9.65938,-0.23663 11.10523,-0.53713 17.3306,-3.60187 z m 184.44481,48.783 c -15.0748,-2.21138 -31.2896,-8.81014 -42.4678,-17.28266 -20.8372,-15.79351 -35.2377,-41.48702 -39.3114,-70.13935 -2.4811,-17.45165 -0.6337,-41.23486 4.4411,-57.17162 8.5289,-26.78401 28.7846,-49.93003 52.2875,-59.74848 14.9451,-6.24334 35.314,-8.74514 54.3595,-6.67665 21.0349,2.28455 33.5528,7.41409 43.7077,17.91038 4.9567,5.12331 6.5269,6.23342 7.2347,5.11492 0.5198,-0.82127 0.9106,-36.8186 0.9194,-84.67855 L 1251,453 h 29.5028 29.5027 l -0.2527,176.75 -0.2528,176.75 h -29 -29 l -0.2896,-8.79659 c -0.3478,-10.56322 -1.356,-11.44658 -7.2783,-6.37724 -8.8868,7.60674 -28.4961,15.39996 -44.2545,17.5878 -8.8862,1.23374 -21.485,1.23713 -29.8636,0.008 z m 37.3868,-42.04796 c 7.3371,-1.55896 17.1579,-6.69255 25.3699,-13.26155 7.9026,-6.32146 11.3585,-10.37682 15.2182,-17.85788 L 1250.5,730.5 1250.4871,706 c -0.012,-23.03504 -0.1465,-24.82887 -2.2478,-30 -5.0632,-12.45991 -17.7378,-25.41851 -31.1196,-31.81697 -27.0282,-12.92339 -57.5422,4.77938 -66.1325,38.36687 -9.7956,38.30052 8.0118,77.36186 38.264,83.93364 7.9143,1.71926 11.3446,1.79389 17.9496,0.39051 z M 298.073,738.26445 c 0.0402,-37.82045 0.37765,-71.01445 0.75,-73.76445 0.75754,-5.59484 -0.92493,-40.38888 -2.03544,-42.09373 -0.41838,-0.6423 -6.11272,-1.35205 -13.79625,-1.71957 -14.80859,-0.70834 -18.69252,-1.90233 -8.99131,-2.7641 3.69936,-0.32862 -2.46594,-0.65177 -14.30902,-0.75 C 246.11538,617.06 239.0968,616.65239 239.5,616 c 1.07675,-1.74221 -1.09498,-1.08545 -4.86045,1.46986 -4.7109,3.1969 -5.02074,0.81153 -0.38955,-2.99899 3.44442,-2.83406 2.09866,-2.42304 -2.50578,0.76531 -1.51568,1.04953 -3.54068,1.75406 -4.5,1.56562 -2.32057,-0.45584 3.6239,-4.53297 19.79569,-13.57727 57.77912,-32.31379 109.40266,-49.18782 182.46009,-59.64019 24.47247,-3.5013 51.72945,-6.56057 52.76269,-5.92199 0.46643,0.28827 0.71063,1.13638 0.54268,1.8847 C 482.63742,540.29536 469,550.74997 452.5,562.77952 c -17.35733,12.65459 -30,22.53505 -30,23.44549 0,0.86548 2.7,3.66739 6,6.22647 7.76141,6.0188 15.23209,13.1837 15.99994,15.34504 0.50414,1.41904 9.29954,8.96005 11.68693,10.02015 0.39224,0.17417 2.64815,-1.4497 5.01314,-3.6086 7.80032,-7.12058 16.80082,-11.58032 29.79999,-14.76585 9.84789,-2.41328 39.84724,-3.03419 52.57339,-1.08812 30.31322,4.63547 53.10459,18.93708 63.27313,39.70397 7.96506,16.2668 7.56477,11.47743 7.91433,94.69193 L 615.07276,807 H 584.53638 554 l -0.008,-64.25 c -0.008,-66.23666 -0.36042,-73.2621 -4.10293,-81.74398 -2.37524,-5.38316 -8.01201,-11.46422 -13.02676,-14.05355 -8.52877,-4.40377 -24.18138,-4.38138 -32.86174,0.047 -5.81721,2.96772 -11.69436,10.35463 -14.23925,17.8971 -2.20359,6.53096 -2.23147,7.3468 -2.54045,74.35342 L 486.9089,807 H 456.45445 426 v -63.55845 c 0,-41.67066 -0.38288,-66.02618 -1.11183,-70.72435 -1.47496,-9.50637 -4.70115,-16.50235 -9.92462,-21.52154 l -4.28495,-4.11736 -4.0893,2.5082 c -11.55166,7.08528 -27.51309,13.37977 -37.86434,14.93204 -8.99773,1.34929 -8.16048,-5.62227 -8.72496,72.65038 L 359.5,806.5 328.75,806.76445 298,807.0289 Z m 1037.6083,68.08348 C 1335.3066,805.97324 1335,726.31667 1335,629.33333 V 453 h 30.5028 30.5027 l -0.2527,176.75 -0.2528,176.75 -29.5687,0.2646 c -16.2628,0.14553 -29.8753,-0.042 -30.25,-0.41667 z M 235.48023,745.29845 c -3.21993,-7.70639 -7.28688,-21.06016 -8.48985,-27.87632 -1.70459,-9.65837 -0.79236,-28.94434 1.77007,-37.42213 l 1.96464,-6.5 1.15323,4 c 3.14589,10.91163 5.24659,28.85787 5.82348,49.75 0.33032,11.9625 0.31358,21.75 -0.0372,21.75 -0.35077,0 -1.33374,-1.6657 -2.18438,-3.70155 z"
       id="path39"
       inkscape:connector-curvature="0" />
    <path
       style="fill:#f77e11"
       d="m 1498.0061,810.367 c -23.5972,-4.36307 -42.8817,-14.93374 -59.6569,-32.70056 -11.6121,-12.29853 -18.82,-25.57453 -23.5025,-43.28864 -2.1059,-7.96701 -2.3467,-11.03222 -2.3467,-29.8778 0,-23.03418 1.1797,-30.17305 7.5312,-45.57574 17.7281,-42.99102 66.9998,-67.58475 121.995,-60.89322 56.1974,6.83781 92.2872,48.98059 95.6727,111.71896 l 0.607,11.25 h -82.6177 c -94.9834,0 -86.1229,-1.08754 -82.3552,10.10835 8.4946,25.24158 33.8934,43.65178 57.1206,41.4035 18.8313,-1.82279 40.3079,-12.67948 43.7136,-22.09782 L 1575.4018,747 h 30.8159 30.816 l -2.6363,5.25 c -13.577,27.03725 -44.8346,48.90505 -81.8974,57.2954 -10.4624,2.3685 -43.4387,2.86569 -54.4939,0.8216 z m 79.6727,-125.97237 c 0.9605,-2.5029 -1.3978,-11.10058 -5.2305,-19.06901 -5.7724,-12.00133 -17.4071,-23.02704 -29.1522,-27.62631 -15.646,-6.12684 -35.2054,-3.09868 -48.383,7.4906 -8.2478,6.62774 -17.7539,21.94441 -20.876,33.63642 -2.0295,7.60005 -5.1272,7.17367 52.1167,7.17367 45.8151,0 50.9706,-0.16063 51.525,-1.60537 z M 716.5,809.956 c -37.09798,-5.74472 -68.21849,-30.02172 -81.57016,-63.63261 -9.3664,-23.57855 -9.75012,-58.13371 -0.91665,-82.54621 11.04488,-30.524 38.51917,-55.22018 70.40822,-63.28877 33.88321,-8.57315 70.78883,-3.0019 96.70707,14.59884 14.7177,9.9946 28.77332,26.59773 35.98925,42.51212 10.14493,22.37418 11.79919,57.85148 3.84222,82.40063 -8.80363,27.16132 -30.55221,50.83038 -57.07784,62.11805 -14.31452,6.09137 -24.51245,8.04965 -43.88211,8.42655 -9.625,0.18728 -20.2,-0.0776 -23.5,-0.5886 z m 34.83597,-46.97805 c 15.05339,-4.64952 27.30164,-19.06855 32.8471,-38.66863 2.86438,-10.12401 3.09802,-29.43436 0.47561,-39.30932 -6.46643,-24.34999 -20.2388,-37.96501 -41.44285,-40.96937 -20.81105,-2.94867 -39.10791,6.97789 -48.60086,26.36733 -4.84115,9.8881 -6.64179,17.32069 -7.30516,30.15381 -1.5368,29.73027 12.00991,54.79025 33.59579,62.14864 8.78405,2.99438 21.26568,3.10822 30.43037,0.27754 z M 943.5,809.3959 c -33.61435,-5.98601 -60.70129,-25.97378 -75.74878,-55.8959 -15.60558,-31.03188 -13.94543,-76.82046 3.86907,-106.71306 5.6375,-9.45967 21.73586,-26.39723 30.47005,-32.05843 19.85803,-12.87129 38.75137,-18.06294 65.40966,-17.97377 35.8605,0.11996 65.7743,13.89341 86.1568,39.66997 17.3413,21.93058 24.9592,50.92377 21.4054,81.46703 -2.1348,18.34677 -7.1815,32.57694 -16.4999,46.52489 -16.084,24.07467 -41.584,40.33506 -70.64582,45.0482 -11.65114,1.88954 -33.61009,1.85546 -44.41648,-0.0689 z m 42.71631,-48.65824 c 9.71317,-4.80051 17.17229,-12.66549 22.75919,-23.99773 5.7062,-11.57397 7.3176,-20.20555 6.7656,-36.23993 -0.6665,-19.36009 -5.3208,-31.87129 -16.10146,-43.28204 -16.3917,-17.34977 -46.74135,-18.34432 -64.10579,-2.10074 -12.17386,11.38804 -18.54736,28.18285 -18.51649,48.79274 0.0218,14.52274 1.84998,23.38658 6.92814,33.59004 6.80489,13.67296 14.52933,20.91712 26.91071,25.23751 5.63182,1.96518 8.25404,2.27448 17.21543,2.03062 9.91553,-0.26983 11.04166,-0.51997 18.14467,-4.03047 z m 183.59769,47.18435 c -25.7774,-3.78137 -46.7072,-16.67574 -61.818,-38.08453 -13.1867,-18.68278 -18.7655,-36.10195 -19.7324,-61.61172 -1.2969,-34.21697 7.7006,-60.48543 28.3912,-82.88942 18.9257,-20.49293 49.7487,-30.2982 83.0536,-26.42054 20.8107,2.42298 32.5954,7.37814 42.352,17.8079 10.2872,10.99712 9.4019,18.16425 9.6953,-78.48734 L 1252.0114,454 H 1280.5057 1309 v 176 176 h -28.5 -28.5 v -8.41821 c 0,-13.36427 -1.0221,-14.1673 -9.0064,-7.0761 -6.274,5.57223 -13.6678,9.35206 -25.9936,13.28837 -15.2786,4.8793 -32.0577,6.34718 -47.186,4.12795 z m 37.3868,-40.02709 c 15.7424,-3.28288 35.2032,-18.17735 41.6732,-31.89492 2.4804,-5.2589 2.61,-6.39864 2.957,-26 0.4094,-23.12269 -0.3984,-29.57507 -4.8371,-38.63457 -3.7444,-7.64261 -14.127,-18.98146 -22.2974,-24.35116 -17.0657,-11.21581 -37.6835,-10.51482 -53.9821,1.83535 -8.1137,6.14807 -15.7494,17.37099 -19.1563,28.15581 -12.8491,40.67457 4.9394,83.36196 37.7046,90.48046 7.8788,1.71173 11.3154,1.79009 17.9381,0.40903 z M 299.00869,738.75 c 0.005,-36.9875 0.295,-69.63393 0.64493,-72.54762 0.63362,-5.27577 0.64905,-5.2954 3.74131,-4.75876 3.04416,0.52829 3.03641,0.51282 -0.39493,-0.78833 l -3.5,-1.32718 -1,-17.91405 c -0.55,-9.85274 -1.3206,-18.40624 -1.71244,-19.00779 -0.41899,-0.64323 -6.15493,-1.35407 -13.92576,-1.72577 -14.3113,-0.68455 -19.89761,-2.52289 -8.8118,-2.89979 3.5475,-0.1206 -3,-0.4581 -14.55,-0.75 -20.11295,-0.50829 -20.87328,-0.59948 -18,-2.15886 3.59678,-1.95202 18.98994,-7.51377 37.48754,-13.54472 12.03907,-3.92522 13.22636,-4.598 5.01246,-2.8403 -2.17547,0.46553 -2.11056,0.3447 0.5,-0.93082 6.19112,-3.02498 -0.0889,-1.32435 -23.69125,6.41557 -13.36981,4.38437 -26.01548,9.13866 -28.10149,10.56509 -2.08601,1.42643 -4.56101,2.44254 -5.5,2.25801 -2.27712,-0.44749 3.78404,-4.59474 19.83265,-13.57015 57.77912,-32.31379 109.40266,-49.18782 182.46009,-59.64019 24.47247,-3.5013 51.72945,-6.56057 52.76269,-5.92199 0.46643,0.28827 0.71063,1.13638 0.54268,1.8847 C 482.63742,540.29536 469,550.74997 452.5,562.77952 c -17.35733,12.65459 -30,22.53505 -30,23.44549 0,0.86548 2.52109,3.53141 5.60243,5.92429 7.94356,6.16876 13.50199,11.31733 15.48398,14.34224 1.69342,2.58447 1.65822,2.6794 -4.18932,11.29845 -16.8676,24.8622 -43.26818,41.95642 -72.89982,47.20222 -6.56429,1.1621 -7.00557,1.40464 -7.04799,3.87375 -0.0249,1.44872 -0.13616,32.89654 -0.24727,69.88404 L 359,806 h -30 -30 l 0.009,-67.25 z M 351.25,667.2596 c -3.4375,-0.19527 -9.0625,-0.19527 -12.5,0 -3.4375,0.19527 -0.625,0.35504 6.25,0.35504 6.875,0 9.6875,-0.15977 6.25,-0.35504 z m -21.5,-0.94893 c -0.9625,-0.25152 -2.5375,-0.25152 -3.5,0 -0.9625,0.25153 -0.175,0.45733 1.75,0.45733 1.925,0 2.7125,-0.2058 1.75,-0.45733 z m -6.48097,-0.96661 c -0.67703,-0.27392 -2.02703,-0.29059 -3,-0.0371 -0.97297,0.25354 -0.41903,0.47766 1.23097,0.49804 1.65,0.0204 2.44606,-0.18706 1.76903,-0.46099 z M 313.5,663.42987 c -2.75,-0.76521 -5.45,-1.35279 -6,-1.30573 -1.69231,0.1448 6.87115,2.72297 9,2.70959 1.1,-0.007 -0.25,-0.63865 -3,-1.40386 z M 426.96511,742.25 c -0.0371,-67.87798 -0.4173,-74.33556 -4.89254,-83.10775 -1.18756,-2.3278 -3.79887,-6.0473 -5.80293,-8.26555 l -3.64373,-4.03318 3.43704,-2.57608 c 6.18439,-4.63524 17.76765,-17.08992 23.49242,-25.25977 3.08611,-4.40422 5.74966,-8.00767 5.91899,-8.00767 0.16933,0 2.48612,1.8 5.14843,4 2.6623,2.2 5.23268,4 5.71195,4 0.47927,0 3.12238,-2.02383 5.87359,-4.49739 6.19403,-5.56897 16.773,-10.84265 27.29167,-13.60507 11.47094,-3.01251 39.93977,-3.80019 54.42561,-1.50585 35.67427,5.65025 59.41958,24.25465 67.78359,53.10831 1.5686,5.41127 1.76991,13.23653 2.05163,79.75 L 614.0732,806 H 584.5366 555 l -0.008,-63.75 c -0.005,-39.47534 -0.40545,-66.22506 -1.05249,-70.25 -1.20846,-7.51724 -4.42263,-15.08383 -8.41038,-19.79916 -6.06867,-7.17592 -19.4333,-11.04798 -31.51261,-9.12998 -12.78601,2.03021 -20.9601,9.06959 -25.22259,21.72125 -2.24399,6.66047 -2.26218,7.18332 -2.57302,73.95789 L 485.90831,806 H 456.45415 427 Z M 1336,630 V 454 h 29.5 29.5 V 630 806 H 1365.5 1336 Z M 233.772,738 c -4.77767,-13.13506 -5.99707,-19.16533 -6.50714,-32.17958 -0.38362,-9.78773 -0.10361,-14.44759 1.22771,-20.4316 2.0061,-9.01706 2.62686,-8.5582 4.88526,3.61118 2.35077,12.66705 3.75896,30.9814 3.42162,44.5 l -0.29945,12 z"
       id="path37"
       inkscape:connector-curvature="0" />
    <path
       style="fill:#585657"
       d="m 323.5,665.4371 c -4.4,-0.74763 -11.6,-2.38933 -16,-3.64821 l -8,-2.28889 -1,-18 c -0.55,-9.9 -1.3206,-18.49218 -1.71244,-19.09373 -0.41899,-0.64323 -6.15493,-1.35407 -13.92576,-1.72577 -14.3113,-0.68455 -19.89761,-2.52289 -8.8118,-2.89979 3.5475,-0.1206 -3,-0.4581 -14.55,-0.75 -20.1078,-0.50816 -20.87254,-0.59983 -18,-2.15764 8.83496,-4.79129 70.4586,-24.21693 104.25,-32.86276 2.4628,-0.63013 4.25,-1.67715 4.25,-2.48984 0,-2.57696 -2.16566,-2.78418 -6.85302,-0.65571 C 340.59114,580.02534 325,584.8255 308.5,589.53179 c -38.13033,10.8759 -70.91454,21.69707 -75.79274,25.01711 -2.08601,1.41971 -4.56101,2.43031 -5.5,2.24578 -2.27712,-0.44749 3.78404,-4.59474 19.83265,-13.57015 57.77912,-32.31379 109.40266,-49.18782 182.46009,-59.64019 24.47247,-3.5013 51.72945,-6.56057 52.76269,-5.92199 0.46643,0.28827 0.71063,1.13638 0.54268,1.8847 C 482.63742,540.29536 469,550.74997 452.5,562.77952 c -17.35733,12.65459 -30,22.53505 -30,23.44549 0,0.86548 2.52109,3.53141 5.60243,5.92429 7.94356,6.16876 13.50199,11.31733 15.48398,14.34224 1.69342,2.58447 1.65822,2.6794 -4.18932,11.29845 -21.24983,31.32145 -56.35913,49.42145 -95.25717,49.10823 C 337.18796,666.84224 327.9,666.18474 323.5,665.4371 Z"
       id="path35"
       inkscape:connector-curvature="0" />
    <path
       style="fill:#2e2b2c"
       d="M 359.66667,660.33333 C 359.3,659.96667 359,653.90024 359,646.85239 V 634.0381 l -2.69132,-0.67547 c -4.54862,-1.14164 -18.89611,1.37594 -29.61459,5.19652 -15.4539,5.5085 -13.83504,5.83609 -17.50607,-3.54247 -3.54948,-9.06801 -3.88852,-11.5339 -1.70124,-12.37323 C 312.59556,620.68303 355.20832,617 372.7817,617 c 6.90673,0 7.01042,-0.0399 9.75658,-3.75 1.52662,-2.0625 2.16503,-3.1875 1.41869,-2.5 C 382.93926,611.68748 375.64961,612 354.8,612 H 327 v -11.02144 c 0,-12.82071 -1.15273,-11.52308 14.13809,-15.91525 9.23699,-2.65324 11.71512,-4.39749 10.55244,-7.42739 -0.78223,-2.03845 -6.4327,-2.20086 -9.21802,-0.26495 C 340.60772,578.66708 331.59384,581 328.45078,581 327.35715,581 327,579.63219 327,575.44377 v -5.55623 l 4.25,-1.87459 c 6.63134,-2.92494 29.74048,-9.66317 46.25,-13.48571 18.98964,-4.39678 44.80552,-8.8006 70.18757,-11.97299 30.60638,-3.82537 32.70848,-4.00409 31.91058,-2.71307 -0.38522,0.62331 -14.4024,11.09818 -31.14928,23.27748 -16.74688,12.1793 -30.43926,22.42254 -30.42752,22.76276 0.0117,0.34022 1.92424,1.93899 4.25,3.55283 6.54739,4.54321 19.5288,15.60257 20.11873,17.13991 0.80561,2.09936 -8.52981,15.34389 -16.65212,23.62502 -11.1487,11.36671 -26.22141,21.28255 -39.3036,25.85655 -10.32463,3.60985 -25.07781,5.96748 -26.76769,4.2776 z"
       id="path33"
       inkscape:connector-curvature="0" />
  </g>
</svg>
