<?xml version="1.0" encoding="UTF-8" standalone="no"?>
<!-- Created with Inkscape (http://www.inkscape.org/) -->

<svg
   xmlns:dc="http://purl.org/dc/elements/1.1/"
   xmlns:cc="http://creativecommons.org/ns#"
   xmlns:rdf="http://www.w3.org/1999/02/22-rdf-syntax-ns#"
   xmlns:svg="http://www.w3.org/2000/svg"
   xmlns="http://www.w3.org/2000/svg"
   xmlns:sodipodi="http://sodipodi.sourceforge.net/DTD/sodipodi-0.dtd"
   xmlns:inkscape="http://www.inkscape.org/namespaces/inkscape"
   version="1.1"
   id="svg21"
   width="72.279419"
   height="18.608393"
   viewBox="0 0 72.27942 18.608393"
   sodipodi:docname="moodle.svg"
   inkscape:version="0.92.4 (33fec40, 2019-01-16)">
  <metadata
     id="metadata27">
    <rdf:RDF>
      <cc:Work
         rdf:about="">
        <dc:format>image/svg+xml</dc:format>
        <dc:type
           rdf:resource="http://purl.org/dc/dcmitype/StillImage" />
        <dc:title />
      </cc:Work>
    </rdf:RDF>
  </metadata>
  <defs
     id="defs25" />
  <sodipodi:namedview
     pagecolor="#ffffff"
     bordercolor="#666666"
     borderopacity="1"
     objecttolerance="10"
     gridtolerance="10"
     guidetolerance="10"
     inkscape:pageopacity="0"
     inkscape:pageshadow="2"
     inkscape:window-width="1366"
     inkscape:window-height="744"
     id="namedview23"
     showgrid="false"
     inkscape:zoom="19.294118"
     inkscape:cx="20.17824"
     inkscape:cy="12.799646"
     inkscape:window-x="0"
     inkscape:window-y="0"
     inkscape:window-maximized="1"
     inkscape:current-layer="svg21"
     inkscape:object-paths="true"
     inkscape:snap-intersection-paths="true"
     inkscape:snap-smooth-nodes="true"
     inkscape:snap-midpoints="true" />
  <path
     style="fill:#f77e11;stroke-width:0.0508779;fill-opacity:1"
     d="M 53.927734 0 C 52.637725 0 52.422567 0.011026635 52.353516 0.080078125 C 52.282166 0.15146134 52.273438 0.60776787 52.273438 4.3339844 L 52.273438 8.5058594 L 51.992188 8.2480469 C 51.355604 7.6662444 50.399503 7.3812463 49.087891 7.3789062 C 47.896422 7.3767837 46.95344 7.6570164 46.089844 8.2695312 C 45.224477 8.883304 44.468489 10.031287 44.148438 11.21875 C 44.018659 11.700156 44.011719 11.789883 44.011719 12.873047 C 44.011577 13.965542 44.018586 14.039838 44.152344 14.525391 C 44.486042 15.736741 45.206187 16.826289 46.138672 17.525391 C 46.634253 17.896937 47.39191 18.217382 48.076172 18.34375 C 48.575478 18.436 49.534229 18.433754 50.029297 18.339844 C 50.818392 18.190155 51.570915 17.887103 52.037109 17.53125 L 52.273438 17.349609 L 52.273438 17.708984 C 52.273437 18.31081 52.137839 18.265625 53.927734 18.265625 C 55.406317 18.265625 55.478997 18.260006 55.529297 18.166016 C 55.565027 18.099248 55.582031 15.188356 55.582031 9.1132812 C 55.582031 1.0409173 55.574023 0.15215481 55.501953 0.080078125 C 55.432902 0.011026635 55.217743 0 53.927734 0 z M 58.242188 0 C 56.91349 -0.0006741321 56.696143 0.010891305 56.626953 0.080078125 C 56.554903 0.1521548 56.546875 1.0409174 56.546875 9.1132812 C 56.546875 15.229762 56.565323 18.100259 56.601562 18.167969 C 56.652665 18.263459 56.713472 18.266846 58.267578 18.253906 L 59.880859 18.240234 L 59.892578 9.1601562 C 59.902818 1.9308387 59.892547 0.0751943 59.841797 0.04296875 C 59.806737 0.0207112 59.086669 0.0004070194 58.242188 0 z M 13.351562 4.4003906 C 13.323241 4.3828876 12.883397 4.4172155 12.373047 4.4765625 C 7.8927813 4.9975552 5.3563706 5.6854616 2.3125 7.2070312 C 0.24990946 8.2380786 -0.33768513 8.6461117 0.17578125 8.6894531 L 0.35351562 8.7050781 L 0.34765625 10.140625 C 0.34335915 11.36777 0.3297867 11.623442 0.25 11.90625 C 0.1036319 12.425059 0.1240917 13.366111 0.29492188 14 C 0.48532478 14.706518 0.80607314 15.488156 0.9140625 15.509766 C 0.9963087 15.526221 1.0000223 15.440501 0.9765625 14.212891 C 0.95203986 12.929668 0.86894492 12.169924 0.68554688 11.548828 C 0.61625269 11.314157 0.61625167 8.9537443 0.68554688 8.7714844 L 0.73828125 8.6347656 L 1.3085938 8.6699219 C 1.622514 8.6900269 2.3140291 8.7271308 2.8457031 8.7519531 C 3.3773772 8.7767755 3.8154543 8.7976274 3.8183594 8.7988281 C 3.8379179 8.8069035 3.9079148 10.143738 3.8984375 10.328125 C 3.8919655 10.454048 3.87395 12.270997 3.859375 14.365234 C 3.839426 17.231665 3.8477601 18.190141 3.8925781 18.244141 C 3.9748039 18.343181 6.9776465 18.350483 7.109375 18.251953 C 7.187134 18.193788 7.1944662 17.890535 7.2070312 14.703125 C 7.2145873 12.7863 7.241552 11.178116 7.265625 11.128906 C 7.2896989 11.07969 7.3694934 11.027569 7.4433594 11.011719 C 8.0015149 10.891944 8.5781607 10.69089 9.0625 10.449219 C 9.6295088 10.166294 9.6309602 10.166056 9.7558594 10.259766 C 9.9433622 10.400449 10.092683 10.641583 10.212891 11 C 10.317609 11.31222 10.321454 11.417566 10.339844 14.779297 C 10.353944 17.356275 10.373409 18.249004 10.417969 18.277344 C 10.49607 18.327024 13.511744 18.327024 13.589844 18.277344 C 13.634404 18.249007 13.655722 17.356145 13.669922 14.779297 C 13.688602 11.389086 13.690331 11.314492 13.798828 10.988281 C 13.927285 10.602056 14.186542 10.271794 14.490234 10.109375 C 14.671174 10.012605 14.779302 9.9980469 15.259766 9.9980469 C 15.736769 9.9980469 15.849982 10.013652 16.023438 10.107422 C 16.489763 10.359515 16.722034 10.756909 16.808594 11.447266 C 16.841554 11.710181 16.863281 13.121048 16.863281 15.066406 C 16.863281 17.926948 16.871159 18.257446 16.943359 18.285156 C 16.987622 18.302136 17.707771 18.316406 18.542969 18.316406 C 19.855624 18.316406 20.071515 18.305438 20.140625 18.236328 C 20.211675 18.165261 20.220703 17.784136 20.220703 14.800781 C 20.220703 11.25895 20.194675 10.725235 19.994141 10.09375 C 19.548415 8.6901482 18.350298 7.7614735 16.583984 7.453125 C 15.827222 7.3210152 14.560426 7.3314262 13.861328 7.4765625 C 13.222147 7.6092602 12.590885 7.8911338 12.271484 8.1855469 C 12.146694 8.3005751 12.028446 8.3945312 12.009766 8.3945312 C 11.948485 8.3945312 11.484229 8.007546 11.316406 7.8164062 C 11.226055 7.7135016 10.960724 7.4765856 10.726562 7.2910156 C 10.407872 7.0384562 10.314006 6.938238 10.353516 6.890625 C 10.38255 6.8556414 11.080666 6.3394508 11.904297 5.7421875 C 13.074595 4.8935354 13.401469 4.6300837 13.402344 4.5429688 C 13.402954 4.4816586 13.379883 4.4178936 13.351562 4.4003906 z M 37.810547 7.2832031 C 35.893268 7.3159761 34.155557 8.1913391 33.160156 9.6679688 C 32.834519 10.151036 32.733432 10.350224 32.542969 10.890625 C 32.294632 11.595248 32.209497 12.245233 32.242188 13.171875 C 32.275968 14.129414 32.415455 14.738757 32.765625 15.464844 C 33.078527 16.113654 33.348446 16.477949 33.917969 17.019531 C 34.856534 17.912048 35.973924 18.407103 37.300781 18.515625 C 38.937674 18.649503 40.375753 18.270094 41.527344 17.402344 C 42.860721 16.397614 43.587066 14.976948 43.660156 13.228516 C 43.736183 11.409553 43.204691 9.9951444 42.017578 8.8554688 C 41.080259 7.9556061 40.014556 7.4694255 38.642578 7.3203125 C 38.362963 7.2899226 38.084444 7.2785213 37.810547 7.2832031 z M 26.224609 7.3046875 C 25.111292 7.307384 24.35172 7.4718619 23.501953 7.8984375 C 22.429167 8.4369663 21.430984 9.492052 20.990234 10.550781 C 20.192941 12.465965 20.451569 14.82885 21.626953 16.367188 C 22.575744 17.60896 24.002253 18.378421 25.613281 18.515625 C 26.98965 18.632845 28.348813 18.346921 29.384766 17.724609 C 29.939378 17.391447 30.727483 16.639316 31.087891 16.097656 C 31.702554 15.173875 31.922934 14.419826 31.958984 13.101562 C 31.980908 12.299853 31.968707 12.11851 31.873047 11.654297 C 31.534047 10.009228 30.562698 8.7168212 29.085938 7.9492188 C 28.165535 7.4708041 27.411952 7.3018175 26.224609 7.3046875 z M 65.972656 7.3359375 C 65.750572 7.3409199 65.546481 7.3521999 65.380859 7.3730469 C 62.862631 7.6900178 61.037391 9.2866447 60.572266 11.578125 C 60.146672 13.674846 60.657027 15.613077 61.982422 16.9375 C 62.96697 17.921322 64.117977 18.432651 65.705078 18.587891 C 66.27316 18.643458 67.124428 18.585081 67.810547 18.443359 C 69.113719 18.174181 70.480305 17.438787 71.279297 16.576172 C 71.742449 16.076144 72.34971 15.072366 72.25 14.972656 C 72.21347 14.936126 68.862494 14.949398 68.802734 14.986328 C 68.785234 14.997149 68.758687 15.07376 68.742188 15.15625 C 68.679912 15.467626 68.271135 15.761333 67.486328 16.056641 C 67.144042 16.185434 67.039489 16.198772 66.466797 16.201172 L 65.828125 16.205078 L 65.423828 16.005859 C 64.876005 15.737205 64.33195 15.195372 64.060547 14.644531 C 63.954656 14.429618 63.864875 14.188285 63.859375 14.109375 L 63.849609 13.966797 L 68.058594 13.953125 C 71.372093 13.942885 72.269437 13.926773 72.273438 13.876953 C 72.294652 13.613172 72.25047 12.858613 72.1875 12.423828 C 71.814779 9.8505105 70.21446 8.0046153 67.896484 7.4726562 C 67.466118 7.373891 66.638909 7.3209904 65.972656 7.3359375 z M 66.390625 9.5898438 C 66.990638 9.5898437 67.011374 9.5936436 67.384766 9.7734375 C 67.838908 9.9921132 68.171355 10.27586 68.427734 10.662109 C 68.624168 10.95805 68.824517 11.407492 68.884766 11.689453 L 68.916016 11.837891 C 68.909511 11.845925 68.799451 11.84919 68.769531 11.855469 L 66.416016 11.855469 L 63.912109 11.855469 L 63.941406 11.669922 C 63.994447 11.343055 64.373017 10.658372 64.695312 10.306641 C 64.923851 10.05723 65.097986 9.926866 65.388672 9.7832031 C 65.772582 9.5934631 65.784048 9.5898438 66.390625 9.5898438 z M 49.962891 9.7871094 C 50.423913 9.8168624 50.846753 10.012659 51.314453 10.398438 C 51.731107 10.742117 52.139746 11.334342 52.222656 11.712891 C 52.260866 11.887379 52.276455 12.393016 52.265625 13.152344 C 52.249894 14.255634 52.24218 14.336477 52.130859 14.5625 C 51.896887 15.037537 51.066074 15.721087 50.480469 15.921875 C 49.2319 16.349975 47.99127 15.62199 47.503906 14.173828 C 47.374913 13.790455 47.367188 13.705198 47.367188 12.898438 C 47.367402 12.082313 47.375412 12.01055 47.509766 11.626953 C 47.696142 11.094818 47.93083 10.712488 48.277344 10.384766 C 48.621777 10.059017 48.976939 9.891389 49.484375 9.8125 C 49.649631 9.7868081 49.809217 9.7771917 49.962891 9.7871094 z M 26.146484 10.025391 C 26.445557 10.012866 26.751388 10.044079 26.984375 10.123047 C 27.76857 10.388839 28.273112 10.98946 28.517578 11.945312 C 28.640638 12.426483 28.650505 13.356766 28.537109 13.837891 C 28.299313 14.846835 27.602656 15.629038 26.773438 15.820312 C 26.507929 15.881603 25.966049 15.879506 25.697266 15.816406 C 25.111645 15.678926 24.555768 15.199978 24.259766 14.576172 C 23.988242 14.003953 23.913616 13.644763 23.916016 12.923828 C 23.918397 12.213208 23.997631 11.825926 24.248047 11.320312 C 24.535373 10.740175 24.850525 10.416318 25.341797 10.191406 C 25.55511 10.093748 25.847412 10.037915 26.146484 10.025391 z M 38.082031 10.033203 C 38.707702 10.063331 39.125209 10.242548 39.521484 10.648438 C 40.000512 11.139086 40.254684 11.815714 40.302734 12.722656 C 40.350264 13.619734 40.133091 14.398376 39.664062 15.015625 C 39.338828 15.443633 39.003908 15.673533 38.511719 15.804688 C 37.990948 15.943458 37.270868 15.853214 36.828125 15.59375 C 36.712244 15.525839 36.496062 15.337686 36.347656 15.175781 C 35.516252 14.26875 35.332597 12.545723 35.9375 11.320312 C 36.411722 10.359635 37.039017 9.9829781 38.082031 10.033203 z "
     id="path45" />
  <g
     id="g3316">
    <path
       style="fill:#585657;stroke-width:0.0508779"
       d="M 5.2373856,10.960987 C 5.0135229,10.922949 4.647202,10.839423 4.4233392,10.775374 L 4.016316,10.65892 3.9654381,9.7431178 C 3.9374553,9.2394266 3.8982488,8.8022746 3.8783128,8.771669 3.8569955,8.7389428 3.5651629,8.7027767 3.1697994,8.6838654 2.4416705,8.6490369 2.1574508,8.5555061 2.7214735,8.5363302 2.9019628,8.5301943 2.5688398,8.513023 1.9812,8.4981718 0.95815741,8.4723176 0.91924905,8.4676537 1.0653978,8.3883956 1.5149021,8.1446248 4.6501835,7.156289 6.3694189,6.7164074 6.494721,6.6843477 6.58565,6.6310775 6.58565,6.5897295 6.58565,6.4586192 6.4754658,6.4480763 6.2369827,6.5563684 6.106947,6.6154162 5.3137025,6.8596383 4.4742171,7.0990845 2.534226,7.6524274 0.86623428,8.2029858 0.6180417,8.3719025 0.5119099,8.4441343 0.38598709,8.4955515 0.33821325,8.486163 0.22235817,8.4633957 0.53073726,8.2523923 1.3472568,7.7957423 4.2869371,6.1516845 6.9134344,5.2931693 10.630443,4.7613747 c 1.245108,-0.1781388 2.631886,-0.333788 2.684455,-0.3012984 0.02373,0.014666 0.03616,0.057817 0.02761,0.09589 -0.0085,0.038072 -0.702388,0.569981 -1.541873,1.1820192 -0.883105,0.643839 -1.526337,1.1465361 -1.526337,1.1928573 0,0.044034 0.128268,0.1796708 0.28504,0.3014155 0.404151,0.3138535 0.686953,0.575802 0.787792,0.729703 0.08616,0.1314924 0.08437,0.1363223 -0.213144,0.5748414 -1.081147,1.5935693 -2.867434,2.5144593 -4.8464846,2.4985233 -0.3537011,-0.0028 -0.826253,-0.0363 -1.0501158,-0.07434 z"
       id="path35"
       inkscape:connector-curvature="0" />
    <path
       style="fill:#2e2b2c;stroke-width:0.0508779"
       d="m 7.0774699,10.701318 c -0.018655,-0.01866 -0.033919,-0.327302 -0.033919,-0.685882 V 9.363472 L 6.9066224,9.3291056 C 6.6751982,9.2710213 5.945228,9.3991105 5.3998942,9.5934936 4.6136323,9.8737545 4.6959965,9.8904216 4.5092222,9.4132601 4.3286321,8.9518988 4.3113824,8.8264395 4.4226666,8.7837362 4.6825906,8.6839941 6.8506384,8.4966093 7.7447351,8.4966093 c 0.3513999,0 0.3566754,-0.00203 0.4963943,-0.1907921 0.077671,-0.1049357 0.1101521,-0.1621733 0.07218,-0.1271948 -0.051779,0.047697 -0.422661,0.063597 -1.4834454,0.063597 H 5.4154583 V 7.6814721 c 0,-0.6522908 -0.058649,-0.5862701 0.7193163,-0.8097345 C 6.6047333,6.7367463 6.7308153,6.6480025 6.6716606,6.4938476 6.6318626,6.3901355 6.3443783,6.3818724 6.2026671,6.4803676 6.1077901,6.5463106 5.6491832,6.665005 5.4892709,6.665005 c -0.055642,0 -0.073813,-0.069591 -0.073813,-0.2826893 V 6.0996263 L 5.6316894,6.0042511 C 5.969078,5.8554363 7.1448225,5.5126093 7.9847922,5.3181265 8.9509453,5.0944275 10.264403,4.8703704 11.555788,4.7089659 c 1.557189,-0.1946268 1.664139,-0.2037197 1.623544,-0.1380353 -0.0196,0.031713 -0.732764,0.5646521 -1.58481,1.1843093 -0.852046,0.6196572 -1.548686,1.1408117 -1.548089,1.1581214 5.96e-4,0.01731 0.0979,0.098652 0.216232,0.1807605 0.333117,0.231149 0.993584,0.793826 1.023598,0.8720427 0.04099,0.106811 -0.433979,0.7806649 -0.847225,1.2019914 C 9.8718159,9.7464702 9.1049481,10.250967 8.4393537,10.483683 7.9140582,10.667344 7.1634474,10.787296 7.0774699,10.701318 Z"
       id="path33"
       inkscape:connector-curvature="0" />
  </g>
</svg>
