<?xml version="1.0" encoding="UTF-8" standalone="no"?>
<!-- Created with Inkscape (http://www.inkscape.org/) -->

<svg
   xmlns:dc="http://purl.org/dc/elements/1.1/"
   xmlns:cc="http://creativecommons.org/ns#"
   xmlns:rdf="http://www.w3.org/1999/02/22-rdf-syntax-ns#"
   xmlns:svg="http://www.w3.org/2000/svg"
   xmlns="http://www.w3.org/2000/svg"
   xmlns:sodipodi="http://sodipodi.sourceforge.net/DTD/sodipodi-0.dtd"
   xmlns:inkscape="http://www.inkscape.org/namespaces/inkscape"
   version="1.1"
   id="svg2"
   width="39.396469"
   height="39.385448"
   viewBox="0 0 39.396469 39.385449"
   sodipodi:docname="add.svg"
   inkscape:version="0.92.4 (5da689c313, 2019-01-14)">
  <metadata
     id="metadata8">
    <rdf:RDF>
      <cc:Work
         rdf:about="">
        <dc:format>image/svg+xml</dc:format>
        <dc:type
           rdf:resource="http://purl.org/dc/dcmitype/StillImage" />
        <dc:title />
      </cc:Work>
    </rdf:RDF>
  </metadata>
  <defs
     id="defs6" />
  <sodipodi:namedview
     pagecolor="#ffffff"
     bordercolor="#666666"
     borderopacity="1"
     objecttolerance="10"
     gridtolerance="10"
     guidetolerance="10"
     inkscape:pageopacity="0"
     inkscape:pageshadow="2"
     inkscape:window-width="1366"
     inkscape:window-height="716"
     id="namedview4"
     showgrid="false"
     inkscape:zoom="8"
     inkscape:cx="-3.9930744"
     inkscape:cy="26.060827"
     inkscape:window-x="-8"
     inkscape:window-y="-8"
     inkscape:window-maximized="1"
     inkscape:current-layer="svg2" />
  <g
     id="g12"
     transform="matrix(0.96322811,0,0,0.96322811,0.00571536,0.00571536)">
    <path
       style="fill:#d3d3d3;stroke-width:0.07986689"
       d="M 17.930116,40.796853 C 13.438748,40.444131 8.5609092,37.941955 5.2493966,34.292048 2.2404014,30.975572 0.39817771,26.850184 0.08275967,22.722129 -0.14578259,19.731066 0.07178279,16.838095 0.68419913,14.724774 2.6289174,8.0139576 8.0139576,2.6289174 14.724774,0.68419913 16.838095,0.07178279 19.731066,-0.14578259 22.722129,0.08275967 29.4989,0.60056179 35.971557,5.1826363 39.020574,11.620632 c 1.357842,2.867081 1.873948,5.297662 1.873948,8.825291 0,3.527629 -0.516106,5.95821 -1.873948,8.825291 -2.722657,5.748887 -8.282,10.120761 -14.362292,11.294524 -1.589127,0.306771 -4.494146,0.40656 -6.728166,0.231115 z m 3.964916,-4.380439 c 3.079629,-0.308126 5.790074,-1.364599 8.254718,-3.21751 0.821122,-0.617317 2.431837,-2.228032 3.049154,-3.049154 1.64116,-2.182985 2.702857,-4.685465 3.117339,-7.347754 0.185699,-1.192772 0.185699,-3.519374 0,-4.712146 C 35.407155,12.250632 31.407354,7.3748777 25.876871,5.3642658 24.043434,4.6977181 22.524127,4.4388268 20.445923,4.4388268 c -1.61489,0 -2.690039,0.1281812 -3.993344,0.476094 -2.809112,0.7498825 -5.107785,2.0577901 -7.2124969,4.1037926 -2.497891,2.4282156 -4.1219909,5.5866456 -4.6644792,9.0711366 -0.1856985,1.192772 -0.1856985,3.519374 0,4.712146 0.4144826,2.662289 1.4761784,5.164769 3.1173397,7.347754 0.6173164,0.821122 2.2280318,2.431837 3.0491534,3.049154 3.25876,2.449926 7.267119,3.606297 11.152936,3.21751 z m -1.994257,-3.43426 c -1.329972,-0.190803 -2.505224,-1.380961 -2.732199,-2.766852 -0.04188,-0.255687 -0.07634,-1.803655 -0.0766,-3.439928 l -4.62e-4,-2.975042 -2.975042,-4.79e-4 c -1.636273,-2.4e-4 -3.190682,-0.03573 -3.454243,-0.07884 C 9.2562423,23.49105 8.1042559,22.321894 7.9067274,20.92444 7.654896,19.142812 8.8897052,17.460713 10.662229,17.1708 c 0.263561,-0.04311 1.81797,-0.07859 3.454243,-0.07884 l 2.975042,-4.45e-4 4.79e-4,-2.975042 c 2.4e-4,-1.636273 0.03472,-3.184241 0.0766,-3.439928 0.231899,-1.4159513 1.365481,-2.5433731 2.77818,-2.763081 1.80137,-0.2801557 3.515791,0.9946044 3.778265,2.809334 0.03965,0.274175 0.07282,1.819299 0.07371,3.433609 l 0.0016,2.935108 2.975042,4.79e-4 c 1.636273,2.4e-4 3.190682,0.03573 3.454243,0.07884 1.405987,0.229962 2.557973,1.399118 2.755501,2.796572 0.251832,1.781628 -0.982977,3.463727 -2.755501,3.75364 -0.263561,0.04311 -1.81797,0.07859 -3.454243,0.07884 l -2.975042,4.45e-4 -0.0016,2.935108 c -8.87e-4,1.61431 -0.03405,3.159434 -0.07371,3.433609 -0.17648,1.220174 -1.046143,2.278509 -2.203511,2.68156 -0.431255,0.150183 -1.10797,0.205108 -1.620734,0.131545 z"
       id="path26"
       inkscape:connector-curvature="0" />
    <path
       style="fill:#ababab;stroke-width:0.07986689"
       d="M 17.97005,40.771788 C 10.158496,39.99293 3.0922848,34.058018 0.80140119,26.351837 0.07086781,23.894435 -0.1668951,21.027545 0.11598165,18.087206 0.93400498,9.5843323 7.5588685,2.2524117 16.094769,0.40303837 c 2.399107,-0.5197864 6.303201,-0.5197864 8.702308,0 7.787962,1.68732623 14.004404,7.90376873 15.69173,15.69173063 0.519787,2.399107 0.519787,6.303201 0,8.702308 -1.687326,7.787962 -7.903768,14.004404 -15.69173,15.69173 -1.742864,0.377606 -4.663714,0.498676 -6.827027,0.282981 z m 4.831946,-4.404019 c 5.848507,-0.871596 10.734999,-4.879687 12.790055,-10.490898 0.644548,-1.759902 0.932447,-3.436739 0.932447,-5.430948 0,-1.497522 -0.126029,-2.558551 -0.464839,-3.913477 C 34.901262,11.899942 31.59863,7.8969352 27.263758,5.8712383 18.682268,1.8610861 8.5773658,6.0678318 5.2998545,15.014975 4.655311,16.774487 4.3673483,18.451592 4.3673483,20.445923 c 0,4.325934 1.649557,8.306527 4.710802,11.367773 3.6195257,3.619525 8.6945087,5.30359 13.7238457,4.554073 z m -2.980928,-3.468202 c -0.879157,-0.173012 -1.784412,-0.823194 -2.194052,-1.575837 -0.42816,-0.786673 -0.455635,-1.055931 -0.455635,-4.465303 v -3.137962 h -3.137962 c -2.561577,0 -3.224299,-0.02249 -3.607998,-0.122428 -1.3177846,-0.34324 -2.2123784,-1.316775 -2.4500914,-2.666296 -0.2202924,-1.25062 0.4770461,-2.697462 1.5927865,-3.304725 0.7866729,-0.42816 1.0559309,-0.455635 4.4653029,-0.455635 h 3.137962 v -3.137962 c 0,-3.409372 0.02747,-3.67863 0.455635,-4.4653029 0.607263,-1.1157404 2.054105,-1.8130789 3.304725,-1.5927865 1.349521,0.237713 2.323056,1.1323068 2.666296,2.4500914 0.09994,0.383699 0.122428,1.046421 0.122428,3.607998 v 3.137962 h 3.137962 c 3.409372,0 3.67863,0.02747 4.465303,0.455635 1.11574,0.607263 1.813079,2.054105 1.592787,3.304725 -0.237714,1.349521 -1.132307,2.323056 -2.450092,2.666296 -0.383699,0.09994 -1.046421,0.122428 -3.607998,0.122428 h -3.137962 v 3.137962 c 0,3.409372 -0.02747,3.67863 -0.455635,4.465303 -0.425006,0.780876 -1.310896,1.401464 -2.256616,1.580816 -0.484093,0.09181 -0.699928,0.0909 -1.187146,-0.005 z"
       id="path24"
       inkscape:connector-curvature="0" />
    <path
       style="fill:#8f8f8f;stroke-width:0.07986689"
       d="M 18.129783,40.768483 C 10.12683,39.931834 3.2183319,34.163298 0.8466005,26.337175 c -1.12529559,-3.713196 -1.12529559,-8.069308 0,-11.782504 C 2.8364623,7.9886222 7.9886222,2.8364623 14.554671,0.8466005 17.060694,0.08714238 19.86781,-0.16537955 22.653366,0.11805989 30.748457,0.94176182 37.657945,6.6771739 40.045246,14.554671 c 1.125295,3.713196 1.125295,8.069308 0,11.782504 C 37.87388,33.502142 31.85781,39.01326 24.591207,40.4941 c -1.859444,0.378931 -4.420916,0.487703 -6.461424,0.274383 z m 4.056392,-4.274656 c 3.634835,-0.399342 7.024898,-2.036652 9.647949,-4.659703 3.065756,-3.065756 4.747124,-7.107705 4.744255,-11.40502 -0.0029,-4.298892 -1.676932,-8.311078 -4.743724,-11.3691745 -3.099489,-3.0907011 -7.071323,-4.745807 -11.388732,-4.745807 -4.317409,0 -8.289243,1.6551059 -11.3887321,4.745807 C 5.1356677,12.970334 3.5022836,18.504635 4.6831617,23.880199 5.6340238,28.20869 8.37035,31.993563 12.23764,34.329517 c 1.788541,1.08033 4.251992,1.918604 6.337045,2.156399 0.906652,0.1034 2.706456,0.107343 3.61149,0.0079 z m -2.67581,-3.700039 c -0.842197,-0.274462 -1.56049,-0.904805 -1.964187,-1.723685 l -0.254997,-0.517251 -0.02331,-3.352142 c -0.01518,-2.183332 -0.05247,-3.387268 -0.106921,-3.452883 -0.0643,-0.07747 -0.861837,-0.106102 -3.452777,-0.123951 L 10.339001,23.600665 9.8209004,23.345506 C 9.1612958,23.020658 8.606506,22.465795 8.2817808,21.806185 8.0437264,21.322628 8.0266221,21.231444 8.0266221,20.445923 c 0,-0.785521 0.017104,-0.876705 0.2551587,-1.360262 0.3247236,-0.659608 0.8795142,-1.214472 1.5391164,-1.539321 l 0.5180968,-0.255159 3.352142,-0.02331 c 2.183332,-0.01518 3.387268,-0.05247 3.452883,-0.106921 0.07747,-0.0643 0.106102,-0.861837 0.123951,-3.452777 l 0.02321,-3.369169 0.255159,-0.5181006 C 17.871187,9.1612988 18.42605,8.606509 19.08566,8.2817838 c 0.483557,-0.2380544 0.574741,-0.2551587 1.360262,-0.2551587 0.78763,0 0.875813,0.016665 1.366562,0.25826 0.64036,0.3152482 1.272654,0.9578196 1.572868,1.5984343 l 0.215312,0.4594456 0.02321,3.367288 c 0.01785,2.589427 0.04648,3.386603 0.123951,3.450897 0.06561,0.05446 1.269551,0.09174 3.452883,0.106921 l 3.352142,0.02331 0.524396,0.25826 c 0.640158,0.315271 1.272544,0.95802 1.572664,1.598434 0.190996,0.407559 0.215312,0.554151 0.215312,1.298048 0,0.743897 -0.02432,0.890489 -0.215312,1.298048 -0.300122,0.640417 -0.932506,1.283163 -1.572668,1.598434 l -0.524399,0.25826 -3.369169,0.02321 c -2.59094,0.01785 -3.388482,0.04648 -3.452777,0.123951 -0.05445,0.06561 -0.09174,1.26898 -0.106921,3.450999 l -0.02331,3.350258 -0.215312,0.459446 c -0.298869,0.637746 -0.932766,1.283313 -1.566422,1.595261 -0.449305,0.221191 -0.614745,0.258049 -1.245082,0.277382 -0.458599,0.01407 -0.85116,-0.01819 -1.063484,-0.08738 z"
       id="path22"
       inkscape:connector-curvature="0" />
    <path
       style="fill:#6f6f6f;stroke-width:0.07986689"
       d="M 18.608653,40.814806 C 14.665988,40.428571 11.021919,38.975205 7.8269549,36.514735 6.271103,35.316559 4.2505141,33.064834 3.0828528,31.227953 2.5785845,30.434673 1.5968985,28.42438 1.2453003,27.465017 0.85212697,26.392214 0.4330736,24.752895 0.22684538,23.480865 c -0.25241846,-1.556935 -0.25241846,-4.512949 0,-6.069884 C 0.58367806,15.210012 1.1481279,13.430723 2.1144106,11.460898 3.1700802,9.3088522 4.2677539,7.7834342 6.025594,6.025594 7.7834342,4.2677539 9.3088522,3.1700802 11.460898,2.1144106 c 1.969825,-0.9662827 3.749114,-1.53073254 5.950083,-1.88756522 1.556935,-0.25241846 4.512949,-0.25241846 6.069884,0 2.200969,0.35683268 3.980258,0.92128252 5.950083,1.88756522 2.152046,1.0556696 3.677463,2.1533433 5.435304,3.9111834 1.75784,1.7578402 2.855514,3.2832582 3.911184,5.435304 0.701194,1.429428 1.053896,2.3663 1.431654,3.802869 0.503072,1.913118 0.630715,2.961871 0.630715,5.182156 0,2.220285 -0.127643,3.269038 -0.630715,5.182156 -0.377758,1.436569 -0.73046,2.373441 -1.431654,3.802869 -1.05567,2.152046 -2.153344,3.677463 -3.911184,5.435304 -1.757841,1.75784 -3.283258,2.855514 -5.435304,3.911184 -1.967912,0.965344 -3.782406,1.541299 -5.91015,1.875996 -1.173954,0.184664 -3.795314,0.270781 -4.912145,0.161374 z m 3.31456,-4.275645 c 0.950171,-0.05813 2.467095,-0.370796 3.532319,-0.728085 C 34.676514,32.71824 39.163479,22.449902 35.118663,13.697171 32.302165,7.6024413 26.03869,3.874488 19.361847,4.3188816 12.131355,4.8001246 6.0275899,10.155102 4.5928365,17.276082 2.8390057,25.98071 8.5499691,34.524599 17.313186,36.306365 c 1.016169,0.20661 2.624615,0.346885 3.452205,0.30107 0.241597,-0.01338 0.762617,-0.0441 1.157822,-0.06827 z m -2.236025,-3.746538 c -1.070562,-0.26527 -1.908698,-1.051621 -2.303737,-2.161398 -0.05345,-0.150168 -0.102409,-1.513691 -0.129117,-3.596284 l -0.04302,-3.354409 -3.354409,-0.04302 c -2.082593,-0.02671 -3.446116,-0.07566 -3.596284,-0.129117 -1.5684873,-0.558323 -2.487099,-2.055422 -2.2039873,-3.591926 0.2212137,-1.200567 1.0111244,-2.108403 2.2039873,-2.533018 0.150168,-0.05345 1.513691,-0.102409 3.596284,-0.129117 l 3.354409,-0.04302 0.04302,-3.354409 c 0.02671,-2.082593 0.07566,-3.446116 0.129117,-3.596284 0.558323,-1.5684873 2.055422,-2.487099 3.591926,-2.2039873 1.200603,0.2212201 2.113335,1.0156576 2.53217,2.2039873 0.05226,0.148259 0.102228,1.540162 0.129117,3.596284 l 0.04387,3.354409 3.354409,0.04302 c 2.082593,0.02671 3.446116,0.07566 3.596284,0.129117 1.568487,0.558323 2.487099,2.055422 2.203987,3.591926 -0.221213,1.200567 -1.011124,2.108403 -2.203987,2.533018 -0.150168,0.05345 -1.513691,0.102409 -3.596284,0.129117 l -3.354409,0.04302 -0.04387,3.354409 c -0.02689,2.056122 -0.07686,3.448025 -0.129117,3.596284 -0.400732,1.136969 -1.294586,1.948175 -2.406653,2.184132 -0.523826,0.111144 -0.897672,0.105132 -1.413706,-0.02273 z"
       id="path20"
       inkscape:connector-curvature="0" />
    <path
       style="fill:#505050;stroke-width:0.07986689"
       d="M 19.048252,40.846764 C 13.948606,40.370401 9.4869171,38.319368 6.0296978,34.862148 3.1320691,31.964519 1.1448397,28.222697 0.40941958,24.279534 0.06974178,22.458255 0.04037073,22.153154 0.04037073,20.445923 c 0,-1.707231 0.02937105,-2.012332 0.36904885,-3.833611 C 1.1448397,12.669149 3.1320691,8.9273265 6.0296978,6.0296978 8.9273265,3.1320691 12.669149,1.1448397 16.612312,0.40941958 c 1.821279,-0.3396778 2.12638,-0.36904885 3.833611,-0.36904885 1.707231,0 2.012332,0.02937105 3.833611,0.36904885 3.943163,0.73542012 7.684985,2.72264952 10.582614,5.62027822 2.897629,2.8976287 4.884858,6.6394512 5.620279,10.5826142 0.339677,1.821279 0.369048,2.12638 0.369048,3.833611 0,1.707231 -0.02937,2.012332 -0.369048,3.833611 -0.735421,3.943163 -2.72265,7.684985 -5.620279,10.582614 -2.898196,2.898197 -6.654747,4.892761 -10.582614,5.618907 -1.688914,0.31223 -1.98409,0.343992 -3.434277,0.36953 -0.812645,0.01431 -1.621297,0.01259 -1.797005,-0.0038 z m 2.926647,-4.272555 c 3.042758,-0.311568 5.849917,-1.419037 8.312247,-3.279317 0.848808,-0.64127 2.366476,-2.158938 3.007746,-3.007746 3.772593,-4.993534 4.410209,-11.480324 1.669956,-16.989309 C 33.058009,9.4643411 29.810774,6.5914495 25.755206,5.1498878 18.1377,2.4422264 9.5778519,5.9514425 5.9384883,13.273998 c -2.7522407,5.537626 -2.1212919,12.01013 1.6584655,17.013148 0.64127,0.848808 2.1589382,2.366476 3.0077462,3.007746 3.314007,2.503718 7.409412,3.684887 11.370199,3.279317 z M 19.995226,32.81987 c -1.337089,-0.178769 -2.438333,-1.288847 -2.66767,-2.689068 -0.04146,-0.25314 -0.07559,-1.816992 -0.07585,-3.475229 l -4.62e-4,-3.014975 -3.014975,-4.79e-4 C 12.578032,23.63988 11.01418,23.605739 10.76104,23.564279 10.066407,23.450507 9.4225108,23.125869 8.9605727,22.656523 7.1438182,20.810632 8.1776696,17.750663 10.76104,17.327544 c 0.25314,-0.04146 1.816992,-0.07559 3.475229,-0.07585 l 3.014975,-4.45e-4 0.0016,-2.975042 c 8.86e-4,-1.636273 0.03376,-3.197344 0.07307,-3.469045 0.158713,-1.0971126 0.838565,-2.0245117 1.82195,-2.4853597 C 19.555606,8.13072 19.701871,8.10649 20.447592,8.10649 c 0.786146,0 0.874159,0.016678 1.366123,0.2588709 0.947355,0.4663811 1.597306,1.3707906 1.751561,2.4373041 0.03965,0.274175 0.07282,1.837269 0.07371,3.473542 l 0.0016,2.975042 3.014975,4.79e-4 c 1.658237,2.39e-4 3.222089,0.03439 3.475229,0.07585 1.7432,0.285512 2.92104,1.840428 2.689054,3.549936 -0.184532,1.359824 -1.280096,2.456051 -2.684421,2.686045 -0.255687,0.04188 -1.821625,0.07634 -3.479862,0.0766 l -3.014975,4.45e-4 -0.0016,2.975042 c -8.86e-4,1.636273 -0.03405,3.199367 -0.07371,3.473542 -0.256016,1.770085 -1.818127,2.964921 -3.57006,2.730688 z"
       id="path18"
       inkscape:connector-curvature="0" />
    <path
       style="fill:#2e2e2e;stroke-width:0.07986689"
       d="M 19.048252,40.810177 C 16.473197,40.589948 13.789457,39.8504 11.540765,38.741367 9.3168014,37.644529 7.7978403,36.55833 6.065678,34.826168 4.3307974,33.091287 3.2427971,31.568995 2.1525672,29.351081 0.96664818,26.9385 0.29758544,24.420447 0.06759097,21.504159 -0.16990046,18.492812 0.64553644,14.592209 2.1504791,11.540765 3.2473163,9.3168014 4.3335156,7.7978403 6.065678,6.065678 7.7978403,4.3335156 9.3168014,3.2473163 11.540765,2.1504791 c 3.051444,-1.50494266 6.952047,-2.32037956 9.963394,-2.08288813 2.916288,0.22999447 5.434341,0.89905721 7.846922,2.08497623 2.217914,1.0902299 3.740206,2.1782302 5.475087,3.9131108 1.732162,1.7321623 2.818361,3.2511234 3.915199,5.475087 1.504943,3.051444 2.32038,6.952047 2.082888,9.963394 -0.229995,2.916288 -0.899057,5.434341 -2.084977,7.846922 -1.090229,2.217914 -2.178229,3.740206 -3.91311,5.475087 -1.734881,1.734881 -3.257173,2.822881 -5.475087,3.91311 -3.199151,1.572563 -7.058715,2.348346 -10.302829,2.070899 z m 3.623694,-4.275564 c 3.530059,-0.516869 6.727764,-2.118824 9.235804,-4.626863 2.508039,-2.50804 4.109994,-5.705745 4.626863,-9.235804 0.162267,-1.108237 0.163185,-3.333561 0.0018,-4.452046 C 35.764469,12.868483 32.455076,8.3042714 27.594009,5.8867648 26.036355,5.1121119 24.410053,4.606132 22.671946,4.3553979 21.561179,4.195162 19.330667,4.195162 18.2199,4.3553979 13.473807,5.0400552 9.1834293,7.8260643 6.6897616,11.842636 5.4791084,13.792646 4.6785715,15.979637 4.3553979,18.2199 c -0.1613493,1.118485 -0.1604318,3.343809 0.00184,4.452046 0.5168685,3.530059 2.1188234,6.727764 4.6268626,9.235804 2.4778215,2.477821 5.6673245,4.088912 9.1456875,4.619697 1.052417,0.160596 3.468255,0.164406 4.542163,0.0072 z m -2.965118,-3.790935 c -0.891316,-0.225219 -1.675143,-0.879947 -2.082251,-1.739296 l -0.253529,-0.535165 -0.02408,-3.351184 c -0.01541,-2.144984 -0.05368,-3.386843 -0.106303,-3.450255 -0.06247,-0.07527 -0.891349,-0.104825 -3.450128,-0.123025 L 10.422629,23.520798 9.8874639,23.267269 C 9.2065979,22.944716 8.6825713,22.420689 8.3600184,21.739823 8.1305705,21.255492 8.106489,21.132589 8.106489,20.445923 c 0,-0.686666 0.024081,-0.809569 0.2535294,-1.2939 0.3225529,-0.680866 0.8465795,-1.204893 1.5274455,-1.527446 l 0.5351651,-0.253529 3.351184,-0.02408 c 2.144984,-0.01541 3.386843,-0.05368 3.450255,-0.106303 0.07527,-0.06247 0.104825,-0.891349 0.123025,-3.450128 l 0.02395,-3.367906 0.253529,-0.5351651 c 0.322553,-0.680866 0.84658,-1.2048926 1.527446,-1.5274455 0.484331,-0.2294479 0.607234,-0.2535294 1.2939,-0.2535294 0.686666,0 0.809569,0.024081 1.2939,0.2535294 0.680866,0.3225529 1.204893,0.8465795 1.527446,1.5274455 l 0.253529,0.5351651 0.02396,3.367906 c 0.0182,2.558779 0.04776,3.38766 0.123025,3.450128 0.06341,0.05263 1.305271,0.09089 3.450255,0.106303 l 3.351184,0.02408 0.535165,0.253529 c 0.680866,0.322553 1.204893,0.84658 1.527446,1.527446 0.229448,0.484331 0.253529,0.607234 0.253529,1.2939 0,0.686666 -0.02408,0.809569 -0.253529,1.2939 -0.322553,0.680866 -0.84658,1.204893 -1.527446,1.527446 l -0.535165,0.253529 -3.367906,0.02396 c -2.558779,0.0182 -3.38766,0.04776 -3.450128,0.123025 -0.05263,0.06341 -0.09089,1.305271 -0.106303,3.450255 l -0.02408,3.351184 -0.253529,0.535165 c -0.5086,1.073584 -1.480228,1.730335 -2.641706,1.785606 -0.340399,0.0162 -0.753829,-0.0046 -0.918735,-0.04631 z"
       id="path16"
       inkscape:connector-curvature="0" />
    <path
       style="fill:#000000;stroke-width:0.07986689"
       d="m 19.36772,40.821015 c -0.439268,-0.02693 -0.726789,-0.06874 -0.638935,-0.0929 0.08785,-0.02416 -0.145757,-0.07027 -0.519135,-0.102458 C 16.41764,40.471167 13.92229,39.78711 12.050166,38.93714 7.5306339,36.885211 3.7355864,33.012514 1.7953932,28.472545 1.010222,26.635278 0.40506974,24.340396 0.26924611,22.68503 0.23548478,22.273559 0.19201012,22.070398 0.15815644,22.165895 0.12756506,22.25219 0.0861374,21.900499 0.06609499,21.384359 0.02167377,20.240407 0.08159863,18.50999 0.15815644,18.725951 c 0.0338537,0.0955 0.0773283,-0.107664 0.11108967,-0.519135 C 0.41403574,16.442176 1.1025938,13.92701 1.9547068,12.050166 3.9440796,7.6684166 7.6684166,3.9440796 12.050166,1.9547068 c 1.876844,-0.852113 4.39201,-1.54067106 6.15665,-1.68546069 0.411471,-0.0337613 0.614632,-0.077236 0.519135,-0.11108967 -0.215961,-0.07655781 1.514456,-0.13648267 2.658408,-0.09206145 0.51614,0.02004241 0.867831,0.06147007 0.781536,0.09206145 -0.0955,0.0338537 0.107664,0.0773283 0.519135,0.11108967 1.655366,0.13582363 3.950248,0.74097589 5.787515,1.52614709 3.86552,1.651962 7.293697,4.6777942 9.477293,8.3649998 1.415805,2.390719 2.468819,5.560846 2.672762,8.046423 0.03376,0.411471 0.07724,0.614632 0.11109,0.519135 0.07656,-0.215961 0.136483,1.514456 0.09206,2.658408 -0.02004,0.51614 -0.06147,0.867831 -0.09206,0.781536 -0.03385,-0.0955 -0.07733,0.107664 -0.11109,0.519135 -0.135824,1.655366 -0.740976,3.950248 -1.526147,5.787515 -1.999187,4.678013 -5.945895,8.624721 -10.623908,10.623908 -1.837267,0.785171 -4.132149,1.390323 -5.787515,1.526147 -0.445131,0.03652 -0.622445,0.07642 -0.519135,0.11681 0.09586,0.03748 -0.07933,0.06353 -0.450353,0.06696 -0.333989,0.0031 -0.81918,0.01866 -1.078203,0.03462 -0.259023,0.01595 -0.830351,0.007 -1.269619,-0.01997 z m 2.795341,-4.163877 C 27.819269,36.025105 32.725283,32.527965 35.176145,27.381059 39.284409,18.753544 35.017629,8.4398398 25.965688,5.1174486 18.142408,2.2460207 9.3598273,5.8859559 5.7139064,13.510787 1.8583339,21.574069 5.3559467,31.29296 13.510787,35.176145 c 1.563473,0.744497 3.413951,1.279135 5.098198,1.472964 0.852797,0.09814 2.71007,0.102339 3.554076,0.008 z M 19.48752,32.607891 c -0.553632,-0.192433 -1.163472,-0.632629 -1.486977,-1.07333 -0.552559,-0.752736 -0.545322,-0.697828 -0.589562,-4.473106 -0.02196,-1.874269 -0.06984,-3.437664 -0.10638,-3.47421 -0.03655,-0.03655 -1.599941,-0.08603 -3.47421,-0.109964 -3.727441,-0.0476 -3.667771,-0.04016 -4.4073922,-0.549278 -1.6925662,-1.165073 -1.6925662,-3.799087 0,-4.96416 0.7396212,-0.509115 0.6799512,-0.501679 4.4073922,-0.549278 1.874269,-0.02393 3.437664,-0.07342 3.47421,-0.109964 0.03654,-0.03655 0.086,-1.599941 0.1099,-3.47421 0.03024,-2.371671 0.07307,-3.492752 0.140861,-3.687296 0.165008,-0.4735288 0.682574,-1.1343154 1.129332,-1.4418389 1.395236,-0.9604062 3.309535,-0.6348036 4.243309,0.7217427 0.509115,0.7396212 0.501679,0.6799512 0.549278,4.4073922 0.02393,1.874269 0.07342,3.437664 0.109964,3.47421 0.03655,0.03654 1.599941,0.08603 3.47421,0.109964 3.727441,0.0476 3.667771,0.04016 4.407392,0.549278 1.692566,1.165073 1.692566,3.799087 0,4.96416 -0.739621,0.509115 -0.679951,0.501679 -4.407392,0.549278 -1.874269,0.02393 -3.437664,0.07342 -3.47421,0.109964 -0.03655,0.03655 -0.08603,1.599941 -0.109964,3.47421 -0.03234,2.53224 -0.07058,3.48111 -0.148866,3.69325 -0.30264,0.820126 -1.119238,1.594119 -1.962223,1.859847 -0.515492,0.162494 -1.401044,0.159354 -1.878672,-0.0067 z"
       id="path14"
       inkscape:connector-curvature="0" />
  </g>
</svg>
